solid OpenSCAD_Model
  facet normal 0 0 -1
    outer loop
      vertex -10.477 4.36899 0
      vertex 9.924 39.368 0
      vertex 9.924 -35 0
    endloop
  endfacet
  facet normal -0 0 -1
    outer loop
      vertex 9.924 39.368 0
      vertex -10.171 17.492 0
      vertex -8.18701 39.368 0
    endloop
  endfacet
  facet normal 0 0 -1
    outer loop
      vertex 9.924 39.368 0
      vertex -10.2163 16.5692 0
      vertex -10.171 17.492 0
    endloop
  endfacet
  facet normal 0 0 -1
    outer loop
      vertex 9.924 39.368 0
      vertex -10.2579 15.632 0
      vertex -10.2163 16.5692 0
    endloop
  endfacet
  facet normal 0 0 -1
    outer loop
      vertex 9.924 39.368 0
      vertex -10.2959 14.6804 0
      vertex -10.2579 15.632 0
    endloop
  endfacet
  facet normal 0 0 -1
    outer loop
      vertex 9.924 39.368 0
      vertex -10.3303 13.7142 0
      vertex -10.2959 14.6804 0
    endloop
  endfacet
  facet normal 0 0 -1
    outer loop
      vertex 9.924 39.368 0
      vertex -10.3611 12.7337 0
      vertex -10.3303 13.7142 0
    endloop
  endfacet
  facet normal 0 0 -1
    outer loop
      vertex 9.924 39.368 0
      vertex -10.3883 11.7387 0
      vertex -10.3611 12.7337 0
    endloop
  endfacet
  facet normal 0 0 -1
    outer loop
      vertex 9.924 39.368 0
      vertex -10.4118 10.7292 0
      vertex -10.3883 11.7387 0
    endloop
  endfacet
  facet normal 0 0 -1
    outer loop
      vertex 9.924 39.368 0
      vertex -10.4317 9.70529 0
      vertex -10.4118 10.7292 0
    endloop
  endfacet
  facet normal 0 0 -1
    outer loop
      vertex 9.924 39.368 0
      vertex -10.448 8.66693 0
      vertex -10.4317 9.70529 0
    endloop
  endfacet
  facet normal 0 0 -1
    outer loop
      vertex 9.924 39.368 0
      vertex -10.4607 7.61412 0
      vertex -10.448 8.66693 0
    endloop
  endfacet
  facet normal 0 0 -1
    outer loop
      vertex 9.924 39.368 0
      vertex -10.4698 6.54686 0
      vertex -10.4607 7.61412 0
    endloop
  endfacet
  facet normal 0 0 -1
    outer loop
      vertex 9.924 39.368 0
      vertex -10.4752 5.46515 0
      vertex -10.4698 6.54686 0
    endloop
  endfacet
  facet normal 0 0 -1
    outer loop
      vertex -10.477 4.36899 0
      vertex 9.924 -35 0
      vertex -10.477 -35 0
    endloop
  endfacet
  facet normal 0 0 -1
    outer loop
      vertex 9.924 39.368 0
      vertex -10.477 4.36899 0
      vertex -10.4752 5.46515 0
    endloop
  endfacet
  facet normal 0 0 -1
    outer loop
      vertex -33.726 18.562 0
      vertex -10.171 17.492 0
      vertex -10.466 17.1386 0
    endloop
  endfacet
  facet normal 0 0 -1
    outer loop
      vertex -33.726 18.562 0
      vertex -10.466 17.1386 0
      vertex -10.7718 16.7829 0
    endloop
  endfacet
  facet normal 0 0 -1
    outer loop
      vertex -33.726 18.562 0
      vertex -10.7718 16.7829 0
      vertex -11.0884 16.4247 0
    endloop
  endfacet
  facet normal 0 0 -1
    outer loop
      vertex -33.726 18.562 0
      vertex -11.0884 16.4247 0
      vertex -11.4159 16.0642 0
    endloop
  endfacet
  facet normal 0 0 -1
    outer loop
      vertex -33.726 18.562 0
      vertex -11.4159 16.0642 0
      vertex -11.7542 15.7012 0
    endloop
  endfacet
  facet normal 0 0 -1
    outer loop
      vertex -33.726 18.562 0
      vertex -11.7542 15.7012 0
      vertex -12.1034 15.3358 0
    endloop
  endfacet
  facet normal 0 0 -1
    outer loop
      vertex -33.726 18.562 0
      vertex -12.1034 15.3358 0
      vertex -12.4634 14.9681 0
    endloop
  endfacet
  facet normal 0 0 -1
    outer loop
      vertex -33.726 18.562 0
      vertex -12.4634 14.9681 0
      vertex -12.8342 14.5979 0
    endloop
  endfacet
  facet normal 0 0 -1
    outer loop
      vertex -33.726 18.562 0
      vertex -12.8342 14.5979 0
      vertex -13.2159 14.2253 0
    endloop
  endfacet
  facet normal 0 0 -1
    outer loop
      vertex -33.726 18.562 0
      vertex -13.2159 14.2253 0
      vertex -13.6084 13.8503 0
    endloop
  endfacet
  facet normal 0 0 -1
    outer loop
      vertex -33.726 18.562 0
      vertex -13.6084 13.8503 0
      vertex -14.0118 13.473 0
    endloop
  endfacet
  facet normal 0 0 -1
    outer loop
      vertex -33.726 18.562 0
      vertex -14.0118 13.473 0
      vertex -14.426 13.0932 0
    endloop
  endfacet
  facet normal 0 0 -1
    outer loop
      vertex -33.726 18.562 0
      vertex -14.426 13.0932 0
      vertex -14.851 12.711 0
    endloop
  endfacet
  facet normal 0 0 -1
    outer loop
      vertex -33.726 18.562 0
      vertex -14.851 12.711 0
      vertex -23.297 5.74199 0
    endloop
  endfacet
  facet normal 0 0 -1
    outer loop
      vertex -10.171 17.492 0
      vertex -33.726 18.562 0
      vertex -8.18701 39.368 0
    endloop
  endfacet
  facet normal -0 0 1
    outer loop
      vertex -33.726 18.562 8
      vertex -10.171 17.492 8
      vertex -8.18701 39.368 8
    endloop
  endfacet
  facet normal 0 0 1
    outer loop
      vertex -10.171 17.492 8
      vertex -33.726 18.562 8
      vertex -10.466 17.1386 8
    endloop
  endfacet
  facet normal 0 0 1
    outer loop
      vertex -10.466 17.1386 8
      vertex -33.726 18.562 8
      vertex -10.7718 16.7829 8
    endloop
  endfacet
  facet normal 0 0 1
    outer loop
      vertex -10.7718 16.7829 8
      vertex -33.726 18.562 8
      vertex -11.0884 16.4247 8
    endloop
  endfacet
  facet normal 0 0 1
    outer loop
      vertex -11.0884 16.4247 8
      vertex -33.726 18.562 8
      vertex -11.4159 16.0642 8
    endloop
  endfacet
  facet normal 0 0 1
    outer loop
      vertex -11.4159 16.0642 8
      vertex -33.726 18.562 8
      vertex -11.7542 15.7012 8
    endloop
  endfacet
  facet normal 0 0 1
    outer loop
      vertex -11.7542 15.7012 8
      vertex -33.726 18.562 8
      vertex -12.1034 15.3358 8
    endloop
  endfacet
  facet normal 0 0 1
    outer loop
      vertex -12.1034 15.3358 8
      vertex -33.726 18.562 8
      vertex -12.4634 14.9681 8
    endloop
  endfacet
  facet normal 0 0 1
    outer loop
      vertex -12.4634 14.9681 8
      vertex -33.726 18.562 8
      vertex -12.8342 14.5979 8
    endloop
  endfacet
  facet normal 0 0 1
    outer loop
      vertex -12.8342 14.5979 8
      vertex -33.726 18.562 8
      vertex -13.2159 14.2253 8
    endloop
  endfacet
  facet normal 0 0 1
    outer loop
      vertex -13.2159 14.2253 8
      vertex -33.726 18.562 8
      vertex -13.6084 13.8503 8
    endloop
  endfacet
  facet normal 0 0 1
    outer loop
      vertex -13.6084 13.8503 8
      vertex -33.726 18.562 8
      vertex -14.0118 13.473 8
    endloop
  endfacet
  facet normal 0 0 1
    outer loop
      vertex -14.0118 13.473 8
      vertex -33.726 18.562 8
      vertex -14.426 13.0932 8
    endloop
  endfacet
  facet normal 0 0 1
    outer loop
      vertex -14.426 13.0932 8
      vertex -33.726 18.562 8
      vertex -14.851 12.711 8
    endloop
  endfacet
  facet normal 0 0 1
    outer loop
      vertex -14.851 12.711 8
      vertex -33.726 18.562 8
      vertex -23.297 5.74199 8
    endloop
  endfacet
  facet normal -0 0 1
    outer loop
      vertex 2.71557 28.027 8
      vertex 9.924 -35 8
      vertex 3.19235 28.9627 8
    endloop
  endfacet
  facet normal 0 0 1
    outer loop
      vertex 9.924 -35 8
      vertex 3.19235 -26.9627 8
      vertex 3.35663 -28 8
    endloop
  endfacet
  facet normal -0 0 1
    outer loop
      vertex 2.71557 -26.027 8
      vertex 9.924 -35 8
      vertex 2.71557 28.027 8
    endloop
  endfacet
  facet normal 0 0 1
    outer loop
      vertex 9.924 -35 8
      vertex 2.71557 -26.027 8
      vertex 3.19235 -26.9627 8
    endloop
  endfacet
  facet normal -0 0 1
    outer loop
      vertex 1.97298 27.2844 8
      vertex 2.71557 -26.027 8
      vertex 2.71557 28.027 8
    endloop
  endfacet
  facet normal 0 0 1
    outer loop
      vertex 1.97298 27.2844 8
      vertex 1.97298 -25.2844 8
      vertex 2.71557 -26.027 8
    endloop
  endfacet
  facet normal 0 0 1
    outer loop
      vertex -10.4607 7.61412 8
      vertex 1.97298 27.2844 8
      vertex 1.03726 26.8077 8
    endloop
  endfacet
  facet normal 0 0 1
    outer loop
      vertex 1.97298 27.2844 8
      vertex -10.477 4.36899 8
      vertex 1.97298 -25.2844 8
    endloop
  endfacet
  facet normal 0 0 1
    outer loop
      vertex -10.2959 14.6804 8
      vertex 1.03726 26.8077 8
      vertex 0 26.6434 8
    endloop
  endfacet
  facet normal 0 0 1
    outer loop
      vertex 1.97298 -25.2844 8
      vertex -10.477 4.36899 8
      vertex 1.03726 -24.8077 8
    endloop
  endfacet
  facet normal 0 0 1
    outer loop
      vertex -10.171 17.492 8
      vertex 0 26.6434 8
      vertex -1.03726 26.8077 8
    endloop
  endfacet
  facet normal 0 0 1
    outer loop
      vertex 1.03726 -24.8077 8
      vertex -10.477 4.36899 8
      vertex 0 -24.6434 8
    endloop
  endfacet
  facet normal 0 0 1
    outer loop
      vertex -10.171 17.492 8
      vertex -1.03726 26.8077 8
      vertex -1.97298 27.2844 8
    endloop
  endfacet
  facet normal 0 0 1
    outer loop
      vertex 0 -24.6434 8
      vertex -10.477 4.36899 8
      vertex -1.03726 -24.8077 8
    endloop
  endfacet
  facet normal 0 0 1
    outer loop
      vertex -10.171 17.492 8
      vertex -1.97298 27.2844 8
      vertex -2.71557 28.027 8
    endloop
  endfacet
  facet normal 0 0 1
    outer loop
      vertex -1.03726 -24.8077 8
      vertex -10.477 4.36899 8
      vertex -1.97298 -25.2844 8
    endloop
  endfacet
  facet normal 0 0 1
    outer loop
      vertex -10.171 17.492 8
      vertex -2.71557 28.027 8
      vertex -3.19235 28.9627 8
    endloop
  endfacet
  facet normal 0 0 1
    outer loop
      vertex -1.97298 -25.2844 8
      vertex -10.477 4.36899 8
      vertex -2.71557 -26.027 8
    endloop
  endfacet
  facet normal 0 0 1
    outer loop
      vertex -10.171 17.492 8
      vertex -3.19235 28.9627 8
      vertex -3.35663 30 8
    endloop
  endfacet
  facet normal 0 0 1
    outer loop
      vertex -10.477 -35 8
      vertex -2.71557 -26.027 8
      vertex -10.477 4.36899 8
    endloop
  endfacet
  facet normal 0 0 1
    outer loop
      vertex 3.19235 28.9627 8
      vertex 9.924 39.368 8
      vertex 3.35663 30 8
    endloop
  endfacet
  facet normal 0 0 1
    outer loop
      vertex 9.924 39.368 8
      vertex 3.19235 31.0373 8
      vertex 3.35663 30 8
    endloop
  endfacet
  facet normal 0 0 1
    outer loop
      vertex 9.924 39.368 8
      vertex 2.71557 31.973 8
      vertex 3.19235 31.0373 8
    endloop
  endfacet
  facet normal 0 0 1
    outer loop
      vertex 9.924 39.368 8
      vertex 1.97298 32.7156 8
      vertex 2.71557 31.973 8
    endloop
  endfacet
  facet normal 0 0 1
    outer loop
      vertex 9.924 39.368 8
      vertex 1.03726 33.1923 8
      vertex 1.97298 32.7156 8
    endloop
  endfacet
  facet normal 0 0 1
    outer loop
      vertex 9.924 39.368 8
      vertex 0 33.3566 8
      vertex 1.03726 33.1923 8
    endloop
  endfacet
  facet normal -0 0 1
    outer loop
      vertex -8.18701 39.368 8
      vertex 0 33.3566 8
      vertex 9.924 39.368 8
    endloop
  endfacet
  facet normal 0 0 1
    outer loop
      vertex 0 33.3566 8
      vertex -8.18701 39.368 8
      vertex -1.03726 33.1923 8
    endloop
  endfacet
  facet normal 0 0 1
    outer loop
      vertex -10.171 17.492 8
      vertex -3.35663 30 8
      vertex -8.18701 39.368 8
    endloop
  endfacet
  facet normal 0 0 1
    outer loop
      vertex -3.19235 31.0373 8
      vertex -8.18701 39.368 8
      vertex -3.35663 30 8
    endloop
  endfacet
  facet normal 0 0 1
    outer loop
      vertex -2.71557 31.973 8
      vertex -8.18701 39.368 8
      vertex -3.19235 31.0373 8
    endloop
  endfacet
  facet normal 0 0 1
    outer loop
      vertex -1.97298 32.7156 8
      vertex -8.18701 39.368 8
      vertex -2.71557 31.973 8
    endloop
  endfacet
  facet normal 0 0 1
    outer loop
      vertex -1.03726 33.1923 8
      vertex -8.18701 39.368 8
      vertex -1.97298 32.7156 8
    endloop
  endfacet
  facet normal 0 0 1
    outer loop
      vertex 9.924 39.368 8
      vertex 3.19235 28.9627 8
      vertex 9.924 -35 8
    endloop
  endfacet
  facet normal -0 0 1
    outer loop
      vertex 3.19235 -29.0373 8
      vertex 9.924 -35 8
      vertex 3.35663 -28 8
    endloop
  endfacet
  facet normal -0 0 1
    outer loop
      vertex 2.71557 -29.973 8
      vertex 9.924 -35 8
      vertex 3.19235 -29.0373 8
    endloop
  endfacet
  facet normal -0 0 1
    outer loop
      vertex 1.97298 -30.7156 8
      vertex 9.924 -35 8
      vertex 2.71557 -29.973 8
    endloop
  endfacet
  facet normal -0 0 1
    outer loop
      vertex 1.03726 -31.1923 8
      vertex 9.924 -35 8
      vertex 1.97298 -30.7156 8
    endloop
  endfacet
  facet normal -0 0 1
    outer loop
      vertex 0 -31.3566 8
      vertex 9.924 -35 8
      vertex 1.03726 -31.1923 8
    endloop
  endfacet
  facet normal 0 0 1
    outer loop
      vertex -10.477 -35 8
      vertex 0 -31.3566 8
      vertex -1.03726 -31.1923 8
    endloop
  endfacet
  facet normal 0 0 1
    outer loop
      vertex 0 26.6434 8
      vertex -10.171 17.492 8
      vertex -10.2163 16.5692 8
    endloop
  endfacet
  facet normal 0 0 1
    outer loop
      vertex 0 26.6434 8
      vertex -10.2163 16.5692 8
      vertex -10.2579 15.632 8
    endloop
  endfacet
  facet normal 0 0 1
    outer loop
      vertex 0 26.6434 8
      vertex -10.2579 15.632 8
      vertex -10.2959 14.6804 8
    endloop
  endfacet
  facet normal 0 0 1
    outer loop
      vertex 1.03726 26.8077 8
      vertex -10.2959 14.6804 8
      vertex -10.3303 13.7142 8
    endloop
  endfacet
  facet normal 0 0 1
    outer loop
      vertex 1.03726 26.8077 8
      vertex -10.3303 13.7142 8
      vertex -10.3611 12.7337 8
    endloop
  endfacet
  facet normal 0 0 1
    outer loop
      vertex 1.03726 26.8077 8
      vertex -10.3611 12.7337 8
      vertex -10.3883 11.7387 8
    endloop
  endfacet
  facet normal 0 0 1
    outer loop
      vertex 1.03726 26.8077 8
      vertex -10.3883 11.7387 8
      vertex -10.4118 10.7292 8
    endloop
  endfacet
  facet normal 0 0 1
    outer loop
      vertex 1.03726 26.8077 8
      vertex -10.4118 10.7292 8
      vertex -10.4317 9.70529 8
    endloop
  endfacet
  facet normal 0 0 1
    outer loop
      vertex 1.03726 26.8077 8
      vertex -10.4317 9.70529 8
      vertex -10.448 8.66693 8
    endloop
  endfacet
  facet normal 0 0 1
    outer loop
      vertex 1.03726 26.8077 8
      vertex -10.448 8.66693 8
      vertex -10.4607 7.61412 8
    endloop
  endfacet
  facet normal 0 0 1
    outer loop
      vertex 1.97298 27.2844 8
      vertex -10.4607 7.61412 8
      vertex -10.4698 6.54686 8
    endloop
  endfacet
  facet normal 0 0 1
    outer loop
      vertex 1.97298 27.2844 8
      vertex -10.4698 6.54686 8
      vertex -10.4752 5.46515 8
    endloop
  endfacet
  facet normal 0 0 1
    outer loop
      vertex 1.97298 27.2844 8
      vertex -10.4752 5.46515 8
      vertex -10.477 4.36899 8
    endloop
  endfacet
  facet normal 0 0 1
    outer loop
      vertex -2.71557 -26.027 8
      vertex -10.477 -35 8
      vertex -3.19235 -26.9627 8
    endloop
  endfacet
  facet normal 0 0 1
    outer loop
      vertex -3.19235 -26.9627 8
      vertex -10.477 -35 8
      vertex -3.35663 -28 8
    endloop
  endfacet
  facet normal 0 0 1
    outer loop
      vertex 0 -31.3566 8
      vertex -10.477 -35 8
      vertex 9.924 -35 8
    endloop
  endfacet
  facet normal 0 0 1
    outer loop
      vertex -1.97298 -30.7156 8
      vertex -10.477 -35 8
      vertex -1.03726 -31.1923 8
    endloop
  endfacet
  facet normal 0 0 1
    outer loop
      vertex -2.71557 -29.973 8
      vertex -10.477 -35 8
      vertex -1.97298 -30.7156 8
    endloop
  endfacet
  facet normal 0 0 1
    outer loop
      vertex -3.19235 -29.0373 8
      vertex -10.477 -35 8
      vertex -2.71557 -29.973 8
    endloop
  endfacet
  facet normal 0 0 1
    outer loop
      vertex -3.35663 -28 8
      vertex -10.477 -35 8
      vertex -3.19235 -29.0373 8
    endloop
  endfacet
  facet normal 0 1 -0
    outer loop
      vertex 9.924 39.368 0
      vertex -8.18701 39.368 8
      vertex 9.924 39.368 8
    endloop
  endfacet
  facet normal 0 1 0
    outer loop
      vertex -8.18701 39.368 8
      vertex 9.924 39.368 0
      vertex -8.18701 39.368 0
    endloop
  endfacet
  facet normal -0.631608 0.775288 0
    outer loop
      vertex -8.18701 39.368 0
      vertex -33.726 18.562 8
      vertex -8.18701 39.368 8
    endloop
  endfacet
  facet normal -0.631608 0.775288 0
    outer loop
      vertex -33.726 18.562 8
      vertex -8.18701 39.368 0
      vertex -33.726 18.562 0
    endloop
  endfacet
  facet normal -0.775736 -0.631057 0
    outer loop
      vertex -23.297 5.74199 0
      vertex -33.726 18.562 8
      vertex -33.726 18.562 0
    endloop
  endfacet
  facet normal -0.775736 -0.631057 0
    outer loop
      vertex -33.726 18.562 8
      vertex -23.297 5.74199 0
      vertex -23.297 5.74199 8
    endloop
  endfacet
  facet normal 0.636441 -0.771326 0
    outer loop
      vertex -23.297 5.74199 0
      vertex -14.851 12.711 8
      vertex -23.297 5.74199 8
    endloop
  endfacet
  facet normal 0.636441 -0.771326 0
    outer loop
      vertex -14.851 12.711 8
      vertex -23.297 5.74199 0
      vertex -14.851 12.711 0
    endloop
  endfacet
  facet normal 0.668605 -0.743618 0
    outer loop
      vertex -14.851 12.711 0
      vertex -14.426 13.0932 8
      vertex -14.851 12.711 8
    endloop
  endfacet
  facet normal 0.668605 -0.743618 0
    outer loop
      vertex -14.426 13.0932 8
      vertex -14.851 12.711 0
      vertex -14.426 13.0932 0
    endloop
  endfacet
  facet normal 0.675829 -0.737058 0
    outer loop
      vertex -14.426 13.0932 0
      vertex -14.0118 13.473 8
      vertex -14.426 13.0932 8
    endloop
  endfacet
  facet normal 0.675829 -0.737058 0
    outer loop
      vertex -14.0118 13.473 8
      vertex -14.426 13.0932 0
      vertex -14.0118 13.473 0
    endloop
  endfacet
  facet normal 0.683194 -0.730237 0
    outer loop
      vertex -14.0118 13.473 0
      vertex -13.6084 13.8503 8
      vertex -14.0118 13.473 8
    endloop
  endfacet
  facet normal 0.683194 -0.730237 0
    outer loop
      vertex -13.6084 13.8503 8
      vertex -14.0118 13.473 0
      vertex -13.6084 13.8503 0
    endloop
  endfacet
  facet normal 0.690759 -0.723085 0
    outer loop
      vertex -13.6084 13.8503 0
      vertex -13.2159 14.2253 8
      vertex -13.6084 13.8503 8
    endloop
  endfacet
  facet normal 0.690759 -0.723085 0
    outer loop
      vertex -13.2159 14.2253 8
      vertex -13.6084 13.8503 0
      vertex -13.2159 14.2253 0
    endloop
  endfacet
  facet normal 0.698516 -0.715595 0
    outer loop
      vertex -13.2159 14.2253 0
      vertex -12.8342 14.5979 8
      vertex -13.2159 14.2253 8
    endloop
  endfacet
  facet normal 0.698516 -0.715595 0
    outer loop
      vertex -12.8342 14.5979 8
      vertex -13.2159 14.2253 0
      vertex -12.8342 14.5979 0
    endloop
  endfacet
  facet normal 0.70648 -0.707733 0
    outer loop
      vertex -12.8342 14.5979 0
      vertex -12.4634 14.9681 8
      vertex -12.8342 14.5979 8
    endloop
  endfacet
  facet normal 0.70648 -0.707733 0
    outer loop
      vertex -12.4634 14.9681 8
      vertex -12.8342 14.5979 0
      vertex -12.4634 14.9681 0
    endloop
  endfacet
  facet normal 0.714612 -0.699521 0
    outer loop
      vertex -12.4634 14.9681 8
      vertex -12.1034 15.3358 0
      vertex -12.1034 15.3358 8
    endloop
  endfacet
  facet normal 0.714612 -0.699521 0
    outer loop
      vertex -12.1034 15.3358 0
      vertex -12.4634 14.9681 8
      vertex -12.4634 14.9681 0
    endloop
  endfacet
  facet normal 0.722943 -0.690908 0
    outer loop
      vertex -12.1034 15.3358 8
      vertex -11.7542 15.7012 0
      vertex -11.7542 15.7012 8
    endloop
  endfacet
  facet normal 0.722943 -0.690908 0
    outer loop
      vertex -11.7542 15.7012 0
      vertex -12.1034 15.3358 8
      vertex -12.1034 15.3358 0
    endloop
  endfacet
  facet normal 0.731517 -0.681823 0
    outer loop
      vertex -11.7542 15.7012 8
      vertex -11.4159 16.0642 0
      vertex -11.4159 16.0642 8
    endloop
  endfacet
  facet normal 0.731517 -0.681823 0
    outer loop
      vertex -11.4159 16.0642 0
      vertex -11.7542 15.7012 8
      vertex -11.7542 15.7012 0
    endloop
  endfacet
  facet normal 0.74025 -0.672331 0
    outer loop
      vertex -11.4159 16.0642 8
      vertex -11.0884 16.4247 0
      vertex -11.0884 16.4247 8
    endloop
  endfacet
  facet normal 0.74025 -0.672331 0
    outer loop
      vertex -11.0884 16.4247 0
      vertex -11.4159 16.0642 8
      vertex -11.4159 16.0642 0
    endloop
  endfacet
  facet normal 0.749196 -0.662349 0
    outer loop
      vertex -11.0884 16.4247 8
      vertex -10.7718 16.7829 0
      vertex -10.7718 16.7829 8
    endloop
  endfacet
  facet normal 0.749196 -0.662349 0
    outer loop
      vertex -10.7718 16.7829 0
      vertex -11.0884 16.4247 8
      vertex -11.0884 16.4247 0
    endloop
  endfacet
  facet normal 0.75836 -0.651835 0
    outer loop
      vertex -10.7718 16.7829 8
      vertex -10.466 17.1386 0
      vertex -10.466 17.1386 8
    endloop
  endfacet
  facet normal 0.75836 -0.651835 0
    outer loop
      vertex -10.466 17.1386 0
      vertex -10.7718 16.7829 8
      vertex -10.7718 16.7829 0
    endloop
  endfacet
  facet normal 0.767675 -0.64084 0
    outer loop
      vertex -10.466 17.1386 8
      vertex -10.171 17.492 0
      vertex -10.171 17.492 8
    endloop
  endfacet
  facet normal 0.767675 -0.64084 0
    outer loop
      vertex -10.171 17.492 0
      vertex -10.466 17.1386 8
      vertex -10.466 17.1386 0
    endloop
  endfacet
  facet normal -0.998799 0.0490035 0
    outer loop
      vertex -10.2163 16.5692 0
      vertex -10.171 17.492 8
      vertex -10.171 17.492 0
    endloop
  endfacet
  facet normal -0.998799 0.0490035 0
    outer loop
      vertex -10.171 17.492 8
      vertex -10.2163 16.5692 0
      vertex -10.2163 16.5692 8
    endloop
  endfacet
  facet normal -0.999014 0.0443873 0
    outer loop
      vertex -10.2579 15.632 0
      vertex -10.2163 16.5692 8
      vertex -10.2163 16.5692 0
    endloop
  endfacet
  facet normal -0.999014 0.0443873 0
    outer loop
      vertex -10.2163 16.5692 8
      vertex -10.2579 15.632 0
      vertex -10.2579 15.632 8
    endloop
  endfacet
  facet normal -0.999203 0.0399245 0
    outer loop
      vertex -10.2959 14.6804 0
      vertex -10.2579 15.632 8
      vertex -10.2579 15.632 0
    endloop
  endfacet
  facet normal -0.999203 0.0399245 0
    outer loop
      vertex -10.2579 15.632 8
      vertex -10.2959 14.6804 0
      vertex -10.2959 14.6804 8
    endloop
  endfacet
  facet normal -0.999367 0.0355767 0
    outer loop
      vertex -10.3303 13.7142 0
      vertex -10.2959 14.6804 8
      vertex -10.2959 14.6804 0
    endloop
  endfacet
  facet normal -0.999367 0.0355767 0
    outer loop
      vertex -10.2959 14.6804 8
      vertex -10.3303 13.7142 0
      vertex -10.3303 13.7142 8
    endloop
  endfacet
  facet normal -0.999507 0.0313872 0
    outer loop
      vertex -10.3611 12.7337 0
      vertex -10.3303 13.7142 8
      vertex -10.3303 13.7142 0
    endloop
  endfacet
  facet normal -0.999507 0.0313872 0
    outer loop
      vertex -10.3303 13.7142 8
      vertex -10.3611 12.7337 0
      vertex -10.3611 12.7337 8
    endloop
  endfacet
  facet normal -0.999628 0.0272867 0
    outer loop
      vertex -10.3883 11.7387 0
      vertex -10.3611 12.7337 8
      vertex -10.3611 12.7337 0
    endloop
  endfacet
  facet normal -0.999628 0.0272867 0
    outer loop
      vertex -10.3611 12.7337 8
      vertex -10.3883 11.7387 0
      vertex -10.3883 11.7387 8
    endloop
  endfacet
  facet normal -0.999728 0.0233022 0
    outer loop
      vertex -10.4118 10.7292 0
      vertex -10.3883 11.7387 8
      vertex -10.3883 11.7387 0
    endloop
  endfacet
  facet normal -0.999728 0.0233022 0
    outer loop
      vertex -10.3883 11.7387 8
      vertex -10.4118 10.7292 0
      vertex -10.4118 10.7292 8
    endloop
  endfacet
  facet normal -0.999811 0.0194589 0
    outer loop
      vertex -10.4317 9.70529 0
      vertex -10.4118 10.7292 8
      vertex -10.4118 10.7292 0
    endloop
  endfacet
  facet normal -0.999811 0.0194589 0
    outer loop
      vertex -10.4118 10.7292 8
      vertex -10.4317 9.70529 0
      vertex -10.4317 9.70529 8
    endloop
  endfacet
  facet normal -0.999877 0.0156924 0
    outer loop
      vertex -10.448 8.66693 0
      vertex -10.4317 9.70529 8
      vertex -10.4317 9.70529 0
    endloop
  endfacet
  facet normal -0.999877 0.0156924 0
    outer loop
      vertex -10.4317 9.70529 8
      vertex -10.448 8.66693 0
      vertex -10.448 8.66693 8
    endloop
  endfacet
  facet normal -0.999928 0.0120286 0
    outer loop
      vertex -10.4607 7.61412 0
      vertex -10.448 8.66693 8
      vertex -10.448 8.66693 0
    endloop
  endfacet
  facet normal -0.999928 0.0120286 0
    outer loop
      vertex -10.448 8.66693 8
      vertex -10.4607 7.61412 0
      vertex -10.4607 7.61412 8
    endloop
  endfacet
  facet normal -0.999964 0.0084922 0
    outer loop
      vertex -10.4698 6.54686 0
      vertex -10.4607 7.61412 8
      vertex -10.4607 7.61412 0
    endloop
  endfacet
  facet normal -0.999964 0.0084922 0
    outer loop
      vertex -10.4607 7.61412 8
      vertex -10.4698 6.54686 0
      vertex -10.4698 6.54686 8
    endloop
  endfacet
  facet normal -0.999987 0.00502173 0
    outer loop
      vertex -10.4752 5.46515 0
      vertex -10.4698 6.54686 8
      vertex -10.4698 6.54686 0
    endloop
  endfacet
  facet normal -0.999987 0.00502173 0
    outer loop
      vertex -10.4698 6.54686 8
      vertex -10.4752 5.46515 0
      vertex -10.4752 5.46515 8
    endloop
  endfacet
  facet normal -0.999999 0.00164258 0
    outer loop
      vertex -10.477 4.36899 0
      vertex -10.4752 5.46515 8
      vertex -10.4752 5.46515 0
    endloop
  endfacet
  facet normal -0.999999 0.00164258 0
    outer loop
      vertex -10.4752 5.46515 8
      vertex -10.477 4.36899 0
      vertex -10.477 4.36899 8
    endloop
  endfacet
  facet normal -1 0 0
    outer loop
      vertex -10.477 -35 0
      vertex -10.477 4.36899 8
      vertex -10.477 4.36899 0
    endloop
  endfacet
  facet normal -1 -0 0
    outer loop
      vertex -10.477 4.36899 8
      vertex -10.477 -35 0
      vertex -10.477 -35 8
    endloop
  endfacet
  facet normal 0 -1 0
    outer loop
      vertex -10.477 -35 0
      vertex 9.924 -35 8
      vertex -10.477 -35 8
    endloop
  endfacet
  facet normal 0 -1 -0
    outer loop
      vertex 9.924 -35 8
      vertex -10.477 -35 0
      vertex 9.924 -35 0
    endloop
  endfacet
  facet normal 1 -0 0
    outer loop
      vertex 9.924 -35 8
      vertex 9.924 39.368 0
      vertex 9.924 39.368 8
    endloop
  endfacet
  facet normal 1 0 0
    outer loop
      vertex 9.924 39.368 0
      vertex 9.924 -35 8
      vertex 9.924 -35 0
    endloop
  endfacet
  facet normal -0.824672 -0.130615 0.550323
    outer loop
      vertex 3.35663 -28 8
      vertex 1.7119 -27.4438 5.66735
      vertex 1.8 -28 5.66734
    endloop
  endfacet
  facet normal -0.824672 -0.130615 0.550323
    outer loop
      vertex 1.7119 -27.4438 5.66735
      vertex 3.35663 -28 8
      vertex 3.19235 -26.9627 8
    endloop
  endfacet
  facet normal 0.824672 -0.130615 0.550323
    outer loop
      vertex -3.35663 -28 8
      vertex -1.7119 -27.4438 5.66735
      vertex -3.19235 -26.9627 8
    endloop
  endfacet
  facet normal 0.824672 -0.130615 0.550323
    outer loop
      vertex -1.7119 -27.4438 5.66735
      vertex -3.35663 -28 8
      vertex -1.8 -28 5.66734
    endloop
  endfacet
  facet normal -0.824672 0.130615 0.550323
    outer loop
      vertex 1.7119 -28.5562 5.66734
      vertex 3.35663 -28 8
      vertex 1.8 -28 5.66734
    endloop
  endfacet
  facet normal -0.824672 0.130615 0.550323
    outer loop
      vertex 3.35663 -28 8
      vertex 1.7119 -28.5562 5.66734
      vertex 3.19235 -29.0373 8
    endloop
  endfacet
  facet normal 0.130616 -0.824672 0.550323
    outer loop
      vertex -1.03726 -24.8077 8
      vertex -0.556231 -26.2881 5.66735
      vertex 0 -24.6434 8
    endloop
  endfacet
  facet normal 0.130614 -0.824672 0.550323
    outer loop
      vertex 0 -24.6434 8
      vertex -0.556231 -26.2881 5.66735
      vertex 0 -26.2 5.66734
    endloop
  endfacet
  facet normal 0.130616 0.824673 0.550322
    outer loop
      vertex 0 -31.3566 8
      vertex -0.556231 -29.7119 5.66734
      vertex -1.03726 -31.1923 8
    endloop
  endfacet
  facet normal 0.130614 0.824673 0.550323
    outer loop
      vertex -0.556231 -29.7119 5.66734
      vertex 0 -31.3566 8
      vertex 0 -29.8 5.66734
    endloop
  endfacet
  facet normal 0.5904 -0.5904 0.550323
    outer loop
      vertex -2.71557 -26.027 8
      vertex -1.05801 -26.5438 5.66734
      vertex -1.97298 -25.2844 8
    endloop
  endfacet
  facet normal 0.5904 -0.590401 0.550323
    outer loop
      vertex -1.05801 -26.5438 5.66734
      vertex -2.71557 -26.027 8
      vertex -1.45623 -26.942 5.66734
    endloop
  endfacet
  facet normal -0.5904 -0.5904 0.550323
    outer loop
      vertex 1.05801 -26.5438 5.66734
      vertex 2.71557 -26.027 8
      vertex 1.97298 -25.2844 8
    endloop
  endfacet
  facet normal -0.5904 -0.590401 0.550323
    outer loop
      vertex 2.71557 -26.027 8
      vertex 1.05801 -26.5438 5.66734
      vertex 1.45623 -26.942 5.66734
    endloop
  endfacet
  facet normal -0.37906 0.743948 0.550323
    outer loop
      vertex 1.05801 -29.4562 5.66734
      vertex 1.03726 -31.1923 8
      vertex 1.97298 -30.7156 8
    endloop
  endfacet
  facet normal -0.379062 0.743947 0.550322
    outer loop
      vertex 1.03726 -31.1923 8
      vertex 1.05801 -29.4562 5.66734
      vertex 0.556231 -29.7119 5.66734
    endloop
  endfacet
  facet normal 0.743948 0.37906 0.550323
    outer loop
      vertex -3.19235 -29.0373 8
      vertex -1.45623 -29.058 5.66734
      vertex -1.7119 -28.5562 5.66734
    endloop
  endfacet
  facet normal 0.743948 0.37906 0.550323
    outer loop
      vertex -2.71557 -29.973 8
      vertex -1.45623 -29.058 5.66734
      vertex -3.19235 -29.0373 8
    endloop
  endfacet
  facet normal 0.743948 -0.379061 0.550323
    outer loop
      vertex -3.19235 -26.9627 8
      vertex -1.45623 -26.942 5.66734
      vertex -2.71557 -26.027 8
    endloop
  endfacet
  facet normal 0.743948 -0.379061 0.550323
    outer loop
      vertex -3.19235 -26.9627 8
      vertex -1.7119 -27.4438 5.66735
      vertex -1.45623 -26.942 5.66734
    endloop
  endfacet
  facet normal 0.37906 -0.743948 0.550323
    outer loop
      vertex -1.05801 -26.5438 5.66734
      vertex -1.03726 -24.8077 8
      vertex -1.97298 -25.2844 8
    endloop
  endfacet
  facet normal 0.379061 -0.743947 0.550322
    outer loop
      vertex -1.03726 -24.8077 8
      vertex -1.05801 -26.5438 5.66734
      vertex -0.556231 -26.2881 5.66735
    endloop
  endfacet
  facet normal -0.379061 -0.743947 0.550322
    outer loop
      vertex 1.05801 -26.5438 5.66734
      vertex 1.03726 -24.8077 8
      vertex 0.556231 -26.2881 5.66735
    endloop
  endfacet
  facet normal -0.37906 -0.743948 0.550323
    outer loop
      vertex 1.03726 -24.8077 8
      vertex 1.05801 -26.5438 5.66734
      vertex 1.97298 -25.2844 8
    endloop
  endfacet
  facet normal -0.743948 -0.379061 0.550323
    outer loop
      vertex 1.45623 -26.942 5.66734
      vertex 3.19235 -26.9627 8
      vertex 2.71557 -26.027 8
    endloop
  endfacet
  facet normal -0.743948 -0.379061 0.550323
    outer loop
      vertex 1.7119 -27.4438 5.66735
      vertex 3.19235 -26.9627 8
      vertex 1.45623 -26.942 5.66734
    endloop
  endfacet
  facet normal -0.130616 0.824673 0.550322
    outer loop
      vertex 0.556231 -29.7119 5.66734
      vertex 0 -31.3566 8
      vertex 1.03726 -31.1923 8
    endloop
  endfacet
  facet normal -0.130614 0.824673 0.550323
    outer loop
      vertex 0 -31.3566 8
      vertex 0.556231 -29.7119 5.66734
      vertex 0 -29.8 5.66734
    endloop
  endfacet
  facet normal 0.824672 0.130615 0.550323
    outer loop
      vertex -3.35663 -28 8
      vertex -1.7119 -28.5562 5.66734
      vertex -1.8 -28 5.66734
    endloop
  endfacet
  facet normal 0.824672 0.130615 0.550323
    outer loop
      vertex -1.7119 -28.5562 5.66734
      vertex -3.35663 -28 8
      vertex -3.19235 -29.0373 8
    endloop
  endfacet
  facet normal -0.130616 -0.824672 0.550323
    outer loop
      vertex 0 -24.6434 8
      vertex 0.556231 -26.2881 5.66735
      vertex 1.03726 -24.8077 8
    endloop
  endfacet
  facet normal -0.130614 -0.824672 0.550323
    outer loop
      vertex 0.556231 -26.2881 5.66735
      vertex 0 -24.6434 8
      vertex 0 -26.2 5.66734
    endloop
  endfacet
  facet normal -0.5904 0.590401 0.550323
    outer loop
      vertex 1.05801 -29.4562 5.66734
      vertex 2.71557 -29.973 8
      vertex 1.45623 -29.058 5.66734
    endloop
  endfacet
  facet normal -0.5904 0.5904 0.550323
    outer loop
      vertex 2.71557 -29.973 8
      vertex 1.05801 -29.4562 5.66734
      vertex 1.97298 -30.7156 8
    endloop
  endfacet
  facet normal -0.743948 0.37906 0.550323
    outer loop
      vertex 1.45623 -29.058 5.66734
      vertex 3.19235 -29.0373 8
      vertex 1.7119 -28.5562 5.66734
    endloop
  endfacet
  facet normal -0.743948 0.37906 0.550323
    outer loop
      vertex 3.19235 -29.0373 8
      vertex 1.45623 -29.058 5.66734
      vertex 2.71557 -29.973 8
    endloop
  endfacet
  facet normal 0.5904 0.590401 0.550323
    outer loop
      vertex -2.71557 -29.973 8
      vertex -1.05801 -29.4562 5.66734
      vertex -1.45623 -29.058 5.66734
    endloop
  endfacet
  facet normal 0.5904 0.5904 0.550323
    outer loop
      vertex -1.05801 -29.4562 5.66734
      vertex -2.71557 -29.973 8
      vertex -1.97298 -30.7156 8
    endloop
  endfacet
  facet normal 0.379062 0.743947 0.550322
    outer loop
      vertex -1.05801 -29.4562 5.66734
      vertex -1.03726 -31.1923 8
      vertex -0.556231 -29.7119 5.66734
    endloop
  endfacet
  facet normal 0.37906 0.743948 0.550323
    outer loop
      vertex -1.03726 -31.1923 8
      vertex -1.05801 -29.4562 5.66734
      vertex -1.97298 -30.7156 8
    endloop
  endfacet
  facet normal -0.987689 -0.156433 -3.24446e-08
    outer loop
      vertex 1.8 -28 0.0999994
      vertex 1.7119 -27.4438 5.66735
      vertex 1.7119 -27.4438 0.0999994
    endloop
  endfacet
  facet normal -0.987689 -0.156433 0
    outer loop
      vertex 1.7119 -27.4438 5.66735
      vertex 1.8 -28 0.0999994
      vertex 1.8 -28 5.66734
    endloop
  endfacet
  facet normal 0.987689 -0.156433 -3.24447e-08
    outer loop
      vertex -1.8 -28 5.66734
      vertex -1.7119 -27.4438 0.0999994
      vertex -1.7119 -27.4438 5.66735
    endloop
  endfacet
  facet normal 0.987689 -0.156433 0
    outer loop
      vertex -1.7119 -27.4438 0.0999994
      vertex -1.8 -28 5.66734
      vertex -1.8 -28 0.0999994
    endloop
  endfacet
  facet normal 0.156432 -0.987689 0
    outer loop
      vertex -0.556231 -26.2881 0.0999994
      vertex 0 -26.2 5.66734
      vertex -0.556231 -26.2881 5.66735
    endloop
  endfacet
  facet normal 0.156432 -0.987689 0
    outer loop
      vertex 0 -26.2 5.66734
      vertex -0.556231 -26.2881 0.0999994
      vertex 0 -26.2 0.0999994
    endloop
  endfacet
  facet normal -0.156432 0.987689 0
    outer loop
      vertex 0.556231 -29.7119 0.0999994
      vertex 0 -29.8 5.66734
      vertex 0.556231 -29.7119 5.66734
    endloop
  endfacet
  facet normal -0.156432 0.987689 0
    outer loop
      vertex 0 -29.8 5.66734
      vertex 0.556231 -29.7119 0.0999994
      vertex 0 -29.8 0.0999994
    endloop
  endfacet
  facet normal -0.891006 0.453991 0
    outer loop
      vertex 1.45623 -29.058 0.0999994
      vertex 1.7119 -28.5562 5.66734
      vertex 1.7119 -28.5562 0.0999994
    endloop
  endfacet
  facet normal -0.891006 0.453991 0
    outer loop
      vertex 1.7119 -28.5562 5.66734
      vertex 1.45623 -29.058 0.0999994
      vertex 1.45623 -29.058 5.66734
    endloop
  endfacet
  facet normal -0.453993 -0.891005 9.721e-09
    outer loop
      vertex 0.556231 -26.2881 5.66735
      vertex 0.556231 -26.2881 0.0999994
      vertex 1.05801 -26.5438 5.66734
    endloop
  endfacet
  facet normal -0.453993 -0.891005 -0
    outer loop
      vertex 1.05801 -26.5438 5.66734
      vertex 0.556231 -26.2881 0.0999994
      vertex 1.05801 -26.5438 0.0999994
    endloop
  endfacet
  facet normal -0.891006 -0.453992 0
    outer loop
      vertex 1.7119 -27.4438 0.0999994
      vertex 1.45623 -26.942 5.66734
      vertex 1.45623 -26.942 0.0999994
    endloop
  endfacet
  facet normal -0.891006 -0.453992 0
    outer loop
      vertex 1.45623 -26.942 5.66734
      vertex 1.7119 -27.4438 0.0999994
      vertex 1.7119 -27.4438 5.66735
    endloop
  endfacet
  facet normal -0.156432 -0.987689 0
    outer loop
      vertex 0 -26.2 0.0999994
      vertex 0.556231 -26.2881 5.66735
      vertex 0 -26.2 5.66734
    endloop
  endfacet
  facet normal -0.156432 -0.987689 -0
    outer loop
      vertex 0.556231 -26.2881 5.66735
      vertex 0 -26.2 0.0999994
      vertex 0.556231 -26.2881 0.0999994
    endloop
  endfacet
  facet normal 0.707106 -0.707107 0
    outer loop
      vertex -1.45623 -26.942 5.66734
      vertex -1.45623 -26.942 0.0999994
      vertex -1.05801 -26.5438 5.66734
    endloop
  endfacet
  facet normal 0.707106 -0.707108 4.54222e-08
    outer loop
      vertex -1.05801 -26.5438 0.0999994
      vertex -1.05801 -26.5438 5.66734
      vertex -1.45623 -26.942 0.0999994
    endloop
  endfacet
  facet normal 0.891006 -0.453992 0
    outer loop
      vertex -1.7119 -27.4438 5.66735
      vertex -1.45623 -26.942 0.0999994
      vertex -1.45623 -26.942 5.66734
    endloop
  endfacet
  facet normal 0.891006 -0.453992 0
    outer loop
      vertex -1.45623 -26.942 0.0999994
      vertex -1.7119 -27.4438 5.66735
      vertex -1.7119 -27.4438 0.0999994
    endloop
  endfacet
  facet normal 0.453993 -0.891005 0
    outer loop
      vertex -1.05801 -26.5438 0.0999994
      vertex -0.556231 -26.2881 5.66735
      vertex -1.05801 -26.5438 5.66734
    endloop
  endfacet
  facet normal 0.453993 -0.891005 9.721e-09
    outer loop
      vertex -0.556231 -26.2881 0.0999994
      vertex -0.556231 -26.2881 5.66735
      vertex -1.05801 -26.5438 0.0999994
    endloop
  endfacet
  facet normal -0.987689 0.156433 0
    outer loop
      vertex 1.7119 -28.5562 0.0999994
      vertex 1.8 -28 5.66734
      vertex 1.8 -28 0.0999994
    endloop
  endfacet
  facet normal -0.987689 0.156433 0
    outer loop
      vertex 1.8 -28 5.66734
      vertex 1.7119 -28.5562 0.0999994
      vertex 1.7119 -28.5562 5.66734
    endloop
  endfacet
  facet normal 0 0 1
    outer loop
      vertex 1.7119 -27.4438 0.0999994
      vertex 1.7119 -28.5562 0.0999994
      vertex 1.8 -28 0.0999994
    endloop
  endfacet
  facet normal 0 0 1
    outer loop
      vertex 1.45623 -26.942 0.0999994
      vertex 1.7119 -28.5562 0.0999994
      vertex 1.7119 -27.4438 0.0999994
    endloop
  endfacet
  facet normal 0 0 1
    outer loop
      vertex 1.45623 -26.942 0.0999994
      vertex 1.45623 -29.058 0.0999994
      vertex 1.7119 -28.5562 0.0999994
    endloop
  endfacet
  facet normal 0 0 1
    outer loop
      vertex 1.05801 -26.5438 0.0999994
      vertex 1.45623 -29.058 0.0999994
      vertex 1.45623 -26.942 0.0999994
    endloop
  endfacet
  facet normal 0 0 1
    outer loop
      vertex 1.05801 -26.5438 0.0999994
      vertex 1.05801 -29.4562 0.0999994
      vertex 1.45623 -29.058 0.0999994
    endloop
  endfacet
  facet normal 0 0 1
    outer loop
      vertex 0.556231 -26.2881 0.0999994
      vertex 1.05801 -29.4562 0.0999994
      vertex 1.05801 -26.5438 0.0999994
    endloop
  endfacet
  facet normal 0 0 1
    outer loop
      vertex 0.556231 -26.2881 0.0999994
      vertex 0.556231 -29.7119 0.0999994
      vertex 1.05801 -29.4562 0.0999994
    endloop
  endfacet
  facet normal 0 0 1
    outer loop
      vertex 0 -26.2 0.0999994
      vertex 0.556231 -29.7119 0.0999994
      vertex 0.556231 -26.2881 0.0999994
    endloop
  endfacet
  facet normal 0 0 1
    outer loop
      vertex 0 -26.2 0.0999994
      vertex 0 -29.8 0.0999994
      vertex 0.556231 -29.7119 0.0999994
    endloop
  endfacet
  facet normal -0 0 1
    outer loop
      vertex -0.556231 -26.2881 0.0999994
      vertex 0 -29.8 0.0999994
      vertex 0 -26.2 0.0999994
    endloop
  endfacet
  facet normal 0 0 1
    outer loop
      vertex -0.556231 -26.2881 0.0999994
      vertex -0.556231 -29.7119 0.0999994
      vertex 0 -29.8 0.0999994
    endloop
  endfacet
  facet normal -0 0 1
    outer loop
      vertex -1.05801 -26.5438 0.0999994
      vertex -0.556231 -29.7119 0.0999994
      vertex -0.556231 -26.2881 0.0999994
    endloop
  endfacet
  facet normal 0 0 1
    outer loop
      vertex -1.05801 -26.5438 0.0999994
      vertex -1.05801 -29.4562 0.0999994
      vertex -0.556231 -29.7119 0.0999994
    endloop
  endfacet
  facet normal -0 0 1
    outer loop
      vertex -1.45623 -26.942 0.0999994
      vertex -1.05801 -29.4562 0.0999994
      vertex -1.05801 -26.5438 0.0999994
    endloop
  endfacet
  facet normal 0 0 1
    outer loop
      vertex -1.45623 -26.942 0.0999994
      vertex -1.45623 -29.058 0.0999994
      vertex -1.05801 -29.4562 0.0999994
    endloop
  endfacet
  facet normal -0 0 1
    outer loop
      vertex -1.7119 -27.4438 0.0999994
      vertex -1.45623 -29.058 0.0999994
      vertex -1.45623 -26.942 0.0999994
    endloop
  endfacet
  facet normal 0 0 1
    outer loop
      vertex -1.7119 -27.4438 0.0999994
      vertex -1.7119 -28.5562 0.0999994
      vertex -1.45623 -29.058 0.0999994
    endloop
  endfacet
  facet normal 0 -0 1
    outer loop
      vertex -1.7119 -28.5562 0.0999994
      vertex -1.7119 -27.4438 0.0999994
      vertex -1.8 -28 0.0999994
    endloop
  endfacet
  facet normal -0.707106 -0.707107 4.54222e-08
    outer loop
      vertex 1.05801 -26.5438 0.0999994
      vertex 1.45623 -26.942 5.66734
      vertex 1.05801 -26.5438 5.66734
    endloop
  endfacet
  facet normal -0.707106 -0.707108 -0
    outer loop
      vertex 1.45623 -26.942 5.66734
      vertex 1.05801 -26.5438 0.0999994
      vertex 1.45623 -26.942 0.0999994
    endloop
  endfacet
  facet normal -0.453993 0.891005 0
    outer loop
      vertex 1.05801 -29.4562 0.0999994
      vertex 0.556231 -29.7119 5.66734
      vertex 1.05801 -29.4562 5.66734
    endloop
  endfacet
  facet normal -0.453993 0.891005 0
    outer loop
      vertex 0.556231 -29.7119 5.66734
      vertex 1.05801 -29.4562 0.0999994
      vertex 0.556231 -29.7119 0.0999994
    endloop
  endfacet
  facet normal 0.987689 0.156433 0
    outer loop
      vertex -1.7119 -28.5562 5.66734
      vertex -1.8 -28 0.0999994
      vertex -1.8 -28 5.66734
    endloop
  endfacet
  facet normal 0.987689 0.156433 0
    outer loop
      vertex -1.8 -28 0.0999994
      vertex -1.7119 -28.5562 5.66734
      vertex -1.7119 -28.5562 0.0999994
    endloop
  endfacet
  facet normal -0.707106 0.707107 -3.02815e-08
    outer loop
      vertex 1.45623 -29.058 5.66734
      vertex 1.45623 -29.058 0.0999994
      vertex 1.05801 -29.4562 5.66734
    endloop
  endfacet
  facet normal -0.707106 0.707108 3.02814e-08
    outer loop
      vertex 1.05801 -29.4562 0.0999994
      vertex 1.05801 -29.4562 5.66734
      vertex 1.45623 -29.058 0.0999994
    endloop
  endfacet
  facet normal 0.891006 0.453991 0
    outer loop
      vertex -1.45623 -29.058 5.66734
      vertex -1.7119 -28.5562 0.0999994
      vertex -1.7119 -28.5562 5.66734
    endloop
  endfacet
  facet normal 0.891006 0.453991 0
    outer loop
      vertex -1.7119 -28.5562 0.0999994
      vertex -1.45623 -29.058 5.66734
      vertex -1.45623 -29.058 0.0999994
    endloop
  endfacet
  facet normal 0.156432 0.987689 -0
    outer loop
      vertex 0 -29.8 0.0999994
      vertex -0.556231 -29.7119 5.66734
      vertex 0 -29.8 5.66734
    endloop
  endfacet
  facet normal 0.156432 0.987689 0
    outer loop
      vertex -0.556231 -29.7119 5.66734
      vertex 0 -29.8 0.0999994
      vertex -0.556231 -29.7119 0.0999994
    endloop
  endfacet
  facet normal 0.707106 0.707107 3.02815e-08
    outer loop
      vertex -1.05801 -29.4562 5.66734
      vertex -1.05801 -29.4562 0.0999994
      vertex -1.45623 -29.058 5.66734
    endloop
  endfacet
  facet normal 0.707106 0.707108 -3.02814e-08
    outer loop
      vertex -1.45623 -29.058 0.0999994
      vertex -1.45623 -29.058 5.66734
      vertex -1.05801 -29.4562 0.0999994
    endloop
  endfacet
  facet normal 0.453993 0.891005 -0
    outer loop
      vertex -0.556231 -29.7119 0.0999994
      vertex -1.05801 -29.4562 5.66734
      vertex -0.556231 -29.7119 5.66734
    endloop
  endfacet
  facet normal 0.453993 0.891005 0
    outer loop
      vertex -1.05801 -29.4562 5.66734
      vertex -0.556231 -29.7119 0.0999994
      vertex -1.05801 -29.4562 0.0999994
    endloop
  endfacet
  facet normal -0.824672 -0.130615 0.550323
    outer loop
      vertex 3.35663 30 8
      vertex 1.7119 30.5562 5.66734
      vertex 1.8 30 5.66734
    endloop
  endfacet
  facet normal -0.824672 -0.130615 0.550323
    outer loop
      vertex 1.7119 30.5562 5.66734
      vertex 3.35663 30 8
      vertex 3.19235 31.0373 8
    endloop
  endfacet
  facet normal 0.824672 0.130615 0.550323
    outer loop
      vertex -3.35663 30 8
      vertex -1.7119 29.4438 5.66735
      vertex -1.8 30 5.66734
    endloop
  endfacet
  facet normal 0.824672 0.130615 0.550323
    outer loop
      vertex -1.7119 29.4438 5.66735
      vertex -3.35663 30 8
      vertex -3.19235 28.9627 8
    endloop
  endfacet
  facet normal -0.824672 0.130615 0.550323
    outer loop
      vertex 1.7119 29.4438 5.66735
      vertex 3.35663 30 8
      vertex 1.8 30 5.66734
    endloop
  endfacet
  facet normal -0.824672 0.130615 0.550323
    outer loop
      vertex 3.35663 30 8
      vertex 1.7119 29.4438 5.66735
      vertex 3.19235 28.9627 8
    endloop
  endfacet
  facet normal 0.130614 -0.824673 0.550322
    outer loop
      vertex -0.556231 31.7119 5.66734
      vertex 0 33.3566 8
      vertex -1.03726 33.1923 8
    endloop
  endfacet
  facet normal 0.130614 -0.824673 0.550322
    outer loop
      vertex 0 33.3566 8
      vertex -0.556231 31.7119 5.66734
      vertex 0 31.8 5.66734
    endloop
  endfacet
  facet normal -0.130616 0.824672 0.550323
    outer loop
      vertex 1.03726 26.8077 8
      vertex 0.556231 28.2881 5.66735
      vertex 0 26.6434 8
    endloop
  endfacet
  facet normal -0.130614 0.824672 0.550323
    outer loop
      vertex 0 26.6434 8
      vertex 0.556231 28.2881 5.66735
      vertex 0 28.2 5.66734
    endloop
  endfacet
  facet normal 0.743948 -0.37906 0.550323
    outer loop
      vertex -3.19235 31.0373 8
      vertex -1.45623 31.058 5.66734
      vertex -2.71557 31.973 8
    endloop
  endfacet
  facet normal 0.743948 -0.37906 0.550323
    outer loop
      vertex -1.45623 31.058 5.66734
      vertex -3.19235 31.0373 8
      vertex -1.7119 30.5562 5.66734
    endloop
  endfacet
  facet normal -0.5904 -0.590401 0.550322
    outer loop
      vertex 1.45623 31.058 5.66734
      vertex 1.97298 32.7156 8
      vertex 1.05801 31.4562 5.66734
    endloop
  endfacet
  facet normal -0.5904 -0.590401 0.550323
    outer loop
      vertex 1.97298 32.7156 8
      vertex 1.45623 31.058 5.66734
      vertex 2.71557 31.973 8
    endloop
  endfacet
  facet normal -0.5904 0.590401 0.550323
    outer loop
      vertex 1.05801 28.5438 5.66734
      vertex 2.71557 28.027 8
      vertex 1.45623 28.942 5.66734
    endloop
  endfacet
  facet normal -0.5904 0.5904 0.550323
    outer loop
      vertex 2.71557 28.027 8
      vertex 1.05801 28.5438 5.66734
      vertex 1.97298 27.2844 8
    endloop
  endfacet
  facet normal 0.5904 0.590401 0.550323
    outer loop
      vertex -2.71557 28.027 8
      vertex -1.05801 28.5438 5.66734
      vertex -1.45623 28.942 5.66734
    endloop
  endfacet
  facet normal 0.5904 0.5904 0.550323
    outer loop
      vertex -1.05801 28.5438 5.66734
      vertex -2.71557 28.027 8
      vertex -1.97298 27.2844 8
    endloop
  endfacet
  facet normal 0.824672 -0.130615 0.550323
    outer loop
      vertex -3.35663 30 8
      vertex -1.7119 30.5562 5.66734
      vertex -3.19235 31.0373 8
    endloop
  endfacet
  facet normal 0.824672 -0.130615 0.550323
    outer loop
      vertex -1.7119 30.5562 5.66734
      vertex -3.35663 30 8
      vertex -1.8 30 5.66734
    endloop
  endfacet
  facet normal 0.379061 -0.743947 0.550322
    outer loop
      vertex -1.05801 31.4562 5.66734
      vertex -1.03726 33.1923 8
      vertex -1.97298 32.7156 8
    endloop
  endfacet
  facet normal 0.379062 -0.743947 0.550322
    outer loop
      vertex -1.03726 33.1923 8
      vertex -1.05801 31.4562 5.66734
      vertex -0.556231 31.7119 5.66734
    endloop
  endfacet
  facet normal -0.379062 -0.743947 0.550322
    outer loop
      vertex 1.05801 31.4562 5.66734
      vertex 1.03726 33.1923 8
      vertex 0.556231 31.7119 5.66734
    endloop
  endfacet
  facet normal -0.379061 -0.743947 0.550322
    outer loop
      vertex 1.03726 33.1923 8
      vertex 1.05801 31.4562 5.66734
      vertex 1.97298 32.7156 8
    endloop
  endfacet
  facet normal -0.743948 -0.37906 0.550323
    outer loop
      vertex 1.45623 31.058 5.66734
      vertex 3.19235 31.0373 8
      vertex 2.71557 31.973 8
    endloop
  endfacet
  facet normal -0.743948 -0.37906 0.550323
    outer loop
      vertex 3.19235 31.0373 8
      vertex 1.45623 31.058 5.66734
      vertex 1.7119 30.5562 5.66734
    endloop
  endfacet
  facet normal -0.743948 0.379061 0.550323
    outer loop
      vertex 1.45623 28.942 5.66734
      vertex 3.19235 28.9627 8
      vertex 1.7119 29.4438 5.66735
    endloop
  endfacet
  facet normal -0.743948 0.379061 0.550323
    outer loop
      vertex 3.19235 28.9627 8
      vertex 1.45623 28.942 5.66734
      vertex 2.71557 28.027 8
    endloop
  endfacet
  facet normal -0.37906 0.743948 0.550323
    outer loop
      vertex 1.05801 28.5438 5.66734
      vertex 1.03726 26.8077 8
      vertex 1.97298 27.2844 8
    endloop
  endfacet
  facet normal -0.379061 0.743947 0.550322
    outer loop
      vertex 1.03726 26.8077 8
      vertex 1.05801 28.5438 5.66734
      vertex 0.556231 28.2881 5.66735
    endloop
  endfacet
  facet normal 0.379061 0.743947 0.550322
    outer loop
      vertex -1.05801 28.5438 5.66734
      vertex -1.03726 26.8077 8
      vertex -0.556231 28.2881 5.66735
    endloop
  endfacet
  facet normal 0.37906 0.743948 0.550323
    outer loop
      vertex -1.03726 26.8077 8
      vertex -1.05801 28.5438 5.66734
      vertex -1.97298 27.2844 8
    endloop
  endfacet
  facet normal 0.743948 0.379061 0.550323
    outer loop
      vertex -3.19235 28.9627 8
      vertex -1.45623 28.942 5.66734
      vertex -1.7119 29.4438 5.66735
    endloop
  endfacet
  facet normal 0.743948 0.379061 0.550323
    outer loop
      vertex -1.45623 28.942 5.66734
      vertex -3.19235 28.9627 8
      vertex -2.71557 28.027 8
    endloop
  endfacet
  facet normal 0.5904 -0.590401 0.550323
    outer loop
      vertex -1.45623 31.058 5.66734
      vertex -1.97298 32.7156 8
      vertex -2.71557 31.973 8
    endloop
  endfacet
  facet normal 0.5904 -0.590401 0.550322
    outer loop
      vertex -1.97298 32.7156 8
      vertex -1.45623 31.058 5.66734
      vertex -1.05801 31.4562 5.66734
    endloop
  endfacet
  facet normal -0.130614 -0.824673 0.550322
    outer loop
      vertex 0 33.3566 8
      vertex 0.556231 31.7119 5.66734
      vertex 1.03726 33.1923 8
    endloop
  endfacet
  facet normal -0.130614 -0.824673 0.550322
    outer loop
      vertex 0.556231 31.7119 5.66734
      vertex 0 33.3566 8
      vertex 0 31.8 5.66734
    endloop
  endfacet
  facet normal 0.130616 0.824672 0.550323
    outer loop
      vertex 0 26.6434 8
      vertex -0.556231 28.2881 5.66735
      vertex -1.03726 26.8077 8
    endloop
  endfacet
  facet normal 0.130614 0.824672 0.550323
    outer loop
      vertex -0.556231 28.2881 5.66735
      vertex 0 26.6434 8
      vertex 0 28.2 5.66734
    endloop
  endfacet
  facet normal -0.987689 -0.156433 0
    outer loop
      vertex 1.8 30 0.0999994
      vertex 1.7119 30.5562 5.66734
      vertex 1.7119 30.5562 0.0999994
    endloop
  endfacet
  facet normal -0.987689 -0.156433 0
    outer loop
      vertex 1.7119 30.5562 5.66734
      vertex 1.8 30 0.0999994
      vertex 1.8 30 5.66734
    endloop
  endfacet
  facet normal 0.156432 -0.987689 0
    outer loop
      vertex -0.556231 31.7119 0.0999994
      vertex 0 31.8 5.66734
      vertex -0.556231 31.7119 5.66734
    endloop
  endfacet
  facet normal 0.156432 -0.987689 0
    outer loop
      vertex 0 31.8 5.66734
      vertex -0.556231 31.7119 0.0999994
      vertex 0 31.8 0.0999994
    endloop
  endfacet
  facet normal 0.453993 0.891005 9.721e-09
    outer loop
      vertex -0.556231 28.2881 5.66735
      vertex -0.556231 28.2881 0.0999994
      vertex -1.05801 28.5438 5.66734
    endloop
  endfacet
  facet normal 0.453993 0.891005 0
    outer loop
      vertex -1.05801 28.5438 5.66734
      vertex -0.556231 28.2881 0.0999994
      vertex -1.05801 28.5438 0.0999994
    endloop
  endfacet
  facet normal -0.453993 -0.891005 0
    outer loop
      vertex 0.556231 31.7119 0.0999994
      vertex 1.05801 31.4562 5.66734
      vertex 0.556231 31.7119 5.66734
    endloop
  endfacet
  facet normal -0.453993 -0.891005 -0
    outer loop
      vertex 1.05801 31.4562 5.66734
      vertex 0.556231 31.7119 0.0999994
      vertex 1.05801 31.4562 0.0999994
    endloop
  endfacet
  facet normal -0.891006 -0.453991 0
    outer loop
      vertex 1.7119 30.5562 0.0999994
      vertex 1.45623 31.058 5.66734
      vertex 1.45623 31.058 0.0999994
    endloop
  endfacet
  facet normal -0.891006 -0.453991 0
    outer loop
      vertex 1.45623 31.058 5.66734
      vertex 1.7119 30.5562 0.0999994
      vertex 1.7119 30.5562 5.66734
    endloop
  endfacet
  facet normal -0.156432 -0.987689 0
    outer loop
      vertex 0 31.8 0.0999994
      vertex 0.556231 31.7119 5.66734
      vertex 0 31.8 5.66734
    endloop
  endfacet
  facet normal -0.156432 -0.987689 -0
    outer loop
      vertex 0.556231 31.7119 5.66734
      vertex 0 31.8 0.0999994
      vertex 0.556231 31.7119 0.0999994
    endloop
  endfacet
  facet normal 0.891006 -0.453991 0
    outer loop
      vertex -1.7119 30.5562 5.66734
      vertex -1.45623 31.058 0.0999994
      vertex -1.45623 31.058 5.66734
    endloop
  endfacet
  facet normal 0.891006 -0.453991 0
    outer loop
      vertex -1.45623 31.058 0.0999994
      vertex -1.7119 30.5562 5.66734
      vertex -1.7119 30.5562 0.0999994
    endloop
  endfacet
  facet normal 0 0 1
    outer loop
      vertex 1.7119 30.5562 0.0999994
      vertex 1.7119 29.4438 0.0999994
      vertex 1.8 30 0.0999994
    endloop
  endfacet
  facet normal 0 0 1
    outer loop
      vertex 1.45623 31.058 0.0999994
      vertex 1.7119 29.4438 0.0999994
      vertex 1.7119 30.5562 0.0999994
    endloop
  endfacet
  facet normal 0 0 1
    outer loop
      vertex 1.45623 31.058 0.0999994
      vertex 1.45623 28.942 0.0999994
      vertex 1.7119 29.4438 0.0999994
    endloop
  endfacet
  facet normal 0 0 1
    outer loop
      vertex 1.05801 31.4562 0.0999994
      vertex 1.45623 28.942 0.0999994
      vertex 1.45623 31.058 0.0999994
    endloop
  endfacet
  facet normal 0 0 1
    outer loop
      vertex 1.05801 31.4562 0.0999994
      vertex 1.05801 28.5438 0.0999994
      vertex 1.45623 28.942 0.0999994
    endloop
  endfacet
  facet normal 0 0 1
    outer loop
      vertex 0.556231 31.7119 0.0999994
      vertex 1.05801 28.5438 0.0999994
      vertex 1.05801 31.4562 0.0999994
    endloop
  endfacet
  facet normal 0 0 1
    outer loop
      vertex 0.556231 31.7119 0.0999994
      vertex 0.556231 28.2881 0.0999994
      vertex 1.05801 28.5438 0.0999994
    endloop
  endfacet
  facet normal 0 0 1
    outer loop
      vertex 0 31.8 0.0999994
      vertex 0.556231 28.2881 0.0999994
      vertex 0.556231 31.7119 0.0999994
    endloop
  endfacet
  facet normal 0 0 1
    outer loop
      vertex 0 31.8 0.0999994
      vertex 0 28.2 0.0999994
      vertex 0.556231 28.2881 0.0999994
    endloop
  endfacet
  facet normal -0 0 1
    outer loop
      vertex -0.556231 31.7119 0.0999994
      vertex 0 28.2 0.0999994
      vertex 0 31.8 0.0999994
    endloop
  endfacet
  facet normal 0 0 1
    outer loop
      vertex -0.556231 31.7119 0.0999994
      vertex -0.556231 28.2881 0.0999994
      vertex 0 28.2 0.0999994
    endloop
  endfacet
  facet normal -0 0 1
    outer loop
      vertex -1.05801 31.4562 0.0999994
      vertex -0.556231 28.2881 0.0999994
      vertex -0.556231 31.7119 0.0999994
    endloop
  endfacet
  facet normal 0 0 1
    outer loop
      vertex -1.05801 31.4562 0.0999994
      vertex -1.05801 28.5438 0.0999994
      vertex -0.556231 28.2881 0.0999994
    endloop
  endfacet
  facet normal -0 0 1
    outer loop
      vertex -1.45623 31.058 0.0999994
      vertex -1.05801 28.5438 0.0999994
      vertex -1.05801 31.4562 0.0999994
    endloop
  endfacet
  facet normal 0 0 1
    outer loop
      vertex -1.45623 31.058 0.0999994
      vertex -1.45623 28.942 0.0999994
      vertex -1.05801 28.5438 0.0999994
    endloop
  endfacet
  facet normal -0 0 1
    outer loop
      vertex -1.7119 30.5562 0.0999994
      vertex -1.45623 28.942 0.0999994
      vertex -1.45623 31.058 0.0999994
    endloop
  endfacet
  facet normal 0 0 1
    outer loop
      vertex -1.7119 30.5562 0.0999994
      vertex -1.7119 29.4438 0.0999994
      vertex -1.45623 28.942 0.0999994
    endloop
  endfacet
  facet normal 0 -0 1
    outer loop
      vertex -1.7119 29.4438 0.0999994
      vertex -1.7119 30.5562 0.0999994
      vertex -1.8 30 0.0999994
    endloop
  endfacet
  facet normal 0.987689 -0.156433 0
    outer loop
      vertex -1.8 30 5.66734
      vertex -1.7119 30.5562 0.0999994
      vertex -1.7119 30.5562 5.66734
    endloop
  endfacet
  facet normal 0.987689 -0.156433 0
    outer loop
      vertex -1.7119 30.5562 0.0999994
      vertex -1.8 30 5.66734
      vertex -1.8 30 0.0999994
    endloop
  endfacet
  facet normal 0.453993 -0.891005 0
    outer loop
      vertex -1.05801 31.4562 0.0999994
      vertex -0.556231 31.7119 5.66734
      vertex -1.05801 31.4562 5.66734
    endloop
  endfacet
  facet normal 0.453993 -0.891005 0
    outer loop
      vertex -0.556231 31.7119 5.66734
      vertex -1.05801 31.4562 0.0999994
      vertex -0.556231 31.7119 0.0999994
    endloop
  endfacet
  facet normal -0.453993 0.891005 0
    outer loop
      vertex 1.05801 28.5438 0.0999994
      vertex 0.556231 28.2881 5.66735
      vertex 1.05801 28.5438 5.66734
    endloop
  endfacet
  facet normal -0.453993 0.891005 9.721e-09
    outer loop
      vertex 0.556231 28.2881 0.0999994
      vertex 0.556231 28.2881 5.66735
      vertex 1.05801 28.5438 0.0999994
    endloop
  endfacet
  facet normal -0.987689 0.156433 0
    outer loop
      vertex 1.8 30 0.0999994
      vertex 1.7119 29.4438 5.66735
      vertex 1.8 30 5.66734
    endloop
  endfacet
  facet normal -0.987689 0.156433 -3.24446e-08
    outer loop
      vertex 1.7119 29.4438 0.0999994
      vertex 1.7119 29.4438 5.66735
      vertex 1.8 30 0.0999994
    endloop
  endfacet
  facet normal 0.156432 0.987689 -0
    outer loop
      vertex 0 28.2 0.0999994
      vertex -0.556231 28.2881 5.66735
      vertex 0 28.2 5.66734
    endloop
  endfacet
  facet normal 0.156432 0.987689 0
    outer loop
      vertex -0.556231 28.2881 5.66735
      vertex 0 28.2 0.0999994
      vertex -0.556231 28.2881 0.0999994
    endloop
  endfacet
  facet normal 0.891006 0.453992 0
    outer loop
      vertex -1.45623 28.942 5.66734
      vertex -1.7119 29.4438 0.0999994
      vertex -1.7119 29.4438 5.66735
    endloop
  endfacet
  facet normal 0.891006 0.453992 0
    outer loop
      vertex -1.7119 29.4438 0.0999994
      vertex -1.45623 28.942 5.66734
      vertex -1.45623 28.942 0.0999994
    endloop
  endfacet
  facet normal -0.707106 -0.707107 3.02815e-08
    outer loop
      vertex 1.05801 31.4562 5.66734
      vertex 1.05801 31.4562 0.0999994
      vertex 1.45623 31.058 5.66734
    endloop
  endfacet
  facet normal -0.707106 -0.707108 -3.02814e-08
    outer loop
      vertex 1.45623 31.058 0.0999994
      vertex 1.45623 31.058 5.66734
      vertex 1.05801 31.4562 0.0999994
    endloop
  endfacet
  facet normal 0.987689 0.156433 0
    outer loop
      vertex -1.7119 29.4438 5.66735
      vertex -1.8 30 0.0999994
      vertex -1.8 30 5.66734
    endloop
  endfacet
  facet normal 0.987689 0.156433 -3.24446e-08
    outer loop
      vertex -1.7119 29.4438 5.66735
      vertex -1.7119 29.4438 0.0999994
      vertex -1.8 30 0.0999994
    endloop
  endfacet
  facet normal 0.707106 -0.707107 -3.02815e-08
    outer loop
      vertex -1.45623 31.058 5.66734
      vertex -1.45623 31.058 0.0999994
      vertex -1.05801 31.4562 5.66734
    endloop
  endfacet
  facet normal 0.707106 -0.707108 3.02814e-08
    outer loop
      vertex -1.05801 31.4562 0.0999994
      vertex -1.05801 31.4562 5.66734
      vertex -1.45623 31.058 0.0999994
    endloop
  endfacet
  facet normal -0.707106 0.707107 0
    outer loop
      vertex 1.45623 28.942 5.66734
      vertex 1.45623 28.942 0.0999994
      vertex 1.05801 28.5438 5.66734
    endloop
  endfacet
  facet normal -0.707106 0.707108 4.54222e-08
    outer loop
      vertex 1.05801 28.5438 0.0999994
      vertex 1.05801 28.5438 5.66734
      vertex 1.45623 28.942 0.0999994
    endloop
  endfacet
  facet normal -0.156432 0.987689 0
    outer loop
      vertex 0.556231 28.2881 0.0999994
      vertex 0 28.2 5.66734
      vertex 0.556231 28.2881 5.66735
    endloop
  endfacet
  facet normal -0.156432 0.987689 0
    outer loop
      vertex 0 28.2 5.66734
      vertex 0.556231 28.2881 0.0999994
      vertex 0 28.2 0.0999994
    endloop
  endfacet
  facet normal 0.707106 0.707107 4.54222e-08
    outer loop
      vertex -1.05801 28.5438 0.0999994
      vertex -1.45623 28.942 5.66734
      vertex -1.05801 28.5438 5.66734
    endloop
  endfacet
  facet normal 0.707106 0.707108 0
    outer loop
      vertex -1.45623 28.942 5.66734
      vertex -1.05801 28.5438 0.0999994
      vertex -1.45623 28.942 0.0999994
    endloop
  endfacet
  facet normal -0.891006 0.453992 0
    outer loop
      vertex 1.45623 28.942 0.0999994
      vertex 1.7119 29.4438 5.66735
      vertex 1.7119 29.4438 0.0999994
    endloop
  endfacet
  facet normal -0.891006 0.453992 0
    outer loop
      vertex 1.7119 29.4438 5.66735
      vertex 1.45623 28.942 0.0999994
      vertex 1.45623 28.942 5.66734
    endloop
  endfacet
endsolid OpenSCAD_Model
