solid OpenSCAD_Model
  facet normal 0 0 -1
    outer loop
      vertex 0 -15 0
      vertex 160 15 0
      vertex 160 -15 0
    endloop
  endfacet
  facet normal -0 0 -1
    outer loop
      vertex 160 15 0
      vertex 0 -15 0
      vertex 0 15 0
    endloop
  endfacet
  facet normal 0 0 -1
    outer loop
      vertex 160 -15 0
      vertex 210 0 0
      vertex 160 -30 0
    endloop
  endfacet
  facet normal 0 0 -1
    outer loop
      vertex 160 15 0
      vertex 210 0 0
      vertex 160 -15 0
    endloop
  endfacet
  facet normal 0 0 -1
    outer loop
      vertex 210 0 0
      vertex 160 15 0
      vertex 160 30 0
    endloop
  endfacet
  facet normal -1 0 0
    outer loop
      vertex 160 15 0
      vertex 160 30 8
      vertex 160 30 0
    endloop
  endfacet
  facet normal -1 -0 0
    outer loop
      vertex 160 30 8
      vertex 160 15 0
      vertex 160 15 8
    endloop
  endfacet
  facet normal -1 0 0
    outer loop
      vertex 160 -30 0
      vertex 160 -15 8
      vertex 160 -15 0
    endloop
  endfacet
  facet normal -1 -0 0
    outer loop
      vertex 160 -15 8
      vertex 160 -30 0
      vertex 160 -30 8
    endloop
  endfacet
  facet normal -1 0 0
    outer loop
      vertex 0 -15 0
      vertex 0 15 8
      vertex 0 15 0
    endloop
  endfacet
  facet normal -1 -0 0
    outer loop
      vertex 0 15 8
      vertex 0 -15 0
      vertex 0 -15 8
    endloop
  endfacet
  facet normal 0 -1 0
    outer loop
      vertex 0 -15 0
      vertex 160 -15 8
      vertex 0 -15 8
    endloop
  endfacet
  facet normal 0 -1 -0
    outer loop
      vertex 160 -15 8
      vertex 0 -15 0
      vertex 160 -15 0
    endloop
  endfacet
  facet normal 0 1 -0
    outer loop
      vertex 160 15 0
      vertex 0 15 8
      vertex 160 15 8
    endloop
  endfacet
  facet normal 0 1 0
    outer loop
      vertex 0 15 8
      vertex 160 15 0
      vertex 0 15 0
    endloop
  endfacet
  facet normal 0 0 1
    outer loop
      vertex 158.963 -3.19235 8
      vertex 160 -15 8
      vertex 160 -3.35663 8
    endloop
  endfacet
  facet normal 0 0 1
    outer loop
      vertex 158.027 -2.71557 8
      vertex 160 -15 8
      vertex 158.963 -3.19235 8
    endloop
  endfacet
  facet normal 0 0 1
    outer loop
      vertex 157.284 -1.97298 8
      vertex 160 -15 8
      vertex 158.027 -2.71557 8
    endloop
  endfacet
  facet normal 0 0 1
    outer loop
      vertex 156.808 -1.03726 8
      vertex 160 -15 8
      vertex 157.284 -1.97298 8
    endloop
  endfacet
  facet normal -0 0 1
    outer loop
      vertex 18.3566 0 8
      vertex 156.808 -1.03726 8
      vertex 156.643 0 8
    endloop
  endfacet
  facet normal 0 0 1
    outer loop
      vertex 18.1923 -1.03726 8
      vertex 156.808 -1.03726 8
      vertex 18.3566 0 8
    endloop
  endfacet
  facet normal 0 0 1
    outer loop
      vertex 156.808 -1.03726 8
      vertex 18.1923 -1.03726 8
      vertex 160 -15 8
    endloop
  endfacet
  facet normal -0 0 1
    outer loop
      vertex 17.7156 -1.97298 8
      vertex 160 -15 8
      vertex 18.1923 -1.03726 8
    endloop
  endfacet
  facet normal -0 0 1
    outer loop
      vertex 16.973 -2.71557 8
      vertex 160 -15 8
      vertex 17.7156 -1.97298 8
    endloop
  endfacet
  facet normal 0 0 1
    outer loop
      vertex 0 -15 8
      vertex 16.973 -2.71557 8
      vertex 16.0373 -3.19235 8
    endloop
  endfacet
  facet normal 0 0 1
    outer loop
      vertex 0 -15 8
      vertex 16.0373 -3.19235 8
      vertex 15 -3.35663 8
    endloop
  endfacet
  facet normal 0 0 1
    outer loop
      vertex 0 -15 8
      vertex 11.6434 0 8
      vertex 0 15 8
    endloop
  endfacet
  facet normal 0 0 1
    outer loop
      vertex 11.6434 0 8
      vertex 0 -15 8
      vertex 11.8077 -1.03726 8
    endloop
  endfacet
  facet normal 0 0 1
    outer loop
      vertex 16.973 -2.71557 8
      vertex 0 -15 8
      vertex 160 -15 8
    endloop
  endfacet
  facet normal 0 0 1
    outer loop
      vertex 13.9627 -3.19235 8
      vertex 0 -15 8
      vertex 15 -3.35663 8
    endloop
  endfacet
  facet normal 0 0 1
    outer loop
      vertex 13.027 -2.71557 8
      vertex 0 -15 8
      vertex 13.9627 -3.19235 8
    endloop
  endfacet
  facet normal 0 0 1
    outer loop
      vertex 12.2844 -1.97298 8
      vertex 0 -15 8
      vertex 13.027 -2.71557 8
    endloop
  endfacet
  facet normal 0 0 1
    outer loop
      vertex 11.8077 -1.03726 8
      vertex 0 -15 8
      vertex 12.2844 -1.97298 8
    endloop
  endfacet
  facet normal 0 0 1
    outer loop
      vertex 210 0 8
      vertex 163.192 1.03726 8
      vertex 163.357 0 8
    endloop
  endfacet
  facet normal 0 0 1
    outer loop
      vertex 210 0 8
      vertex 162.716 1.97298 8
      vertex 163.192 1.03726 8
    endloop
  endfacet
  facet normal 0 0 1
    outer loop
      vertex 160 15 8
      vertex 162.716 1.97298 8
      vertex 210 0 8
    endloop
  endfacet
  facet normal 0 0 1
    outer loop
      vertex 162.716 1.97298 8
      vertex 160 15 8
      vertex 161.973 2.71557 8
    endloop
  endfacet
  facet normal -0 0 1
    outer loop
      vertex 160 15 8
      vertex 210 0 8
      vertex 160 30 8
    endloop
  endfacet
  facet normal 0 0 1
    outer loop
      vertex 161.973 2.71557 8
      vertex 160 15 8
      vertex 161.037 3.19235 8
    endloop
  endfacet
  facet normal 0 0 1
    outer loop
      vertex 160 15 8
      vertex 160 3.35663 8
      vertex 161.037 3.19235 8
    endloop
  endfacet
  facet normal 0 0 1
    outer loop
      vertex 160 15 8
      vertex 158.963 3.19235 8
      vertex 160 3.35663 8
    endloop
  endfacet
  facet normal 0 0 1
    outer loop
      vertex 160 15 8
      vertex 158.027 2.71557 8
      vertex 158.963 3.19235 8
    endloop
  endfacet
  facet normal 0 0 1
    outer loop
      vertex 160 15 8
      vertex 157.284 1.97298 8
      vertex 158.027 2.71557 8
    endloop
  endfacet
  facet normal 0 0 1
    outer loop
      vertex 160 15 8
      vertex 156.808 1.03726 8
      vertex 157.284 1.97298 8
    endloop
  endfacet
  facet normal 0 0 1
    outer loop
      vertex 156.808 1.03726 8
      vertex 18.3566 0 8
      vertex 156.643 0 8
    endloop
  endfacet
  facet normal 0 0 1
    outer loop
      vertex 18.1923 1.03726 8
      vertex 156.808 1.03726 8
      vertex 160 15 8
    endloop
  endfacet
  facet normal 0 0 1
    outer loop
      vertex 156.808 1.03726 8
      vertex 18.1923 1.03726 8
      vertex 18.3566 0 8
    endloop
  endfacet
  facet normal 0 0 1
    outer loop
      vertex 160 15 8
      vertex 17.7156 1.97298 8
      vertex 18.1923 1.03726 8
    endloop
  endfacet
  facet normal 0 0 1
    outer loop
      vertex 160 15 8
      vertex 16.973 2.71557 8
      vertex 17.7156 1.97298 8
    endloop
  endfacet
  facet normal -0 0 1
    outer loop
      vertex 0 15 8
      vertex 16.973 2.71557 8
      vertex 160 15 8
    endloop
  endfacet
  facet normal 0 0 1
    outer loop
      vertex 16.973 2.71557 8
      vertex 0 15 8
      vertex 16.0373 3.19235 8
    endloop
  endfacet
  facet normal 0 0 1
    outer loop
      vertex 11.8077 1.03726 8
      vertex 0 15 8
      vertex 11.6434 0 8
    endloop
  endfacet
  facet normal 0 0 1
    outer loop
      vertex 12.2844 1.97298 8
      vertex 0 15 8
      vertex 11.8077 1.03726 8
    endloop
  endfacet
  facet normal 0 0 1
    outer loop
      vertex 13.027 2.71557 8
      vertex 0 15 8
      vertex 12.2844 1.97298 8
    endloop
  endfacet
  facet normal 0 0 1
    outer loop
      vertex 13.9627 3.19235 8
      vertex 0 15 8
      vertex 13.027 2.71557 8
    endloop
  endfacet
  facet normal 0 0 1
    outer loop
      vertex 15 3.35663 8
      vertex 0 15 8
      vertex 13.9627 3.19235 8
    endloop
  endfacet
  facet normal 0 0 1
    outer loop
      vertex 16.0373 3.19235 8
      vertex 0 15 8
      vertex 15 3.35663 8
    endloop
  endfacet
  facet normal 0 0 1
    outer loop
      vertex 163.192 -1.03726 8
      vertex 210 0 8
      vertex 163.357 0 8
    endloop
  endfacet
  facet normal 0 0 1
    outer loop
      vertex 162.716 -1.97298 8
      vertex 210 0 8
      vertex 163.192 -1.03726 8
    endloop
  endfacet
  facet normal 0 0 1
    outer loop
      vertex 160 -15 8
      vertex 162.716 -1.97298 8
      vertex 161.973 -2.71557 8
    endloop
  endfacet
  facet normal 0 0 1
    outer loop
      vertex 160 -15 8
      vertex 161.973 -2.71557 8
      vertex 161.037 -3.19235 8
    endloop
  endfacet
  facet normal 0 0 1
    outer loop
      vertex 160 -15 8
      vertex 161.037 -3.19235 8
      vertex 160 -3.35663 8
    endloop
  endfacet
  facet normal -0 0 1
    outer loop
      vertex 162.716 -1.97298 8
      vertex 160 -15 8
      vertex 210 0 8
    endloop
  endfacet
  facet normal 0 0 1
    outer loop
      vertex 210 0 8
      vertex 160 -15 8
      vertex 160 -30 8
    endloop
  endfacet
  facet normal 0.514496 -0.857493 0
    outer loop
      vertex 160 -30 0
      vertex 210 0 8
      vertex 160 -30 8
    endloop
  endfacet
  facet normal 0.514496 -0.857493 0
    outer loop
      vertex 210 0 8
      vertex 160 -30 0
      vertex 210 0 0
    endloop
  endfacet
  facet normal 0.514496 0.857493 -0
    outer loop
      vertex 210 0 0
      vertex 160 30 8
      vertex 210 0 8
    endloop
  endfacet
  facet normal 0.514496 0.857493 0
    outer loop
      vertex 160 30 8
      vertex 210 0 0
      vertex 160 30 0
    endloop
  endfacet
  facet normal -0.824673 -0.130614 0.550323
    outer loop
      vertex 18.3566 0 8
      vertex 16.7119 0.556231 5.66734
      vertex 16.8 0 5.66734
    endloop
  endfacet
  facet normal -0.824673 -0.130616 0.550322
    outer loop
      vertex 16.7119 0.556231 5.66734
      vertex 18.3566 0 8
      vertex 18.1923 1.03726 8
    endloop
  endfacet
  facet normal 0.824672 -0.130616 0.550323
    outer loop
      vertex 11.6434 0 8
      vertex 13.2881 0.556231 5.66735
      vertex 11.8077 1.03726 8
    endloop
  endfacet
  facet normal 0.824672 -0.130615 0.550323
    outer loop
      vertex 13.2881 0.556231 5.66735
      vertex 11.6434 0 8
      vertex 13.2 0 5.66734
    endloop
  endfacet
  facet normal -0.824673 0.130614 0.550323
    outer loop
      vertex 16.7119 -0.556231 5.66734
      vertex 18.3566 0 8
      vertex 16.8 0 5.66734
    endloop
  endfacet
  facet normal -0.824673 0.130616 0.550322
    outer loop
      vertex 18.3566 0 8
      vertex 16.7119 -0.556231 5.66734
      vertex 18.1923 -1.03726 8
    endloop
  endfacet
  facet normal 0.130615 -0.824672 0.550323
    outer loop
      vertex 14.4438 1.7119 5.66735
      vertex 15 3.35663 8
      vertex 13.9627 3.19235 8
    endloop
  endfacet
  facet normal 0.130615 -0.824672 0.550323
    outer loop
      vertex 15 3.35663 8
      vertex 14.4438 1.7119 5.66735
      vertex 15 1.8 5.66734
    endloop
  endfacet
  facet normal 0.130615 0.824672 0.550323
    outer loop
      vertex 15 -3.35663 8
      vertex 14.4438 -1.7119 5.66735
      vertex 13.9627 -3.19235 8
    endloop
  endfacet
  facet normal 0.130615 0.824672 0.550323
    outer loop
      vertex 14.4438 -1.7119 5.66735
      vertex 15 -3.35663 8
      vertex 15 -1.8 5.66734
    endloop
  endfacet
  facet normal 0.590401 -0.5904 0.550323
    outer loop
      vertex 12.2844 1.97298 8
      vertex 13.942 1.45623 5.66734
      vertex 13.027 2.71557 8
    endloop
  endfacet
  facet normal 0.5904 -0.590401 0.550323
    outer loop
      vertex 13.942 1.45623 5.66734
      vertex 12.2844 1.97298 8
      vertex 13.5438 1.05801 5.66734
    endloop
  endfacet
  facet normal -0.37906 -0.743948 0.550323
    outer loop
      vertex 16.058 1.45623 5.66734
      vertex 16.0373 3.19235 8
      vertex 15.5562 1.7119 5.66734
    endloop
  endfacet
  facet normal -0.37906 -0.743948 0.550323
    outer loop
      vertex 16.0373 3.19235 8
      vertex 16.058 1.45623 5.66734
      vertex 16.973 2.71557 8
    endloop
  endfacet
  facet normal -0.37906 0.743948 0.550323
    outer loop
      vertex 16.058 -1.45623 5.66734
      vertex 16.0373 -3.19235 8
      vertex 16.973 -2.71557 8
    endloop
  endfacet
  facet normal -0.37906 0.743948 0.550323
    outer loop
      vertex 16.0373 -3.19235 8
      vertex 16.058 -1.45623 5.66734
      vertex 15.5562 -1.7119 5.66734
    endloop
  endfacet
  facet normal 0.5904 0.590401 0.550323
    outer loop
      vertex 12.2844 -1.97298 8
      vertex 13.942 -1.45623 5.66734
      vertex 13.5438 -1.05801 5.66734
    endloop
  endfacet
  facet normal 0.590401 0.5904 0.550323
    outer loop
      vertex 13.942 -1.45623 5.66734
      vertex 12.2844 -1.97298 8
      vertex 13.027 -2.71557 8
    endloop
  endfacet
  facet normal 0.743948 -0.379061 0.550323
    outer loop
      vertex 11.8077 1.03726 8
      vertex 13.5438 1.05801 5.66734
      vertex 12.2844 1.97298 8
    endloop
  endfacet
  facet normal 0.743948 -0.37906 0.550323
    outer loop
      vertex 13.5438 1.05801 5.66734
      vertex 11.8077 1.03726 8
      vertex 13.2881 0.556231 5.66735
    endloop
  endfacet
  facet normal 0.37906 -0.743948 0.550323
    outer loop
      vertex 13.942 1.45623 5.66734
      vertex 13.9627 3.19235 8
      vertex 13.027 2.71557 8
    endloop
  endfacet
  facet normal 0.37906 -0.743948 0.550323
    outer loop
      vertex 13.9627 3.19235 8
      vertex 13.942 1.45623 5.66734
      vertex 14.4438 1.7119 5.66735
    endloop
  endfacet
  facet normal -0.130615 -0.824672 0.550323
    outer loop
      vertex 15 3.35663 8
      vertex 15.5562 1.7119 5.66734
      vertex 16.0373 3.19235 8
    endloop
  endfacet
  facet normal -0.130615 -0.824672 0.550323
    outer loop
      vertex 15.5562 1.7119 5.66734
      vertex 15 3.35663 8
      vertex 15 1.8 5.66734
    endloop
  endfacet
  facet normal -0.743948 -0.37906 0.550323
    outer loop
      vertex 16.4562 1.05801 5.66734
      vertex 18.1923 1.03726 8
      vertex 17.7156 1.97298 8
    endloop
  endfacet
  facet normal -0.743947 -0.379062 0.550322
    outer loop
      vertex 18.1923 1.03726 8
      vertex 16.4562 1.05801 5.66734
      vertex 16.7119 0.556231 5.66734
    endloop
  endfacet
  facet normal -0.743947 0.379062 0.550322
    outer loop
      vertex 16.4562 -1.05801 5.66734
      vertex 18.1923 -1.03726 8
      vertex 16.7119 -0.556231 5.66734
    endloop
  endfacet
  facet normal -0.743948 0.37906 0.550323
    outer loop
      vertex 16.4562 -1.05801 5.66734
      vertex 17.7156 -1.97298 8
      vertex 18.1923 -1.03726 8
    endloop
  endfacet
  facet normal -0.130615 0.824672 0.550323
    outer loop
      vertex 15.5562 -1.7119 5.66734
      vertex 15 -3.35663 8
      vertex 16.0373 -3.19235 8
    endloop
  endfacet
  facet normal -0.130615 0.824672 0.550323
    outer loop
      vertex 15 -3.35663 8
      vertex 15.5562 -1.7119 5.66734
      vertex 15 -1.8 5.66734
    endloop
  endfacet
  facet normal 0.37906 0.743948 0.550323
    outer loop
      vertex 13.942 -1.45623 5.66734
      vertex 13.9627 -3.19235 8
      vertex 14.4438 -1.7119 5.66735
    endloop
  endfacet
  facet normal 0.37906 0.743948 0.550323
    outer loop
      vertex 13.9627 -3.19235 8
      vertex 13.942 -1.45623 5.66734
      vertex 13.027 -2.71557 8
    endloop
  endfacet
  facet normal 0.824672 0.130615 0.550323
    outer loop
      vertex 11.6434 0 8
      vertex 13.2881 -0.556231 5.66735
      vertex 13.2 0 5.66734
    endloop
  endfacet
  facet normal 0.824672 0.130616 0.550323
    outer loop
      vertex 11.8077 -1.03726 8
      vertex 13.2881 -0.556231 5.66735
      vertex 11.6434 0 8
    endloop
  endfacet
  facet normal -0.5904 -0.5904 0.550323
    outer loop
      vertex 16.058 1.45623 5.66734
      vertex 17.7156 1.97298 8
      vertex 16.973 2.71557 8
    endloop
  endfacet
  facet normal -0.590401 -0.5904 0.550323
    outer loop
      vertex 17.7156 1.97298 8
      vertex 16.058 1.45623 5.66734
      vertex 16.4562 1.05801 5.66734
    endloop
  endfacet
  facet normal -0.590401 0.5904 0.550323
    outer loop
      vertex 16.058 -1.45623 5.66734
      vertex 17.7156 -1.97298 8
      vertex 16.4562 -1.05801 5.66734
    endloop
  endfacet
  facet normal -0.5904 0.5904 0.550323
    outer loop
      vertex 17.7156 -1.97298 8
      vertex 16.058 -1.45623 5.66734
      vertex 16.973 -2.71557 8
    endloop
  endfacet
  facet normal 0.743948 0.37906 0.550323
    outer loop
      vertex 11.8077 -1.03726 8
      vertex 13.5438 -1.05801 5.66734
      vertex 13.2881 -0.556231 5.66735
    endloop
  endfacet
  facet normal 0.743948 0.379061 0.550323
    outer loop
      vertex 12.2844 -1.97298 8
      vertex 13.5438 -1.05801 5.66734
      vertex 11.8077 -1.03726 8
    endloop
  endfacet
  facet normal -0.987689 -0.156432 0
    outer loop
      vertex 16.8 0 2.97
      vertex 16.7119 0.556231 5.66734
      vertex 16.7119 0.556231 2.97
    endloop
  endfacet
  facet normal -0.987689 -0.156432 0
    outer loop
      vertex 16.7119 0.556231 5.66734
      vertex 16.8 0 2.97
      vertex 16.8 0 5.66734
    endloop
  endfacet
  facet normal 0.987689 -0.156433 0
    outer loop
      vertex 13.2 0 5.66734
      vertex 13.2881 0.556231 2.97
      vertex 13.2881 0.556231 5.66735
    endloop
  endfacet
  facet normal 0.987689 -0.156433 0
    outer loop
      vertex 13.2881 0.556231 2.97
      vertex 13.2 0 5.66734
      vertex 13.2 0 2.97
    endloop
  endfacet
  facet normal 0.156433 -0.987689 4.36509e-08
    outer loop
      vertex 14.4438 1.7119 2.97
      vertex 15 1.8 5.66734
      vertex 14.4438 1.7119 5.66735
    endloop
  endfacet
  facet normal 0.156433 -0.987689 0
    outer loop
      vertex 15 1.8 5.66734
      vertex 14.4438 1.7119 2.97
      vertex 15 1.8 2.97
    endloop
  endfacet
  facet normal -0.156433 0.987689 0
    outer loop
      vertex 15.5562 -1.7119 2.97
      vertex 15 -1.8 5.66734
      vertex 15.5562 -1.7119 5.66734
    endloop
  endfacet
  facet normal -0.156433 0.987689 0
    outer loop
      vertex 15 -1.8 5.66734
      vertex 15.5562 -1.7119 2.97
      vertex 15 -1.8 2.97
    endloop
  endfacet
  facet normal -0.453991 0.891006 0
    outer loop
      vertex 16.058 -1.45623 2.97
      vertex 15.5562 -1.7119 5.66734
      vertex 16.058 -1.45623 5.66734
    endloop
  endfacet
  facet normal -0.453991 0.891006 0
    outer loop
      vertex 15.5562 -1.7119 5.66734
      vertex 16.058 -1.45623 2.97
      vertex 15.5562 -1.7119 2.97
    endloop
  endfacet
  facet normal -0.453991 -0.891006 0
    outer loop
      vertex 15.5562 1.7119 2.97
      vertex 16.058 1.45623 5.66734
      vertex 15.5562 1.7119 5.66734
    endloop
  endfacet
  facet normal -0.453991 -0.891006 -0
    outer loop
      vertex 16.058 1.45623 5.66734
      vertex 15.5562 1.7119 2.97
      vertex 16.058 1.45623 2.97
    endloop
  endfacet
  facet normal -0.891005 -0.453993 0
    outer loop
      vertex 16.7119 0.556231 2.97
      vertex 16.4562 1.05801 5.66734
      vertex 16.4562 1.05801 2.97
    endloop
  endfacet
  facet normal -0.891005 -0.453993 0
    outer loop
      vertex 16.4562 1.05801 5.66734
      vertex 16.7119 0.556231 2.97
      vertex 16.7119 0.556231 5.66734
    endloop
  endfacet
  facet normal -0.156433 -0.987689 0
    outer loop
      vertex 15 1.8 2.97
      vertex 15.5562 1.7119 5.66734
      vertex 15 1.8 5.66734
    endloop
  endfacet
  facet normal -0.156433 -0.987689 -0
    outer loop
      vertex 15.5562 1.7119 5.66734
      vertex 15 1.8 2.97
      vertex 15.5562 1.7119 2.97
    endloop
  endfacet
  facet normal 0.707106 -0.707107 0
    outer loop
      vertex 13.5438 1.05801 5.66734
      vertex 13.942 1.45623 2.97
      vertex 13.942 1.45623 5.66734
    endloop
  endfacet
  facet normal 0.707107 -0.707107 9.37519e-08
    outer loop
      vertex 13.5438 1.05801 5.66734
      vertex 13.5438 1.05801 2.97
      vertex 13.942 1.45623 2.97
    endloop
  endfacet
  facet normal 0.891006 -0.453991 0
    outer loop
      vertex 13.2881 0.556231 5.66735
      vertex 13.5438 1.05801 2.97
      vertex 13.5438 1.05801 5.66734
    endloop
  endfacet
  facet normal 0.891006 -0.453991 2.00642e-08
    outer loop
      vertex 13.2881 0.556231 5.66735
      vertex 13.2881 0.556231 2.97
      vertex 13.5438 1.05801 2.97
    endloop
  endfacet
  facet normal 0.453991 -0.891006 0
    outer loop
      vertex 13.942 1.45623 2.97
      vertex 14.4438 1.7119 5.66735
      vertex 13.942 1.45623 5.66734
    endloop
  endfacet
  facet normal 0.453991 -0.891006 0
    outer loop
      vertex 14.4438 1.7119 5.66735
      vertex 13.942 1.45623 2.97
      vertex 14.4438 1.7119 2.97
    endloop
  endfacet
  facet normal -0.987689 0.156432 0
    outer loop
      vertex 16.7119 -0.556231 2.97
      vertex 16.8 0 5.66734
      vertex 16.8 0 2.97
    endloop
  endfacet
  facet normal -0.987689 0.156432 0
    outer loop
      vertex 16.8 0 5.66734
      vertex 16.7119 -0.556231 2.97
      vertex 16.7119 -0.556231 5.66734
    endloop
  endfacet
  facet normal 0 0 1
    outer loop
      vertex 16.7119 0.556231 2.97
      vertex 16.7119 -0.556231 2.97
      vertex 16.8 0 2.97
    endloop
  endfacet
  facet normal 0 0 1
    outer loop
      vertex 16.4562 1.05801 2.97
      vertex 16.7119 -0.556231 2.97
      vertex 16.7119 0.556231 2.97
    endloop
  endfacet
  facet normal 0 0 1
    outer loop
      vertex 16.4562 1.05801 2.97
      vertex 16.4562 -1.05801 2.97
      vertex 16.7119 -0.556231 2.97
    endloop
  endfacet
  facet normal 0 0 1
    outer loop
      vertex 16.058 1.45623 2.97
      vertex 16.4562 -1.05801 2.97
      vertex 16.4562 1.05801 2.97
    endloop
  endfacet
  facet normal 0 0 1
    outer loop
      vertex 16.058 1.45623 2.97
      vertex 16.058 -1.45623 2.97
      vertex 16.4562 -1.05801 2.97
    endloop
  endfacet
  facet normal 0 0 1
    outer loop
      vertex 15.5562 1.7119 2.97
      vertex 16.058 -1.45623 2.97
      vertex 16.058 1.45623 2.97
    endloop
  endfacet
  facet normal 0 0 1
    outer loop
      vertex 15.5562 1.7119 2.97
      vertex 15.5562 -1.7119 2.97
      vertex 16.058 -1.45623 2.97
    endloop
  endfacet
  facet normal 0 0 1
    outer loop
      vertex 15 1.8 2.97
      vertex 15.5562 -1.7119 2.97
      vertex 15.5562 1.7119 2.97
    endloop
  endfacet
  facet normal 0 0 1
    outer loop
      vertex 15 1.8 2.97
      vertex 15 -1.8 2.97
      vertex 15.5562 -1.7119 2.97
    endloop
  endfacet
  facet normal -0 0 1
    outer loop
      vertex 14.4438 1.7119 2.97
      vertex 15 -1.8 2.97
      vertex 15 1.8 2.97
    endloop
  endfacet
  facet normal 0 0 1
    outer loop
      vertex 14.4438 1.7119 2.97
      vertex 14.4438 -1.7119 2.97
      vertex 15 -1.8 2.97
    endloop
  endfacet
  facet normal -0 0 1
    outer loop
      vertex 13.942 1.45623 2.97
      vertex 14.4438 -1.7119 2.97
      vertex 14.4438 1.7119 2.97
    endloop
  endfacet
  facet normal 0 0 1
    outer loop
      vertex 13.942 1.45623 2.97
      vertex 13.942 -1.45623 2.97
      vertex 14.4438 -1.7119 2.97
    endloop
  endfacet
  facet normal -0 0 1
    outer loop
      vertex 13.5438 1.05801 2.97
      vertex 13.942 -1.45623 2.97
      vertex 13.942 1.45623 2.97
    endloop
  endfacet
  facet normal 0 0 1
    outer loop
      vertex 13.5438 1.05801 2.97
      vertex 13.5438 -1.05801 2.97
      vertex 13.942 -1.45623 2.97
    endloop
  endfacet
  facet normal -0 0 1
    outer loop
      vertex 13.2881 0.556231 2.97
      vertex 13.5438 -1.05801 2.97
      vertex 13.5438 1.05801 2.97
    endloop
  endfacet
  facet normal 0 0 1
    outer loop
      vertex 13.2881 0.556231 2.97
      vertex 13.2881 -0.556231 2.97
      vertex 13.5438 -1.05801 2.97
    endloop
  endfacet
  facet normal 0 -0 1
    outer loop
      vertex 13.2881 -0.556231 2.97
      vertex 13.2881 0.556231 2.97
      vertex 13.2 0 2.97
    endloop
  endfacet
  facet normal -0.707107 -0.707106 -6.25012e-08
    outer loop
      vertex 16.058 1.45623 2.97
      vertex 16.4562 1.05801 5.66734
      vertex 16.058 1.45623 5.66734
    endloop
  endfacet
  facet normal -0.707108 -0.707106 6.25012e-08
    outer loop
      vertex 16.4562 1.05801 2.97
      vertex 16.4562 1.05801 5.66734
      vertex 16.058 1.45623 2.97
    endloop
  endfacet
  facet normal -0.707107 0.707106 6.25012e-08
    outer loop
      vertex 16.4562 -1.05801 2.97
      vertex 16.058 -1.45623 5.66734
      vertex 16.4562 -1.05801 5.66734
    endloop
  endfacet
  facet normal -0.707108 0.707106 -6.25012e-08
    outer loop
      vertex 16.058 -1.45623 2.97
      vertex 16.058 -1.45623 5.66734
      vertex 16.4562 -1.05801 2.97
    endloop
  endfacet
  facet normal 0.453991 0.891006 -0
    outer loop
      vertex 14.4438 -1.7119 2.97
      vertex 13.942 -1.45623 5.66734
      vertex 14.4438 -1.7119 5.66735
    endloop
  endfacet
  facet normal 0.453991 0.891006 0
    outer loop
      vertex 13.942 -1.45623 5.66734
      vertex 14.4438 -1.7119 2.97
      vertex 13.942 -1.45623 2.97
    endloop
  endfacet
  facet normal 0.891006 0.453991 2.00642e-08
    outer loop
      vertex 13.5438 -1.05801 5.66734
      vertex 13.2881 -0.556231 2.97
      vertex 13.2881 -0.556231 5.66735
    endloop
  endfacet
  facet normal 0.891006 0.453991 0
    outer loop
      vertex 13.2881 -0.556231 2.97
      vertex 13.5438 -1.05801 5.66734
      vertex 13.5438 -1.05801 2.97
    endloop
  endfacet
  facet normal 0.987689 0.156433 0
    outer loop
      vertex 13.2881 -0.556231 5.66735
      vertex 13.2 0 2.97
      vertex 13.2 0 5.66734
    endloop
  endfacet
  facet normal 0.987689 0.156433 0
    outer loop
      vertex 13.2 0 2.97
      vertex 13.2881 -0.556231 5.66735
      vertex 13.2881 -0.556231 2.97
    endloop
  endfacet
  facet normal 0.707106 0.707107 9.37519e-08
    outer loop
      vertex 13.942 -1.45623 5.66734
      vertex 13.5438 -1.05801 2.97
      vertex 13.5438 -1.05801 5.66734
    endloop
  endfacet
  facet normal 0.707107 0.707107 0
    outer loop
      vertex 13.5438 -1.05801 2.97
      vertex 13.942 -1.45623 5.66734
      vertex 13.942 -1.45623 2.97
    endloop
  endfacet
  facet normal -0.891005 0.453993 0
    outer loop
      vertex 16.4562 -1.05801 2.97
      vertex 16.7119 -0.556231 5.66734
      vertex 16.7119 -0.556231 2.97
    endloop
  endfacet
  facet normal -0.891005 0.453993 0
    outer loop
      vertex 16.7119 -0.556231 5.66734
      vertex 16.4562 -1.05801 2.97
      vertex 16.4562 -1.05801 5.66734
    endloop
  endfacet
  facet normal 0.156433 0.987689 -0
    outer loop
      vertex 15 -1.8 2.97
      vertex 14.4438 -1.7119 5.66735
      vertex 15 -1.8 5.66734
    endloop
  endfacet
  facet normal 0.156433 0.987689 4.36509e-08
    outer loop
      vertex 14.4438 -1.7119 5.66735
      vertex 15 -1.8 2.97
      vertex 14.4438 -1.7119 2.97
    endloop
  endfacet
  facet normal -0.824673 -0.130625 0.55032
    outer loop
      vertex 163.357 0 8
      vertex 161.712 0.556231 5.66734
      vertex 161.8 0 5.66734
    endloop
  endfacet
  facet normal -0.824673 -0.130608 0.550324
    outer loop
      vertex 161.712 0.556231 5.66734
      vertex 163.357 0 8
      vertex 163.192 1.03726 8
    endloop
  endfacet
  facet normal 0.824673 -0.130608 0.550324
    outer loop
      vertex 156.643 0 8
      vertex 158.288 0.556231 5.66735
      vertex 156.808 1.03726 8
    endloop
  endfacet
  facet normal 0.824673 -0.130625 0.55032
    outer loop
      vertex 158.288 0.556231 5.66735
      vertex 156.643 0 8
      vertex 158.2 0 5.66734
    endloop
  endfacet
  facet normal -0.824673 0.130625 0.55032
    outer loop
      vertex 161.712 -0.556231 5.66734
      vertex 163.357 0 8
      vertex 161.8 0 5.66734
    endloop
  endfacet
  facet normal -0.824673 0.130608 0.550324
    outer loop
      vertex 163.357 0 8
      vertex 161.712 -0.556231 5.66734
      vertex 163.192 -1.03726 8
    endloop
  endfacet
  facet normal 0.130615 -0.824672 0.550323
    outer loop
      vertex 159.444 1.7119 5.66735
      vertex 160 3.35663 8
      vertex 158.963 3.19235 8
    endloop
  endfacet
  facet normal 0.130616 -0.824672 0.550323
    outer loop
      vertex 160 3.35663 8
      vertex 159.444 1.7119 5.66735
      vertex 160 1.8 5.66734
    endloop
  endfacet
  facet normal 0.130615 0.824672 0.550323
    outer loop
      vertex 160 -3.35663 8
      vertex 159.444 -1.7119 5.66735
      vertex 158.963 -3.19235 8
    endloop
  endfacet
  facet normal 0.130616 0.824672 0.550323
    outer loop
      vertex 159.444 -1.7119 5.66735
      vertex 160 -3.35663 8
      vertex 160 -1.8 5.66734
    endloop
  endfacet
  facet normal 0.590399 -0.590403 0.550322
    outer loop
      vertex 158.544 1.05801 5.66734
      vertex 158.027 2.71557 8
      vertex 157.284 1.97298 8
    endloop
  endfacet
  facet normal 0.590395 -0.590406 0.550323
    outer loop
      vertex 158.027 2.71557 8
      vertex 158.544 1.05801 5.66734
      vertex 158.942 1.45623 5.66734
    endloop
  endfacet
  facet normal -0.379059 -0.743948 0.550324
    outer loop
      vertex 161.058 1.45623 5.66734
      vertex 161.037 3.19235 8
      vertex 160.556 1.7119 5.66734
    endloop
  endfacet
  facet normal -0.379063 -0.743947 0.550322
    outer loop
      vertex 161.037 3.19235 8
      vertex 161.058 1.45623 5.66734
      vertex 161.973 2.71557 8
    endloop
  endfacet
  facet normal -0.379063 0.743947 0.550322
    outer loop
      vertex 161.058 -1.45623 5.66734
      vertex 161.037 -3.19235 8
      vertex 161.973 -2.71557 8
    endloop
  endfacet
  facet normal -0.379059 0.743948 0.550324
    outer loop
      vertex 161.037 -3.19235 8
      vertex 161.058 -1.45623 5.66734
      vertex 160.556 -1.7119 5.66734
    endloop
  endfacet
  facet normal 0.590395 0.590406 0.550323
    outer loop
      vertex 158.544 -1.05801 5.66734
      vertex 158.027 -2.71557 8
      vertex 158.942 -1.45623 5.66734
    endloop
  endfacet
  facet normal 0.590399 0.590403 0.550322
    outer loop
      vertex 158.027 -2.71557 8
      vertex 158.544 -1.05801 5.66734
      vertex 157.284 -1.97298 8
    endloop
  endfacet
  facet normal 0.743948 -0.379061 0.550322
    outer loop
      vertex 156.808 1.03726 8
      vertex 158.544 1.05801 5.66734
      vertex 157.284 1.97298 8
    endloop
  endfacet
  facet normal 0.743953 -0.379047 0.550325
    outer loop
      vertex 158.544 1.05801 5.66734
      vertex 156.808 1.03726 8
      vertex 158.288 0.556231 5.66735
    endloop
  endfacet
  facet normal 0.379063 -0.743947 0.550322
    outer loop
      vertex 158.942 1.45623 5.66734
      vertex 158.963 3.19235 8
      vertex 158.027 2.71557 8
    endloop
  endfacet
  facet normal 0.379058 -0.743948 0.550324
    outer loop
      vertex 158.963 3.19235 8
      vertex 158.942 1.45623 5.66734
      vertex 159.444 1.7119 5.66735
    endloop
  endfacet
  facet normal -0.130615 -0.824672 0.550323
    outer loop
      vertex 160 3.35663 8
      vertex 160.556 1.7119 5.66734
      vertex 161.037 3.19235 8
    endloop
  endfacet
  facet normal -0.130616 -0.824672 0.550323
    outer loop
      vertex 160.556 1.7119 5.66734
      vertex 160 3.35663 8
      vertex 160 1.8 5.66734
    endloop
  endfacet
  facet normal -0.743948 -0.379061 0.550322
    outer loop
      vertex 161.456 1.05801 5.66734
      vertex 163.192 1.03726 8
      vertex 162.716 1.97298 8
    endloop
  endfacet
  facet normal -0.743952 -0.379048 0.550325
    outer loop
      vertex 163.192 1.03726 8
      vertex 161.456 1.05801 5.66734
      vertex 161.712 0.556231 5.66734
    endloop
  endfacet
  facet normal -0.743952 0.379048 0.550325
    outer loop
      vertex 161.456 -1.05801 5.66734
      vertex 163.192 -1.03726 8
      vertex 161.712 -0.556231 5.66734
    endloop
  endfacet
  facet normal -0.743948 0.379061 0.550322
    outer loop
      vertex 161.456 -1.05801 5.66734
      vertex 162.716 -1.97298 8
      vertex 163.192 -1.03726 8
    endloop
  endfacet
  facet normal -0.130615 0.824672 0.550323
    outer loop
      vertex 160.556 -1.7119 5.66734
      vertex 160 -3.35663 8
      vertex 161.037 -3.19235 8
    endloop
  endfacet
  facet normal -0.130616 0.824672 0.550323
    outer loop
      vertex 160 -3.35663 8
      vertex 160.556 -1.7119 5.66734
      vertex 160 -1.8 5.66734
    endloop
  endfacet
  facet normal 0.379058 0.743948 0.550324
    outer loop
      vertex 158.942 -1.45623 5.66734
      vertex 158.963 -3.19235 8
      vertex 159.444 -1.7119 5.66735
    endloop
  endfacet
  facet normal 0.379063 0.743947 0.550322
    outer loop
      vertex 158.963 -3.19235 8
      vertex 158.942 -1.45623 5.66734
      vertex 158.027 -2.71557 8
    endloop
  endfacet
  facet normal 0.824673 0.130625 0.55032
    outer loop
      vertex 156.643 0 8
      vertex 158.288 -0.556231 5.66735
      vertex 158.2 0 5.66734
    endloop
  endfacet
  facet normal 0.824673 0.130608 0.550324
    outer loop
      vertex 156.808 -1.03726 8
      vertex 158.288 -0.556231 5.66735
      vertex 156.643 0 8
    endloop
  endfacet
  facet normal -0.590407 -0.590395 0.550321
    outer loop
      vertex 161.456 1.05801 5.66734
      vertex 161.973 2.71557 8
      vertex 161.058 1.45623 5.66734
    endloop
  endfacet
  facet normal -0.590397 -0.590402 0.550324
    outer loop
      vertex 161.973 2.71557 8
      vertex 161.456 1.05801 5.66734
      vertex 162.716 1.97298 8
    endloop
  endfacet
  facet normal -0.590397 0.590402 0.550324
    outer loop
      vertex 161.456 -1.05801 5.66734
      vertex 161.973 -2.71557 8
      vertex 162.716 -1.97298 8
    endloop
  endfacet
  facet normal -0.590407 0.590395 0.550321
    outer loop
      vertex 161.973 -2.71557 8
      vertex 161.456 -1.05801 5.66734
      vertex 161.058 -1.45623 5.66734
    endloop
  endfacet
  facet normal 0.743953 0.379047 0.550325
    outer loop
      vertex 156.808 -1.03726 8
      vertex 158.544 -1.05801 5.66734
      vertex 158.288 -0.556231 5.66735
    endloop
  endfacet
  facet normal 0.743948 0.379061 0.550322
    outer loop
      vertex 157.284 -1.97298 8
      vertex 158.544 -1.05801 5.66734
      vertex 156.808 -1.03726 8
    endloop
  endfacet
  facet normal -0.987687 -0.156445 0
    outer loop
      vertex 161.8 0 2.97
      vertex 161.712 0.556231 5.66734
      vertex 161.712 0.556231 2.97
    endloop
  endfacet
  facet normal -0.987687 -0.156445 0
    outer loop
      vertex 161.712 0.556231 5.66734
      vertex 161.8 0 2.97
      vertex 161.8 0 5.66734
    endloop
  endfacet
  facet normal 0.987687 -0.156445 0
    outer loop
      vertex 158.2 0 5.66734
      vertex 158.288 0.556231 2.97
      vertex 158.288 0.556231 5.66735
    endloop
  endfacet
  facet normal 0.987687 -0.156445 0
    outer loop
      vertex 158.288 0.556231 2.97
      vertex 158.2 0 5.66734
      vertex 158.2 0 2.97
    endloop
  endfacet
  facet normal 0.156434 -0.987688 4.36509e-08
    outer loop
      vertex 159.444 1.7119 2.97
      vertex 160 1.8 5.66734
      vertex 159.444 1.7119 5.66735
    endloop
  endfacet
  facet normal 0.156434 -0.987688 0
    outer loop
      vertex 160 1.8 5.66734
      vertex 159.444 1.7119 2.97
      vertex 160 1.8 2.97
    endloop
  endfacet
  facet normal -0.156434 0.987688 0
    outer loop
      vertex 160.556 -1.7119 2.97
      vertex 160 -1.8 5.66734
      vertex 160.556 -1.7119 5.66734
    endloop
  endfacet
  facet normal -0.156434 0.987688 0
    outer loop
      vertex 160 -1.8 5.66734
      vertex 160.556 -1.7119 2.97
      vertex 160 -1.8 2.97
    endloop
  endfacet
  facet normal -0.453989 0.891007 0
    outer loop
      vertex 161.058 -1.45623 2.97
      vertex 160.556 -1.7119 5.66734
      vertex 161.058 -1.45623 5.66734
    endloop
  endfacet
  facet normal -0.453989 0.891007 0
    outer loop
      vertex 160.556 -1.7119 5.66734
      vertex 161.058 -1.45623 2.97
      vertex 160.556 -1.7119 2.97
    endloop
  endfacet
  facet normal -0.453989 -0.891007 0
    outer loop
      vertex 160.556 1.7119 2.97
      vertex 161.058 1.45623 5.66734
      vertex 160.556 1.7119 5.66734
    endloop
  endfacet
  facet normal -0.453989 -0.891007 -0
    outer loop
      vertex 161.058 1.45623 5.66734
      vertex 160.556 1.7119 2.97
      vertex 161.058 1.45623 2.97
    endloop
  endfacet
  facet normal -0.891014 -0.453977 0
    outer loop
      vertex 161.712 0.556231 2.97
      vertex 161.456 1.05801 5.66734
      vertex 161.456 1.05801 2.97
    endloop
  endfacet
  facet normal -0.891014 -0.453977 0
    outer loop
      vertex 161.456 1.05801 5.66734
      vertex 161.712 0.556231 2.97
      vertex 161.712 0.556231 5.66734
    endloop
  endfacet
  facet normal -0.156434 -0.987688 0
    outer loop
      vertex 160 1.8 2.97
      vertex 160.556 1.7119 5.66734
      vertex 160 1.8 5.66734
    endloop
  endfacet
  facet normal -0.156434 -0.987688 -0
    outer loop
      vertex 160.556 1.7119 5.66734
      vertex 160 1.8 2.97
      vertex 160.556 1.7119 2.97
    endloop
  endfacet
  facet normal 0.707101 -0.707113 9.37527e-08
    outer loop
      vertex 158.544 1.05801 2.97
      vertex 158.942 1.45623 5.66734
      vertex 158.544 1.05801 5.66734
    endloop
  endfacet
  facet normal 0.707101 -0.707113 0
    outer loop
      vertex 158.942 1.45623 5.66734
      vertex 158.544 1.05801 2.97
      vertex 158.942 1.45623 2.97
    endloop
  endfacet
  facet normal 0.891014 -0.453977 0
    outer loop
      vertex 158.288 0.556231 5.66735
      vertex 158.544 1.05801 2.97
      vertex 158.544 1.05801 5.66734
    endloop
  endfacet
  facet normal 0.891014 -0.453977 2.00635e-08
    outer loop
      vertex 158.288 0.556231 5.66735
      vertex 158.288 0.556231 2.97
      vertex 158.544 1.05801 2.97
    endloop
  endfacet
  facet normal 0.453989 -0.891007 0
    outer loop
      vertex 158.942 1.45623 2.97
      vertex 159.444 1.7119 5.66735
      vertex 158.942 1.45623 5.66734
    endloop
  endfacet
  facet normal 0.453989 -0.891007 0
    outer loop
      vertex 159.444 1.7119 5.66735
      vertex 158.942 1.45623 2.97
      vertex 159.444 1.7119 2.97
    endloop
  endfacet
  facet normal -0.987687 0.156445 0
    outer loop
      vertex 161.712 -0.556231 2.97
      vertex 161.8 0 5.66734
      vertex 161.8 0 2.97
    endloop
  endfacet
  facet normal -0.987687 0.156445 0
    outer loop
      vertex 161.8 0 5.66734
      vertex 161.712 -0.556231 2.97
      vertex 161.712 -0.556231 5.66734
    endloop
  endfacet
  facet normal 0 0 1
    outer loop
      vertex 161.712 0.556231 2.97
      vertex 161.712 -0.556231 2.97
      vertex 161.8 0 2.97
    endloop
  endfacet
  facet normal 0 0 1
    outer loop
      vertex 161.456 1.05801 2.97
      vertex 161.712 -0.556231 2.97
      vertex 161.712 0.556231 2.97
    endloop
  endfacet
  facet normal 0 0 1
    outer loop
      vertex 161.456 1.05801 2.97
      vertex 161.456 -1.05801 2.97
      vertex 161.712 -0.556231 2.97
    endloop
  endfacet
  facet normal 0 0 1
    outer loop
      vertex 161.058 1.45623 2.97
      vertex 161.456 -1.05801 2.97
      vertex 161.456 1.05801 2.97
    endloop
  endfacet
  facet normal 0 0 1
    outer loop
      vertex 161.058 1.45623 2.97
      vertex 161.058 -1.45623 2.97
      vertex 161.456 -1.05801 2.97
    endloop
  endfacet
  facet normal 0 0 1
    outer loop
      vertex 160.556 1.7119 2.97
      vertex 161.058 -1.45623 2.97
      vertex 161.058 1.45623 2.97
    endloop
  endfacet
  facet normal 0 0 1
    outer loop
      vertex 160.556 1.7119 2.97
      vertex 160.556 -1.7119 2.97
      vertex 161.058 -1.45623 2.97
    endloop
  endfacet
  facet normal 0 0 1
    outer loop
      vertex 160 1.8 2.97
      vertex 160.556 -1.7119 2.97
      vertex 160.556 1.7119 2.97
    endloop
  endfacet
  facet normal 0 0 1
    outer loop
      vertex 160 1.8 2.97
      vertex 160 -1.8 2.97
      vertex 160.556 -1.7119 2.97
    endloop
  endfacet
  facet normal -0 0 1
    outer loop
      vertex 159.444 1.7119 2.97
      vertex 160 -1.8 2.97
      vertex 160 1.8 2.97
    endloop
  endfacet
  facet normal 0 0 1
    outer loop
      vertex 159.444 1.7119 2.97
      vertex 159.444 -1.7119 2.97
      vertex 160 -1.8 2.97
    endloop
  endfacet
  facet normal -0 0 1
    outer loop
      vertex 158.942 1.45623 2.97
      vertex 159.444 -1.7119 2.97
      vertex 159.444 1.7119 2.97
    endloop
  endfacet
  facet normal 0 0 1
    outer loop
      vertex 158.942 1.45623 2.97
      vertex 158.942 -1.45623 2.97
      vertex 159.444 -1.7119 2.97
    endloop
  endfacet
  facet normal -0 0 1
    outer loop
      vertex 158.544 1.05801 2.97
      vertex 158.942 -1.45623 2.97
      vertex 158.942 1.45623 2.97
    endloop
  endfacet
  facet normal 0 0 1
    outer loop
      vertex 158.544 1.05801 2.97
      vertex 158.544 -1.05801 2.97
      vertex 158.942 -1.45623 2.97
    endloop
  endfacet
  facet normal -0 0 1
    outer loop
      vertex 158.288 0.556231 2.97
      vertex 158.544 -1.05801 2.97
      vertex 158.544 1.05801 2.97
    endloop
  endfacet
  facet normal 0 0 1
    outer loop
      vertex 158.288 0.556231 2.97
      vertex 158.288 -0.556231 2.97
      vertex 158.544 -1.05801 2.97
    endloop
  endfacet
  facet normal 0 -0 1
    outer loop
      vertex 158.288 -0.556231 2.97
      vertex 158.288 0.556231 2.97
      vertex 158.2 0 2.97
    endloop
  endfacet
  facet normal -0.707114 -0.7071 -6.25006e-08
    outer loop
      vertex 161.058 1.45623 5.66734
      vertex 161.058 1.45623 2.97
      vertex 161.456 1.05801 5.66734
    endloop
  endfacet
  facet normal -0.707101 -0.707113 -3.93754e-06
    outer loop
      vertex 161.456 1.05801 2.97
      vertex 161.456 1.05801 5.66734
      vertex 161.058 1.45623 2.97
    endloop
  endfacet
  facet normal 0.987687 0.156445 0
    outer loop
      vertex 158.288 -0.556231 5.66735
      vertex 158.2 0 2.97
      vertex 158.2 0 5.66734
    endloop
  endfacet
  facet normal 0.987687 0.156445 0
    outer loop
      vertex 158.2 0 2.97
      vertex 158.288 -0.556231 5.66735
      vertex 158.288 -0.556231 2.97
    endloop
  endfacet
  facet normal -0.707114 0.7071 -3.93762e-06
    outer loop
      vertex 161.456 -1.05801 2.97
      vertex 161.058 -1.45623 5.66734
      vertex 161.456 -1.05801 5.66734
    endloop
  endfacet
  facet normal -0.707101 0.707113 -6.25018e-08
    outer loop
      vertex 161.058 -1.45623 5.66734
      vertex 161.456 -1.05801 2.97
      vertex 161.058 -1.45623 2.97
    endloop
  endfacet
  facet normal 0.453989 0.891007 -0
    outer loop
      vertex 159.444 -1.7119 2.97
      vertex 158.942 -1.45623 5.66734
      vertex 159.444 -1.7119 5.66735
    endloop
  endfacet
  facet normal 0.453989 0.891007 0
    outer loop
      vertex 158.942 -1.45623 5.66734
      vertex 159.444 -1.7119 2.97
      vertex 158.942 -1.45623 2.97
    endloop
  endfacet
  facet normal 0.891014 0.453977 2.00635e-08
    outer loop
      vertex 158.544 -1.05801 5.66734
      vertex 158.288 -0.556231 2.97
      vertex 158.288 -0.556231 5.66735
    endloop
  endfacet
  facet normal 0.891014 0.453977 0
    outer loop
      vertex 158.288 -0.556231 2.97
      vertex 158.544 -1.05801 5.66734
      vertex 158.544 -1.05801 2.97
    endloop
  endfacet
  facet normal 0.707101 0.707113 -0
    outer loop
      vertex 158.942 -1.45623 2.97
      vertex 158.544 -1.05801 5.66734
      vertex 158.942 -1.45623 5.66734
    endloop
  endfacet
  facet normal 0.707101 0.707113 9.37526e-08
    outer loop
      vertex 158.544 -1.05801 5.66734
      vertex 158.942 -1.45623 2.97
      vertex 158.544 -1.05801 2.97
    endloop
  endfacet
  facet normal -0.891014 0.453977 0
    outer loop
      vertex 161.456 -1.05801 2.97
      vertex 161.712 -0.556231 5.66734
      vertex 161.712 -0.556231 2.97
    endloop
  endfacet
  facet normal -0.891014 0.453977 0
    outer loop
      vertex 161.712 -0.556231 5.66734
      vertex 161.456 -1.05801 2.97
      vertex 161.456 -1.05801 5.66734
    endloop
  endfacet
  facet normal 0.156434 0.987688 -0
    outer loop
      vertex 160 -1.8 2.97
      vertex 159.444 -1.7119 5.66735
      vertex 160 -1.8 5.66734
    endloop
  endfacet
  facet normal 0.156434 0.987688 4.36509e-08
    outer loop
      vertex 159.444 -1.7119 5.66735
      vertex 160 -1.8 2.97
      vertex 159.444 -1.7119 2.97
    endloop
  endfacet
endsolid OpenSCAD_Model
