solid OpenSCAD_Model
  facet normal -1 0 0
    outer loop
      vertex -13.812 -7.033 0
      vertex -13.812 8.84 8
      vertex -13.812 8.84 0
    endloop
  endfacet
  facet normal -1 -0 0
    outer loop
      vertex -13.812 8.84 8
      vertex -13.812 -7.033 0
      vertex -13.812 -7.033 8
    endloop
  endfacet
  facet normal 1 -0 0
    outer loop
      vertex 14.932 -7.033 8
      vertex 14.932 8.84 0
      vertex 14.932 8.84 8
    endloop
  endfacet
  facet normal 1 0 0
    outer loop
      vertex 14.932 8.84 0
      vertex 14.932 -7.033 8
      vertex 14.932 -7.033 0
    endloop
  endfacet
  facet normal 0 0 -1
    outer loop
      vertex -13.812 -7.033 0
      vertex 14.932 8.84 0
      vertex 14.932 -7.033 0
    endloop
  endfacet
  facet normal -0 0 -1
    outer loop
      vertex 14.932 8.84 0
      vertex -13.812 -7.033 0
      vertex -13.812 8.84 0
    endloop
  endfacet
  facet normal 0 1 -0
    outer loop
      vertex 14.932 8.84 0
      vertex -13.812 8.84 8
      vertex 14.932 8.84 8
    endloop
  endfacet
  facet normal 0 1 0
    outer loop
      vertex -13.812 8.84 8
      vertex 14.932 8.84 0
      vertex -13.812 8.84 0
    endloop
  endfacet
  facet normal 0 -1 0
    outer loop
      vertex -13.812 -7.033 0
      vertex 14.932 -7.033 8
      vertex -13.812 -7.033 8
    endloop
  endfacet
  facet normal 0 -1 -0
    outer loop
      vertex 14.932 -7.033 8
      vertex -13.812 -7.033 0
      vertex 14.932 -7.033 0
    endloop
  endfacet
  facet normal 0 0 1
    outer loop
      vertex 14.932 8.84 8
      vertex 3.35663 0 8
      vertex 14.932 -7.033 8
    endloop
  endfacet
  facet normal 0 0 1
    outer loop
      vertex 14.932 8.84 8
      vertex 3.19235 1.03726 8
      vertex 3.35663 0 8
    endloop
  endfacet
  facet normal 0 0 1
    outer loop
      vertex 14.932 8.84 8
      vertex 2.71557 1.97298 8
      vertex 3.19235 1.03726 8
    endloop
  endfacet
  facet normal 0 0 1
    outer loop
      vertex 14.932 8.84 8
      vertex 1.97298 2.71557 8
      vertex 2.71557 1.97298 8
    endloop
  endfacet
  facet normal 0 0 1
    outer loop
      vertex 14.932 8.84 8
      vertex 1.03726 3.19235 8
      vertex 1.97298 2.71557 8
    endloop
  endfacet
  facet normal 0 0 1
    outer loop
      vertex 14.932 8.84 8
      vertex 0 3.35663 8
      vertex 1.03726 3.19235 8
    endloop
  endfacet
  facet normal -0 0 1
    outer loop
      vertex -13.812 8.84 8
      vertex 0 3.35663 8
      vertex 14.932 8.84 8
    endloop
  endfacet
  facet normal 0 0 1
    outer loop
      vertex -3.19235 1.03726 8
      vertex -13.812 8.84 8
      vertex -3.35663 0 8
    endloop
  endfacet
  facet normal 0 0 1
    outer loop
      vertex -2.71557 1.97298 8
      vertex -13.812 8.84 8
      vertex -3.19235 1.03726 8
    endloop
  endfacet
  facet normal 0 0 1
    outer loop
      vertex -1.97298 2.71557 8
      vertex -13.812 8.84 8
      vertex -2.71557 1.97298 8
    endloop
  endfacet
  facet normal 0 0 1
    outer loop
      vertex -1.03726 3.19235 8
      vertex -13.812 8.84 8
      vertex -1.97298 2.71557 8
    endloop
  endfacet
  facet normal 0 0 1
    outer loop
      vertex 0 3.35663 8
      vertex -13.812 8.84 8
      vertex -1.03726 3.19235 8
    endloop
  endfacet
  facet normal -0 0 1
    outer loop
      vertex 3.19235 -1.03726 8
      vertex 14.932 -7.033 8
      vertex 3.35663 0 8
    endloop
  endfacet
  facet normal -0 0 1
    outer loop
      vertex 2.71557 -1.97298 8
      vertex 14.932 -7.033 8
      vertex 3.19235 -1.03726 8
    endloop
  endfacet
  facet normal -0 0 1
    outer loop
      vertex 1.97298 -2.71557 8
      vertex 14.932 -7.033 8
      vertex 2.71557 -1.97298 8
    endloop
  endfacet
  facet normal -0 0 1
    outer loop
      vertex 1.03726 -3.19235 8
      vertex 14.932 -7.033 8
      vertex 1.97298 -2.71557 8
    endloop
  endfacet
  facet normal -0 0 1
    outer loop
      vertex 0 -3.35663 8
      vertex 14.932 -7.033 8
      vertex 1.03726 -3.19235 8
    endloop
  endfacet
  facet normal 0 0 1
    outer loop
      vertex -13.812 -7.033 8
      vertex 0 -3.35663 8
      vertex -1.03726 -3.19235 8
    endloop
  endfacet
  facet normal 0 0 1
    outer loop
      vertex -13.812 -7.033 8
      vertex -3.35663 0 8
      vertex -13.812 8.84 8
    endloop
  endfacet
  facet normal 0 0 1
    outer loop
      vertex -3.35663 0 8
      vertex -13.812 -7.033 8
      vertex -3.19235 -1.03726 8
    endloop
  endfacet
  facet normal 0 0 1
    outer loop
      vertex -3.19235 -1.03726 8
      vertex -13.812 -7.033 8
      vertex -2.71557 -1.97298 8
    endloop
  endfacet
  facet normal 0 0 1
    outer loop
      vertex 0 -3.35663 8
      vertex -13.812 -7.033 8
      vertex 14.932 -7.033 8
    endloop
  endfacet
  facet normal 0 0 1
    outer loop
      vertex -1.97298 -2.71557 8
      vertex -13.812 -7.033 8
      vertex -1.03726 -3.19235 8
    endloop
  endfacet
  facet normal 0 0 1
    outer loop
      vertex -2.71557 -1.97298 8
      vertex -13.812 -7.033 8
      vertex -1.97298 -2.71557 8
    endloop
  endfacet
  facet normal -0.824672 -0.130615 0.550323
    outer loop
      vertex 3.35663 0 8
      vertex 1.7119 0.556231 5.66734
      vertex 1.8 0 5.66734
    endloop
  endfacet
  facet normal -0.824672 -0.130615 0.550323
    outer loop
      vertex 1.7119 0.556231 5.66734
      vertex 3.35663 0 8
      vertex 3.19235 1.03726 8
    endloop
  endfacet
  facet normal 0.824672 -0.130615 0.550323
    outer loop
      vertex -3.35663 0 8
      vertex -1.7119 0.556231 5.66734
      vertex -3.19235 1.03726 8
    endloop
  endfacet
  facet normal 0.824672 -0.130615 0.550323
    outer loop
      vertex -1.7119 0.556231 5.66734
      vertex -3.35663 0 8
      vertex -1.8 0 5.66734
    endloop
  endfacet
  facet normal -0.824672 0.130615 0.550323
    outer loop
      vertex 1.7119 -0.556231 5.66734
      vertex 3.35663 0 8
      vertex 1.8 0 5.66734
    endloop
  endfacet
  facet normal -0.824672 0.130615 0.550323
    outer loop
      vertex 3.35663 0 8
      vertex 1.7119 -0.556231 5.66734
      vertex 3.19235 -1.03726 8
    endloop
  endfacet
  facet normal 0.130615 -0.824672 0.550323
    outer loop
      vertex -0.556231 1.7119 5.66734
      vertex 0 3.35663 8
      vertex -1.03726 3.19235 8
    endloop
  endfacet
  facet normal 0.130615 -0.824672 0.550323
    outer loop
      vertex 0 3.35663 8
      vertex -0.556231 1.7119 5.66734
      vertex 0 1.8 5.66734
    endloop
  endfacet
  facet normal 0.130615 0.824672 0.550323
    outer loop
      vertex 0 -3.35663 8
      vertex -0.556231 -1.7119 5.66734
      vertex -1.03726 -3.19235 8
    endloop
  endfacet
  facet normal 0.130615 0.824672 0.550323
    outer loop
      vertex -0.556231 -1.7119 5.66734
      vertex 0 -3.35663 8
      vertex 0 -1.8 5.66734
    endloop
  endfacet
  facet normal 0.5904 -0.5904 0.550323
    outer loop
      vertex -2.71557 1.97298 8
      vertex -1.05801 1.45623 5.66734
      vertex -1.97298 2.71557 8
    endloop
  endfacet
  facet normal 0.5904 -0.5904 0.550323
    outer loop
      vertex -1.05801 1.45623 5.66734
      vertex -2.71557 1.97298 8
      vertex -1.45623 1.05801 5.66734
    endloop
  endfacet
  facet normal -0.5904 -0.5904 0.550323
    outer loop
      vertex 1.05801 1.45623 5.66734
      vertex 2.71557 1.97298 8
      vertex 1.97298 2.71557 8
    endloop
  endfacet
  facet normal -0.5904 -0.5904 0.550323
    outer loop
      vertex 2.71557 1.97298 8
      vertex 1.05801 1.45623 5.66734
      vertex 1.45623 1.05801 5.66734
    endloop
  endfacet
  facet normal -0.37906 0.743948 0.550323
    outer loop
      vertex 1.05801 -1.45623 5.66734
      vertex 1.03726 -3.19235 8
      vertex 1.97298 -2.71557 8
    endloop
  endfacet
  facet normal -0.379061 0.743948 0.550323
    outer loop
      vertex 1.03726 -3.19235 8
      vertex 1.05801 -1.45623 5.66734
      vertex 0.556231 -1.7119 5.66734
    endloop
  endfacet
  facet normal 0.743948 0.379061 0.550323
    outer loop
      vertex -3.19235 -1.03726 8
      vertex -1.45623 -1.05801 5.66734
      vertex -1.7119 -0.556231 5.66734
    endloop
  endfacet
  facet normal 0.743948 0.37906 0.550323
    outer loop
      vertex -2.71557 -1.97298 8
      vertex -1.45623 -1.05801 5.66734
      vertex -3.19235 -1.03726 8
    endloop
  endfacet
  facet normal 0.743948 -0.37906 0.550323
    outer loop
      vertex -3.19235 1.03726 8
      vertex -1.45623 1.05801 5.66734
      vertex -2.71557 1.97298 8
    endloop
  endfacet
  facet normal 0.743948 -0.379061 0.550323
    outer loop
      vertex -1.45623 1.05801 5.66734
      vertex -3.19235 1.03726 8
      vertex -1.7119 0.556231 5.66734
    endloop
  endfacet
  facet normal 0.37906 -0.743948 0.550323
    outer loop
      vertex -1.05801 1.45623 5.66734
      vertex -1.03726 3.19235 8
      vertex -1.97298 2.71557 8
    endloop
  endfacet
  facet normal 0.379061 -0.743948 0.550323
    outer loop
      vertex -1.03726 3.19235 8
      vertex -1.05801 1.45623 5.66734
      vertex -0.556231 1.7119 5.66734
    endloop
  endfacet
  facet normal -0.379061 -0.743948 0.550323
    outer loop
      vertex 1.05801 1.45623 5.66734
      vertex 1.03726 3.19235 8
      vertex 0.556231 1.7119 5.66734
    endloop
  endfacet
  facet normal -0.37906 -0.743948 0.550323
    outer loop
      vertex 1.03726 3.19235 8
      vertex 1.05801 1.45623 5.66734
      vertex 1.97298 2.71557 8
    endloop
  endfacet
  facet normal -0.743948 -0.37906 0.550323
    outer loop
      vertex 1.45623 1.05801 5.66734
      vertex 3.19235 1.03726 8
      vertex 2.71557 1.97298 8
    endloop
  endfacet
  facet normal -0.743948 -0.379061 0.550323
    outer loop
      vertex 3.19235 1.03726 8
      vertex 1.45623 1.05801 5.66734
      vertex 1.7119 0.556231 5.66734
    endloop
  endfacet
  facet normal -0.130615 0.824672 0.550323
    outer loop
      vertex 0.556231 -1.7119 5.66734
      vertex 0 -3.35663 8
      vertex 1.03726 -3.19235 8
    endloop
  endfacet
  facet normal -0.130615 0.824672 0.550323
    outer loop
      vertex 0 -3.35663 8
      vertex 0.556231 -1.7119 5.66734
      vertex 0 -1.8 5.66734
    endloop
  endfacet
  facet normal 0.824672 0.130615 0.550323
    outer loop
      vertex -3.35663 0 8
      vertex -1.7119 -0.556231 5.66734
      vertex -1.8 0 5.66734
    endloop
  endfacet
  facet normal 0.824672 0.130615 0.550323
    outer loop
      vertex -1.7119 -0.556231 5.66734
      vertex -3.35663 0 8
      vertex -3.19235 -1.03726 8
    endloop
  endfacet
  facet normal -0.130615 -0.824672 0.550323
    outer loop
      vertex 0 3.35663 8
      vertex 0.556231 1.7119 5.66734
      vertex 1.03726 3.19235 8
    endloop
  endfacet
  facet normal -0.130615 -0.824672 0.550323
    outer loop
      vertex 0.556231 1.7119 5.66734
      vertex 0 3.35663 8
      vertex 0 1.8 5.66734
    endloop
  endfacet
  facet normal -0.5904 0.5904 0.550323
    outer loop
      vertex 1.05801 -1.45623 5.66734
      vertex 2.71557 -1.97298 8
      vertex 1.45623 -1.05801 5.66734
    endloop
  endfacet
  facet normal -0.5904 0.5904 0.550323
    outer loop
      vertex 2.71557 -1.97298 8
      vertex 1.05801 -1.45623 5.66734
      vertex 1.97298 -2.71557 8
    endloop
  endfacet
  facet normal -0.743948 0.379061 0.550323
    outer loop
      vertex 1.45623 -1.05801 5.66734
      vertex 3.19235 -1.03726 8
      vertex 1.7119 -0.556231 5.66734
    endloop
  endfacet
  facet normal -0.743948 0.37906 0.550323
    outer loop
      vertex 1.45623 -1.05801 5.66734
      vertex 2.71557 -1.97298 8
      vertex 3.19235 -1.03726 8
    endloop
  endfacet
  facet normal 0.5904 0.5904 0.550323
    outer loop
      vertex -2.71557 -1.97298 8
      vertex -1.05801 -1.45623 5.66734
      vertex -1.45623 -1.05801 5.66734
    endloop
  endfacet
  facet normal 0.5904 0.5904 0.550323
    outer loop
      vertex -1.05801 -1.45623 5.66734
      vertex -2.71557 -1.97298 8
      vertex -1.97298 -2.71557 8
    endloop
  endfacet
  facet normal 0.379061 0.743948 0.550323
    outer loop
      vertex -1.05801 -1.45623 5.66734
      vertex -1.03726 -3.19235 8
      vertex -0.556231 -1.7119 5.66734
    endloop
  endfacet
  facet normal 0.37906 0.743948 0.550323
    outer loop
      vertex -1.03726 -3.19235 8
      vertex -1.05801 -1.45623 5.66734
      vertex -1.97298 -2.71557 8
    endloop
  endfacet
  facet normal -0.987689 -0.156433 0
    outer loop
      vertex 1.8 0 0.0999994
      vertex 1.7119 0.556231 5.66734
      vertex 1.7119 0.556231 0.0999994
    endloop
  endfacet
  facet normal -0.987689 -0.156433 0
    outer loop
      vertex 1.7119 0.556231 5.66734
      vertex 1.8 0 0.0999994
      vertex 1.8 0 5.66734
    endloop
  endfacet
  facet normal 0.987689 -0.156433 0
    outer loop
      vertex -1.8 0 5.66734
      vertex -1.7119 0.556231 0.0999994
      vertex -1.7119 0.556231 5.66734
    endloop
  endfacet
  facet normal 0.987689 -0.156433 0
    outer loop
      vertex -1.7119 0.556231 0.0999994
      vertex -1.8 0 5.66734
      vertex -1.8 0 0.0999994
    endloop
  endfacet
  facet normal 0.987689 0.156433 0
    outer loop
      vertex -1.7119 -0.556231 5.66734
      vertex -1.8 0 0.0999994
      vertex -1.8 0 5.66734
    endloop
  endfacet
  facet normal 0.987689 0.156433 0
    outer loop
      vertex -1.8 0 0.0999994
      vertex -1.7119 -0.556231 5.66734
      vertex -1.7119 -0.556231 0.0999994
    endloop
  endfacet
  facet normal 0.156433 -0.987689 0
    outer loop
      vertex -0.556231 1.7119 0.0999994
      vertex 0 1.8 5.66734
      vertex -0.556231 1.7119 5.66734
    endloop
  endfacet
  facet normal 0.156433 -0.987689 0
    outer loop
      vertex 0 1.8 5.66734
      vertex -0.556231 1.7119 0.0999994
      vertex 0 1.8 0.0999994
    endloop
  endfacet
  facet normal -0.707107 -0.707107 0
    outer loop
      vertex 1.05801 1.45623 0.0999994
      vertex 1.45623 1.05801 5.66734
      vertex 1.05801 1.45623 5.66734
    endloop
  endfacet
  facet normal -0.707107 -0.707107 0
    outer loop
      vertex 1.45623 1.05801 0.0999994
      vertex 1.45623 1.05801 5.66734
      vertex 1.05801 1.45623 0.0999994
    endloop
  endfacet
  facet normal -0.891006 -0.453991 0
    outer loop
      vertex 1.7119 0.556231 0.0999994
      vertex 1.45623 1.05801 5.66734
      vertex 1.45623 1.05801 0.0999994
    endloop
  endfacet
  facet normal -0.891006 -0.453991 0
    outer loop
      vertex 1.45623 1.05801 5.66734
      vertex 1.7119 0.556231 0.0999994
      vertex 1.7119 0.556231 5.66734
    endloop
  endfacet
  facet normal 0.453991 -0.891006 0
    outer loop
      vertex -1.05801 1.45623 0.0999994
      vertex -0.556231 1.7119 5.66734
      vertex -1.05801 1.45623 5.66734
    endloop
  endfacet
  facet normal 0.453991 -0.891006 0
    outer loop
      vertex -0.556231 1.7119 5.66734
      vertex -1.05801 1.45623 0.0999994
      vertex -0.556231 1.7119 0.0999994
    endloop
  endfacet
  facet normal 0.891006 -0.453991 0
    outer loop
      vertex -1.7119 0.556231 5.66734
      vertex -1.45623 1.05801 0.0999994
      vertex -1.45623 1.05801 5.66734
    endloop
  endfacet
  facet normal 0.891006 -0.453991 0
    outer loop
      vertex -1.45623 1.05801 0.0999994
      vertex -1.7119 0.556231 5.66734
      vertex -1.7119 0.556231 0.0999994
    endloop
  endfacet
  facet normal 0.707107 -0.707107 0
    outer loop
      vertex -1.45623 1.05801 5.66734
      vertex -1.05801 1.45623 0.0999994
      vertex -1.05801 1.45623 5.66734
    endloop
  endfacet
  facet normal 0.707107 -0.707107 0
    outer loop
      vertex -1.45623 1.05801 5.66734
      vertex -1.45623 1.05801 0.0999994
      vertex -1.05801 1.45623 0.0999994
    endloop
  endfacet
  facet normal -0.453991 -0.891006 0
    outer loop
      vertex 0.556231 1.7119 0.0999994
      vertex 1.05801 1.45623 5.66734
      vertex 0.556231 1.7119 5.66734
    endloop
  endfacet
  facet normal -0.453991 -0.891006 -0
    outer loop
      vertex 1.05801 1.45623 5.66734
      vertex 0.556231 1.7119 0.0999994
      vertex 1.05801 1.45623 0.0999994
    endloop
  endfacet
  facet normal -0.156433 -0.987689 0
    outer loop
      vertex 0 1.8 0.0999994
      vertex 0.556231 1.7119 5.66734
      vertex 0 1.8 5.66734
    endloop
  endfacet
  facet normal -0.156433 -0.987689 -0
    outer loop
      vertex 0.556231 1.7119 5.66734
      vertex 0 1.8 0.0999994
      vertex 0.556231 1.7119 0.0999994
    endloop
  endfacet
  facet normal -0.453991 0.891006 0
    outer loop
      vertex 1.05801 -1.45623 0.0999994
      vertex 0.556231 -1.7119 5.66734
      vertex 1.05801 -1.45623 5.66734
    endloop
  endfacet
  facet normal -0.453991 0.891006 0
    outer loop
      vertex 0.556231 -1.7119 5.66734
      vertex 1.05801 -1.45623 0.0999994
      vertex 0.556231 -1.7119 0.0999994
    endloop
  endfacet
  facet normal -0.707107 0.707107 0
    outer loop
      vertex 1.45623 -1.05801 0.0999994
      vertex 1.05801 -1.45623 5.66734
      vertex 1.45623 -1.05801 5.66734
    endloop
  endfacet
  facet normal -0.707107 0.707107 0
    outer loop
      vertex 1.05801 -1.45623 0.0999994
      vertex 1.05801 -1.45623 5.66734
      vertex 1.45623 -1.05801 0.0999994
    endloop
  endfacet
  facet normal -0.987689 0.156433 0
    outer loop
      vertex 1.7119 -0.556231 0.0999994
      vertex 1.8 0 5.66734
      vertex 1.8 0 0.0999994
    endloop
  endfacet
  facet normal -0.987689 0.156433 0
    outer loop
      vertex 1.8 0 5.66734
      vertex 1.7119 -0.556231 0.0999994
      vertex 1.7119 -0.556231 5.66734
    endloop
  endfacet
  facet normal 0.891006 0.453991 0
    outer loop
      vertex -1.45623 -1.05801 5.66734
      vertex -1.7119 -0.556231 0.0999994
      vertex -1.7119 -0.556231 5.66734
    endloop
  endfacet
  facet normal 0.891006 0.453991 0
    outer loop
      vertex -1.7119 -0.556231 0.0999994
      vertex -1.45623 -1.05801 5.66734
      vertex -1.45623 -1.05801 0.0999994
    endloop
  endfacet
  facet normal 0 0 1
    outer loop
      vertex 1.7119 0.556231 0.0999994
      vertex 1.7119 -0.556231 0.0999994
      vertex 1.8 0 0.0999994
    endloop
  endfacet
  facet normal 0 0 1
    outer loop
      vertex 1.45623 1.05801 0.0999994
      vertex 1.7119 -0.556231 0.0999994
      vertex 1.7119 0.556231 0.0999994
    endloop
  endfacet
  facet normal 0 0 1
    outer loop
      vertex 1.45623 1.05801 0.0999994
      vertex 1.45623 -1.05801 0.0999994
      vertex 1.7119 -0.556231 0.0999994
    endloop
  endfacet
  facet normal 0 0 1
    outer loop
      vertex 1.05801 1.45623 0.0999994
      vertex 1.45623 -1.05801 0.0999994
      vertex 1.45623 1.05801 0.0999994
    endloop
  endfacet
  facet normal 0 0 1
    outer loop
      vertex 1.05801 1.45623 0.0999994
      vertex 1.05801 -1.45623 0.0999994
      vertex 1.45623 -1.05801 0.0999994
    endloop
  endfacet
  facet normal 0 0 1
    outer loop
      vertex 0.556231 1.7119 0.0999994
      vertex 1.05801 -1.45623 0.0999994
      vertex 1.05801 1.45623 0.0999994
    endloop
  endfacet
  facet normal 0 0 1
    outer loop
      vertex 0.556231 1.7119 0.0999994
      vertex 0.556231 -1.7119 0.0999994
      vertex 1.05801 -1.45623 0.0999994
    endloop
  endfacet
  facet normal 0 0 1
    outer loop
      vertex 0 1.8 0.0999994
      vertex 0.556231 -1.7119 0.0999994
      vertex 0.556231 1.7119 0.0999994
    endloop
  endfacet
  facet normal 0 0 1
    outer loop
      vertex 0 1.8 0.0999994
      vertex 0 -1.8 0.0999994
      vertex 0.556231 -1.7119 0.0999994
    endloop
  endfacet
  facet normal -0 0 1
    outer loop
      vertex -0.556231 1.7119 0.0999994
      vertex 0 -1.8 0.0999994
      vertex 0 1.8 0.0999994
    endloop
  endfacet
  facet normal 0 0 1
    outer loop
      vertex -0.556231 1.7119 0.0999994
      vertex -0.556231 -1.7119 0.0999994
      vertex 0 -1.8 0.0999994
    endloop
  endfacet
  facet normal -0 0 1
    outer loop
      vertex -1.05801 1.45623 0.0999994
      vertex -0.556231 -1.7119 0.0999994
      vertex -0.556231 1.7119 0.0999994
    endloop
  endfacet
  facet normal 0 0 1
    outer loop
      vertex -1.05801 1.45623 0.0999994
      vertex -1.05801 -1.45623 0.0999994
      vertex -0.556231 -1.7119 0.0999994
    endloop
  endfacet
  facet normal -0 0 1
    outer loop
      vertex -1.45623 1.05801 0.0999994
      vertex -1.05801 -1.45623 0.0999994
      vertex -1.05801 1.45623 0.0999994
    endloop
  endfacet
  facet normal 0 0 1
    outer loop
      vertex -1.45623 1.05801 0.0999994
      vertex -1.45623 -1.05801 0.0999994
      vertex -1.05801 -1.45623 0.0999994
    endloop
  endfacet
  facet normal -0 0 1
    outer loop
      vertex -1.7119 0.556231 0.0999994
      vertex -1.45623 -1.05801 0.0999994
      vertex -1.45623 1.05801 0.0999994
    endloop
  endfacet
  facet normal 0 0 1
    outer loop
      vertex -1.7119 0.556231 0.0999994
      vertex -1.7119 -0.556231 0.0999994
      vertex -1.45623 -1.05801 0.0999994
    endloop
  endfacet
  facet normal 0 -0 1
    outer loop
      vertex -1.7119 -0.556231 0.0999994
      vertex -1.7119 0.556231 0.0999994
      vertex -1.8 0 0.0999994
    endloop
  endfacet
  facet normal -0.891006 0.453991 0
    outer loop
      vertex 1.45623 -1.05801 0.0999994
      vertex 1.7119 -0.556231 5.66734
      vertex 1.7119 -0.556231 0.0999994
    endloop
  endfacet
  facet normal -0.891006 0.453991 0
    outer loop
      vertex 1.7119 -0.556231 5.66734
      vertex 1.45623 -1.05801 0.0999994
      vertex 1.45623 -1.05801 5.66734
    endloop
  endfacet
  facet normal 0.156433 0.987689 -0
    outer loop
      vertex 0 -1.8 0.0999994
      vertex -0.556231 -1.7119 5.66734
      vertex 0 -1.8 5.66734
    endloop
  endfacet
  facet normal 0.156433 0.987689 0
    outer loop
      vertex -0.556231 -1.7119 5.66734
      vertex 0 -1.8 0.0999994
      vertex -0.556231 -1.7119 0.0999994
    endloop
  endfacet
  facet normal -0.156433 0.987689 0
    outer loop
      vertex 0.556231 -1.7119 0.0999994
      vertex 0 -1.8 5.66734
      vertex 0.556231 -1.7119 5.66734
    endloop
  endfacet
  facet normal -0.156433 0.987689 0
    outer loop
      vertex 0 -1.8 5.66734
      vertex 0.556231 -1.7119 0.0999994
      vertex 0 -1.8 0.0999994
    endloop
  endfacet
  facet normal 0.707107 0.707107 0
    outer loop
      vertex -1.05801 -1.45623 5.66734
      vertex -1.45623 -1.05801 0.0999994
      vertex -1.45623 -1.05801 5.66734
    endloop
  endfacet
  facet normal 0.707107 0.707107 0
    outer loop
      vertex -1.05801 -1.45623 5.66734
      vertex -1.05801 -1.45623 0.0999994
      vertex -1.45623 -1.05801 0.0999994
    endloop
  endfacet
  facet normal 0.453991 0.891006 -0
    outer loop
      vertex -0.556231 -1.7119 0.0999994
      vertex -1.05801 -1.45623 5.66734
      vertex -0.556231 -1.7119 5.66734
    endloop
  endfacet
  facet normal 0.453991 0.891006 0
    outer loop
      vertex -1.05801 -1.45623 5.66734
      vertex -0.556231 -1.7119 0.0999994
      vertex -1.05801 -1.45623 0.0999994
    endloop
  endfacet
endsolid OpenSCAD_Model
