solid OpenSCAD_Model
  facet normal -0 0 -1
    outer loop
      vertex 48.1914 7.48332 0
      vertex 14.4045 2.26062 0
      vertex 33.9093 21.7655 0
    endloop
  endfacet
  facet normal 0 0 -1
    outer loop
      vertex 48.1914 7.48332 0
      vertex 2.74851 -9.39533 0
      vertex 14.4045 2.26062 0
    endloop
  endfacet
  facet normal 0 0 -1
    outer loop
      vertex -4.39468 -45.1028 0
      vertex 2.74851 -9.39533 0
      vertex 48.1914 7.48332 0
    endloop
  endfacet
  facet normal 0 0 -1
    outer loop
      vertex 2.74851 -9.39533 0
      vertex -4.39468 -45.1028 0
      vertex -18.6768 -30.8207 0
    endloop
  endfacet
  facet normal 0 0 -1
    outer loop
      vertex 2.74851 -9.39533 0
      vertex -2.10719 18.7723 0
      vertex 14.4045 2.26062 0
    endloop
  endfacet
  facet normal 0 -0 -1
    outer loop
      vertex -2.10719 18.7723 0
      vertex 2.74851 -9.39533 0
      vertex -13.7631 7.11632 0
    endloop
  endfacet
  facet normal 0 0 -1
    outer loop
      vertex -2.10719 18.7723 0
      vertex 3.11551 52.5592 0
      vertex 17.3976 38.2771 0
    endloop
  endfacet
  facet normal 0 0 -1
    outer loop
      vertex -13.7631 7.11632 0
      vertex 3.11551 52.5592 0
      vertex -2.10719 18.7723 0
    endloop
  endfacet
  facet normal 0 0 -1
    outer loop
      vertex -49.4706 -0.026866 0
      vertex -13.7631 7.11632 0
      vertex -35.1885 -14.309 0
    endloop
  endfacet
  facet normal -0 0 -1
    outer loop
      vertex -13.7631 7.11632 0
      vertex -49.4706 -0.026866 0
      vertex 3.11551 52.5592 0
    endloop
  endfacet
  facet normal 0 0 1
    outer loop
      vertex 17.3976 38.2771 8
      vertex 3.19235 36.0373 8
      vertex 3.35663 35 8
    endloop
  endfacet
  facet normal 0 0 1
    outer loop
      vertex 1.97298 37.7156 8
      vertex 17.3976 38.2771 8
      vertex 3.11551 52.5592 8
    endloop
  endfacet
  facet normal 0 0 1
    outer loop
      vertex 17.3976 38.2771 8
      vertex 2.71557 36.973 8
      vertex 3.19235 36.0373 8
    endloop
  endfacet
  facet normal 0 0 1
    outer loop
      vertex 17.3976 38.2771 8
      vertex 1.97298 37.7156 8
      vertex 2.71557 36.973 8
    endloop
  endfacet
  facet normal 0 0 1
    outer loop
      vertex 3.11551 52.5592 8
      vertex 1.03726 38.1923 8
      vertex 1.97298 37.7156 8
    endloop
  endfacet
  facet normal 0 0 1
    outer loop
      vertex 3.11551 52.5592 8
      vertex 0 38.3566 8
      vertex 1.03726 38.1923 8
    endloop
  endfacet
  facet normal 0 0 1
    outer loop
      vertex 3.11551 52.5592 8
      vertex -1.03726 38.1923 8
      vertex 0 38.3566 8
    endloop
  endfacet
  facet normal 0 0 1
    outer loop
      vertex 3.11551 52.5592 8
      vertex -1.97298 37.7156 8
      vertex -1.03726 38.1923 8
    endloop
  endfacet
  facet normal 0 0 1
    outer loop
      vertex 3.11551 52.5592 8
      vertex -2.71557 36.973 8
      vertex -1.97298 37.7156 8
    endloop
  endfacet
  facet normal 0 0 1
    outer loop
      vertex -49.4706 -0.026866 8
      vertex -2.71557 36.973 8
      vertex 3.11551 52.5592 8
    endloop
  endfacet
  facet normal 0 0 1
    outer loop
      vertex -49.4706 -0.026866 8
      vertex -3.35663 35 8
      vertex -3.19235 36.0373 8
    endloop
  endfacet
  facet normal 0 0 1
    outer loop
      vertex -3.35663 35 8
      vertex -49.4706 -0.026866 8
      vertex -13.7631 7.11632 8
    endloop
  endfacet
  facet normal 0 0 1
    outer loop
      vertex -2.71557 36.973 8
      vertex -49.4706 -0.026866 8
      vertex -3.19235 36.0373 8
    endloop
  endfacet
  facet normal 0 0 1
    outer loop
      vertex -13.7631 7.11632 8
      vertex -49.4706 -0.026866 8
      vertex -35.1885 -14.309 8
    endloop
  endfacet
  facet normal 0 0 1
    outer loop
      vertex 3.19235 33.9627 8
      vertex 17.3976 38.2771 8
      vertex 3.35663 35 8
    endloop
  endfacet
  facet normal 0 0 1
    outer loop
      vertex 2.71557 33.027 8
      vertex 17.3976 38.2771 8
      vertex 3.19235 33.9627 8
    endloop
  endfacet
  facet normal 0 0 1
    outer loop
      vertex -2.10719 18.7723 8
      vertex 2.71557 33.027 8
      vertex 1.97298 32.2844 8
    endloop
  endfacet
  facet normal 0 0 1
    outer loop
      vertex -2.10719 18.7723 8
      vertex 1.97298 32.2844 8
      vertex 1.03726 31.8077 8
    endloop
  endfacet
  facet normal -0 0 1
    outer loop
      vertex 2.71557 33.027 8
      vertex -2.10719 18.7723 8
      vertex 17.3976 38.2771 8
    endloop
  endfacet
  facet normal -0 0 1
    outer loop
      vertex 0 31.6434 8
      vertex -2.10719 18.7723 8
      vertex 1.03726 31.8077 8
    endloop
  endfacet
  facet normal 0 0 1
    outer loop
      vertex -1.03726 31.8077 8
      vertex -2.10719 18.7723 8
      vertex 0 31.6434 8
    endloop
  endfacet
  facet normal 0 0 1
    outer loop
      vertex -1.97298 32.2844 8
      vertex -2.10719 18.7723 8
      vertex -1.03726 31.8077 8
    endloop
  endfacet
  facet normal 0 -0 1
    outer loop
      vertex -2.10719 18.7723 8
      vertex -1.97298 32.2844 8
      vertex -2.71557 33.027 8
    endloop
  endfacet
  facet normal 0 0 1
    outer loop
      vertex 14.4045 2.26062 8
      vertex 3.19235 -26.9627 8
      vertex 3.35663 -28 8
    endloop
  endfacet
  facet normal 0 0 1
    outer loop
      vertex 14.4045 2.26062 8
      vertex 2.74851 -9.39533 8
      vertex 3.19235 -26.9627 8
    endloop
  endfacet
  facet normal 0 0 1
    outer loop
      vertex -2.10719 18.7723 8
      vertex 2.74851 -9.39533 8
      vertex 14.4045 2.26062 8
    endloop
  endfacet
  facet normal 0 0 1
    outer loop
      vertex -3.19235 33.9627 8
      vertex -2.10719 18.7723 8
      vertex -2.71557 33.027 8
    endloop
  endfacet
  facet normal 0 0 1
    outer loop
      vertex -13.7631 7.11632 8
      vertex -3.19235 33.9627 8
      vertex -3.35663 35 8
    endloop
  endfacet
  facet normal 0 0 1
    outer loop
      vertex -2.10719 18.7723 8
      vertex -13.7631 7.11632 8
      vertex 2.74851 -9.39533 8
    endloop
  endfacet
  facet normal 0 0 1
    outer loop
      vertex -3.19235 33.9627 8
      vertex -13.7631 7.11632 8
      vertex -2.10719 18.7723 8
    endloop
  endfacet
  facet normal 0 0 1
    outer loop
      vertex 14.4045 2.26062 8
      vertex 48.1914 7.48332 8
      vertex 33.9093 21.7655 8
    endloop
  endfacet
  facet normal 0 0 1
    outer loop
      vertex 3.35663 -28 8
      vertex 48.1914 7.48332 8
      vertex 14.4045 2.26062 8
    endloop
  endfacet
  facet normal 0 0 1
    outer loop
      vertex 3.19235 -29.0373 8
      vertex 48.1914 7.48332 8
      vertex 3.35663 -28 8
    endloop
  endfacet
  facet normal 0 0 1
    outer loop
      vertex 2.71557 -29.973 8
      vertex 48.1914 7.48332 8
      vertex 3.19235 -29.0373 8
    endloop
  endfacet
  facet normal 0 0 1
    outer loop
      vertex -4.39468 -45.1028 8
      vertex 2.71557 -29.973 8
      vertex 1.97298 -30.7156 8
    endloop
  endfacet
  facet normal -0 0 1
    outer loop
      vertex 2.71557 -29.973 8
      vertex -4.39468 -45.1028 8
      vertex 48.1914 7.48332 8
    endloop
  endfacet
  facet normal -0 0 1
    outer loop
      vertex 1.03726 -31.1923 8
      vertex -4.39468 -45.1028 8
      vertex 1.97298 -30.7156 8
    endloop
  endfacet
  facet normal -0 0 1
    outer loop
      vertex 0 -31.3566 8
      vertex -4.39468 -45.1028 8
      vertex 1.03726 -31.1923 8
    endloop
  endfacet
  facet normal 0 0 1
    outer loop
      vertex -1.03726 -31.1923 8
      vertex -4.39468 -45.1028 8
      vertex 0 -31.3566 8
    endloop
  endfacet
  facet normal 0 0 1
    outer loop
      vertex -1.97298 -30.7156 8
      vertex -4.39468 -45.1028 8
      vertex -1.03726 -31.1923 8
    endloop
  endfacet
  facet normal 0 0 1
    outer loop
      vertex -2.71557 -29.973 8
      vertex -4.39468 -45.1028 8
      vertex -1.97298 -30.7156 8
    endloop
  endfacet
  facet normal 0 0 1
    outer loop
      vertex -18.6768 -30.8207 8
      vertex -2.71557 -29.973 8
      vertex -3.19235 -29.0373 8
    endloop
  endfacet
  facet normal 0 0 1
    outer loop
      vertex -18.6768 -30.8207 8
      vertex -3.19235 -29.0373 8
      vertex -3.35663 -28 8
    endloop
  endfacet
  facet normal 0 0 1
    outer loop
      vertex 2.74851 -9.39533 8
      vertex 2.71557 -26.027 8
      vertex 3.19235 -26.9627 8
    endloop
  endfacet
  facet normal 0 0 1
    outer loop
      vertex 2.74851 -9.39533 8
      vertex 1.97298 -25.2844 8
      vertex 2.71557 -26.027 8
    endloop
  endfacet
  facet normal 0 0 1
    outer loop
      vertex 2.74851 -9.39533 8
      vertex 1.03726 -24.8077 8
      vertex 1.97298 -25.2844 8
    endloop
  endfacet
  facet normal 0 0 1
    outer loop
      vertex 2.74851 -9.39533 8
      vertex 0 -24.6434 8
      vertex 1.03726 -24.8077 8
    endloop
  endfacet
  facet normal 0 0 1
    outer loop
      vertex 2.74851 -9.39533 8
      vertex -1.03726 -24.8077 8
      vertex 0 -24.6434 8
    endloop
  endfacet
  facet normal 0 0 1
    outer loop
      vertex 2.74851 -9.39533 8
      vertex -1.97298 -25.2844 8
      vertex -1.03726 -24.8077 8
    endloop
  endfacet
  facet normal 0 0 1
    outer loop
      vertex 2.74851 -9.39533 8
      vertex -2.71557 -26.027 8
      vertex -1.97298 -25.2844 8
    endloop
  endfacet
  facet normal 0 0 1
    outer loop
      vertex -18.6768 -30.8207 8
      vertex -2.71557 -26.027 8
      vertex 2.74851 -9.39533 8
    endloop
  endfacet
  facet normal 0 0 1
    outer loop
      vertex -2.71557 -29.973 8
      vertex -18.6768 -30.8207 8
      vertex -4.39468 -45.1028 8
    endloop
  endfacet
  facet normal 0 0 1
    outer loop
      vertex -3.19235 -26.9627 8
      vertex -18.6768 -30.8207 8
      vertex -3.35663 -28 8
    endloop
  endfacet
  facet normal 0 0 1
    outer loop
      vertex -2.71557 -26.027 8
      vertex -18.6768 -30.8207 8
      vertex -3.19235 -26.9627 8
    endloop
  endfacet
  facet normal -0.707107 -0.707107 0
    outer loop
      vertex 2.74851 -9.39533 0
      vertex -13.7631 7.11632 8
      vertex -13.7631 7.11632 0
    endloop
  endfacet
  facet normal -0.707107 -0.707107 0
    outer loop
      vertex -13.7631 7.11632 8
      vertex 2.74851 -9.39533 0
      vertex 2.74851 -9.39533 8
    endloop
  endfacet
  facet normal -0.707107 0.707107 0
    outer loop
      vertex -18.6768 -30.8207 0
      vertex 2.74851 -9.39533 8
      vertex 2.74851 -9.39533 0
    endloop
  endfacet
  facet normal -0.707107 0.707107 0
    outer loop
      vertex 2.74851 -9.39533 8
      vertex -18.6768 -30.8207 0
      vertex -18.6768 -30.8207 8
    endloop
  endfacet
  facet normal -0.707107 -0.707107 0
    outer loop
      vertex -4.39468 -45.1028 0
      vertex -18.6768 -30.8207 8
      vertex -18.6768 -30.8207 0
    endloop
  endfacet
  facet normal -0.707107 -0.707107 0
    outer loop
      vertex -18.6768 -30.8207 8
      vertex -4.39468 -45.1028 0
      vertex -4.39468 -45.1028 8
    endloop
  endfacet
  facet normal 0.707107 -0.707107 0
    outer loop
      vertex -4.39468 -45.1028 8
      vertex 48.1914 7.48332 0
      vertex 48.1914 7.48332 8
    endloop
  endfacet
  facet normal 0.707107 -0.707107 0
    outer loop
      vertex 48.1914 7.48332 0
      vertex -4.39468 -45.1028 8
      vertex -4.39468 -45.1028 0
    endloop
  endfacet
  facet normal 0.707107 0.707107 -0
    outer loop
      vertex 48.1914 7.48332 0
      vertex 33.9093 21.7655 8
      vertex 48.1914 7.48332 8
    endloop
  endfacet
  facet normal 0.707107 0.707107 0
    outer loop
      vertex 33.9093 21.7655 8
      vertex 48.1914 7.48332 0
      vertex 33.9093 21.7655 0
    endloop
  endfacet
  facet normal -0.707107 0.707107 0
    outer loop
      vertex 14.4045 2.26062 0
      vertex 33.9093 21.7655 8
      vertex 33.9093 21.7655 0
    endloop
  endfacet
  facet normal -0.707107 0.707107 0
    outer loop
      vertex 33.9093 21.7655 8
      vertex 14.4045 2.26062 0
      vertex 14.4045 2.26062 8
    endloop
  endfacet
  facet normal 0.707107 0.707107 0
    outer loop
      vertex 14.4045 2.26062 8
      vertex -2.10719 18.7723 0
      vertex -2.10719 18.7723 8
    endloop
  endfacet
  facet normal 0.707107 0.707107 0
    outer loop
      vertex -2.10719 18.7723 0
      vertex 14.4045 2.26062 8
      vertex 14.4045 2.26062 0
    endloop
  endfacet
  facet normal 0.707107 -0.707107 0
    outer loop
      vertex -2.10719 18.7723 8
      vertex 17.3976 38.2771 0
      vertex 17.3976 38.2771 8
    endloop
  endfacet
  facet normal 0.707107 -0.707107 0
    outer loop
      vertex 17.3976 38.2771 0
      vertex -2.10719 18.7723 8
      vertex -2.10719 18.7723 0
    endloop
  endfacet
  facet normal 0.707107 0.707107 0
    outer loop
      vertex 17.3976 38.2771 8
      vertex 3.11551 52.5592 0
      vertex 3.11551 52.5592 8
    endloop
  endfacet
  facet normal 0.707107 0.707107 0
    outer loop
      vertex 3.11551 52.5592 0
      vertex 17.3976 38.2771 8
      vertex 17.3976 38.2771 0
    endloop
  endfacet
  facet normal -0.707107 0.707107 0
    outer loop
      vertex -49.4706 -0.026866 0
      vertex 3.11551 52.5592 8
      vertex 3.11551 52.5592 0
    endloop
  endfacet
  facet normal -0.707107 0.707107 0
    outer loop
      vertex 3.11551 52.5592 8
      vertex -49.4706 -0.026866 0
      vertex -49.4706 -0.026866 8
    endloop
  endfacet
  facet normal -0.707107 -0.707107 0
    outer loop
      vertex -35.1885 -14.309 0
      vertex -49.4706 -0.026866 8
      vertex -49.4706 -0.026866 0
    endloop
  endfacet
  facet normal -0.707107 -0.707107 0
    outer loop
      vertex -49.4706 -0.026866 8
      vertex -35.1885 -14.309 0
      vertex -35.1885 -14.309 8
    endloop
  endfacet
  facet normal 0.707107 -0.707107 0
    outer loop
      vertex -35.1885 -14.309 0
      vertex -13.7631 7.11632 8
      vertex -35.1885 -14.309 8
    endloop
  endfacet
  facet normal 0.707107 -0.707107 0
    outer loop
      vertex -13.7631 7.11632 8
      vertex -35.1885 -14.309 0
      vertex -13.7631 7.11632 0
    endloop
  endfacet
  facet normal -0.824672 -0.130615 0.550323
    outer loop
      vertex 3.35663 -28 8
      vertex 1.7119 -27.4438 5.66735
      vertex 1.8 -28 5.66734
    endloop
  endfacet
  facet normal -0.824672 -0.130615 0.550323
    outer loop
      vertex 1.7119 -27.4438 5.66735
      vertex 3.35663 -28 8
      vertex 3.19235 -26.9627 8
    endloop
  endfacet
  facet normal 0.824672 -0.130615 0.550323
    outer loop
      vertex -3.35663 -28 8
      vertex -1.7119 -27.4438 5.66735
      vertex -3.19235 -26.9627 8
    endloop
  endfacet
  facet normal 0.824672 -0.130615 0.550323
    outer loop
      vertex -1.7119 -27.4438 5.66735
      vertex -3.35663 -28 8
      vertex -1.8 -28 5.66734
    endloop
  endfacet
  facet normal -0.824672 0.130615 0.550323
    outer loop
      vertex 1.7119 -28.5562 5.66734
      vertex 3.35663 -28 8
      vertex 1.8 -28 5.66734
    endloop
  endfacet
  facet normal -0.824672 0.130615 0.550323
    outer loop
      vertex 3.35663 -28 8
      vertex 1.7119 -28.5562 5.66734
      vertex 3.19235 -29.0373 8
    endloop
  endfacet
  facet normal 0.130616 -0.824672 0.550323
    outer loop
      vertex -1.03726 -24.8077 8
      vertex -0.556231 -26.2881 5.66735
      vertex 0 -24.6434 8
    endloop
  endfacet
  facet normal 0.130614 -0.824672 0.550323
    outer loop
      vertex 0 -24.6434 8
      vertex -0.556231 -26.2881 5.66735
      vertex 0 -26.2 5.66734
    endloop
  endfacet
  facet normal 0.130616 0.824673 0.550322
    outer loop
      vertex 0 -31.3566 8
      vertex -0.556231 -29.7119 5.66734
      vertex -1.03726 -31.1923 8
    endloop
  endfacet
  facet normal 0.130614 0.824673 0.550323
    outer loop
      vertex -0.556231 -29.7119 5.66734
      vertex 0 -31.3566 8
      vertex 0 -29.8 5.66734
    endloop
  endfacet
  facet normal 0.5904 -0.5904 0.550323
    outer loop
      vertex -2.71557 -26.027 8
      vertex -1.05801 -26.5438 5.66734
      vertex -1.97298 -25.2844 8
    endloop
  endfacet
  facet normal 0.5904 -0.590401 0.550323
    outer loop
      vertex -1.05801 -26.5438 5.66734
      vertex -2.71557 -26.027 8
      vertex -1.45623 -26.942 5.66734
    endloop
  endfacet
  facet normal -0.5904 -0.5904 0.550323
    outer loop
      vertex 1.05801 -26.5438 5.66734
      vertex 2.71557 -26.027 8
      vertex 1.97298 -25.2844 8
    endloop
  endfacet
  facet normal -0.5904 -0.590401 0.550323
    outer loop
      vertex 2.71557 -26.027 8
      vertex 1.05801 -26.5438 5.66734
      vertex 1.45623 -26.942 5.66734
    endloop
  endfacet
  facet normal -0.37906 0.743948 0.550323
    outer loop
      vertex 1.05801 -29.4562 5.66734
      vertex 1.03726 -31.1923 8
      vertex 1.97298 -30.7156 8
    endloop
  endfacet
  facet normal -0.379062 0.743947 0.550322
    outer loop
      vertex 1.03726 -31.1923 8
      vertex 1.05801 -29.4562 5.66734
      vertex 0.556231 -29.7119 5.66734
    endloop
  endfacet
  facet normal 0.743948 0.37906 0.550323
    outer loop
      vertex -3.19235 -29.0373 8
      vertex -1.45623 -29.058 5.66734
      vertex -1.7119 -28.5562 5.66734
    endloop
  endfacet
  facet normal 0.743948 0.37906 0.550323
    outer loop
      vertex -2.71557 -29.973 8
      vertex -1.45623 -29.058 5.66734
      vertex -3.19235 -29.0373 8
    endloop
  endfacet
  facet normal 0.743948 -0.379061 0.550323
    outer loop
      vertex -3.19235 -26.9627 8
      vertex -1.45623 -26.942 5.66734
      vertex -2.71557 -26.027 8
    endloop
  endfacet
  facet normal 0.743948 -0.379061 0.550323
    outer loop
      vertex -3.19235 -26.9627 8
      vertex -1.7119 -27.4438 5.66735
      vertex -1.45623 -26.942 5.66734
    endloop
  endfacet
  facet normal 0.37906 -0.743948 0.550323
    outer loop
      vertex -1.05801 -26.5438 5.66734
      vertex -1.03726 -24.8077 8
      vertex -1.97298 -25.2844 8
    endloop
  endfacet
  facet normal 0.379061 -0.743947 0.550322
    outer loop
      vertex -1.03726 -24.8077 8
      vertex -1.05801 -26.5438 5.66734
      vertex -0.556231 -26.2881 5.66735
    endloop
  endfacet
  facet normal -0.379061 -0.743947 0.550322
    outer loop
      vertex 1.05801 -26.5438 5.66734
      vertex 1.03726 -24.8077 8
      vertex 0.556231 -26.2881 5.66735
    endloop
  endfacet
  facet normal -0.37906 -0.743948 0.550323
    outer loop
      vertex 1.03726 -24.8077 8
      vertex 1.05801 -26.5438 5.66734
      vertex 1.97298 -25.2844 8
    endloop
  endfacet
  facet normal -0.743948 -0.379061 0.550323
    outer loop
      vertex 1.45623 -26.942 5.66734
      vertex 3.19235 -26.9627 8
      vertex 2.71557 -26.027 8
    endloop
  endfacet
  facet normal -0.743948 -0.379061 0.550323
    outer loop
      vertex 1.7119 -27.4438 5.66735
      vertex 3.19235 -26.9627 8
      vertex 1.45623 -26.942 5.66734
    endloop
  endfacet
  facet normal -0.130616 0.824673 0.550322
    outer loop
      vertex 0.556231 -29.7119 5.66734
      vertex 0 -31.3566 8
      vertex 1.03726 -31.1923 8
    endloop
  endfacet
  facet normal -0.130614 0.824673 0.550323
    outer loop
      vertex 0 -31.3566 8
      vertex 0.556231 -29.7119 5.66734
      vertex 0 -29.8 5.66734
    endloop
  endfacet
  facet normal 0.824672 0.130615 0.550323
    outer loop
      vertex -3.35663 -28 8
      vertex -1.7119 -28.5562 5.66734
      vertex -1.8 -28 5.66734
    endloop
  endfacet
  facet normal 0.824672 0.130615 0.550323
    outer loop
      vertex -1.7119 -28.5562 5.66734
      vertex -3.35663 -28 8
      vertex -3.19235 -29.0373 8
    endloop
  endfacet
  facet normal -0.130616 -0.824672 0.550323
    outer loop
      vertex 0 -24.6434 8
      vertex 0.556231 -26.2881 5.66735
      vertex 1.03726 -24.8077 8
    endloop
  endfacet
  facet normal -0.130614 -0.824672 0.550323
    outer loop
      vertex 0.556231 -26.2881 5.66735
      vertex 0 -24.6434 8
      vertex 0 -26.2 5.66734
    endloop
  endfacet
  facet normal -0.5904 0.590401 0.550323
    outer loop
      vertex 1.05801 -29.4562 5.66734
      vertex 2.71557 -29.973 8
      vertex 1.45623 -29.058 5.66734
    endloop
  endfacet
  facet normal -0.5904 0.5904 0.550323
    outer loop
      vertex 2.71557 -29.973 8
      vertex 1.05801 -29.4562 5.66734
      vertex 1.97298 -30.7156 8
    endloop
  endfacet
  facet normal -0.743948 0.37906 0.550323
    outer loop
      vertex 1.45623 -29.058 5.66734
      vertex 3.19235 -29.0373 8
      vertex 1.7119 -28.5562 5.66734
    endloop
  endfacet
  facet normal -0.743948 0.37906 0.550323
    outer loop
      vertex 3.19235 -29.0373 8
      vertex 1.45623 -29.058 5.66734
      vertex 2.71557 -29.973 8
    endloop
  endfacet
  facet normal 0.5904 0.590401 0.550323
    outer loop
      vertex -2.71557 -29.973 8
      vertex -1.05801 -29.4562 5.66734
      vertex -1.45623 -29.058 5.66734
    endloop
  endfacet
  facet normal 0.5904 0.5904 0.550323
    outer loop
      vertex -1.05801 -29.4562 5.66734
      vertex -2.71557 -29.973 8
      vertex -1.97298 -30.7156 8
    endloop
  endfacet
  facet normal 0.379062 0.743947 0.550322
    outer loop
      vertex -1.05801 -29.4562 5.66734
      vertex -1.03726 -31.1923 8
      vertex -0.556231 -29.7119 5.66734
    endloop
  endfacet
  facet normal 0.37906 0.743948 0.550323
    outer loop
      vertex -1.03726 -31.1923 8
      vertex -1.05801 -29.4562 5.66734
      vertex -1.97298 -30.7156 8
    endloop
  endfacet
  facet normal -0.987689 -0.156433 -3.24446e-08
    outer loop
      vertex 1.8 -28 0.0999994
      vertex 1.7119 -27.4438 5.66735
      vertex 1.7119 -27.4438 0.0999994
    endloop
  endfacet
  facet normal -0.987689 -0.156433 0
    outer loop
      vertex 1.7119 -27.4438 5.66735
      vertex 1.8 -28 0.0999994
      vertex 1.8 -28 5.66734
    endloop
  endfacet
  facet normal 0.987689 -0.156433 -3.24447e-08
    outer loop
      vertex -1.8 -28 5.66734
      vertex -1.7119 -27.4438 0.0999994
      vertex -1.7119 -27.4438 5.66735
    endloop
  endfacet
  facet normal 0.987689 -0.156433 0
    outer loop
      vertex -1.7119 -27.4438 0.0999994
      vertex -1.8 -28 5.66734
      vertex -1.8 -28 0.0999994
    endloop
  endfacet
  facet normal 0.987689 0.156433 0
    outer loop
      vertex -1.7119 -28.5562 5.66734
      vertex -1.8 -28 0.0999994
      vertex -1.8 -28 5.66734
    endloop
  endfacet
  facet normal 0.987689 0.156433 0
    outer loop
      vertex -1.8 -28 0.0999994
      vertex -1.7119 -28.5562 5.66734
      vertex -1.7119 -28.5562 0.0999994
    endloop
  endfacet
  facet normal 0.156432 -0.987689 0
    outer loop
      vertex -0.556231 -26.2881 0.0999994
      vertex 0 -26.2 5.66734
      vertex -0.556231 -26.2881 5.66735
    endloop
  endfacet
  facet normal 0.156432 -0.987689 0
    outer loop
      vertex 0 -26.2 5.66734
      vertex -0.556231 -26.2881 0.0999994
      vertex 0 -26.2 0.0999994
    endloop
  endfacet
  facet normal -0.707106 -0.707107 4.54222e-08
    outer loop
      vertex 1.05801 -26.5438 0.0999994
      vertex 1.45623 -26.942 5.66734
      vertex 1.05801 -26.5438 5.66734
    endloop
  endfacet
  facet normal -0.707106 -0.707108 -0
    outer loop
      vertex 1.45623 -26.942 5.66734
      vertex 1.05801 -26.5438 0.0999994
      vertex 1.45623 -26.942 0.0999994
    endloop
  endfacet
  facet normal -0.891006 -0.453992 0
    outer loop
      vertex 1.7119 -27.4438 0.0999994
      vertex 1.45623 -26.942 5.66734
      vertex 1.45623 -26.942 0.0999994
    endloop
  endfacet
  facet normal -0.891006 -0.453992 0
    outer loop
      vertex 1.45623 -26.942 5.66734
      vertex 1.7119 -27.4438 0.0999994
      vertex 1.7119 -27.4438 5.66735
    endloop
  endfacet
  facet normal -0.156432 -0.987689 0
    outer loop
      vertex 0 -26.2 0.0999994
      vertex 0.556231 -26.2881 5.66735
      vertex 0 -26.2 5.66734
    endloop
  endfacet
  facet normal -0.156432 -0.987689 -0
    outer loop
      vertex 0.556231 -26.2881 5.66735
      vertex 0 -26.2 0.0999994
      vertex 0.556231 -26.2881 0.0999994
    endloop
  endfacet
  facet normal 0.453993 -0.891005 0
    outer loop
      vertex -1.05801 -26.5438 0.0999994
      vertex -0.556231 -26.2881 5.66735
      vertex -1.05801 -26.5438 5.66734
    endloop
  endfacet
  facet normal 0.453993 -0.891005 9.721e-09
    outer loop
      vertex -0.556231 -26.2881 0.0999994
      vertex -0.556231 -26.2881 5.66735
      vertex -1.05801 -26.5438 0.0999994
    endloop
  endfacet
  facet normal 0.891006 -0.453992 0
    outer loop
      vertex -1.7119 -27.4438 5.66735
      vertex -1.45623 -26.942 0.0999994
      vertex -1.45623 -26.942 5.66734
    endloop
  endfacet
  facet normal 0.891006 -0.453992 0
    outer loop
      vertex -1.45623 -26.942 0.0999994
      vertex -1.7119 -27.4438 5.66735
      vertex -1.7119 -27.4438 0.0999994
    endloop
  endfacet
  facet normal 0.707106 -0.707107 0
    outer loop
      vertex -1.45623 -26.942 5.66734
      vertex -1.45623 -26.942 0.0999994
      vertex -1.05801 -26.5438 5.66734
    endloop
  endfacet
  facet normal 0.707106 -0.707108 4.54222e-08
    outer loop
      vertex -1.05801 -26.5438 0.0999994
      vertex -1.05801 -26.5438 5.66734
      vertex -1.45623 -26.942 0.0999994
    endloop
  endfacet
  facet normal -0.453993 -0.891005 9.721e-09
    outer loop
      vertex 0.556231 -26.2881 5.66735
      vertex 0.556231 -26.2881 0.0999994
      vertex 1.05801 -26.5438 5.66734
    endloop
  endfacet
  facet normal -0.453993 -0.891005 -0
    outer loop
      vertex 1.05801 -26.5438 5.66734
      vertex 0.556231 -26.2881 0.0999994
      vertex 1.05801 -26.5438 0.0999994
    endloop
  endfacet
  facet normal -0.453993 0.891005 0
    outer loop
      vertex 1.05801 -29.4562 0.0999994
      vertex 0.556231 -29.7119 5.66734
      vertex 1.05801 -29.4562 5.66734
    endloop
  endfacet
  facet normal -0.453993 0.891005 0
    outer loop
      vertex 0.556231 -29.7119 5.66734
      vertex 1.05801 -29.4562 0.0999994
      vertex 0.556231 -29.7119 0.0999994
    endloop
  endfacet
  facet normal -0.987689 0.156433 0
    outer loop
      vertex 1.7119 -28.5562 0.0999994
      vertex 1.8 -28 5.66734
      vertex 1.8 -28 0.0999994
    endloop
  endfacet
  facet normal -0.987689 0.156433 0
    outer loop
      vertex 1.8 -28 5.66734
      vertex 1.7119 -28.5562 0.0999994
      vertex 1.7119 -28.5562 5.66734
    endloop
  endfacet
  facet normal 0.891006 0.453991 0
    outer loop
      vertex -1.45623 -29.058 5.66734
      vertex -1.7119 -28.5562 0.0999994
      vertex -1.7119 -28.5562 5.66734
    endloop
  endfacet
  facet normal 0.891006 0.453991 0
    outer loop
      vertex -1.7119 -28.5562 0.0999994
      vertex -1.45623 -29.058 5.66734
      vertex -1.45623 -29.058 0.0999994
    endloop
  endfacet
  facet normal -0.707106 0.707107 -3.02815e-08
    outer loop
      vertex 1.45623 -29.058 5.66734
      vertex 1.45623 -29.058 0.0999994
      vertex 1.05801 -29.4562 5.66734
    endloop
  endfacet
  facet normal -0.707106 0.707108 3.02814e-08
    outer loop
      vertex 1.05801 -29.4562 0.0999994
      vertex 1.05801 -29.4562 5.66734
      vertex 1.45623 -29.058 0.0999994
    endloop
  endfacet
  facet normal -0.891006 0.453991 0
    outer loop
      vertex 1.45623 -29.058 0.0999994
      vertex 1.7119 -28.5562 5.66734
      vertex 1.7119 -28.5562 0.0999994
    endloop
  endfacet
  facet normal -0.891006 0.453991 0
    outer loop
      vertex 1.7119 -28.5562 5.66734
      vertex 1.45623 -29.058 0.0999994
      vertex 1.45623 -29.058 5.66734
    endloop
  endfacet
  facet normal 0 0 1
    outer loop
      vertex 1.7119 -27.4438 0.0999994
      vertex 1.7119 -28.5562 0.0999994
      vertex 1.8 -28 0.0999994
    endloop
  endfacet
  facet normal 0 0 1
    outer loop
      vertex 1.45623 -26.942 0.0999994
      vertex 1.7119 -28.5562 0.0999994
      vertex 1.7119 -27.4438 0.0999994
    endloop
  endfacet
  facet normal 0 0 1
    outer loop
      vertex 1.45623 -26.942 0.0999994
      vertex 1.45623 -29.058 0.0999994
      vertex 1.7119 -28.5562 0.0999994
    endloop
  endfacet
  facet normal 0 0 1
    outer loop
      vertex 1.05801 -26.5438 0.0999994
      vertex 1.45623 -29.058 0.0999994
      vertex 1.45623 -26.942 0.0999994
    endloop
  endfacet
  facet normal 0 0 1
    outer loop
      vertex 1.05801 -26.5438 0.0999994
      vertex 1.05801 -29.4562 0.0999994
      vertex 1.45623 -29.058 0.0999994
    endloop
  endfacet
  facet normal 0 0 1
    outer loop
      vertex 0.556231 -26.2881 0.0999994
      vertex 1.05801 -29.4562 0.0999994
      vertex 1.05801 -26.5438 0.0999994
    endloop
  endfacet
  facet normal 0 0 1
    outer loop
      vertex 0.556231 -26.2881 0.0999994
      vertex 0.556231 -29.7119 0.0999994
      vertex 1.05801 -29.4562 0.0999994
    endloop
  endfacet
  facet normal 0 0 1
    outer loop
      vertex 0 -26.2 0.0999994
      vertex 0.556231 -29.7119 0.0999994
      vertex 0.556231 -26.2881 0.0999994
    endloop
  endfacet
  facet normal 0 0 1
    outer loop
      vertex 0 -26.2 0.0999994
      vertex 0 -29.8 0.0999994
      vertex 0.556231 -29.7119 0.0999994
    endloop
  endfacet
  facet normal -0 0 1
    outer loop
      vertex -0.556231 -26.2881 0.0999994
      vertex 0 -29.8 0.0999994
      vertex 0 -26.2 0.0999994
    endloop
  endfacet
  facet normal 0 0 1
    outer loop
      vertex -0.556231 -26.2881 0.0999994
      vertex -0.556231 -29.7119 0.0999994
      vertex 0 -29.8 0.0999994
    endloop
  endfacet
  facet normal -0 0 1
    outer loop
      vertex -1.05801 -26.5438 0.0999994
      vertex -0.556231 -29.7119 0.0999994
      vertex -0.556231 -26.2881 0.0999994
    endloop
  endfacet
  facet normal 0 0 1
    outer loop
      vertex -1.05801 -26.5438 0.0999994
      vertex -1.05801 -29.4562 0.0999994
      vertex -0.556231 -29.7119 0.0999994
    endloop
  endfacet
  facet normal -0 0 1
    outer loop
      vertex -1.45623 -26.942 0.0999994
      vertex -1.05801 -29.4562 0.0999994
      vertex -1.05801 -26.5438 0.0999994
    endloop
  endfacet
  facet normal 0 0 1
    outer loop
      vertex -1.45623 -26.942 0.0999994
      vertex -1.45623 -29.058 0.0999994
      vertex -1.05801 -29.4562 0.0999994
    endloop
  endfacet
  facet normal -0 0 1
    outer loop
      vertex -1.7119 -27.4438 0.0999994
      vertex -1.45623 -29.058 0.0999994
      vertex -1.45623 -26.942 0.0999994
    endloop
  endfacet
  facet normal 0 0 1
    outer loop
      vertex -1.7119 -27.4438 0.0999994
      vertex -1.7119 -28.5562 0.0999994
      vertex -1.45623 -29.058 0.0999994
    endloop
  endfacet
  facet normal 0 -0 1
    outer loop
      vertex -1.7119 -28.5562 0.0999994
      vertex -1.7119 -27.4438 0.0999994
      vertex -1.8 -28 0.0999994
    endloop
  endfacet
  facet normal 0.156432 0.987689 -0
    outer loop
      vertex 0 -29.8 0.0999994
      vertex -0.556231 -29.7119 5.66734
      vertex 0 -29.8 5.66734
    endloop
  endfacet
  facet normal 0.156432 0.987689 0
    outer loop
      vertex -0.556231 -29.7119 5.66734
      vertex 0 -29.8 0.0999994
      vertex -0.556231 -29.7119 0.0999994
    endloop
  endfacet
  facet normal -0.156432 0.987689 0
    outer loop
      vertex 0.556231 -29.7119 0.0999994
      vertex 0 -29.8 5.66734
      vertex 0.556231 -29.7119 5.66734
    endloop
  endfacet
  facet normal -0.156432 0.987689 0
    outer loop
      vertex 0 -29.8 5.66734
      vertex 0.556231 -29.7119 0.0999994
      vertex 0 -29.8 0.0999994
    endloop
  endfacet
  facet normal 0.707106 0.707107 3.02815e-08
    outer loop
      vertex -1.05801 -29.4562 5.66734
      vertex -1.05801 -29.4562 0.0999994
      vertex -1.45623 -29.058 5.66734
    endloop
  endfacet
  facet normal 0.707106 0.707108 -3.02814e-08
    outer loop
      vertex -1.45623 -29.058 0.0999994
      vertex -1.45623 -29.058 5.66734
      vertex -1.05801 -29.4562 0.0999994
    endloop
  endfacet
  facet normal 0.453993 0.891005 -0
    outer loop
      vertex -0.556231 -29.7119 0.0999994
      vertex -1.05801 -29.4562 5.66734
      vertex -0.556231 -29.7119 5.66734
    endloop
  endfacet
  facet normal 0.453993 0.891005 0
    outer loop
      vertex -1.05801 -29.4562 5.66734
      vertex -0.556231 -29.7119 0.0999994
      vertex -1.05801 -29.4562 0.0999994
    endloop
  endfacet
  facet normal -0.824672 -0.130616 0.550323
    outer loop
      vertex 3.35663 35 8
      vertex 1.7119 35.5562 5.66734
      vertex 1.8 35 5.66734
    endloop
  endfacet
  facet normal -0.824672 -0.130615 0.550323
    outer loop
      vertex 1.7119 35.5562 5.66734
      vertex 3.35663 35 8
      vertex 3.19235 36.0373 8
    endloop
  endfacet
  facet normal 0.824672 0.130615 0.550323
    outer loop
      vertex -3.35663 35 8
      vertex -1.7119 34.4438 5.66735
      vertex -1.8 35 5.66734
    endloop
  endfacet
  facet normal 0.824672 0.130615 0.550323
    outer loop
      vertex -1.7119 34.4438 5.66735
      vertex -3.35663 35 8
      vertex -3.19235 33.9627 8
    endloop
  endfacet
  facet normal -0.824672 0.130615 0.550323
    outer loop
      vertex 1.7119 34.4438 5.66735
      vertex 3.35663 35 8
      vertex 1.8 35 5.66734
    endloop
  endfacet
  facet normal -0.824672 0.130615 0.550323
    outer loop
      vertex 3.35663 35 8
      vertex 1.7119 34.4438 5.66735
      vertex 3.19235 33.9627 8
    endloop
  endfacet
  facet normal 0.130614 -0.824673 0.550322
    outer loop
      vertex -0.556231 36.7119 5.66734
      vertex 0 38.3566 8
      vertex -1.03726 38.1923 8
    endloop
  endfacet
  facet normal 0.130614 -0.824673 0.550322
    outer loop
      vertex 0 38.3566 8
      vertex -0.556231 36.7119 5.66734
      vertex 0 36.8 5.66734
    endloop
  endfacet
  facet normal 0.130616 0.824672 0.550323
    outer loop
      vertex 0 31.6434 8
      vertex -0.556231 33.2881 5.66735
      vertex -1.03726 31.8077 8
    endloop
  endfacet
  facet normal 0.130614 0.824672 0.550323
    outer loop
      vertex -0.556231 33.2881 5.66735
      vertex 0 31.6434 8
      vertex 0 33.2 5.66734
    endloop
  endfacet
  facet normal 0.743948 -0.379061 0.550323
    outer loop
      vertex -3.19235 36.0373 8
      vertex -1.45623 36.058 5.66734
      vertex -2.71557 36.973 8
    endloop
  endfacet
  facet normal 0.743948 -0.379059 0.550323
    outer loop
      vertex -1.45623 36.058 5.66734
      vertex -3.19235 36.0373 8
      vertex -1.7119 35.5562 5.66734
    endloop
  endfacet
  facet normal -0.5904 -0.590401 0.550322
    outer loop
      vertex 1.45623 36.058 5.66734
      vertex 1.97298 37.7156 8
      vertex 1.05801 36.4562 5.66734
    endloop
  endfacet
  facet normal -0.5904 -0.590401 0.550323
    outer loop
      vertex 1.97298 37.7156 8
      vertex 1.45623 36.058 5.66734
      vertex 2.71557 36.973 8
    endloop
  endfacet
  facet normal -0.5904 0.590401 0.550323
    outer loop
      vertex 1.05801 33.5438 5.66734
      vertex 2.71557 33.027 8
      vertex 1.45623 33.942 5.66734
    endloop
  endfacet
  facet normal -0.590401 0.590399 0.550323
    outer loop
      vertex 2.71557 33.027 8
      vertex 1.05801 33.5438 5.66734
      vertex 1.97298 32.2844 8
    endloop
  endfacet
  facet normal 0.5904 0.590401 0.550323
    outer loop
      vertex -2.71557 33.027 8
      vertex -1.05801 33.5438 5.66734
      vertex -1.45623 33.942 5.66734
    endloop
  endfacet
  facet normal 0.590401 0.590399 0.550323
    outer loop
      vertex -1.05801 33.5438 5.66734
      vertex -2.71557 33.027 8
      vertex -1.97298 32.2844 8
    endloop
  endfacet
  facet normal 0.824672 -0.130615 0.550323
    outer loop
      vertex -3.35663 35 8
      vertex -1.7119 35.5562 5.66734
      vertex -3.19235 36.0373 8
    endloop
  endfacet
  facet normal 0.824672 -0.130616 0.550323
    outer loop
      vertex -1.7119 35.5562 5.66734
      vertex -3.35663 35 8
      vertex -1.8 35 5.66734
    endloop
  endfacet
  facet normal 0.379061 -0.743947 0.550322
    outer loop
      vertex -1.05801 36.4562 5.66734
      vertex -1.03726 38.1923 8
      vertex -1.97298 37.7156 8
    endloop
  endfacet
  facet normal 0.379062 -0.743947 0.550322
    outer loop
      vertex -1.03726 38.1923 8
      vertex -1.05801 36.4562 5.66734
      vertex -0.556231 36.7119 5.66734
    endloop
  endfacet
  facet normal -0.379062 -0.743947 0.550322
    outer loop
      vertex 1.05801 36.4562 5.66734
      vertex 1.03726 38.1923 8
      vertex 0.556231 36.7119 5.66734
    endloop
  endfacet
  facet normal -0.379061 -0.743947 0.550322
    outer loop
      vertex 1.03726 38.1923 8
      vertex 1.05801 36.4562 5.66734
      vertex 1.97298 37.7156 8
    endloop
  endfacet
  facet normal -0.743948 -0.379061 0.550323
    outer loop
      vertex 1.45623 36.058 5.66734
      vertex 3.19235 36.0373 8
      vertex 2.71557 36.973 8
    endloop
  endfacet
  facet normal -0.743948 -0.379059 0.550323
    outer loop
      vertex 3.19235 36.0373 8
      vertex 1.45623 36.058 5.66734
      vertex 1.7119 35.5562 5.66734
    endloop
  endfacet
  facet normal -0.743948 0.379061 0.550323
    outer loop
      vertex 1.45623 33.942 5.66734
      vertex 3.19235 33.9627 8
      vertex 1.7119 34.4438 5.66735
    endloop
  endfacet
  facet normal -0.743948 0.379061 0.550323
    outer loop
      vertex 3.19235 33.9627 8
      vertex 1.45623 33.942 5.66734
      vertex 2.71557 33.027 8
    endloop
  endfacet
  facet normal -0.379059 0.743948 0.550323
    outer loop
      vertex 1.05801 33.5438 5.66734
      vertex 1.03726 31.8077 8
      vertex 1.97298 32.2844 8
    endloop
  endfacet
  facet normal -0.379061 0.743947 0.550322
    outer loop
      vertex 1.03726 31.8077 8
      vertex 1.05801 33.5438 5.66734
      vertex 0.556231 33.2881 5.66735
    endloop
  endfacet
  facet normal 0.379061 0.743947 0.550322
    outer loop
      vertex -1.05801 33.5438 5.66734
      vertex -1.03726 31.8077 8
      vertex -0.556231 33.2881 5.66735
    endloop
  endfacet
  facet normal 0.379059 0.743948 0.550323
    outer loop
      vertex -1.03726 31.8077 8
      vertex -1.05801 33.5438 5.66734
      vertex -1.97298 32.2844 8
    endloop
  endfacet
  facet normal 0.743948 0.379061 0.550323
    outer loop
      vertex -3.19235 33.9627 8
      vertex -1.45623 33.942 5.66734
      vertex -1.7119 34.4438 5.66735
    endloop
  endfacet
  facet normal 0.743948 0.379061 0.550323
    outer loop
      vertex -1.45623 33.942 5.66734
      vertex -3.19235 33.9627 8
      vertex -2.71557 33.027 8
    endloop
  endfacet
  facet normal 0.5904 -0.590401 0.550323
    outer loop
      vertex -1.45623 36.058 5.66734
      vertex -1.97298 37.7156 8
      vertex -2.71557 36.973 8
    endloop
  endfacet
  facet normal 0.5904 -0.590401 0.550322
    outer loop
      vertex -1.97298 37.7156 8
      vertex -1.45623 36.058 5.66734
      vertex -1.05801 36.4562 5.66734
    endloop
  endfacet
  facet normal -0.130614 -0.824673 0.550322
    outer loop
      vertex 0 38.3566 8
      vertex 0.556231 36.7119 5.66734
      vertex 1.03726 38.1923 8
    endloop
  endfacet
  facet normal -0.130614 -0.824673 0.550322
    outer loop
      vertex 0.556231 36.7119 5.66734
      vertex 0 38.3566 8
      vertex 0 36.8 5.66734
    endloop
  endfacet
  facet normal -0.130616 0.824672 0.550323
    outer loop
      vertex 1.03726 31.8077 8
      vertex 0.556231 33.2881 5.66735
      vertex 0 31.6434 8
    endloop
  endfacet
  facet normal -0.130614 0.824672 0.550323
    outer loop
      vertex 0 31.6434 8
      vertex 0.556231 33.2881 5.66735
      vertex 0 33.2 5.66734
    endloop
  endfacet
  facet normal -0.987688 -0.156434 0
    outer loop
      vertex 1.8 35 0.0999994
      vertex 1.7119 35.5562 5.66734
      vertex 1.7119 35.5562 0.0999994
    endloop
  endfacet
  facet normal -0.987688 -0.156434 0
    outer loop
      vertex 1.7119 35.5562 5.66734
      vertex 1.8 35 0.0999994
      vertex 1.8 35 5.66734
    endloop
  endfacet
  facet normal -0.156432 -0.987689 0
    outer loop
      vertex 0 36.8 0.0999994
      vertex 0.556231 36.7119 5.66734
      vertex 0 36.8 5.66734
    endloop
  endfacet
  facet normal -0.156432 -0.987689 -0
    outer loop
      vertex 0.556231 36.7119 5.66734
      vertex 0 36.8 0.0999994
      vertex 0.556231 36.7119 0.0999994
    endloop
  endfacet
  facet normal 0.987689 0.156433 0
    outer loop
      vertex -1.7119 34.4438 5.66735
      vertex -1.8 35 0.0999994
      vertex -1.8 35 5.66734
    endloop
  endfacet
  facet normal 0.987689 0.156433 2.11486e-08
    outer loop
      vertex -1.8 35 0.0999994
      vertex -1.7119 34.4438 5.66735
      vertex -1.7119 34.4438 0.0999994
    endloop
  endfacet
  facet normal -0.156432 0.987689 0
    outer loop
      vertex 0.556231 33.2881 0.0999994
      vertex 0 33.2 5.66734
      vertex 0.556231 33.2881 5.66735
    endloop
  endfacet
  facet normal -0.156432 0.987689 0
    outer loop
      vertex 0 33.2 5.66734
      vertex 0.556231 33.2881 0.0999994
      vertex 0 33.2 0.0999994
    endloop
  endfacet
  facet normal -0.891007 -0.453989 0
    outer loop
      vertex 1.7119 35.5562 0.0999994
      vertex 1.45623 36.058 5.66734
      vertex 1.45623 36.058 0.0999994
    endloop
  endfacet
  facet normal -0.891007 -0.453989 0
    outer loop
      vertex 1.45623 36.058 5.66734
      vertex 1.7119 35.5562 0.0999994
      vertex 1.7119 35.5562 5.66734
    endloop
  endfacet
  facet normal 0.156432 -0.987689 0
    outer loop
      vertex -0.556231 36.7119 0.0999994
      vertex 0 36.8 5.66734
      vertex -0.556231 36.7119 5.66734
    endloop
  endfacet
  facet normal 0.156432 -0.987689 0
    outer loop
      vertex 0 36.8 5.66734
      vertex -0.556231 36.7119 0.0999994
      vertex 0 36.8 0.0999994
    endloop
  endfacet
  facet normal 0 0 1
    outer loop
      vertex 1.7119 35.5562 0.0999994
      vertex 1.7119 34.4438 0.0999994
      vertex 1.8 35 0.0999994
    endloop
  endfacet
  facet normal 0 0 1
    outer loop
      vertex 1.45623 36.058 0.0999994
      vertex 1.7119 34.4438 0.0999994
      vertex 1.7119 35.5562 0.0999994
    endloop
  endfacet
  facet normal 0 0 1
    outer loop
      vertex 1.45623 36.058 0.0999994
      vertex 1.45623 33.942 0.0999994
      vertex 1.7119 34.4438 0.0999994
    endloop
  endfacet
  facet normal 0 0 1
    outer loop
      vertex 1.05801 36.4562 0.0999994
      vertex 1.45623 33.942 0.0999994
      vertex 1.45623 36.058 0.0999994
    endloop
  endfacet
  facet normal 0 0 1
    outer loop
      vertex 1.05801 36.4562 0.0999994
      vertex 1.05801 33.5438 0.0999994
      vertex 1.45623 33.942 0.0999994
    endloop
  endfacet
  facet normal 0 0 1
    outer loop
      vertex 0.556231 36.7119 0.0999994
      vertex 1.05801 33.5438 0.0999994
      vertex 1.05801 36.4562 0.0999994
    endloop
  endfacet
  facet normal 0 0 1
    outer loop
      vertex 0.556231 36.7119 0.0999994
      vertex 0.556231 33.2881 0.0999994
      vertex 1.05801 33.5438 0.0999994
    endloop
  endfacet
  facet normal 0 0 1
    outer loop
      vertex 0 36.8 0.0999994
      vertex 0.556231 33.2881 0.0999994
      vertex 0.556231 36.7119 0.0999994
    endloop
  endfacet
  facet normal 0 0 1
    outer loop
      vertex 0 36.8 0.0999994
      vertex 0 33.2 0.0999994
      vertex 0.556231 33.2881 0.0999994
    endloop
  endfacet
  facet normal -0 0 1
    outer loop
      vertex -0.556231 36.7119 0.0999994
      vertex 0 33.2 0.0999994
      vertex 0 36.8 0.0999994
    endloop
  endfacet
  facet normal 0 0 1
    outer loop
      vertex -0.556231 36.7119 0.0999994
      vertex -0.556231 33.2881 0.0999994
      vertex 0 33.2 0.0999994
    endloop
  endfacet
  facet normal -0 0 1
    outer loop
      vertex -1.05801 36.4562 0.0999994
      vertex -0.556231 33.2881 0.0999994
      vertex -0.556231 36.7119 0.0999994
    endloop
  endfacet
  facet normal 0 0 1
    outer loop
      vertex -1.05801 36.4562 0.0999994
      vertex -1.05801 33.5438 0.0999994
      vertex -0.556231 33.2881 0.0999994
    endloop
  endfacet
  facet normal -0 0 1
    outer loop
      vertex -1.45623 36.058 0.0999994
      vertex -1.05801 33.5438 0.0999994
      vertex -1.05801 36.4562 0.0999994
    endloop
  endfacet
  facet normal 0 0 1
    outer loop
      vertex -1.45623 36.058 0.0999994
      vertex -1.45623 33.942 0.0999994
      vertex -1.05801 33.5438 0.0999994
    endloop
  endfacet
  facet normal -0 0 1
    outer loop
      vertex -1.7119 35.5562 0.0999994
      vertex -1.45623 33.942 0.0999994
      vertex -1.45623 36.058 0.0999994
    endloop
  endfacet
  facet normal 0 0 1
    outer loop
      vertex -1.7119 35.5562 0.0999994
      vertex -1.7119 34.4438 0.0999994
      vertex -1.45623 33.942 0.0999994
    endloop
  endfacet
  facet normal 0 -0 1
    outer loop
      vertex -1.7119 34.4438 0.0999994
      vertex -1.7119 35.5562 0.0999994
      vertex -1.8 35 0.0999994
    endloop
  endfacet
  facet normal 0.453993 -0.891005 0
    outer loop
      vertex -1.05801 36.4562 0.0999994
      vertex -0.556231 36.7119 5.66734
      vertex -1.05801 36.4562 5.66734
    endloop
  endfacet
  facet normal 0.453993 -0.891005 0
    outer loop
      vertex -0.556231 36.7119 5.66734
      vertex -1.05801 36.4562 0.0999994
      vertex -0.556231 36.7119 0.0999994
    endloop
  endfacet
  facet normal 0.987688 -0.156434 0
    outer loop
      vertex -1.8 35 5.66734
      vertex -1.7119 35.5562 0.0999994
      vertex -1.7119 35.5562 5.66734
    endloop
  endfacet
  facet normal 0.987688 -0.156434 0
    outer loop
      vertex -1.7119 35.5562 0.0999994
      vertex -1.8 35 5.66734
      vertex -1.8 35 0.0999994
    endloop
  endfacet
  facet normal -0.987689 0.156433 0
    outer loop
      vertex 1.7119 34.4438 0.0999994
      vertex 1.8 35 5.66734
      vertex 1.8 35 0.0999994
    endloop
  endfacet
  facet normal -0.987689 0.156433 2.11486e-08
    outer loop
      vertex 1.8 35 5.66734
      vertex 1.7119 34.4438 0.0999994
      vertex 1.7119 34.4438 5.66735
    endloop
  endfacet
  facet normal -0.453993 0.891005 0
    outer loop
      vertex 1.05801 33.5438 0.0999994
      vertex 0.556231 33.2881 5.66735
      vertex 1.05801 33.5438 5.66734
    endloop
  endfacet
  facet normal -0.453993 0.891005 9.721e-09
    outer loop
      vertex 0.556231 33.2881 0.0999994
      vertex 0.556231 33.2881 5.66735
      vertex 1.05801 33.5438 0.0999994
    endloop
  endfacet
  facet normal -0.707106 0.707107 0
    outer loop
      vertex 1.45623 33.942 5.66734
      vertex 1.45623 33.942 0.0999994
      vertex 1.05801 33.5438 5.66734
    endloop
  endfacet
  facet normal -0.707106 0.707108 4.54222e-08
    outer loop
      vertex 1.05801 33.5438 0.0999994
      vertex 1.05801 33.5438 5.66734
      vertex 1.45623 33.942 0.0999994
    endloop
  endfacet
  facet normal 0.891006 0.453992 0
    outer loop
      vertex -1.45623 33.942 5.66734
      vertex -1.7119 34.4438 0.0999994
      vertex -1.7119 34.4438 5.66735
    endloop
  endfacet
  facet normal 0.891006 0.453992 0
    outer loop
      vertex -1.7119 34.4438 0.0999994
      vertex -1.45623 33.942 5.66734
      vertex -1.45623 33.942 0.0999994
    endloop
  endfacet
  facet normal 0.156432 0.987689 -0
    outer loop
      vertex 0 33.2 0.0999994
      vertex -0.556231 33.2881 5.66735
      vertex 0 33.2 5.66734
    endloop
  endfacet
  facet normal 0.156432 0.987689 0
    outer loop
      vertex -0.556231 33.2881 5.66735
      vertex 0 33.2 0.0999994
      vertex -0.556231 33.2881 0.0999994
    endloop
  endfacet
  facet normal -0.707106 -0.707107 3.02815e-08
    outer loop
      vertex 1.05801 36.4562 5.66734
      vertex 1.05801 36.4562 0.0999994
      vertex 1.45623 36.058 5.66734
    endloop
  endfacet
  facet normal -0.707106 -0.707108 -3.02814e-08
    outer loop
      vertex 1.45623 36.058 0.0999994
      vertex 1.45623 36.058 5.66734
      vertex 1.05801 36.4562 0.0999994
    endloop
  endfacet
  facet normal -0.453993 -0.891005 0
    outer loop
      vertex 0.556231 36.7119 0.0999994
      vertex 1.05801 36.4562 5.66734
      vertex 0.556231 36.7119 5.66734
    endloop
  endfacet
  facet normal -0.453993 -0.891005 -0
    outer loop
      vertex 1.05801 36.4562 5.66734
      vertex 0.556231 36.7119 0.0999994
      vertex 1.05801 36.4562 0.0999994
    endloop
  endfacet
  facet normal 0.707106 -0.707107 -3.02815e-08
    outer loop
      vertex -1.45623 36.058 5.66734
      vertex -1.45623 36.058 0.0999994
      vertex -1.05801 36.4562 5.66734
    endloop
  endfacet
  facet normal 0.707106 -0.707108 3.02814e-08
    outer loop
      vertex -1.05801 36.4562 0.0999994
      vertex -1.05801 36.4562 5.66734
      vertex -1.45623 36.058 0.0999994
    endloop
  endfacet
  facet normal 0.891007 -0.453989 0
    outer loop
      vertex -1.7119 35.5562 5.66734
      vertex -1.45623 36.058 0.0999994
      vertex -1.45623 36.058 5.66734
    endloop
  endfacet
  facet normal 0.891007 -0.453989 0
    outer loop
      vertex -1.45623 36.058 0.0999994
      vertex -1.7119 35.5562 5.66734
      vertex -1.7119 35.5562 0.0999994
    endloop
  endfacet
  facet normal 0.707106 0.707107 4.54222e-08
    outer loop
      vertex -1.05801 33.5438 0.0999994
      vertex -1.45623 33.942 5.66734
      vertex -1.05801 33.5438 5.66734
    endloop
  endfacet
  facet normal 0.707106 0.707108 0
    outer loop
      vertex -1.45623 33.942 5.66734
      vertex -1.05801 33.5438 0.0999994
      vertex -1.45623 33.942 0.0999994
    endloop
  endfacet
  facet normal -0.891006 0.453992 0
    outer loop
      vertex 1.45623 33.942 0.0999994
      vertex 1.7119 34.4438 5.66735
      vertex 1.7119 34.4438 0.0999994
    endloop
  endfacet
  facet normal -0.891006 0.453992 0
    outer loop
      vertex 1.7119 34.4438 5.66735
      vertex 1.45623 33.942 0.0999994
      vertex 1.45623 33.942 5.66734
    endloop
  endfacet
  facet normal 0.453993 0.891005 9.721e-09
    outer loop
      vertex -0.556231 33.2881 5.66735
      vertex -0.556231 33.2881 0.0999994
      vertex -1.05801 33.5438 5.66734
    endloop
  endfacet
  facet normal 0.453993 0.891005 0
    outer loop
      vertex -1.05801 33.5438 5.66734
      vertex -0.556231 33.2881 0.0999994
      vertex -1.05801 33.5438 0.0999994
    endloop
  endfacet
endsolid OpenSCAD_Model
