solid OpenSCAD_Model
  facet normal -0 0 -1
    outer loop
      vertex 10.6039 -30.0151 0
      vertex -9.56766 -30.5569 0
      vertex -9.55501 -29.463 0
    endloop
  endfacet
  facet normal 0 0 -1
    outer loop
      vertex -6.61565 -57.2124 0
      vertex -9.60559 -31.6003 0
      vertex -9.56766 -30.5569 0
    endloop
  endfacet
  facet normal 0 0 -1
    outer loop
      vertex -6.61565 -57.2124 0
      vertex -9.66881 -32.5931 0
      vertex -9.60559 -31.6003 0
    endloop
  endfacet
  facet normal 0 0 -1
    outer loop
      vertex -6.61565 -57.2124 0
      vertex -9.75732 -33.5353 0
      vertex -9.66881 -32.5931 0
    endloop
  endfacet
  facet normal 0 0 -1
    outer loop
      vertex -6.61565 -57.2124 0
      vertex -9.87112 -34.4269 0
      vertex -9.75732 -33.5353 0
    endloop
  endfacet
  facet normal 0 0 -1
    outer loop
      vertex -6.61565 -57.2124 0
      vertex -10.0102 -35.2679 0
      vertex -9.87112 -34.4269 0
    endloop
  endfacet
  facet normal 0 0 -1
    outer loop
      vertex -14.2708 -41.8706 0
      vertex -8.2984 -57.6255 0
      vertex -10.0594 -57.9468 0
    endloop
  endfacet
  facet normal 0 0 -1
    outer loop
      vertex -6.61565 -57.2124 0
      vertex -10.1746 -36.0584 0
      vertex -10.0102 -35.2679 0
    endloop
  endfacet
  facet normal 0 0 -1
    outer loop
      vertex -6.61565 -57.2124 0
      vertex -10.3643 -36.7983 0
      vertex -10.1746 -36.0584 0
    endloop
  endfacet
  facet normal 0 0 -1
    outer loop
      vertex -6.61565 -57.2124 0
      vertex -10.5793 -37.4876 0
      vertex -10.3643 -36.7983 0
    endloop
  endfacet
  facet normal 0 0 -1
    outer loop
      vertex -6.61565 -57.2124 0
      vertex -10.8195 -38.1263 0
      vertex -10.5793 -37.4876 0
    endloop
  endfacet
  facet normal 0 0 -1
    outer loop
      vertex -6.61565 -57.2124 0
      vertex -11.0851 -38.7144 0
      vertex -10.8195 -38.1263 0
    endloop
  endfacet
  facet normal 0 0 -1
    outer loop
      vertex -6.61565 -57.2124 0
      vertex -11.3759 -39.252 0
      vertex -11.0851 -38.7144 0
    endloop
  endfacet
  facet normal 0 0 -1
    outer loop
      vertex -6.61565 -57.2124 0
      vertex -11.692 -39.739 0
      vertex -11.3759 -39.252 0
    endloop
  endfacet
  facet normal 0 0 -1
    outer loop
      vertex -14.8186 -42.1015 0
      vertex -10.0594 -57.9468 0
      vertex -11.8987 -58.1764 0
    endloop
  endfacet
  facet normal 0 0 -1
    outer loop
      vertex -6.61565 -57.2124 0
      vertex -12.0375 -40.1831 0
      vertex -11.692 -39.739 0
    endloop
  endfacet
  facet normal 0 0 -1
    outer loop
      vertex -6.61565 -57.2124 0
      vertex -12.4167 -40.5916 0
      vertex -12.0375 -40.1831 0
    endloop
  endfacet
  facet normal 0 0 -1
    outer loop
      vertex -6.61565 -57.2124 0
      vertex -12.8296 -40.9647 0
      vertex -12.4167 -40.5916 0
    endloop
  endfacet
  facet normal 0 0 -1
    outer loop
      vertex -6.61565 -57.2124 0
      vertex -13.2763 -41.3022 0
      vertex -12.8296 -40.9647 0
    endloop
  endfacet
  facet normal 0 0 -1
    outer loop
      vertex -6.61565 -57.2124 0
      vertex -13.7567 -41.6041 0
      vertex -13.2763 -41.3022 0
    endloop
  endfacet
  facet normal 0 0 -1
    outer loop
      vertex -15.4002 -42.2969 0
      vertex -11.8987 -58.1764 0
      vertex -13.8162 -58.3141 0
    endloop
  endfacet
  facet normal 0 0 -1
    outer loop
      vertex -8.2984 -57.6255 0
      vertex -14.2708 -41.8706 0
      vertex -13.7567 -41.6041 0
    endloop
  endfacet
  facet normal 0 0 -1
    outer loop
      vertex -10.0594 -57.9468 0
      vertex -14.8186 -42.1015 0
      vertex -14.2708 -41.8706 0
    endloop
  endfacet
  facet normal 0 0 -1
    outer loop
      vertex -11.8987 -58.1764 0
      vertex -15.4002 -42.2969 0
      vertex -14.8186 -42.1015 0
    endloop
  endfacet
  facet normal 0 0 -1
    outer loop
      vertex -16.6646 -42.5811 0
      vertex -13.8162 -58.3141 0
      vertex -15.812 -58.36 0
    endloop
  endfacet
  facet normal 0 0 -1
    outer loop
      vertex -13.8162 -58.3141 0
      vertex -16.0155 -42.4568 0
      vertex -15.4002 -42.2969 0
    endloop
  endfacet
  facet normal 0 0 -1
    outer loop
      vertex -17.3473 -42.6699 0
      vertex -15.812 -58.36 0
      vertex -16.6541 -58.3537 0
    endloop
  endfacet
  facet normal 0 0 -1
    outer loop
      vertex -13.8162 -58.3141 0
      vertex -16.6646 -42.5811 0
      vertex -16.0155 -42.4568 0
    endloop
  endfacet
  facet normal 0 0 -1
    outer loop
      vertex -15.812 -58.36 0
      vertex -17.3473 -42.6699 0
      vertex -16.6646 -42.5811 0
    endloop
  endfacet
  facet normal 0 0 -1
    outer loop
      vertex -17.4895 -58.3347 0
      vertex -17.3473 -42.6699 0
      vertex -16.6541 -58.3537 0
    endloop
  endfacet
  facet normal 0 0 -1
    outer loop
      vertex -17.4895 -58.3347 0
      vertex -18.0638 -42.7232 0
      vertex -17.3473 -42.6699 0
    endloop
  endfacet
  facet normal 0 0 -1
    outer loop
      vertex -18.3183 -58.3031 0
      vertex -18.0638 -42.7232 0
      vertex -17.4895 -58.3347 0
    endloop
  endfacet
  facet normal 0 0 -1
    outer loop
      vertex -18.3183 -58.3031 0
      vertex -18.814 -42.741 0
      vertex -18.0638 -42.7232 0
    endloop
  endfacet
  facet normal 0 0 -1
    outer loop
      vertex -19.1405 -58.2589 0
      vertex -18.814 -42.741 0
      vertex -18.3183 -58.3031 0
    endloop
  endfacet
  facet normal 0 0 -1
    outer loop
      vertex -19.1405 -58.2589 0
      vertex -19.1409 -42.7387 0
      vertex -18.814 -42.741 0
    endloop
  endfacet
  facet normal 0 0 -1
    outer loop
      vertex -19.9561 -58.202 0
      vertex -19.1409 -42.7387 0
      vertex -19.1405 -58.2589 0
    endloop
  endfacet
  facet normal -0 0 -1
    outer loop
      vertex -19.1409 -42.7387 0
      vertex -19.9561 -58.202 0
      vertex -19.4643 -42.7319 0
    endloop
  endfacet
  facet normal 0 0 -1
    outer loop
      vertex -20.765 -58.1325 0
      vertex -19.4643 -42.7319 0
      vertex -19.9561 -58.202 0
    endloop
  endfacet
  facet normal -0 0 -1
    outer loop
      vertex -19.4643 -42.7319 0
      vertex -20.765 -58.1325 0
      vertex -19.784 -42.7206 0
    endloop
  endfacet
  facet normal -0 0 -1
    outer loop
      vertex -19.784 -42.7206 0
      vertex -20.765 -58.1325 0
      vertex -20.1001 -42.7048 0
    endloop
  endfacet
  facet normal 0 0 -1
    outer loop
      vertex -21.5673 -58.0503 0
      vertex -20.1001 -42.7048 0
      vertex -20.765 -58.1325 0
    endloop
  endfacet
  facet normal -0 0 -1
    outer loop
      vertex -20.1001 -42.7048 0
      vertex -21.5673 -58.0503 0
      vertex -20.4126 -42.6845 0
    endloop
  endfacet
  facet normal 0 0 -1
    outer loop
      vertex -22.363 -57.9555 0
      vertex -20.4126 -42.6845 0
      vertex -21.5673 -58.0503 0
    endloop
  endfacet
  facet normal -0 0 -1
    outer loop
      vertex -20.4126 -42.6845 0
      vertex -22.363 -57.9555 0
      vertex -20.7214 -42.6596 0
    endloop
  endfacet
  facet normal -0 0 -1
    outer loop
      vertex -20.7214 -42.6596 0
      vertex -22.363 -57.9555 0
      vertex -21.0267 -42.6302 0
    endloop
  endfacet
  facet normal 0 0 -1
    outer loop
      vertex -23.1521 -57.8481 0
      vertex -21.0267 -42.6302 0
      vertex -22.363 -57.9555 0
    endloop
  endfacet
  facet normal -0 0 -1
    outer loop
      vertex -21.0267 -42.6302 0
      vertex -23.1521 -57.8481 0
      vertex -21.3283 -42.5963 0
    endloop
  endfacet
  facet normal 0 0 -1
    outer loop
      vertex -23.9345 -57.728 0
      vertex -21.3283 -42.5963 0
      vertex -23.1521 -57.8481 0
    endloop
  endfacet
  facet normal -0 0 -1
    outer loop
      vertex -21.3283 -42.5963 0
      vertex -23.9345 -57.728 0
      vertex -21.6263 -42.5579 0
    endloop
  endfacet
  facet normal -0 0 -1
    outer loop
      vertex -21.6263 -42.5579 0
      vertex -23.9345 -57.728 0
      vertex -21.9206 -42.515 0
    endloop
  endfacet
  facet normal 0 0 -1
    outer loop
      vertex -24.7103 -57.5953 0
      vertex -21.9206 -42.515 0
      vertex -23.9345 -57.728 0
    endloop
  endfacet
  facet normal -0 0 -1
    outer loop
      vertex -21.9206 -42.515 0
      vertex -24.7103 -57.5953 0
      vertex -22.2114 -42.4675 0
    endloop
  endfacet
  facet normal -0 0 -1
    outer loop
      vertex -22.2114 -42.4675 0
      vertex -24.7103 -57.5953 0
      vertex -22.4985 -42.4155 0
    endloop
  endfacet
  facet normal 0 0 -1
    outer loop
      vertex -25.4794 -57.45 0
      vertex -22.4985 -42.4155 0
      vertex -24.7103 -57.5953 0
    endloop
  endfacet
  facet normal -0 0 -1
    outer loop
      vertex -22.4985 -42.4155 0
      vertex -25.4794 -57.45 0
      vertex -22.782 -42.359 0
    endloop
  endfacet
  facet normal 0 0 -1
    outer loop
      vertex -26.242 -57.292 0
      vertex -22.782 -42.359 0
      vertex -25.4794 -57.45 0
    endloop
  endfacet
  facet normal -0 0 -1
    outer loop
      vertex -22.782 -42.359 0
      vertex -26.242 -57.292 0
      vertex -24.4296 -42.0235 0
    endloop
  endfacet
  facet normal -0 0 -1
    outer loop
      vertex -24.4296 -42.0235 0
      vertex -26.242 -57.292 0
      vertex -25.7362 -41.7686 0
    endloop
  endfacet
  facet normal -0 0 -1
    outer loop
      vertex -25.7362 -41.7686 0
      vertex -26.242 -57.292 0
      vertex -26.242 -41.673 0
    endloop
  endfacet
  facet normal 0 0 -1
    outer loop
      vertex -9.55501 -29.463 0
      vertex 10.643 -27.734 0
      vertex 10.6039 -30.0151 0
    endloop
  endfacet
  facet normal 0 0 -1
    outer loop
      vertex -9.56766 -30.5569 0
      vertex 10.6039 -30.0151 0
      vertex 10.4865 -32.2092 0
    endloop
  endfacet
  facet normal 0 0 -1
    outer loop
      vertex -9.56766 -30.5569 0
      vertex 10.4865 -32.2092 0
      vertex 10.2908 -34.3163 0
    endloop
  endfacet
  facet normal 0 0 -1
    outer loop
      vertex -9.56766 -30.5569 0
      vertex 10.2908 -34.3163 0
      vertex 10.0168 -36.3364 0
    endloop
  endfacet
  facet normal 0 0 -1
    outer loop
      vertex -9.56766 -30.5569 0
      vertex 10.0168 -36.3364 0
      vertex 9.6646 -38.2695 0
    endloop
  endfacet
  facet normal 0 0 -1
    outer loop
      vertex -9.56766 -30.5569 0
      vertex 9.6646 -38.2695 0
      vertex 9.2341 -40.1156 0
    endloop
  endfacet
  facet normal 0 0 -1
    outer loop
      vertex -9.56766 -30.5569 0
      vertex 9.2341 -40.1156 0
      vertex 8.72533 -41.8746 0
    endloop
  endfacet
  facet normal 0 0 -1
    outer loop
      vertex -9.56766 -30.5569 0
      vertex 8.72533 -41.8746 0
      vertex 8.13828 -43.5467 0
    endloop
  endfacet
  facet normal 0 0 -1
    outer loop
      vertex -9.56766 -30.5569 0
      vertex 8.13828 -43.5467 0
      vertex 7.47296 -45.1318 0
    endloop
  endfacet
  facet normal 0 0 -1
    outer loop
      vertex -9.56766 -30.5569 0
      vertex 7.47296 -45.1318 0
      vertex 6.72939 -46.6299 0
    endloop
  endfacet
  facet normal 0 0 -1
    outer loop
      vertex -9.56766 -30.5569 0
      vertex 6.72939 -46.6299 0
      vertex 5.90753 -48.0409 0
    endloop
  endfacet
  facet normal 0 0 -1
    outer loop
      vertex -9.56766 -30.5569 0
      vertex 5.90753 -48.0409 0
      vertex 5.0074 -49.3649 0
    endloop
  endfacet
  facet normal 0 0 -1
    outer loop
      vertex -9.56766 -30.5569 0
      vertex 5.0074 -49.3649 0
      vertex 4.02899 -50.602 0
    endloop
  endfacet
  facet normal 0 0 -1
    outer loop
      vertex -9.56766 -30.5569 0
      vertex 4.02899 -50.602 0
      vertex 2.97232 -51.7496 0
    endloop
  endfacet
  facet normal 0 0 -1
    outer loop
      vertex -9.56766 -30.5569 0
      vertex 2.97232 -51.7496 0
      vertex 1.8374 -52.8055 0
    endloop
  endfacet
  facet normal 0 0 -1
    outer loop
      vertex -9.56766 -30.5569 0
      vertex 1.8374 -52.8055 0
      vertex 0.624207 -53.7695 0
    endloop
  endfacet
  facet normal 0 0 -1
    outer loop
      vertex -9.56766 -30.5569 0
      vertex 0.624207 -53.7695 0
      vertex -0.667252 -54.6417 0
    endloop
  endfacet
  facet normal 0 0 -1
    outer loop
      vertex -9.56766 -30.5569 0
      vertex -0.667252 -54.6417 0
      vertex -2.03696 -55.4221 0
    endloop
  endfacet
  facet normal 0 0 -1
    outer loop
      vertex -9.56766 -30.5569 0
      vertex -2.03696 -55.4221 0
      vertex -3.48492 -56.1106 0
    endloop
  endfacet
  facet normal 0 0 -1
    outer loop
      vertex -9.56766 -30.5569 0
      vertex -3.48492 -56.1106 0
      vertex -5.01115 -56.7074 0
    endloop
  endfacet
  facet normal 0 0 -1
    outer loop
      vertex -9.56766 -30.5569 0
      vertex -5.01115 -56.7074 0
      vertex -6.61565 -57.2124 0
    endloop
  endfacet
  facet normal 0 0 -1
    outer loop
      vertex -13.7567 -41.6041 0
      vertex -6.61565 -57.2124 0
      vertex -8.2984 -57.6255 0
    endloop
  endfacet
  facet normal 0 0 -1
    outer loop
      vertex -9.55501 39.368 0
      vertex 10.643 -27.734 0
      vertex -9.55501 -29.463 0
    endloop
  endfacet
  facet normal 0 0 -1
    outer loop
      vertex 10.643 -27.734 0
      vertex -9.55501 39.368 0
      vertex 10.643 39.368 0
    endloop
  endfacet
  facet normal -0 0 1
    outer loop
      vertex 2.71557 28.027 8
      vertex 10.643 -27.734 8
      vertex 3.19235 28.9627 8
    endloop
  endfacet
  facet normal 0 0 1
    outer loop
      vertex 10.643 -27.734 8
      vertex 3.19235 -26.9627 8
      vertex 3.35663 -28 8
    endloop
  endfacet
  facet normal -0 0 1
    outer loop
      vertex 1.97298 27.2844 8
      vertex 10.643 -27.734 8
      vertex 2.71557 28.027 8
    endloop
  endfacet
  facet normal 0 0 1
    outer loop
      vertex 10.643 -27.734 8
      vertex 2.71557 -26.027 8
      vertex 3.19235 -26.9627 8
    endloop
  endfacet
  facet normal -0 0 1
    outer loop
      vertex 1.03726 26.8077 8
      vertex 10.643 -27.734 8
      vertex 1.97298 27.2844 8
    endloop
  endfacet
  facet normal 0 0 1
    outer loop
      vertex 10.643 -27.734 8
      vertex 1.97298 -25.2844 8
      vertex 2.71557 -26.027 8
    endloop
  endfacet
  facet normal -0 0 1
    outer loop
      vertex 1.03726 -24.8077 8
      vertex 10.643 -27.734 8
      vertex 1.03726 26.8077 8
    endloop
  endfacet
  facet normal 0 0 1
    outer loop
      vertex 10.643 -27.734 8
      vertex 1.03726 -24.8077 8
      vertex 1.97298 -25.2844 8
    endloop
  endfacet
  facet normal -0 0 1
    outer loop
      vertex 0 26.6434 8
      vertex 1.03726 -24.8077 8
      vertex 1.03726 26.8077 8
    endloop
  endfacet
  facet normal 0 0 1
    outer loop
      vertex 0 26.6434 8
      vertex 0 -24.6434 8
      vertex 1.03726 -24.8077 8
    endloop
  endfacet
  facet normal 0 0 1
    outer loop
      vertex -1.03726 26.8077 8
      vertex 0 -24.6434 8
      vertex 0 26.6434 8
    endloop
  endfacet
  facet normal 0 0 1
    outer loop
      vertex -1.03726 26.8077 8
      vertex -1.03726 -24.8077 8
      vertex 0 -24.6434 8
    endloop
  endfacet
  facet normal 0 0 1
    outer loop
      vertex -1.97298 27.2844 8
      vertex -1.03726 -24.8077 8
      vertex -1.03726 26.8077 8
    endloop
  endfacet
  facet normal 0 0 1
    outer loop
      vertex -1.97298 27.2844 8
      vertex -1.97298 -25.2844 8
      vertex -1.03726 -24.8077 8
    endloop
  endfacet
  facet normal 0 0 1
    outer loop
      vertex -9.55501 -29.463 8
      vertex -1.97298 27.2844 8
      vertex -2.71557 28.027 8
    endloop
  endfacet
  facet normal 0 0 1
    outer loop
      vertex -1.97298 27.2844 8
      vertex -9.55501 -29.463 8
      vertex -1.97298 -25.2844 8
    endloop
  endfacet
  facet normal 0 0 1
    outer loop
      vertex -9.55501 -29.463 8
      vertex -2.71557 28.027 8
      vertex -3.19235 28.9627 8
    endloop
  endfacet
  facet normal 0 0 1
    outer loop
      vertex -1.97298 -25.2844 8
      vertex -9.55501 -29.463 8
      vertex -2.71557 -26.027 8
    endloop
  endfacet
  facet normal 0 0 1
    outer loop
      vertex -9.55501 39.368 8
      vertex -3.19235 28.9627 8
      vertex -3.35663 30 8
    endloop
  endfacet
  facet normal 0 0 1
    outer loop
      vertex -2.71557 -26.027 8
      vertex -9.55501 -29.463 8
      vertex -3.19235 -26.9627 8
    endloop
  endfacet
  facet normal 0 0 1
    outer loop
      vertex 3.19235 28.9627 8
      vertex 10.643 39.368 8
      vertex 3.35663 30 8
    endloop
  endfacet
  facet normal 0 0 1
    outer loop
      vertex 10.643 39.368 8
      vertex 3.19235 28.9627 8
      vertex 10.643 -27.734 8
    endloop
  endfacet
  facet normal 0 0 1
    outer loop
      vertex 10.643 -27.734 8
      vertex 3.35663 -28 8
      vertex 10.6039 -30.0151 8
    endloop
  endfacet
  facet normal -0 0 1
    outer loop
      vertex 3.19235 -29.0373 8
      vertex 10.6039 -30.0151 8
      vertex 3.35663 -28 8
    endloop
  endfacet
  facet normal 0 0 1
    outer loop
      vertex 10.6039 -30.0151 8
      vertex 3.19235 -29.0373 8
      vertex 10.4865 -32.2092 8
    endloop
  endfacet
  facet normal 0 0 1
    outer loop
      vertex 10.4865 -32.2092 8
      vertex 2.71557 -29.973 8
      vertex 10.2908 -34.3163 8
    endloop
  endfacet
  facet normal -0 0 1
    outer loop
      vertex 1.97298 -30.7156 8
      vertex 10.2908 -34.3163 8
      vertex 2.71557 -29.973 8
    endloop
  endfacet
  facet normal 0 0 1
    outer loop
      vertex 10.2908 -34.3163 8
      vertex 1.97298 -30.7156 8
      vertex 10.0168 -36.3364 8
    endloop
  endfacet
  facet normal -0 0 1
    outer loop
      vertex 1.03726 -31.1923 8
      vertex 10.0168 -36.3364 8
      vertex 1.97298 -30.7156 8
    endloop
  endfacet
  facet normal 0 0 1
    outer loop
      vertex 10.0168 -36.3364 8
      vertex 1.03726 -31.1923 8
      vertex 9.6646 -38.2695 8
    endloop
  endfacet
  facet normal 0 0 1
    outer loop
      vertex 9.6646 -38.2695 8
      vertex 1.03726 -31.1923 8
      vertex 9.2341 -40.1156 8
    endloop
  endfacet
  facet normal -0 0 1
    outer loop
      vertex 0 -31.3566 8
      vertex 9.2341 -40.1156 8
      vertex 1.03726 -31.1923 8
    endloop
  endfacet
  facet normal 0 0 1
    outer loop
      vertex 9.2341 -40.1156 8
      vertex 0 -31.3566 8
      vertex 8.72533 -41.8746 8
    endloop
  endfacet
  facet normal -0 0 1
    outer loop
      vertex 2.71557 -29.973 8
      vertex 10.4865 -32.2092 8
      vertex 3.19235 -29.0373 8
    endloop
  endfacet
  facet normal 0 0 1
    outer loop
      vertex 10.643 39.368 8
      vertex 3.19235 31.0373 8
      vertex 3.35663 30 8
    endloop
  endfacet
  facet normal 0 0 1
    outer loop
      vertex 10.643 39.368 8
      vertex 2.71557 31.973 8
      vertex 3.19235 31.0373 8
    endloop
  endfacet
  facet normal 0 0 1
    outer loop
      vertex 10.643 39.368 8
      vertex 1.97298 32.7156 8
      vertex 2.71557 31.973 8
    endloop
  endfacet
  facet normal 0 0 1
    outer loop
      vertex 10.643 39.368 8
      vertex 1.03726 33.1923 8
      vertex 1.97298 32.7156 8
    endloop
  endfacet
  facet normal 0 0 1
    outer loop
      vertex 10.643 39.368 8
      vertex 0 33.3566 8
      vertex 1.03726 33.1923 8
    endloop
  endfacet
  facet normal -0 0 1
    outer loop
      vertex -9.55501 39.368 8
      vertex 0 33.3566 8
      vertex 10.643 39.368 8
    endloop
  endfacet
  facet normal 0 0 1
    outer loop
      vertex 0 33.3566 8
      vertex -9.55501 39.368 8
      vertex -1.03726 33.1923 8
    endloop
  endfacet
  facet normal 0 0 1
    outer loop
      vertex -3.19235 -26.9627 8
      vertex -9.55501 -29.463 8
      vertex -3.35663 -28 8
    endloop
  endfacet
  facet normal 0 0 1
    outer loop
      vertex -9.56766 -30.5569 8
      vertex -3.35663 -28 8
      vertex -9.55501 -29.463 8
    endloop
  endfacet
  facet normal 0 0 1
    outer loop
      vertex -9.60559 -31.6003 8
      vertex -3.35663 -28 8
      vertex -9.56766 -30.5569 8
    endloop
  endfacet
  facet normal 0 0 1
    outer loop
      vertex -9.66881 -32.5931 8
      vertex -3.35663 -28 8
      vertex -9.60559 -31.6003 8
    endloop
  endfacet
  facet normal 0 0 1
    outer loop
      vertex -1.03726 33.1923 8
      vertex -9.55501 39.368 8
      vertex -1.97298 32.7156 8
    endloop
  endfacet
  facet normal 0 0 1
    outer loop
      vertex -9.55501 39.368 8
      vertex -2.71557 31.973 8
      vertex -1.97298 32.7156 8
    endloop
  endfacet
  facet normal 0 0 1
    outer loop
      vertex -9.55501 39.368 8
      vertex -3.19235 31.0373 8
      vertex -2.71557 31.973 8
    endloop
  endfacet
  facet normal 0 0 1
    outer loop
      vertex -9.55501 39.368 8
      vertex -3.35663 30 8
      vertex -3.19235 31.0373 8
    endloop
  endfacet
  facet normal 0 0 1
    outer loop
      vertex -3.19235 28.9627 8
      vertex -9.55501 39.368 8
      vertex -9.55501 -29.463 8
    endloop
  endfacet
  facet normal 0 0 1
    outer loop
      vertex -9.75732 -33.5353 8
      vertex -3.35663 -28 8
      vertex -9.66881 -32.5931 8
    endloop
  endfacet
  facet normal 0 0 1
    outer loop
      vertex -9.87112 -34.4269 8
      vertex -3.35663 -28 8
      vertex -9.75732 -33.5353 8
    endloop
  endfacet
  facet normal 0 0 1
    outer loop
      vertex -10.0102 -35.2679 8
      vertex -3.35663 -28 8
      vertex -9.87112 -34.4269 8
    endloop
  endfacet
  facet normal 0 0 1
    outer loop
      vertex -10.1746 -36.0584 8
      vertex -3.35663 -28 8
      vertex -10.0102 -35.2679 8
    endloop
  endfacet
  facet normal 0 0 1
    outer loop
      vertex -10.3643 -36.7983 8
      vertex -3.35663 -28 8
      vertex -10.1746 -36.0584 8
    endloop
  endfacet
  facet normal 0 0 1
    outer loop
      vertex -3.35663 -28 8
      vertex -10.3643 -36.7983 8
      vertex -3.48492 -56.1106 8
    endloop
  endfacet
  facet normal -0 0 1
    outer loop
      vertex -10.5793 -37.4876 8
      vertex -3.48492 -56.1106 8
      vertex -10.3643 -36.7983 8
    endloop
  endfacet
  facet normal -0 0 1
    outer loop
      vertex -10.8195 -38.1263 8
      vertex -3.48492 -56.1106 8
      vertex -10.5793 -37.4876 8
    endloop
  endfacet
  facet normal -0 0 1
    outer loop
      vertex -11.0851 -38.7144 8
      vertex -3.48492 -56.1106 8
      vertex -10.8195 -38.1263 8
    endloop
  endfacet
  facet normal -0 0 1
    outer loop
      vertex -11.3759 -39.252 8
      vertex -3.48492 -56.1106 8
      vertex -11.0851 -38.7144 8
    endloop
  endfacet
  facet normal -0 0 1
    outer loop
      vertex -11.692 -39.739 8
      vertex -3.48492 -56.1106 8
      vertex -11.3759 -39.252 8
    endloop
  endfacet
  facet normal -0 0 1
    outer loop
      vertex -12.0375 -40.1831 8
      vertex -3.48492 -56.1106 8
      vertex -11.692 -39.739 8
    endloop
  endfacet
  facet normal -0 0 1
    outer loop
      vertex -12.4167 -40.5916 8
      vertex -3.48492 -56.1106 8
      vertex -12.0375 -40.1831 8
    endloop
  endfacet
  facet normal -0 0 1
    outer loop
      vertex -12.8296 -40.9647 8
      vertex -3.48492 -56.1106 8
      vertex -12.4167 -40.5916 8
    endloop
  endfacet
  facet normal 0 0 1
    outer loop
      vertex -3.48492 -56.1106 8
      vertex -12.8296 -40.9647 8
      vertex -5.01115 -56.7074 8
    endloop
  endfacet
  facet normal -0 0 1
    outer loop
      vertex -13.2763 -41.3022 8
      vertex -5.01115 -56.7074 8
      vertex -12.8296 -40.9647 8
    endloop
  endfacet
  facet normal 0 0 1
    outer loop
      vertex -5.01115 -56.7074 8
      vertex -13.2763 -41.3022 8
      vertex -6.61565 -57.2124 8
    endloop
  endfacet
  facet normal -0 0 1
    outer loop
      vertex -13.7567 -41.6041 8
      vertex -6.61565 -57.2124 8
      vertex -13.2763 -41.3022 8
    endloop
  endfacet
  facet normal 0 0 1
    outer loop
      vertex -6.61565 -57.2124 8
      vertex -13.7567 -41.6041 8
      vertex -8.2984 -57.6255 8
    endloop
  endfacet
  facet normal -0 0 1
    outer loop
      vertex -14.2708 -41.8706 8
      vertex -8.2984 -57.6255 8
      vertex -13.7567 -41.6041 8
    endloop
  endfacet
  facet normal 0 0 1
    outer loop
      vertex -8.2984 -57.6255 8
      vertex -14.2708 -41.8706 8
      vertex -10.0594 -57.9468 8
    endloop
  endfacet
  facet normal -0 0 1
    outer loop
      vertex -14.8186 -42.1015 8
      vertex -10.0594 -57.9468 8
      vertex -14.2708 -41.8706 8
    endloop
  endfacet
  facet normal 0 0 1
    outer loop
      vertex -10.0594 -57.9468 8
      vertex -14.8186 -42.1015 8
      vertex -11.8987 -58.1764 8
    endloop
  endfacet
  facet normal -0 0 1
    outer loop
      vertex -15.4002 -42.2969 8
      vertex -11.8987 -58.1764 8
      vertex -14.8186 -42.1015 8
    endloop
  endfacet
  facet normal 0 0 1
    outer loop
      vertex -11.8987 -58.1764 8
      vertex -15.4002 -42.2969 8
      vertex -13.8162 -58.3141 8
    endloop
  endfacet
  facet normal -0 0 1
    outer loop
      vertex -16.0155 -42.4568 8
      vertex -13.8162 -58.3141 8
      vertex -15.4002 -42.2969 8
    endloop
  endfacet
  facet normal -0 0 1
    outer loop
      vertex -16.6646 -42.5811 8
      vertex -13.8162 -58.3141 8
      vertex -16.0155 -42.4568 8
    endloop
  endfacet
  facet normal 0 0 1
    outer loop
      vertex -13.8162 -58.3141 8
      vertex -16.6646 -42.5811 8
      vertex -15.812 -58.36 8
    endloop
  endfacet
  facet normal -0 0 1
    outer loop
      vertex -17.3473 -42.6699 8
      vertex -15.812 -58.36 8
      vertex -16.6646 -42.5811 8
    endloop
  endfacet
  facet normal 0 0 1
    outer loop
      vertex -15.812 -58.36 8
      vertex -17.3473 -42.6699 8
      vertex -16.6541 -58.3537 8
    endloop
  endfacet
  facet normal 0 0 1
    outer loop
      vertex -17.3473 -42.6699 8
      vertex -17.4895 -58.3347 8
      vertex -16.6541 -58.3537 8
    endloop
  endfacet
  facet normal -0 0 1
    outer loop
      vertex -18.0638 -42.7232 8
      vertex -17.4895 -58.3347 8
      vertex -17.3473 -42.6699 8
    endloop
  endfacet
  facet normal 0 0 1
    outer loop
      vertex -18.0638 -42.7232 8
      vertex -18.3183 -58.3031 8
      vertex -17.4895 -58.3347 8
    endloop
  endfacet
  facet normal -0 0 1
    outer loop
      vertex -18.814 -42.741 8
      vertex -18.3183 -58.3031 8
      vertex -18.0638 -42.7232 8
    endloop
  endfacet
  facet normal 0 0 1
    outer loop
      vertex -18.814 -42.741 8
      vertex -19.1405 -58.2589 8
      vertex -18.3183 -58.3031 8
    endloop
  endfacet
  facet normal 0 0 1
    outer loop
      vertex -19.1409 -42.7387 8
      vertex -19.1405 -58.2589 8
      vertex -18.814 -42.741 8
    endloop
  endfacet
  facet normal 0 0 1
    outer loop
      vertex -19.9561 -58.202 8
      vertex -19.1409 -42.7387 8
      vertex -19.4643 -42.7319 8
    endloop
  endfacet
  facet normal 0 0 1
    outer loop
      vertex -20.765 -58.1325 8
      vertex -19.4643 -42.7319 8
      vertex -19.784 -42.7206 8
    endloop
  endfacet
  facet normal 0 0 1
    outer loop
      vertex -19.1409 -42.7387 8
      vertex -19.9561 -58.202 8
      vertex -19.1405 -58.2589 8
    endloop
  endfacet
  facet normal 0 0 1
    outer loop
      vertex -20.765 -58.1325 8
      vertex -19.784 -42.7206 8
      vertex -20.1001 -42.7048 8
    endloop
  endfacet
  facet normal 0 0 1
    outer loop
      vertex -21.5673 -58.0503 8
      vertex -20.1001 -42.7048 8
      vertex -20.4126 -42.6845 8
    endloop
  endfacet
  facet normal 0 0 1
    outer loop
      vertex -22.363 -57.9555 8
      vertex -20.4126 -42.6845 8
      vertex -20.7214 -42.6596 8
    endloop
  endfacet
  facet normal 0 0 1
    outer loop
      vertex -19.4643 -42.7319 8
      vertex -20.765 -58.1325 8
      vertex -19.9561 -58.202 8
    endloop
  endfacet
  facet normal 0 0 1
    outer loop
      vertex -22.363 -57.9555 8
      vertex -20.7214 -42.6596 8
      vertex -21.0267 -42.6302 8
    endloop
  endfacet
  facet normal 0 0 1
    outer loop
      vertex -23.1521 -57.8481 8
      vertex -21.0267 -42.6302 8
      vertex -21.3283 -42.5963 8
    endloop
  endfacet
  facet normal 0 0 1
    outer loop
      vertex -20.1001 -42.7048 8
      vertex -21.5673 -58.0503 8
      vertex -20.765 -58.1325 8
    endloop
  endfacet
  facet normal 0 0 1
    outer loop
      vertex -23.9345 -57.728 8
      vertex -21.3283 -42.5963 8
      vertex -21.6263 -42.5579 8
    endloop
  endfacet
  facet normal 0 0 1
    outer loop
      vertex -23.9345 -57.728 8
      vertex -21.6263 -42.5579 8
      vertex -21.9206 -42.515 8
    endloop
  endfacet
  facet normal 0 0 1
    outer loop
      vertex -24.7103 -57.5953 8
      vertex -21.9206 -42.515 8
      vertex -22.2114 -42.4675 8
    endloop
  endfacet
  facet normal 0 0 1
    outer loop
      vertex -20.4126 -42.6845 8
      vertex -22.363 -57.9555 8
      vertex -21.5673 -58.0503 8
    endloop
  endfacet
  facet normal 0 0 1
    outer loop
      vertex -24.7103 -57.5953 8
      vertex -22.2114 -42.4675 8
      vertex -22.4985 -42.4155 8
    endloop
  endfacet
  facet normal 0 0 1
    outer loop
      vertex -25.4794 -57.45 8
      vertex -22.4985 -42.4155 8
      vertex -22.782 -42.359 8
    endloop
  endfacet
  facet normal 0 0 1
    outer loop
      vertex -21.0267 -42.6302 8
      vertex -23.1521 -57.8481 8
      vertex -22.363 -57.9555 8
    endloop
  endfacet
  facet normal 0 0 1
    outer loop
      vertex -21.3283 -42.5963 8
      vertex -23.9345 -57.728 8
      vertex -23.1521 -57.8481 8
    endloop
  endfacet
  facet normal 0 0 1
    outer loop
      vertex -26.242 -57.292 8
      vertex -22.782 -42.359 8
      vertex -24.4296 -42.0235 8
    endloop
  endfacet
  facet normal 0 0 1
    outer loop
      vertex -21.9206 -42.515 8
      vertex -24.7103 -57.5953 8
      vertex -23.9345 -57.728 8
    endloop
  endfacet
  facet normal 0 0 1
    outer loop
      vertex -22.4985 -42.4155 8
      vertex -25.4794 -57.45 8
      vertex -24.7103 -57.5953 8
    endloop
  endfacet
  facet normal 0 0 1
    outer loop
      vertex -26.242 -57.292 8
      vertex -24.4296 -42.0235 8
      vertex -25.7362 -41.7686 8
    endloop
  endfacet
  facet normal 0 0 1
    outer loop
      vertex -26.242 -57.292 8
      vertex -25.7362 -41.7686 8
      vertex -26.242 -41.673 8
    endloop
  endfacet
  facet normal 0 0 1
    outer loop
      vertex -22.782 -42.359 8
      vertex -26.242 -57.292 8
      vertex -25.4794 -57.45 8
    endloop
  endfacet
  facet normal 0 0 1
    outer loop
      vertex 8.72533 -41.8746 8
      vertex 0 -31.3566 8
      vertex 8.13828 -43.5467 8
    endloop
  endfacet
  facet normal 0 0 1
    outer loop
      vertex 8.13828 -43.5467 8
      vertex 0 -31.3566 8
      vertex 7.47296 -45.1318 8
    endloop
  endfacet
  facet normal 0 0 1
    outer loop
      vertex 7.47296 -45.1318 8
      vertex 0 -31.3566 8
      vertex 6.72939 -46.6299 8
    endloop
  endfacet
  facet normal 0 0 1
    outer loop
      vertex -1.03726 -31.1923 8
      vertex 6.72939 -46.6299 8
      vertex 0 -31.3566 8
    endloop
  endfacet
  facet normal 0 0 1
    outer loop
      vertex 6.72939 -46.6299 8
      vertex -1.03726 -31.1923 8
      vertex 5.90753 -48.0409 8
    endloop
  endfacet
  facet normal 0 0 1
    outer loop
      vertex 5.90753 -48.0409 8
      vertex -1.03726 -31.1923 8
      vertex 5.0074 -49.3649 8
    endloop
  endfacet
  facet normal 0 0 1
    outer loop
      vertex 5.0074 -49.3649 8
      vertex -1.03726 -31.1923 8
      vertex 4.02899 -50.602 8
    endloop
  endfacet
  facet normal 0 0 1
    outer loop
      vertex 4.02899 -50.602 8
      vertex -1.03726 -31.1923 8
      vertex 2.97232 -51.7496 8
    endloop
  endfacet
  facet normal 0 0 1
    outer loop
      vertex 2.97232 -51.7496 8
      vertex -1.03726 -31.1923 8
      vertex 1.8374 -52.8055 8
    endloop
  endfacet
  facet normal 0 0 1
    outer loop
      vertex 1.8374 -52.8055 8
      vertex -1.03726 -31.1923 8
      vertex 0.624207 -53.7695 8
    endloop
  endfacet
  facet normal 0 0 1
    outer loop
      vertex 0.624207 -53.7695 8
      vertex -1.03726 -31.1923 8
      vertex -0.667252 -54.6417 8
    endloop
  endfacet
  facet normal 0 0 1
    outer loop
      vertex -1.97298 -30.7156 8
      vertex -0.667252 -54.6417 8
      vertex -1.03726 -31.1923 8
    endloop
  endfacet
  facet normal 0 0 1
    outer loop
      vertex -1.97298 -30.7156 8
      vertex -2.03696 -55.4221 8
      vertex -0.667252 -54.6417 8
    endloop
  endfacet
  facet normal 0 0 1
    outer loop
      vertex -3.48492 -56.1106 8
      vertex -1.97298 -30.7156 8
      vertex -2.71557 -29.973 8
    endloop
  endfacet
  facet normal 0 0 1
    outer loop
      vertex -3.48492 -56.1106 8
      vertex -2.71557 -29.973 8
      vertex -3.19235 -29.0373 8
    endloop
  endfacet
  facet normal 0 0 1
    outer loop
      vertex -3.48492 -56.1106 8
      vertex -3.19235 -29.0373 8
      vertex -3.35663 -28 8
    endloop
  endfacet
  facet normal 0 0 1
    outer loop
      vertex -1.97298 -30.7156 8
      vertex -3.48492 -56.1106 8
      vertex -2.03696 -55.4221 8
    endloop
  endfacet
  facet normal 0.0716323 -0.997431 0
    outer loop
      vertex -13.8162 -58.3141 0
      vertex -11.8987 -58.1764 8
      vertex -13.8162 -58.3141 8
    endloop
  endfacet
  facet normal 0.0716323 -0.997431 0
    outer loop
      vertex -11.8987 -58.1764 8
      vertex -13.8162 -58.3141 0
      vertex -11.8987 -58.1764 0
    endloop
  endfacet
  facet normal 0.123837 -0.992303 0
    outer loop
      vertex -11.8987 -58.1764 0
      vertex -10.0594 -57.9468 8
      vertex -11.8987 -58.1764 8
    endloop
  endfacet
  facet normal 0.123837 -0.992303 0
    outer loop
      vertex -10.0594 -57.9468 8
      vertex -11.8987 -58.1764 0
      vertex -10.0594 -57.9468 0
    endloop
  endfacet
  facet normal 0.179509 -0.983756 0
    outer loop
      vertex -10.0594 -57.9468 0
      vertex -8.2984 -57.6255 8
      vertex -10.0594 -57.9468 8
    endloop
  endfacet
  facet normal 0.179509 -0.983756 0
    outer loop
      vertex -8.2984 -57.6255 8
      vertex -10.0594 -57.9468 0
      vertex -8.2984 -57.6255 0
    endloop
  endfacet
  facet normal 0.238437 -0.971158 0
    outer loop
      vertex -8.2984 -57.6255 0
      vertex -6.61565 -57.2124 8
      vertex -8.2984 -57.6255 8
    endloop
  endfacet
  facet normal 0.238437 -0.971158 0
    outer loop
      vertex -6.61565 -57.2124 8
      vertex -8.2984 -57.6255 0
      vertex -6.61565 -57.2124 0
    endloop
  endfacet
  facet normal 0.3002 -0.953876 0
    outer loop
      vertex -6.61565 -57.2124 0
      vertex -5.01115 -56.7074 8
      vertex -6.61565 -57.2124 8
    endloop
  endfacet
  facet normal 0.3002 -0.953876 0
    outer loop
      vertex -5.01115 -56.7074 8
      vertex -6.61565 -57.2124 0
      vertex -5.01115 -56.7074 0
    endloop
  endfacet
  facet normal 0.364162 -0.931336 0
    outer loop
      vertex -5.01115 -56.7074 0
      vertex -3.48492 -56.1106 8
      vertex -5.01115 -56.7074 8
    endloop
  endfacet
  facet normal 0.364162 -0.931336 0
    outer loop
      vertex -3.48492 -56.1106 8
      vertex -5.01115 -56.7074 0
      vertex -3.48492 -56.1106 0
    endloop
  endfacet
  facet normal 0.429455 -0.903088 0
    outer loop
      vertex -3.48492 -56.1106 0
      vertex -2.03696 -55.4221 8
      vertex -3.48492 -56.1106 8
    endloop
  endfacet
  facet normal 0.429455 -0.903088 0
    outer loop
      vertex -2.03696 -55.4221 8
      vertex -3.48492 -56.1106 0
      vertex -2.03696 -55.4221 0
    endloop
  endfacet
  facet normal 0.495042 -0.868869 0
    outer loop
      vertex -2.03696 -55.4221 0
      vertex -0.667252 -54.6417 8
      vertex -2.03696 -55.4221 8
    endloop
  endfacet
  facet normal 0.495042 -0.868869 0
    outer loop
      vertex -0.667252 -54.6417 8
      vertex -2.03696 -55.4221 0
      vertex -0.667252 -54.6417 0
    endloop
  endfacet
  facet normal 0.559682 -0.828708 0
    outer loop
      vertex -0.667252 -54.6417 0
      vertex 0.624207 -53.7695 8
      vertex -0.667252 -54.6417 8
    endloop
  endfacet
  facet normal 0.559682 -0.828708 0
    outer loop
      vertex 0.624207 -53.7695 8
      vertex -0.667252 -54.6417 0
      vertex 0.624207 -53.7695 0
    endloop
  endfacet
  facet normal 0.622113 -0.782927 0
    outer loop
      vertex 0.624207 -53.7695 0
      vertex 1.8374 -52.8055 8
      vertex 0.624207 -53.7695 8
    endloop
  endfacet
  facet normal 0.622113 -0.782927 0
    outer loop
      vertex 1.8374 -52.8055 8
      vertex 0.624207 -53.7695 0
      vertex 1.8374 -52.8055 0
    endloop
  endfacet
  facet normal 0.681136 -0.732156 0
    outer loop
      vertex 1.8374 -52.8055 0
      vertex 2.97232 -51.7496 8
      vertex 1.8374 -52.8055 8
    endloop
  endfacet
  facet normal 0.681136 -0.732156 0
    outer loop
      vertex 2.97232 -51.7496 8
      vertex 1.8374 -52.8055 0
      vertex 2.97232 -51.7496 0
    endloop
  endfacet
  facet normal 0.735659 -0.677352 0
    outer loop
      vertex 2.97232 -51.7496 8
      vertex 4.02899 -50.602 0
      vertex 4.02899 -50.602 8
    endloop
  endfacet
  facet normal 0.735659 -0.677352 0
    outer loop
      vertex 4.02899 -50.602 0
      vertex 2.97232 -51.7496 8
      vertex 2.97232 -51.7496 0
    endloop
  endfacet
  facet normal 0.784329 -0.620345 0
    outer loop
      vertex 4.02899 -50.602 8
      vertex 5.0074 -49.3649 0
      vertex 5.0074 -49.3649 8
    endloop
  endfacet
  facet normal 0.784329 -0.620345 0
    outer loop
      vertex 5.0074 -49.3649 0
      vertex 4.02899 -50.602 8
      vertex 4.02899 -50.602 0
    endloop
  endfacet
  facet normal 0.826988 -0.562219 0
    outer loop
      vertex 5.0074 -49.3649 8
      vertex 5.90753 -48.0409 0
      vertex 5.90753 -48.0409 8
    endloop
  endfacet
  facet normal 0.826988 -0.562219 0
    outer loop
      vertex 5.90753 -48.0409 0
      vertex 5.0074 -49.3649 8
      vertex 5.0074 -49.3649 0
    endloop
  endfacet
  facet normal 0.864115 -0.503294 0
    outer loop
      vertex 5.90753 -48.0409 8
      vertex 6.72939 -46.6299 0
      vertex 6.72939 -46.6299 8
    endloop
  endfacet
  facet normal 0.864115 -0.503294 0
    outer loop
      vertex 6.72939 -46.6299 0
      vertex 5.90753 -48.0409 8
      vertex 5.90753 -48.0409 0
    endloop
  endfacet
  facet normal 0.895728 -0.444602 0
    outer loop
      vertex 6.72939 -46.6299 8
      vertex 7.47296 -45.1318 0
      vertex 7.47296 -45.1318 8
    endloop
  endfacet
  facet normal 0.895728 -0.444602 0
    outer loop
      vertex 7.47296 -45.1318 0
      vertex 6.72939 -46.6299 8
      vertex 6.72939 -46.6299 0
    endloop
  endfacet
  facet normal 0.922068 -0.387027 0
    outer loop
      vertex 7.47296 -45.1318 8
      vertex 8.13828 -43.5467 0
      vertex 8.13828 -43.5467 8
    endloop
  endfacet
  facet normal 0.922068 -0.387027 0
    outer loop
      vertex 8.13828 -43.5467 0
      vertex 7.47296 -45.1318 8
      vertex 7.47296 -45.1318 0
    endloop
  endfacet
  facet normal 0.943537 -0.331268 0
    outer loop
      vertex 8.13828 -43.5467 8
      vertex 8.72533 -41.8746 0
      vertex 8.72533 -41.8746 8
    endloop
  endfacet
  facet normal 0.943537 -0.331268 0
    outer loop
      vertex 8.72533 -41.8746 0
      vertex 8.13828 -43.5467 8
      vertex 8.13828 -43.5467 0
    endloop
  endfacet
  facet normal 0.960627 -0.277842 0
    outer loop
      vertex 8.72533 -41.8746 8
      vertex 9.2341 -40.1156 0
      vertex 9.2341 -40.1156 8
    endloop
  endfacet
  facet normal 0.960627 -0.277842 0
    outer loop
      vertex 9.2341 -40.1156 0
      vertex 8.72533 -41.8746 8
      vertex 8.72533 -41.8746 0
    endloop
  endfacet
  facet normal 0.973871 -0.227101 0
    outer loop
      vertex 9.2341 -40.1156 8
      vertex 9.6646 -38.2695 0
      vertex 9.6646 -38.2695 8
    endloop
  endfacet
  facet normal 0.973871 -0.227101 0
    outer loop
      vertex 9.6646 -38.2695 0
      vertex 9.2341 -40.1156 8
      vertex 9.2341 -40.1156 0
    endloop
  endfacet
  facet normal 0.983803 -0.179254 0
    outer loop
      vertex 9.6646 -38.2695 8
      vertex 10.0168 -36.3364 0
      vertex 10.0168 -36.3364 8
    endloop
  endfacet
  facet normal 0.983803 -0.179254 0
    outer loop
      vertex 10.0168 -36.3364 0
      vertex 9.6646 -38.2695 8
      vertex 9.6646 -38.2695 0
    endloop
  endfacet
  facet normal 0.990929 -0.134386 0
    outer loop
      vertex 10.0168 -36.3364 8
      vertex 10.2908 -34.3163 0
      vertex 10.2908 -34.3163 8
    endloop
  endfacet
  facet normal 0.990929 -0.134386 0
    outer loop
      vertex 10.2908 -34.3163 0
      vertex 10.0168 -36.3364 8
      vertex 10.0168 -36.3364 0
    endloop
  endfacet
  facet normal 0.995716 -0.0924684 0
    outer loop
      vertex 10.2908 -34.3163 8
      vertex 10.4865 -32.2092 0
      vertex 10.4865 -32.2092 8
    endloop
  endfacet
  facet normal 0.995716 -0.0924684 0
    outer loop
      vertex 10.4865 -32.2092 0
      vertex 10.2908 -34.3163 8
      vertex 10.2908 -34.3163 0
    endloop
  endfacet
  facet normal 0.998572 -0.053431 0
    outer loop
      vertex 10.4865 -32.2092 8
      vertex 10.6039 -30.0151 0
      vertex 10.6039 -30.0151 8
    endloop
  endfacet
  facet normal 0.998572 -0.053431 0
    outer loop
      vertex 10.6039 -30.0151 0
      vertex 10.4865 -32.2092 8
      vertex 10.4865 -32.2092 0
    endloop
  endfacet
  facet normal 0.999853 -0.0171552 0
    outer loop
      vertex 10.6039 -30.0151 8
      vertex 10.643 -27.734 0
      vertex 10.643 -27.734 8
    endloop
  endfacet
  facet normal 0.999853 -0.0171552 0
    outer loop
      vertex 10.643 -27.734 0
      vertex 10.6039 -30.0151 8
      vertex 10.6039 -30.0151 0
    endloop
  endfacet
  facet normal 1 -0 0
    outer loop
      vertex 10.643 -27.734 8
      vertex 10.643 39.368 0
      vertex 10.643 39.368 8
    endloop
  endfacet
  facet normal 1 0 0
    outer loop
      vertex 10.643 39.368 0
      vertex 10.643 -27.734 8
      vertex 10.643 -27.734 0
    endloop
  endfacet
  facet normal 0 1 -0
    outer loop
      vertex 10.643 39.368 0
      vertex -9.55501 39.368 8
      vertex 10.643 39.368 8
    endloop
  endfacet
  facet normal 0 1 0
    outer loop
      vertex -9.55501 39.368 8
      vertex 10.643 39.368 0
      vertex -9.55501 39.368 0
    endloop
  endfacet
  facet normal -1 0 0
    outer loop
      vertex -9.55501 -29.463 0
      vertex -9.55501 39.368 8
      vertex -9.55501 39.368 0
    endloop
  endfacet
  facet normal -1 -0 0
    outer loop
      vertex -9.55501 39.368 8
      vertex -9.55501 -29.463 0
      vertex -9.55501 -29.463 8
    endloop
  endfacet
  facet normal -0.999933 0.0115626 0
    outer loop
      vertex -9.56766 -30.5569 0
      vertex -9.55501 -29.463 8
      vertex -9.55501 -29.463 0
    endloop
  endfacet
  facet normal -0.999933 0.0115626 0
    outer loop
      vertex -9.55501 -29.463 8
      vertex -9.56766 -30.5569 0
      vertex -9.56766 -30.5569 8
    endloop
  endfacet
  facet normal -0.99934 0.0363327 0
    outer loop
      vertex -9.60559 -31.6003 0
      vertex -9.56766 -30.5569 8
      vertex -9.56766 -30.5569 0
    endloop
  endfacet
  facet normal -0.99934 0.0363327 0
    outer loop
      vertex -9.56766 -30.5569 8
      vertex -9.60559 -31.6003 0
      vertex -9.60559 -31.6003 8
    endloop
  endfacet
  facet normal -0.997979 0.063548 0
    outer loop
      vertex -9.66881 -32.5931 0
      vertex -9.60559 -31.6003 8
      vertex -9.60559 -31.6003 0
    endloop
  endfacet
  facet normal -0.997979 0.063548 0
    outer loop
      vertex -9.60559 -31.6003 8
      vertex -9.66881 -32.5931 0
      vertex -9.66881 -32.5931 8
    endloop
  endfacet
  facet normal -0.995616 0.0935345 0
    outer loop
      vertex -9.75732 -33.5353 0
      vertex -9.66881 -32.5931 8
      vertex -9.66881 -32.5931 0
    endloop
  endfacet
  facet normal -0.995616 0.0935345 0
    outer loop
      vertex -9.66881 -32.5931 8
      vertex -9.75732 -33.5353 0
      vertex -9.75732 -33.5353 8
    endloop
  endfacet
  facet normal -0.991953 0.126606 0
    outer loop
      vertex -9.87112 -34.4269 0
      vertex -9.75732 -33.5353 8
      vertex -9.75732 -33.5353 0
    endloop
  endfacet
  facet normal -0.991953 0.126606 0
    outer loop
      vertex -9.75732 -33.5353 8
      vertex -9.87112 -34.4269 0
      vertex -9.87112 -34.4269 8
    endloop
  endfacet
  facet normal -0.986597 0.163174 0
    outer loop
      vertex -10.0102 -35.2679 0
      vertex -9.87112 -34.4269 8
      vertex -9.87112 -34.4269 0
    endloop
  endfacet
  facet normal -0.986597 0.163174 0
    outer loop
      vertex -9.87112 -34.4269 8
      vertex -10.0102 -35.2679 0
      vertex -10.0102 -35.2679 8
    endloop
  endfacet
  facet normal -0.979053 0.203605 0
    outer loop
      vertex -10.1746 -36.0584 0
      vertex -10.0102 -35.2679 8
      vertex -10.0102 -35.2679 0
    endloop
  endfacet
  facet normal -0.979053 0.203605 0
    outer loop
      vertex -10.0102 -35.2679 8
      vertex -10.1746 -36.0584 0
      vertex -10.1746 -36.0584 8
    endloop
  endfacet
  facet normal -0.968674 0.248336 0
    outer loop
      vertex -10.3643 -36.7983 0
      vertex -10.1746 -36.0584 8
      vertex -10.1746 -36.0584 0
    endloop
  endfacet
  facet normal -0.968674 0.248336 0
    outer loop
      vertex -10.1746 -36.0584 8
      vertex -10.3643 -36.7983 0
      vertex -10.3643 -36.7983 8
    endloop
  endfacet
  facet normal -0.954654 0.297719 0
    outer loop
      vertex -10.5793 -37.4876 0
      vertex -10.3643 -36.7983 8
      vertex -10.3643 -36.7983 0
    endloop
  endfacet
  facet normal -0.954654 0.297719 0
    outer loop
      vertex -10.3643 -36.7983 8
      vertex -10.5793 -37.4876 0
      vertex -10.5793 -37.4876 8
    endloop
  endfacet
  facet normal -0.93598 0.352054 0
    outer loop
      vertex -10.8195 -38.1263 0
      vertex -10.5793 -37.4876 8
      vertex -10.5793 -37.4876 0
    endloop
  endfacet
  facet normal -0.93598 0.352054 0
    outer loop
      vertex -10.5793 -37.4876 8
      vertex -10.8195 -38.1263 0
      vertex -10.8195 -38.1263 8
    endloop
  endfacet
  facet normal -0.911406 0.411509 0
    outer loop
      vertex -11.0851 -38.7144 0
      vertex -10.8195 -38.1263 8
      vertex -10.8195 -38.1263 0
    endloop
  endfacet
  facet normal -0.911406 0.411509 0
    outer loop
      vertex -10.8195 -38.1263 8
      vertex -11.0851 -38.7144 0
      vertex -11.0851 -38.7144 8
    endloop
  endfacet
  facet normal -0.879531 0.475841 0
    outer loop
      vertex -11.3759 -39.252 0
      vertex -11.0851 -38.7144 8
      vertex -11.0851 -38.7144 0
    endloop
  endfacet
  facet normal -0.879531 0.475841 0
    outer loop
      vertex -11.0851 -38.7144 8
      vertex -11.3759 -39.252 0
      vertex -11.3759 -39.252 8
    endloop
  endfacet
  facet normal -0.838777 0.544476 0
    outer loop
      vertex -11.692 -39.739 0
      vertex -11.3759 -39.252 8
      vertex -11.3759 -39.252 0
    endloop
  endfacet
  facet normal -0.838777 0.544476 0
    outer loop
      vertex -11.3759 -39.252 8
      vertex -11.692 -39.739 0
      vertex -11.692 -39.739 8
    endloop
  endfacet
  facet normal -0.789269 0.614048 0
    outer loop
      vertex -12.0375 -40.1831 0
      vertex -11.692 -39.739 8
      vertex -11.692 -39.739 0
    endloop
  endfacet
  facet normal -0.789269 0.614048 0
    outer loop
      vertex -11.692 -39.739 8
      vertex -12.0375 -40.1831 0
      vertex -12.0375 -40.1831 8
    endloop
  endfacet
  facet normal -0.73295 0.680282 0
    outer loop
      vertex -12.4167 -40.5916 0
      vertex -12.0375 -40.1831 8
      vertex -12.0375 -40.1831 0
    endloop
  endfacet
  facet normal -0.73295 0.680282 0
    outer loop
      vertex -12.0375 -40.1831 8
      vertex -12.4167 -40.5916 0
      vertex -12.4167 -40.5916 8
    endloop
  endfacet
  facet normal -0.670332 0.742062 0
    outer loop
      vertex -12.4167 -40.5916 0
      vertex -12.8296 -40.9647 8
      vertex -12.4167 -40.5916 8
    endloop
  endfacet
  facet normal -0.670332 0.742062 0
    outer loop
      vertex -12.8296 -40.9647 8
      vertex -12.4167 -40.5916 0
      vertex -12.8296 -40.9647 0
    endloop
  endfacet
  facet normal -0.602874 0.797836 0
    outer loop
      vertex -12.8296 -40.9647 0
      vertex -13.2763 -41.3022 8
      vertex -12.8296 -40.9647 8
    endloop
  endfacet
  facet normal -0.602874 0.797836 0
    outer loop
      vertex -13.2763 -41.3022 8
      vertex -12.8296 -40.9647 0
      vertex -13.2763 -41.3022 0
    endloop
  endfacet
  facet normal -0.532185 0.846628 0
    outer loop
      vertex -13.2763 -41.3022 0
      vertex -13.7567 -41.6041 8
      vertex -13.2763 -41.3022 8
    endloop
  endfacet
  facet normal -0.532185 0.846628 0
    outer loop
      vertex -13.7567 -41.6041 8
      vertex -13.2763 -41.3022 0
      vertex -13.7567 -41.6041 0
    endloop
  endfacet
  facet normal -0.460142 0.887845 0
    outer loop
      vertex -13.7567 -41.6041 0
      vertex -14.2708 -41.8706 8
      vertex -13.7567 -41.6041 8
    endloop
  endfacet
  facet normal -0.460142 0.887845 0
    outer loop
      vertex -14.2708 -41.8706 8
      vertex -13.7567 -41.6041 0
      vertex -14.2708 -41.8706 0
    endloop
  endfacet
  facet normal -0.388417 0.921484 0
    outer loop
      vertex -14.2708 -41.8706 0
      vertex -14.8186 -42.1015 8
      vertex -14.2708 -41.8706 8
    endloop
  endfacet
  facet normal -0.388417 0.921484 0
    outer loop
      vertex -14.8186 -42.1015 8
      vertex -14.2708 -41.8706 0
      vertex -14.8186 -42.1015 0
    endloop
  endfacet
  facet normal -0.318473 0.947932 0
    outer loop
      vertex -14.8186 -42.1015 0
      vertex -15.4002 -42.2969 8
      vertex -14.8186 -42.1015 8
    endloop
  endfacet
  facet normal -0.318473 0.947932 0
    outer loop
      vertex -15.4002 -42.2969 8
      vertex -14.8186 -42.1015 0
      vertex -15.4002 -42.2969 0
    endloop
  endfacet
  facet normal -0.251471 0.967865 0
    outer loop
      vertex -15.4002 -42.2969 0
      vertex -16.0155 -42.4568 8
      vertex -15.4002 -42.2969 8
    endloop
  endfacet
  facet normal -0.251471 0.967865 0
    outer loop
      vertex -16.0155 -42.4568 8
      vertex -15.4002 -42.2969 0
      vertex -16.0155 -42.4568 0
    endloop
  endfacet
  facet normal -0.188161 0.982138 0
    outer loop
      vertex -16.0155 -42.4568 0
      vertex -16.6646 -42.5811 8
      vertex -16.0155 -42.4568 8
    endloop
  endfacet
  facet normal -0.188161 0.982138 0
    outer loop
      vertex -16.6646 -42.5811 8
      vertex -16.0155 -42.4568 0
      vertex -16.6646 -42.5811 0
    endloop
  endfacet
  facet normal -0.129006 0.991644 0
    outer loop
      vertex -16.6646 -42.5811 0
      vertex -17.3473 -42.6699 8
      vertex -16.6646 -42.5811 8
    endloop
  endfacet
  facet normal -0.129006 0.991644 0
    outer loop
      vertex -17.3473 -42.6699 8
      vertex -16.6646 -42.5811 0
      vertex -17.3473 -42.6699 0
    endloop
  endfacet
  facet normal -0.0741854 0.997244 0
    outer loop
      vertex -17.3473 -42.6699 0
      vertex -18.0638 -42.7232 8
      vertex -17.3473 -42.6699 8
    endloop
  endfacet
  facet normal -0.0741854 0.997244 0
    outer loop
      vertex -18.0638 -42.7232 8
      vertex -17.3473 -42.6699 0
      vertex -18.0638 -42.7232 0
    endloop
  endfacet
  facet normal -0.0236683 0.99972 0
    outer loop
      vertex -18.0638 -42.7232 0
      vertex -18.814 -42.741 8
      vertex -18.0638 -42.7232 8
    endloop
  endfacet
  facet normal -0.0236683 0.99972 0
    outer loop
      vertex -18.814 -42.741 8
      vertex -18.0638 -42.7232 0
      vertex -18.814 -42.741 0
    endloop
  endfacet
  facet normal 0.00690701 0.999976 -0
    outer loop
      vertex -18.814 -42.741 0
      vertex -19.1409 -42.7387 8
      vertex -18.814 -42.741 8
    endloop
  endfacet
  facet normal 0.00690701 0.999976 0
    outer loop
      vertex -19.1409 -42.7387 8
      vertex -18.814 -42.741 0
      vertex -19.1409 -42.7387 0
    endloop
  endfacet
  facet normal 0.0209949 0.99978 -0
    outer loop
      vertex -19.1409 -42.7387 0
      vertex -19.4643 -42.7319 8
      vertex -19.1409 -42.7387 8
    endloop
  endfacet
  facet normal 0.0209949 0.99978 0
    outer loop
      vertex -19.4643 -42.7319 8
      vertex -19.1409 -42.7387 0
      vertex -19.4643 -42.7319 0
    endloop
  endfacet
  facet normal 0.0353445 0.999375 -0
    outer loop
      vertex -19.4643 -42.7319 0
      vertex -19.784 -42.7206 8
      vertex -19.4643 -42.7319 8
    endloop
  endfacet
  facet normal 0.0353445 0.999375 0
    outer loop
      vertex -19.784 -42.7206 8
      vertex -19.4643 -42.7319 0
      vertex -19.784 -42.7206 0
    endloop
  endfacet
  facet normal 0.0499472 0.998752 -0
    outer loop
      vertex -19.784 -42.7206 0
      vertex -20.1001 -42.7048 8
      vertex -19.784 -42.7206 8
    endloop
  endfacet
  facet normal 0.0499472 0.998752 0
    outer loop
      vertex -20.1001 -42.7048 8
      vertex -19.784 -42.7206 0
      vertex -20.1001 -42.7048 0
    endloop
  endfacet
  facet normal 0.0650053 0.997885 -0
    outer loop
      vertex -20.1001 -42.7048 0
      vertex -20.4126 -42.6845 8
      vertex -20.1001 -42.7048 8
    endloop
  endfacet
  facet normal 0.0650053 0.997885 0
    outer loop
      vertex -20.4126 -42.6845 8
      vertex -20.1001 -42.7048 0
      vertex -20.4126 -42.6845 0
    endloop
  endfacet
  facet normal 0.0802208 0.996777 -0
    outer loop
      vertex -20.4126 -42.6845 0
      vertex -20.7214 -42.6596 8
      vertex -20.4126 -42.6845 8
    endloop
  endfacet
  facet normal 0.0802208 0.996777 0
    outer loop
      vertex -20.7214 -42.6596 8
      vertex -20.4126 -42.6845 0
      vertex -20.7214 -42.6596 0
    endloop
  endfacet
  facet normal 0.0958376 0.995397 -0
    outer loop
      vertex -20.7214 -42.6596 0
      vertex -21.0267 -42.6302 8
      vertex -20.7214 -42.6596 8
    endloop
  endfacet
  facet normal 0.0958376 0.995397 0
    outer loop
      vertex -21.0267 -42.6302 8
      vertex -20.7214 -42.6596 0
      vertex -21.0267 -42.6302 0
    endloop
  endfacet
  facet normal 0.111712 0.993741 -0
    outer loop
      vertex -21.0267 -42.6302 0
      vertex -21.3283 -42.5963 8
      vertex -21.0267 -42.6302 8
    endloop
  endfacet
  facet normal 0.111712 0.993741 0
    outer loop
      vertex -21.3283 -42.5963 8
      vertex -21.0267 -42.6302 0
      vertex -21.3283 -42.5963 0
    endloop
  endfacet
  facet normal 0.127878 0.99179 -0
    outer loop
      vertex -21.3283 -42.5963 0
      vertex -21.6263 -42.5579 8
      vertex -21.3283 -42.5963 8
    endloop
  endfacet
  facet normal 0.127878 0.99179 0
    outer loop
      vertex -21.6263 -42.5579 8
      vertex -21.3283 -42.5963 0
      vertex -21.6263 -42.5579 0
    endloop
  endfacet
  facet normal 0.144386 0.989521 -0
    outer loop
      vertex -21.6263 -42.5579 0
      vertex -21.9206 -42.515 8
      vertex -21.6263 -42.5579 8
    endloop
  endfacet
  facet normal 0.144386 0.989521 0
    outer loop
      vertex -21.9206 -42.515 8
      vertex -21.6263 -42.5579 0
      vertex -21.9206 -42.515 0
    endloop
  endfacet
  facet normal 0.161139 0.986932 -0
    outer loop
      vertex -21.9206 -42.515 0
      vertex -22.2114 -42.4675 8
      vertex -21.9206 -42.515 8
    endloop
  endfacet
  facet normal 0.161139 0.986932 0
    outer loop
      vertex -22.2114 -42.4675 8
      vertex -21.9206 -42.515 0
      vertex -22.2114 -42.4675 0
    endloop
  endfacet
  facet normal 0.178163 0.984001 -0
    outer loop
      vertex -22.2114 -42.4675 0
      vertex -22.4985 -42.4155 8
      vertex -22.2114 -42.4675 8
    endloop
  endfacet
  facet normal 0.178163 0.984001 0
    outer loop
      vertex -22.4985 -42.4155 8
      vertex -22.2114 -42.4675 0
      vertex -22.4985 -42.4155 0
    endloop
  endfacet
  facet normal 0.195456 0.980712 -0
    outer loop
      vertex -22.4985 -42.4155 0
      vertex -22.782 -42.359 8
      vertex -22.4985 -42.4155 8
    endloop
  endfacet
  facet normal 0.195456 0.980712 0
    outer loop
      vertex -22.782 -42.359 8
      vertex -22.4985 -42.4155 0
      vertex -22.782 -42.359 0
    endloop
  endfacet
  facet normal 0.199539 0.97989 -0
    outer loop
      vertex -22.782 -42.359 0
      vertex -24.4296 -42.0235 8
      vertex -22.782 -42.359 8
    endloop
  endfacet
  facet normal 0.199539 0.97989 0
    outer loop
      vertex -24.4296 -42.0235 8
      vertex -22.782 -42.359 0
      vertex -24.4296 -42.0235 0
    endloop
  endfacet
  facet normal 0.191439 0.981505 -0
    outer loop
      vertex -24.4296 -42.0235 0
      vertex -25.7362 -41.7686 8
      vertex -24.4296 -42.0235 8
    endloop
  endfacet
  facet normal 0.191439 0.981505 0
    outer loop
      vertex -25.7362 -41.7686 8
      vertex -24.4296 -42.0235 0
      vertex -25.7362 -41.7686 0
    endloop
  endfacet
  facet normal 0.185815 0.982585 -0
    outer loop
      vertex -25.7362 -41.7686 0
      vertex -26.242 -41.673 8
      vertex -25.7362 -41.7686 8
    endloop
  endfacet
  facet normal 0.185815 0.982585 0
    outer loop
      vertex -26.242 -41.673 8
      vertex -25.7362 -41.7686 0
      vertex -26.242 -41.673 0
    endloop
  endfacet
  facet normal -1 0 0
    outer loop
      vertex -26.242 -57.292 0
      vertex -26.242 -41.673 8
      vertex -26.242 -41.673 0
    endloop
  endfacet
  facet normal -1 -0 0
    outer loop
      vertex -26.242 -41.673 8
      vertex -26.242 -57.292 0
      vertex -26.242 -57.292 8
    endloop
  endfacet
  facet normal -0.202879 -0.979204 0
    outer loop
      vertex -26.242 -57.292 0
      vertex -25.4794 -57.45 8
      vertex -26.242 -57.292 8
    endloop
  endfacet
  facet normal -0.202879 -0.979204 -0
    outer loop
      vertex -25.4794 -57.45 8
      vertex -26.242 -57.292 0
      vertex -25.4794 -57.45 0
    endloop
  endfacet
  facet normal -0.185691 -0.982608 0
    outer loop
      vertex -25.4794 -57.45 0
      vertex -24.7103 -57.5953 8
      vertex -25.4794 -57.45 8
    endloop
  endfacet
  facet normal -0.185691 -0.982608 -0
    outer loop
      vertex -24.7103 -57.5953 8
      vertex -25.4794 -57.45 0
      vertex -24.7103 -57.5953 0
    endloop
  endfacet
  facet normal -0.168607 -0.985683 0
    outer loop
      vertex -24.7103 -57.5953 0
      vertex -23.9345 -57.728 8
      vertex -24.7103 -57.5953 8
    endloop
  endfacet
  facet normal -0.168607 -0.985683 -0
    outer loop
      vertex -23.9345 -57.728 8
      vertex -24.7103 -57.5953 0
      vertex -23.9345 -57.728 0
    endloop
  endfacet
  facet normal -0.151685 -0.988429 0
    outer loop
      vertex -23.9345 -57.728 0
      vertex -23.1521 -57.8481 8
      vertex -23.9345 -57.728 8
    endloop
  endfacet
  facet normal -0.151685 -0.988429 -0
    outer loop
      vertex -23.1521 -57.8481 8
      vertex -23.9345 -57.728 0
      vertex -23.1521 -57.8481 0
    endloop
  endfacet
  facet normal -0.134894 -0.99086 0
    outer loop
      vertex -23.1521 -57.8481 0
      vertex -22.363 -57.9555 8
      vertex -23.1521 -57.8481 8
    endloop
  endfacet
  facet normal -0.134894 -0.99086 -0
    outer loop
      vertex -22.363 -57.9555 8
      vertex -23.1521 -57.8481 0
      vertex -22.363 -57.9555 0
    endloop
  endfacet
  facet normal -0.118312 -0.992977 0
    outer loop
      vertex -22.363 -57.9555 0
      vertex -21.5673 -58.0503 8
      vertex -22.363 -57.9555 8
    endloop
  endfacet
  facet normal -0.118312 -0.992977 -0
    outer loop
      vertex -21.5673 -58.0503 8
      vertex -22.363 -57.9555 0
      vertex -21.5673 -58.0503 0
    endloop
  endfacet
  facet normal -0.101864 -0.994798 0
    outer loop
      vertex -21.5673 -58.0503 0
      vertex -20.765 -58.1325 8
      vertex -21.5673 -58.0503 8
    endloop
  endfacet
  facet normal -0.101864 -0.994798 -0
    outer loop
      vertex -20.765 -58.1325 8
      vertex -21.5673 -58.0503 0
      vertex -20.765 -58.1325 0
    endloop
  endfacet
  facet normal -0.0856223 -0.996328 0
    outer loop
      vertex -20.765 -58.1325 0
      vertex -19.9561 -58.202 8
      vertex -20.765 -58.1325 8
    endloop
  endfacet
  facet normal -0.0856223 -0.996328 -0
    outer loop
      vertex -19.9561 -58.202 8
      vertex -20.765 -58.1325 0
      vertex -19.9561 -58.202 0
    endloop
  endfacet
  facet normal -0.0695624 -0.997578 0
    outer loop
      vertex -19.9561 -58.202 0
      vertex -19.1405 -58.2589 8
      vertex -19.9561 -58.202 8
    endloop
  endfacet
  facet normal -0.0695624 -0.997578 -0
    outer loop
      vertex -19.1405 -58.2589 8
      vertex -19.9561 -58.202 0
      vertex -19.1405 -58.2589 0
    endloop
  endfacet
  facet normal -0.0537241 -0.998556 0
    outer loop
      vertex -19.1405 -58.2589 0
      vertex -18.3183 -58.3031 8
      vertex -19.1405 -58.2589 8
    endloop
  endfacet
  facet normal -0.0537241 -0.998556 -0
    outer loop
      vertex -18.3183 -58.3031 8
      vertex -19.1405 -58.2589 0
      vertex -18.3183 -58.3031 0
    endloop
  endfacet
  facet normal -0.0381003 -0.999274 0
    outer loop
      vertex -18.3183 -58.3031 0
      vertex -17.4895 -58.3347 8
      vertex -18.3183 -58.3031 8
    endloop
  endfacet
  facet normal -0.0381003 -0.999274 -0
    outer loop
      vertex -17.4895 -58.3347 8
      vertex -18.3183 -58.3031 0
      vertex -17.4895 -58.3347 0
    endloop
  endfacet
  facet normal -0.0226787 -0.999743 0
    outer loop
      vertex -17.4895 -58.3347 0
      vertex -16.6541 -58.3537 8
      vertex -17.4895 -58.3347 8
    endloop
  endfacet
  facet normal -0.0226787 -0.999743 -0
    outer loop
      vertex -16.6541 -58.3537 8
      vertex -17.4895 -58.3347 0
      vertex -16.6541 -58.3537 0
    endloop
  endfacet
  facet normal -0.00750169 -0.999972 0
    outer loop
      vertex -16.6541 -58.3537 0
      vertex -15.812 -58.36 8
      vertex -16.6541 -58.3537 8
    endloop
  endfacet
  facet normal -0.00750169 -0.999972 -0
    outer loop
      vertex -15.812 -58.36 8
      vertex -16.6541 -58.3537 0
      vertex -15.812 -58.36 0
    endloop
  endfacet
  facet normal 0.0229914 -0.999736 0
    outer loop
      vertex -15.812 -58.36 0
      vertex -13.8162 -58.3141 8
      vertex -15.812 -58.36 8
    endloop
  endfacet
  facet normal 0.0229914 -0.999736 0
    outer loop
      vertex -13.8162 -58.3141 8
      vertex -15.812 -58.36 0
      vertex -13.8162 -58.3141 0
    endloop
  endfacet
  facet normal -0.824672 -0.130615 0.550323
    outer loop
      vertex 3.35663 -28 8
      vertex 1.7119 -27.4438 5.66735
      vertex 1.8 -28 5.66734
    endloop
  endfacet
  facet normal -0.824672 -0.130615 0.550323
    outer loop
      vertex 1.7119 -27.4438 5.66735
      vertex 3.35663 -28 8
      vertex 3.19235 -26.9627 8
    endloop
  endfacet
  facet normal 0.824672 -0.130615 0.550323
    outer loop
      vertex -3.35663 -28 8
      vertex -1.7119 -27.4438 5.66735
      vertex -3.19235 -26.9627 8
    endloop
  endfacet
  facet normal 0.824672 -0.130615 0.550323
    outer loop
      vertex -1.7119 -27.4438 5.66735
      vertex -3.35663 -28 8
      vertex -1.8 -28 5.66734
    endloop
  endfacet
  facet normal -0.824672 0.130615 0.550323
    outer loop
      vertex 1.7119 -28.5562 5.66734
      vertex 3.35663 -28 8
      vertex 1.8 -28 5.66734
    endloop
  endfacet
  facet normal -0.824672 0.130615 0.550323
    outer loop
      vertex 3.35663 -28 8
      vertex 1.7119 -28.5562 5.66734
      vertex 3.19235 -29.0373 8
    endloop
  endfacet
  facet normal 0.130616 -0.824672 0.550323
    outer loop
      vertex -1.03726 -24.8077 8
      vertex -0.556231 -26.2881 5.66735
      vertex 0 -24.6434 8
    endloop
  endfacet
  facet normal 0.130614 -0.824672 0.550323
    outer loop
      vertex 0 -24.6434 8
      vertex -0.556231 -26.2881 5.66735
      vertex 0 -26.2 5.66734
    endloop
  endfacet
  facet normal 0.130616 0.824673 0.550322
    outer loop
      vertex 0 -31.3566 8
      vertex -0.556231 -29.7119 5.66734
      vertex -1.03726 -31.1923 8
    endloop
  endfacet
  facet normal 0.130614 0.824673 0.550323
    outer loop
      vertex -0.556231 -29.7119 5.66734
      vertex 0 -31.3566 8
      vertex 0 -29.8 5.66734
    endloop
  endfacet
  facet normal 0.5904 -0.5904 0.550323
    outer loop
      vertex -2.71557 -26.027 8
      vertex -1.05801 -26.5438 5.66734
      vertex -1.97298 -25.2844 8
    endloop
  endfacet
  facet normal 0.5904 -0.590401 0.550323
    outer loop
      vertex -1.05801 -26.5438 5.66734
      vertex -2.71557 -26.027 8
      vertex -1.45623 -26.942 5.66734
    endloop
  endfacet
  facet normal -0.5904 -0.5904 0.550323
    outer loop
      vertex 1.05801 -26.5438 5.66734
      vertex 2.71557 -26.027 8
      vertex 1.97298 -25.2844 8
    endloop
  endfacet
  facet normal -0.5904 -0.590401 0.550323
    outer loop
      vertex 2.71557 -26.027 8
      vertex 1.05801 -26.5438 5.66734
      vertex 1.45623 -26.942 5.66734
    endloop
  endfacet
  facet normal -0.37906 0.743948 0.550323
    outer loop
      vertex 1.05801 -29.4562 5.66734
      vertex 1.03726 -31.1923 8
      vertex 1.97298 -30.7156 8
    endloop
  endfacet
  facet normal -0.379062 0.743947 0.550322
    outer loop
      vertex 1.03726 -31.1923 8
      vertex 1.05801 -29.4562 5.66734
      vertex 0.556231 -29.7119 5.66734
    endloop
  endfacet
  facet normal 0.743948 0.37906 0.550323
    outer loop
      vertex -3.19235 -29.0373 8
      vertex -1.45623 -29.058 5.66734
      vertex -1.7119 -28.5562 5.66734
    endloop
  endfacet
  facet normal 0.743948 0.37906 0.550323
    outer loop
      vertex -2.71557 -29.973 8
      vertex -1.45623 -29.058 5.66734
      vertex -3.19235 -29.0373 8
    endloop
  endfacet
  facet normal 0.743948 -0.379061 0.550323
    outer loop
      vertex -3.19235 -26.9627 8
      vertex -1.45623 -26.942 5.66734
      vertex -2.71557 -26.027 8
    endloop
  endfacet
  facet normal 0.743948 -0.379061 0.550323
    outer loop
      vertex -3.19235 -26.9627 8
      vertex -1.7119 -27.4438 5.66735
      vertex -1.45623 -26.942 5.66734
    endloop
  endfacet
  facet normal 0.37906 -0.743948 0.550323
    outer loop
      vertex -1.05801 -26.5438 5.66734
      vertex -1.03726 -24.8077 8
      vertex -1.97298 -25.2844 8
    endloop
  endfacet
  facet normal 0.379061 -0.743947 0.550322
    outer loop
      vertex -1.03726 -24.8077 8
      vertex -1.05801 -26.5438 5.66734
      vertex -0.556231 -26.2881 5.66735
    endloop
  endfacet
  facet normal -0.379061 -0.743947 0.550322
    outer loop
      vertex 1.05801 -26.5438 5.66734
      vertex 1.03726 -24.8077 8
      vertex 0.556231 -26.2881 5.66735
    endloop
  endfacet
  facet normal -0.37906 -0.743948 0.550323
    outer loop
      vertex 1.03726 -24.8077 8
      vertex 1.05801 -26.5438 5.66734
      vertex 1.97298 -25.2844 8
    endloop
  endfacet
  facet normal -0.743948 -0.379061 0.550323
    outer loop
      vertex 1.45623 -26.942 5.66734
      vertex 3.19235 -26.9627 8
      vertex 2.71557 -26.027 8
    endloop
  endfacet
  facet normal -0.743948 -0.379061 0.550323
    outer loop
      vertex 1.7119 -27.4438 5.66735
      vertex 3.19235 -26.9627 8
      vertex 1.45623 -26.942 5.66734
    endloop
  endfacet
  facet normal -0.743948 0.37906 0.550323
    outer loop
      vertex 1.45623 -29.058 5.66734
      vertex 3.19235 -29.0373 8
      vertex 1.7119 -28.5562 5.66734
    endloop
  endfacet
  facet normal -0.743948 0.37906 0.550323
    outer loop
      vertex 3.19235 -29.0373 8
      vertex 1.45623 -29.058 5.66734
      vertex 2.71557 -29.973 8
    endloop
  endfacet
  facet normal -0.130616 0.824673 0.550322
    outer loop
      vertex 0.556231 -29.7119 5.66734
      vertex 0 -31.3566 8
      vertex 1.03726 -31.1923 8
    endloop
  endfacet
  facet normal -0.130614 0.824673 0.550323
    outer loop
      vertex 0 -31.3566 8
      vertex 0.556231 -29.7119 5.66734
      vertex 0 -29.8 5.66734
    endloop
  endfacet
  facet normal 0.379062 0.743947 0.550322
    outer loop
      vertex -1.05801 -29.4562 5.66734
      vertex -1.03726 -31.1923 8
      vertex -0.556231 -29.7119 5.66734
    endloop
  endfacet
  facet normal 0.37906 0.743948 0.550323
    outer loop
      vertex -1.03726 -31.1923 8
      vertex -1.05801 -29.4562 5.66734
      vertex -1.97298 -30.7156 8
    endloop
  endfacet
  facet normal 0.824672 0.130615 0.550323
    outer loop
      vertex -3.35663 -28 8
      vertex -1.7119 -28.5562 5.66734
      vertex -1.8 -28 5.66734
    endloop
  endfacet
  facet normal 0.824672 0.130615 0.550323
    outer loop
      vertex -1.7119 -28.5562 5.66734
      vertex -3.35663 -28 8
      vertex -3.19235 -29.0373 8
    endloop
  endfacet
  facet normal -0.130616 -0.824672 0.550323
    outer loop
      vertex 0 -24.6434 8
      vertex 0.556231 -26.2881 5.66735
      vertex 1.03726 -24.8077 8
    endloop
  endfacet
  facet normal -0.130614 -0.824672 0.550323
    outer loop
      vertex 0.556231 -26.2881 5.66735
      vertex 0 -24.6434 8
      vertex 0 -26.2 5.66734
    endloop
  endfacet
  facet normal -0.5904 0.590401 0.550323
    outer loop
      vertex 1.05801 -29.4562 5.66734
      vertex 2.71557 -29.973 8
      vertex 1.45623 -29.058 5.66734
    endloop
  endfacet
  facet normal -0.5904 0.5904 0.550323
    outer loop
      vertex 2.71557 -29.973 8
      vertex 1.05801 -29.4562 5.66734
      vertex 1.97298 -30.7156 8
    endloop
  endfacet
  facet normal 0.5904 0.590401 0.550323
    outer loop
      vertex -2.71557 -29.973 8
      vertex -1.05801 -29.4562 5.66734
      vertex -1.45623 -29.058 5.66734
    endloop
  endfacet
  facet normal 0.5904 0.5904 0.550323
    outer loop
      vertex -1.05801 -29.4562 5.66734
      vertex -2.71557 -29.973 8
      vertex -1.97298 -30.7156 8
    endloop
  endfacet
  facet normal -0.987689 -0.156433 -3.24446e-08
    outer loop
      vertex 1.8 -28 0.0999994
      vertex 1.7119 -27.4438 5.66735
      vertex 1.7119 -27.4438 0.0999994
    endloop
  endfacet
  facet normal -0.987689 -0.156433 0
    outer loop
      vertex 1.7119 -27.4438 5.66735
      vertex 1.8 -28 0.0999994
      vertex 1.8 -28 5.66734
    endloop
  endfacet
  facet normal 0.987689 -0.156433 -3.24447e-08
    outer loop
      vertex -1.8 -28 5.66734
      vertex -1.7119 -27.4438 0.0999994
      vertex -1.7119 -27.4438 5.66735
    endloop
  endfacet
  facet normal 0.987689 -0.156433 0
    outer loop
      vertex -1.7119 -27.4438 0.0999994
      vertex -1.8 -28 5.66734
      vertex -1.8 -28 0.0999994
    endloop
  endfacet
  facet normal 0.156432 -0.987689 0
    outer loop
      vertex -0.556231 -26.2881 0.0999994
      vertex 0 -26.2 5.66734
      vertex -0.556231 -26.2881 5.66735
    endloop
  endfacet
  facet normal 0.156432 -0.987689 0
    outer loop
      vertex 0 -26.2 5.66734
      vertex -0.556231 -26.2881 0.0999994
      vertex 0 -26.2 0.0999994
    endloop
  endfacet
  facet normal -0.156432 0.987689 0
    outer loop
      vertex 0.556231 -29.7119 0.0999994
      vertex 0 -29.8 5.66734
      vertex 0.556231 -29.7119 5.66734
    endloop
  endfacet
  facet normal -0.156432 0.987689 0
    outer loop
      vertex 0 -29.8 5.66734
      vertex 0.556231 -29.7119 0.0999994
      vertex 0 -29.8 0.0999994
    endloop
  endfacet
  facet normal -0.891006 0.453991 0
    outer loop
      vertex 1.45623 -29.058 0.0999994
      vertex 1.7119 -28.5562 5.66734
      vertex 1.7119 -28.5562 0.0999994
    endloop
  endfacet
  facet normal -0.891006 0.453991 0
    outer loop
      vertex 1.7119 -28.5562 5.66734
      vertex 1.45623 -29.058 0.0999994
      vertex 1.45623 -29.058 5.66734
    endloop
  endfacet
  facet normal -0.453993 -0.891005 9.721e-09
    outer loop
      vertex 0.556231 -26.2881 5.66735
      vertex 0.556231 -26.2881 0.0999994
      vertex 1.05801 -26.5438 5.66734
    endloop
  endfacet
  facet normal -0.453993 -0.891005 -0
    outer loop
      vertex 1.05801 -26.5438 5.66734
      vertex 0.556231 -26.2881 0.0999994
      vertex 1.05801 -26.5438 0.0999994
    endloop
  endfacet
  facet normal -0.891006 -0.453992 0
    outer loop
      vertex 1.7119 -27.4438 0.0999994
      vertex 1.45623 -26.942 5.66734
      vertex 1.45623 -26.942 0.0999994
    endloop
  endfacet
  facet normal -0.891006 -0.453992 0
    outer loop
      vertex 1.45623 -26.942 5.66734
      vertex 1.7119 -27.4438 0.0999994
      vertex 1.7119 -27.4438 5.66735
    endloop
  endfacet
  facet normal -0.156432 -0.987689 0
    outer loop
      vertex 0 -26.2 0.0999994
      vertex 0.556231 -26.2881 5.66735
      vertex 0 -26.2 5.66734
    endloop
  endfacet
  facet normal -0.156432 -0.987689 -0
    outer loop
      vertex 0.556231 -26.2881 5.66735
      vertex 0 -26.2 0.0999994
      vertex 0.556231 -26.2881 0.0999994
    endloop
  endfacet
  facet normal 0.707106 -0.707107 0
    outer loop
      vertex -1.45623 -26.942 5.66734
      vertex -1.45623 -26.942 0.0999994
      vertex -1.05801 -26.5438 5.66734
    endloop
  endfacet
  facet normal 0.707106 -0.707108 4.54222e-08
    outer loop
      vertex -1.05801 -26.5438 0.0999994
      vertex -1.05801 -26.5438 5.66734
      vertex -1.45623 -26.942 0.0999994
    endloop
  endfacet
  facet normal 0.891006 -0.453992 0
    outer loop
      vertex -1.7119 -27.4438 5.66735
      vertex -1.45623 -26.942 0.0999994
      vertex -1.45623 -26.942 5.66734
    endloop
  endfacet
  facet normal 0.891006 -0.453992 0
    outer loop
      vertex -1.45623 -26.942 0.0999994
      vertex -1.7119 -27.4438 5.66735
      vertex -1.7119 -27.4438 0.0999994
    endloop
  endfacet
  facet normal 0.453993 -0.891005 0
    outer loop
      vertex -1.05801 -26.5438 0.0999994
      vertex -0.556231 -26.2881 5.66735
      vertex -1.05801 -26.5438 5.66734
    endloop
  endfacet
  facet normal 0.453993 -0.891005 9.721e-09
    outer loop
      vertex -0.556231 -26.2881 0.0999994
      vertex -0.556231 -26.2881 5.66735
      vertex -1.05801 -26.5438 0.0999994
    endloop
  endfacet
  facet normal -0.987689 0.156433 0
    outer loop
      vertex 1.7119 -28.5562 0.0999994
      vertex 1.8 -28 5.66734
      vertex 1.8 -28 0.0999994
    endloop
  endfacet
  facet normal -0.987689 0.156433 0
    outer loop
      vertex 1.8 -28 5.66734
      vertex 1.7119 -28.5562 0.0999994
      vertex 1.7119 -28.5562 5.66734
    endloop
  endfacet
  facet normal 0 0 1
    outer loop
      vertex 1.7119 -27.4438 0.0999994
      vertex 1.7119 -28.5562 0.0999994
      vertex 1.8 -28 0.0999994
    endloop
  endfacet
  facet normal 0 0 1
    outer loop
      vertex 1.45623 -26.942 0.0999994
      vertex 1.7119 -28.5562 0.0999994
      vertex 1.7119 -27.4438 0.0999994
    endloop
  endfacet
  facet normal 0 0 1
    outer loop
      vertex 1.45623 -26.942 0.0999994
      vertex 1.45623 -29.058 0.0999994
      vertex 1.7119 -28.5562 0.0999994
    endloop
  endfacet
  facet normal 0 0 1
    outer loop
      vertex 1.05801 -26.5438 0.0999994
      vertex 1.45623 -29.058 0.0999994
      vertex 1.45623 -26.942 0.0999994
    endloop
  endfacet
  facet normal 0 0 1
    outer loop
      vertex 1.05801 -26.5438 0.0999994
      vertex 1.05801 -29.4562 0.0999994
      vertex 1.45623 -29.058 0.0999994
    endloop
  endfacet
  facet normal 0 0 1
    outer loop
      vertex 0.556231 -26.2881 0.0999994
      vertex 1.05801 -29.4562 0.0999994
      vertex 1.05801 -26.5438 0.0999994
    endloop
  endfacet
  facet normal 0 0 1
    outer loop
      vertex 0.556231 -26.2881 0.0999994
      vertex 0.556231 -29.7119 0.0999994
      vertex 1.05801 -29.4562 0.0999994
    endloop
  endfacet
  facet normal 0 0 1
    outer loop
      vertex 0 -26.2 0.0999994
      vertex 0.556231 -29.7119 0.0999994
      vertex 0.556231 -26.2881 0.0999994
    endloop
  endfacet
  facet normal 0 0 1
    outer loop
      vertex 0 -26.2 0.0999994
      vertex 0 -29.8 0.0999994
      vertex 0.556231 -29.7119 0.0999994
    endloop
  endfacet
  facet normal -0 0 1
    outer loop
      vertex -0.556231 -26.2881 0.0999994
      vertex 0 -29.8 0.0999994
      vertex 0 -26.2 0.0999994
    endloop
  endfacet
  facet normal 0 0 1
    outer loop
      vertex -0.556231 -26.2881 0.0999994
      vertex -0.556231 -29.7119 0.0999994
      vertex 0 -29.8 0.0999994
    endloop
  endfacet
  facet normal -0 0 1
    outer loop
      vertex -1.05801 -26.5438 0.0999994
      vertex -0.556231 -29.7119 0.0999994
      vertex -0.556231 -26.2881 0.0999994
    endloop
  endfacet
  facet normal 0 0 1
    outer loop
      vertex -1.05801 -26.5438 0.0999994
      vertex -1.05801 -29.4562 0.0999994
      vertex -0.556231 -29.7119 0.0999994
    endloop
  endfacet
  facet normal -0 0 1
    outer loop
      vertex -1.45623 -26.942 0.0999994
      vertex -1.05801 -29.4562 0.0999994
      vertex -1.05801 -26.5438 0.0999994
    endloop
  endfacet
  facet normal 0 0 1
    outer loop
      vertex -1.45623 -26.942 0.0999994
      vertex -1.45623 -29.058 0.0999994
      vertex -1.05801 -29.4562 0.0999994
    endloop
  endfacet
  facet normal -0 0 1
    outer loop
      vertex -1.7119 -27.4438 0.0999994
      vertex -1.45623 -29.058 0.0999994
      vertex -1.45623 -26.942 0.0999994
    endloop
  endfacet
  facet normal 0 0 1
    outer loop
      vertex -1.7119 -27.4438 0.0999994
      vertex -1.7119 -28.5562 0.0999994
      vertex -1.45623 -29.058 0.0999994
    endloop
  endfacet
  facet normal 0 -0 1
    outer loop
      vertex -1.7119 -28.5562 0.0999994
      vertex -1.7119 -27.4438 0.0999994
      vertex -1.8 -28 0.0999994
    endloop
  endfacet
  facet normal -0.707106 -0.707107 4.54222e-08
    outer loop
      vertex 1.05801 -26.5438 0.0999994
      vertex 1.45623 -26.942 5.66734
      vertex 1.05801 -26.5438 5.66734
    endloop
  endfacet
  facet normal -0.707106 -0.707108 -0
    outer loop
      vertex 1.45623 -26.942 5.66734
      vertex 1.05801 -26.5438 0.0999994
      vertex 1.45623 -26.942 0.0999994
    endloop
  endfacet
  facet normal -0.453993 0.891005 0
    outer loop
      vertex 1.05801 -29.4562 0.0999994
      vertex 0.556231 -29.7119 5.66734
      vertex 1.05801 -29.4562 5.66734
    endloop
  endfacet
  facet normal -0.453993 0.891005 0
    outer loop
      vertex 0.556231 -29.7119 5.66734
      vertex 1.05801 -29.4562 0.0999994
      vertex 0.556231 -29.7119 0.0999994
    endloop
  endfacet
  facet normal 0.987689 0.156433 0
    outer loop
      vertex -1.7119 -28.5562 5.66734
      vertex -1.8 -28 0.0999994
      vertex -1.8 -28 5.66734
    endloop
  endfacet
  facet normal 0.987689 0.156433 0
    outer loop
      vertex -1.8 -28 0.0999994
      vertex -1.7119 -28.5562 5.66734
      vertex -1.7119 -28.5562 0.0999994
    endloop
  endfacet
  facet normal -0.707106 0.707107 -3.02815e-08
    outer loop
      vertex 1.45623 -29.058 5.66734
      vertex 1.45623 -29.058 0.0999994
      vertex 1.05801 -29.4562 5.66734
    endloop
  endfacet
  facet normal -0.707106 0.707108 3.02814e-08
    outer loop
      vertex 1.05801 -29.4562 0.0999994
      vertex 1.05801 -29.4562 5.66734
      vertex 1.45623 -29.058 0.0999994
    endloop
  endfacet
  facet normal 0.891006 0.453991 0
    outer loop
      vertex -1.45623 -29.058 5.66734
      vertex -1.7119 -28.5562 0.0999994
      vertex -1.7119 -28.5562 5.66734
    endloop
  endfacet
  facet normal 0.891006 0.453991 0
    outer loop
      vertex -1.7119 -28.5562 0.0999994
      vertex -1.45623 -29.058 5.66734
      vertex -1.45623 -29.058 0.0999994
    endloop
  endfacet
  facet normal 0.156432 0.987689 -0
    outer loop
      vertex 0 -29.8 0.0999994
      vertex -0.556231 -29.7119 5.66734
      vertex 0 -29.8 5.66734
    endloop
  endfacet
  facet normal 0.156432 0.987689 0
    outer loop
      vertex -0.556231 -29.7119 5.66734
      vertex 0 -29.8 0.0999994
      vertex -0.556231 -29.7119 0.0999994
    endloop
  endfacet
  facet normal 0.707106 0.707107 3.02815e-08
    outer loop
      vertex -1.05801 -29.4562 5.66734
      vertex -1.05801 -29.4562 0.0999994
      vertex -1.45623 -29.058 5.66734
    endloop
  endfacet
  facet normal 0.707106 0.707108 -3.02814e-08
    outer loop
      vertex -1.45623 -29.058 0.0999994
      vertex -1.45623 -29.058 5.66734
      vertex -1.05801 -29.4562 0.0999994
    endloop
  endfacet
  facet normal 0.453993 0.891005 -0
    outer loop
      vertex -0.556231 -29.7119 0.0999994
      vertex -1.05801 -29.4562 5.66734
      vertex -0.556231 -29.7119 5.66734
    endloop
  endfacet
  facet normal 0.453993 0.891005 0
    outer loop
      vertex -1.05801 -29.4562 5.66734
      vertex -0.556231 -29.7119 0.0999994
      vertex -1.05801 -29.4562 0.0999994
    endloop
  endfacet
  facet normal -0.824672 -0.130615 0.550323
    outer loop
      vertex 3.35663 30 8
      vertex 1.7119 30.5562 5.66734
      vertex 1.8 30 5.66734
    endloop
  endfacet
  facet normal -0.824672 -0.130615 0.550323
    outer loop
      vertex 1.7119 30.5562 5.66734
      vertex 3.35663 30 8
      vertex 3.19235 31.0373 8
    endloop
  endfacet
  facet normal 0.824672 0.130615 0.550323
    outer loop
      vertex -3.35663 30 8
      vertex -1.7119 29.4438 5.66735
      vertex -1.8 30 5.66734
    endloop
  endfacet
  facet normal 0.824672 0.130615 0.550323
    outer loop
      vertex -1.7119 29.4438 5.66735
      vertex -3.35663 30 8
      vertex -3.19235 28.9627 8
    endloop
  endfacet
  facet normal -0.824672 0.130615 0.550323
    outer loop
      vertex 1.7119 29.4438 5.66735
      vertex 3.35663 30 8
      vertex 1.8 30 5.66734
    endloop
  endfacet
  facet normal -0.824672 0.130615 0.550323
    outer loop
      vertex 3.35663 30 8
      vertex 1.7119 29.4438 5.66735
      vertex 3.19235 28.9627 8
    endloop
  endfacet
  facet normal 0.130614 -0.824673 0.550322
    outer loop
      vertex -0.556231 31.7119 5.66734
      vertex 0 33.3566 8
      vertex -1.03726 33.1923 8
    endloop
  endfacet
  facet normal 0.130614 -0.824673 0.550322
    outer loop
      vertex 0 33.3566 8
      vertex -0.556231 31.7119 5.66734
      vertex 0 31.8 5.66734
    endloop
  endfacet
  facet normal -0.130616 0.824672 0.550323
    outer loop
      vertex 1.03726 26.8077 8
      vertex 0.556231 28.2881 5.66735
      vertex 0 26.6434 8
    endloop
  endfacet
  facet normal -0.130614 0.824672 0.550323
    outer loop
      vertex 0 26.6434 8
      vertex 0.556231 28.2881 5.66735
      vertex 0 28.2 5.66734
    endloop
  endfacet
  facet normal 0.743948 -0.37906 0.550323
    outer loop
      vertex -3.19235 31.0373 8
      vertex -1.45623 31.058 5.66734
      vertex -2.71557 31.973 8
    endloop
  endfacet
  facet normal 0.743948 -0.37906 0.550323
    outer loop
      vertex -1.45623 31.058 5.66734
      vertex -3.19235 31.0373 8
      vertex -1.7119 30.5562 5.66734
    endloop
  endfacet
  facet normal -0.5904 -0.590401 0.550322
    outer loop
      vertex 1.45623 31.058 5.66734
      vertex 1.97298 32.7156 8
      vertex 1.05801 31.4562 5.66734
    endloop
  endfacet
  facet normal -0.5904 -0.590401 0.550323
    outer loop
      vertex 1.97298 32.7156 8
      vertex 1.45623 31.058 5.66734
      vertex 2.71557 31.973 8
    endloop
  endfacet
  facet normal -0.5904 0.590401 0.550323
    outer loop
      vertex 1.05801 28.5438 5.66734
      vertex 2.71557 28.027 8
      vertex 1.45623 28.942 5.66734
    endloop
  endfacet
  facet normal -0.5904 0.5904 0.550323
    outer loop
      vertex 2.71557 28.027 8
      vertex 1.05801 28.5438 5.66734
      vertex 1.97298 27.2844 8
    endloop
  endfacet
  facet normal 0.5904 0.590401 0.550323
    outer loop
      vertex -2.71557 28.027 8
      vertex -1.05801 28.5438 5.66734
      vertex -1.45623 28.942 5.66734
    endloop
  endfacet
  facet normal 0.5904 0.5904 0.550323
    outer loop
      vertex -1.05801 28.5438 5.66734
      vertex -2.71557 28.027 8
      vertex -1.97298 27.2844 8
    endloop
  endfacet
  facet normal 0.824672 -0.130615 0.550323
    outer loop
      vertex -3.35663 30 8
      vertex -1.7119 30.5562 5.66734
      vertex -3.19235 31.0373 8
    endloop
  endfacet
  facet normal 0.824672 -0.130615 0.550323
    outer loop
      vertex -1.7119 30.5562 5.66734
      vertex -3.35663 30 8
      vertex -1.8 30 5.66734
    endloop
  endfacet
  facet normal 0.379061 -0.743947 0.550322
    outer loop
      vertex -1.05801 31.4562 5.66734
      vertex -1.03726 33.1923 8
      vertex -1.97298 32.7156 8
    endloop
  endfacet
  facet normal 0.379062 -0.743947 0.550322
    outer loop
      vertex -1.03726 33.1923 8
      vertex -1.05801 31.4562 5.66734
      vertex -0.556231 31.7119 5.66734
    endloop
  endfacet
  facet normal -0.379062 -0.743947 0.550322
    outer loop
      vertex 1.05801 31.4562 5.66734
      vertex 1.03726 33.1923 8
      vertex 0.556231 31.7119 5.66734
    endloop
  endfacet
  facet normal -0.379061 -0.743947 0.550322
    outer loop
      vertex 1.03726 33.1923 8
      vertex 1.05801 31.4562 5.66734
      vertex 1.97298 32.7156 8
    endloop
  endfacet
  facet normal -0.743948 -0.37906 0.550323
    outer loop
      vertex 1.45623 31.058 5.66734
      vertex 3.19235 31.0373 8
      vertex 2.71557 31.973 8
    endloop
  endfacet
  facet normal -0.743948 -0.37906 0.550323
    outer loop
      vertex 3.19235 31.0373 8
      vertex 1.45623 31.058 5.66734
      vertex 1.7119 30.5562 5.66734
    endloop
  endfacet
  facet normal -0.743948 0.379061 0.550323
    outer loop
      vertex 1.45623 28.942 5.66734
      vertex 3.19235 28.9627 8
      vertex 1.7119 29.4438 5.66735
    endloop
  endfacet
  facet normal -0.743948 0.379061 0.550323
    outer loop
      vertex 3.19235 28.9627 8
      vertex 1.45623 28.942 5.66734
      vertex 2.71557 28.027 8
    endloop
  endfacet
  facet normal -0.37906 0.743948 0.550323
    outer loop
      vertex 1.05801 28.5438 5.66734
      vertex 1.03726 26.8077 8
      vertex 1.97298 27.2844 8
    endloop
  endfacet
  facet normal -0.379061 0.743947 0.550322
    outer loop
      vertex 1.03726 26.8077 8
      vertex 1.05801 28.5438 5.66734
      vertex 0.556231 28.2881 5.66735
    endloop
  endfacet
  facet normal 0.379061 0.743947 0.550322
    outer loop
      vertex -1.05801 28.5438 5.66734
      vertex -1.03726 26.8077 8
      vertex -0.556231 28.2881 5.66735
    endloop
  endfacet
  facet normal 0.37906 0.743948 0.550323
    outer loop
      vertex -1.03726 26.8077 8
      vertex -1.05801 28.5438 5.66734
      vertex -1.97298 27.2844 8
    endloop
  endfacet
  facet normal 0.743948 0.379061 0.550323
    outer loop
      vertex -3.19235 28.9627 8
      vertex -1.45623 28.942 5.66734
      vertex -1.7119 29.4438 5.66735
    endloop
  endfacet
  facet normal 0.743948 0.379061 0.550323
    outer loop
      vertex -1.45623 28.942 5.66734
      vertex -3.19235 28.9627 8
      vertex -2.71557 28.027 8
    endloop
  endfacet
  facet normal 0.5904 -0.590401 0.550323
    outer loop
      vertex -1.45623 31.058 5.66734
      vertex -1.97298 32.7156 8
      vertex -2.71557 31.973 8
    endloop
  endfacet
  facet normal 0.5904 -0.590401 0.550322
    outer loop
      vertex -1.97298 32.7156 8
      vertex -1.45623 31.058 5.66734
      vertex -1.05801 31.4562 5.66734
    endloop
  endfacet
  facet normal -0.130614 -0.824673 0.550322
    outer loop
      vertex 0 33.3566 8
      vertex 0.556231 31.7119 5.66734
      vertex 1.03726 33.1923 8
    endloop
  endfacet
  facet normal -0.130614 -0.824673 0.550322
    outer loop
      vertex 0.556231 31.7119 5.66734
      vertex 0 33.3566 8
      vertex 0 31.8 5.66734
    endloop
  endfacet
  facet normal 0.130616 0.824672 0.550323
    outer loop
      vertex 0 26.6434 8
      vertex -0.556231 28.2881 5.66735
      vertex -1.03726 26.8077 8
    endloop
  endfacet
  facet normal 0.130614 0.824672 0.550323
    outer loop
      vertex -0.556231 28.2881 5.66735
      vertex 0 26.6434 8
      vertex 0 28.2 5.66734
    endloop
  endfacet
  facet normal -0.987689 -0.156433 0
    outer loop
      vertex 1.8 30 0.0999994
      vertex 1.7119 30.5562 5.66734
      vertex 1.7119 30.5562 0.0999994
    endloop
  endfacet
  facet normal -0.987689 -0.156433 0
    outer loop
      vertex 1.7119 30.5562 5.66734
      vertex 1.8 30 0.0999994
      vertex 1.8 30 5.66734
    endloop
  endfacet
  facet normal 0.156432 -0.987689 0
    outer loop
      vertex -0.556231 31.7119 0.0999994
      vertex 0 31.8 5.66734
      vertex -0.556231 31.7119 5.66734
    endloop
  endfacet
  facet normal 0.156432 -0.987689 0
    outer loop
      vertex 0 31.8 5.66734
      vertex -0.556231 31.7119 0.0999994
      vertex 0 31.8 0.0999994
    endloop
  endfacet
  facet normal -0.453993 -0.891005 0
    outer loop
      vertex 0.556231 31.7119 0.0999994
      vertex 1.05801 31.4562 5.66734
      vertex 0.556231 31.7119 5.66734
    endloop
  endfacet
  facet normal -0.453993 -0.891005 -0
    outer loop
      vertex 1.05801 31.4562 5.66734
      vertex 0.556231 31.7119 0.0999994
      vertex 1.05801 31.4562 0.0999994
    endloop
  endfacet
  facet normal -0.891006 -0.453991 0
    outer loop
      vertex 1.7119 30.5562 0.0999994
      vertex 1.45623 31.058 5.66734
      vertex 1.45623 31.058 0.0999994
    endloop
  endfacet
  facet normal -0.891006 -0.453991 0
    outer loop
      vertex 1.45623 31.058 5.66734
      vertex 1.7119 30.5562 0.0999994
      vertex 1.7119 30.5562 5.66734
    endloop
  endfacet
  facet normal -0.156432 -0.987689 0
    outer loop
      vertex 0 31.8 0.0999994
      vertex 0.556231 31.7119 5.66734
      vertex 0 31.8 5.66734
    endloop
  endfacet
  facet normal -0.156432 -0.987689 -0
    outer loop
      vertex 0.556231 31.7119 5.66734
      vertex 0 31.8 0.0999994
      vertex 0.556231 31.7119 0.0999994
    endloop
  endfacet
  facet normal 0.891006 -0.453991 0
    outer loop
      vertex -1.7119 30.5562 5.66734
      vertex -1.45623 31.058 0.0999994
      vertex -1.45623 31.058 5.66734
    endloop
  endfacet
  facet normal 0.891006 -0.453991 0
    outer loop
      vertex -1.45623 31.058 0.0999994
      vertex -1.7119 30.5562 5.66734
      vertex -1.7119 30.5562 0.0999994
    endloop
  endfacet
  facet normal 0 0 1
    outer loop
      vertex 1.7119 30.5562 0.0999994
      vertex 1.7119 29.4438 0.0999994
      vertex 1.8 30 0.0999994
    endloop
  endfacet
  facet normal 0 0 1
    outer loop
      vertex 1.45623 31.058 0.0999994
      vertex 1.7119 29.4438 0.0999994
      vertex 1.7119 30.5562 0.0999994
    endloop
  endfacet
  facet normal 0 0 1
    outer loop
      vertex 1.45623 31.058 0.0999994
      vertex 1.45623 28.942 0.0999994
      vertex 1.7119 29.4438 0.0999994
    endloop
  endfacet
  facet normal 0 0 1
    outer loop
      vertex 1.05801 31.4562 0.0999994
      vertex 1.45623 28.942 0.0999994
      vertex 1.45623 31.058 0.0999994
    endloop
  endfacet
  facet normal 0 0 1
    outer loop
      vertex 1.05801 31.4562 0.0999994
      vertex 1.05801 28.5438 0.0999994
      vertex 1.45623 28.942 0.0999994
    endloop
  endfacet
  facet normal 0 0 1
    outer loop
      vertex 0.556231 31.7119 0.0999994
      vertex 1.05801 28.5438 0.0999994
      vertex 1.05801 31.4562 0.0999994
    endloop
  endfacet
  facet normal 0 0 1
    outer loop
      vertex 0.556231 31.7119 0.0999994
      vertex 0.556231 28.2881 0.0999994
      vertex 1.05801 28.5438 0.0999994
    endloop
  endfacet
  facet normal 0 0 1
    outer loop
      vertex 0 31.8 0.0999994
      vertex 0.556231 28.2881 0.0999994
      vertex 0.556231 31.7119 0.0999994
    endloop
  endfacet
  facet normal 0 0 1
    outer loop
      vertex 0 31.8 0.0999994
      vertex 0 28.2 0.0999994
      vertex 0.556231 28.2881 0.0999994
    endloop
  endfacet
  facet normal -0 0 1
    outer loop
      vertex -0.556231 31.7119 0.0999994
      vertex 0 28.2 0.0999994
      vertex 0 31.8 0.0999994
    endloop
  endfacet
  facet normal 0 0 1
    outer loop
      vertex -0.556231 31.7119 0.0999994
      vertex -0.556231 28.2881 0.0999994
      vertex 0 28.2 0.0999994
    endloop
  endfacet
  facet normal -0 0 1
    outer loop
      vertex -1.05801 31.4562 0.0999994
      vertex -0.556231 28.2881 0.0999994
      vertex -0.556231 31.7119 0.0999994
    endloop
  endfacet
  facet normal 0 0 1
    outer loop
      vertex -1.05801 31.4562 0.0999994
      vertex -1.05801 28.5438 0.0999994
      vertex -0.556231 28.2881 0.0999994
    endloop
  endfacet
  facet normal -0 0 1
    outer loop
      vertex -1.45623 31.058 0.0999994
      vertex -1.05801 28.5438 0.0999994
      vertex -1.05801 31.4562 0.0999994
    endloop
  endfacet
  facet normal 0 0 1
    outer loop
      vertex -1.45623 31.058 0.0999994
      vertex -1.45623 28.942 0.0999994
      vertex -1.05801 28.5438 0.0999994
    endloop
  endfacet
  facet normal -0 0 1
    outer loop
      vertex -1.7119 30.5562 0.0999994
      vertex -1.45623 28.942 0.0999994
      vertex -1.45623 31.058 0.0999994
    endloop
  endfacet
  facet normal 0 0 1
    outer loop
      vertex -1.7119 30.5562 0.0999994
      vertex -1.7119 29.4438 0.0999994
      vertex -1.45623 28.942 0.0999994
    endloop
  endfacet
  facet normal 0 -0 1
    outer loop
      vertex -1.7119 29.4438 0.0999994
      vertex -1.7119 30.5562 0.0999994
      vertex -1.8 30 0.0999994
    endloop
  endfacet
  facet normal 0.987689 -0.156433 0
    outer loop
      vertex -1.8 30 5.66734
      vertex -1.7119 30.5562 0.0999994
      vertex -1.7119 30.5562 5.66734
    endloop
  endfacet
  facet normal 0.987689 -0.156433 0
    outer loop
      vertex -1.7119 30.5562 0.0999994
      vertex -1.8 30 5.66734
      vertex -1.8 30 0.0999994
    endloop
  endfacet
  facet normal 0.453993 -0.891005 0
    outer loop
      vertex -1.05801 31.4562 0.0999994
      vertex -0.556231 31.7119 5.66734
      vertex -1.05801 31.4562 5.66734
    endloop
  endfacet
  facet normal 0.453993 -0.891005 0
    outer loop
      vertex -0.556231 31.7119 5.66734
      vertex -1.05801 31.4562 0.0999994
      vertex -0.556231 31.7119 0.0999994
    endloop
  endfacet
  facet normal -0.453993 0.891005 0
    outer loop
      vertex 1.05801 28.5438 0.0999994
      vertex 0.556231 28.2881 5.66735
      vertex 1.05801 28.5438 5.66734
    endloop
  endfacet
  facet normal -0.453993 0.891005 9.721e-09
    outer loop
      vertex 0.556231 28.2881 0.0999994
      vertex 0.556231 28.2881 5.66735
      vertex 1.05801 28.5438 0.0999994
    endloop
  endfacet
  facet normal -0.987689 0.156433 0
    outer loop
      vertex 1.8 30 0.0999994
      vertex 1.7119 29.4438 5.66735
      vertex 1.8 30 5.66734
    endloop
  endfacet
  facet normal -0.987689 0.156433 -3.24446e-08
    outer loop
      vertex 1.7119 29.4438 0.0999994
      vertex 1.7119 29.4438 5.66735
      vertex 1.8 30 0.0999994
    endloop
  endfacet
  facet normal 0.156432 0.987689 -0
    outer loop
      vertex 0 28.2 0.0999994
      vertex -0.556231 28.2881 5.66735
      vertex 0 28.2 5.66734
    endloop
  endfacet
  facet normal 0.156432 0.987689 0
    outer loop
      vertex -0.556231 28.2881 5.66735
      vertex 0 28.2 0.0999994
      vertex -0.556231 28.2881 0.0999994
    endloop
  endfacet
  facet normal 0.891006 0.453992 0
    outer loop
      vertex -1.45623 28.942 5.66734
      vertex -1.7119 29.4438 0.0999994
      vertex -1.7119 29.4438 5.66735
    endloop
  endfacet
  facet normal 0.891006 0.453992 0
    outer loop
      vertex -1.7119 29.4438 0.0999994
      vertex -1.45623 28.942 5.66734
      vertex -1.45623 28.942 0.0999994
    endloop
  endfacet
  facet normal -0.707106 -0.707107 3.02815e-08
    outer loop
      vertex 1.05801 31.4562 5.66734
      vertex 1.05801 31.4562 0.0999994
      vertex 1.45623 31.058 5.66734
    endloop
  endfacet
  facet normal -0.707106 -0.707108 -3.02814e-08
    outer loop
      vertex 1.45623 31.058 0.0999994
      vertex 1.45623 31.058 5.66734
      vertex 1.05801 31.4562 0.0999994
    endloop
  endfacet
  facet normal 0.987689 0.156433 0
    outer loop
      vertex -1.7119 29.4438 5.66735
      vertex -1.8 30 0.0999994
      vertex -1.8 30 5.66734
    endloop
  endfacet
  facet normal 0.987689 0.156433 -3.24446e-08
    outer loop
      vertex -1.7119 29.4438 5.66735
      vertex -1.7119 29.4438 0.0999994
      vertex -1.8 30 0.0999994
    endloop
  endfacet
  facet normal 0.707106 -0.707107 -3.02815e-08
    outer loop
      vertex -1.45623 31.058 5.66734
      vertex -1.45623 31.058 0.0999994
      vertex -1.05801 31.4562 5.66734
    endloop
  endfacet
  facet normal 0.707106 -0.707108 3.02814e-08
    outer loop
      vertex -1.05801 31.4562 0.0999994
      vertex -1.05801 31.4562 5.66734
      vertex -1.45623 31.058 0.0999994
    endloop
  endfacet
  facet normal -0.707106 0.707107 0
    outer loop
      vertex 1.45623 28.942 5.66734
      vertex 1.45623 28.942 0.0999994
      vertex 1.05801 28.5438 5.66734
    endloop
  endfacet
  facet normal -0.707106 0.707108 4.54222e-08
    outer loop
      vertex 1.05801 28.5438 0.0999994
      vertex 1.05801 28.5438 5.66734
      vertex 1.45623 28.942 0.0999994
    endloop
  endfacet
  facet normal -0.156432 0.987689 0
    outer loop
      vertex 0.556231 28.2881 0.0999994
      vertex 0 28.2 5.66734
      vertex 0.556231 28.2881 5.66735
    endloop
  endfacet
  facet normal -0.156432 0.987689 0
    outer loop
      vertex 0 28.2 5.66734
      vertex 0.556231 28.2881 0.0999994
      vertex 0 28.2 0.0999994
    endloop
  endfacet
  facet normal 0.707106 0.707107 4.54222e-08
    outer loop
      vertex -1.05801 28.5438 0.0999994
      vertex -1.45623 28.942 5.66734
      vertex -1.05801 28.5438 5.66734
    endloop
  endfacet
  facet normal 0.707106 0.707108 0
    outer loop
      vertex -1.45623 28.942 5.66734
      vertex -1.05801 28.5438 0.0999994
      vertex -1.45623 28.942 0.0999994
    endloop
  endfacet
  facet normal -0.891006 0.453992 0
    outer loop
      vertex 1.45623 28.942 0.0999994
      vertex 1.7119 29.4438 5.66735
      vertex 1.7119 29.4438 0.0999994
    endloop
  endfacet
  facet normal -0.891006 0.453992 0
    outer loop
      vertex 1.7119 29.4438 5.66735
      vertex 1.45623 28.942 0.0999994
      vertex 1.45623 28.942 5.66734
    endloop
  endfacet
  facet normal 0.453993 0.891005 9.721e-09
    outer loop
      vertex -0.556231 28.2881 5.66735
      vertex -0.556231 28.2881 0.0999994
      vertex -1.05801 28.5438 5.66734
    endloop
  endfacet
  facet normal 0.453993 0.891005 0
    outer loop
      vertex -1.05801 28.5438 5.66734
      vertex -0.556231 28.2881 0.0999994
      vertex -1.05801 28.5438 0.0999994
    endloop
  endfacet
endsolid OpenSCAD_Model
