solid OpenSCAD_Model
  facet normal 0 0 -1
    outer loop
      vertex 11.6895 -6.90325 0
      vertex 32.0081 19.5432 0
      vertex 50.0115 6.93717 0
    endloop
  endfacet
  facet normal 0 0 -1
    outer loop
      vertex 11.6895 -6.90325 0
      vertex 6.14339 9.83369 0
      vertex 32.0081 19.5432 0
    endloop
  endfacet
  facet normal 0 0 -1
    outer loop
      vertex -11.5642 -40.7336 0
      vertex 11.6895 -6.90325 0
      vertex 7.02234 -53.7481 0
    endloop
  endfacet
  facet normal 0 -0 -1
    outer loop
      vertex -2.74116 6.36177 0
      vertex 11.6895 -6.90325 0
      vertex -7.29857 -9.00774 0
    endloop
  endfacet
  facet normal 0 0 -1
    outer loop
      vertex 11.6895 -6.90325 0
      vertex 5.01231 9.42819 0
      vertex 6.14339 9.83369 0
    endloop
  endfacet
  facet normal 0 0 -1
    outer loop
      vertex 11.6895 -6.90325 0
      vertex 3.93515 9.03566 0
      vertex 5.01231 9.42819 0
    endloop
  endfacet
  facet normal 0 0 -1
    outer loop
      vertex 11.6895 -6.90325 0
      vertex 2.91189 8.65607 0
      vertex 3.93515 9.03566 0
    endloop
  endfacet
  facet normal 0 0 -1
    outer loop
      vertex 11.6895 -6.90325 0
      vertex 1.94256 8.28945 0
      vertex 2.91189 8.65607 0
    endloop
  endfacet
  facet normal 0 0 -1
    outer loop
      vertex 11.6895 -6.90325 0
      vertex 1.02716 7.93578 0
      vertex 1.94256 8.28945 0
    endloop
  endfacet
  facet normal 0 0 -1
    outer loop
      vertex 11.6895 -6.90325 0
      vertex 0.165664 7.59506 0
      vertex 1.02716 7.93578 0
    endloop
  endfacet
  facet normal 0 0 -1
    outer loop
      vertex 11.6895 -6.90325 0
      vertex -0.641917 7.2673 0
      vertex 0.165664 7.59506 0
    endloop
  endfacet
  facet normal 0 0 -1
    outer loop
      vertex 11.6895 -6.90325 0
      vertex -1.39559 6.95251 0
      vertex -0.641917 7.2673 0
    endloop
  endfacet
  facet normal 0 0 -1
    outer loop
      vertex 11.6895 -6.90325 0
      vertex -2.09534 6.65066 0
      vertex -1.39559 6.95251 0
    endloop
  endfacet
  facet normal 0 0 -1
    outer loop
      vertex 11.6895 -6.90325 0
      vertex -2.74116 6.36177 0
      vertex -2.09534 6.65066 0
    endloop
  endfacet
  facet normal 0 0 -1
    outer loop
      vertex -2.74116 6.36177 0
      vertex -7.29857 -9.00774 0
      vertex -3.33309 6.08585 0
    endloop
  endfacet
  facet normal 0 0 -1
    outer loop
      vertex -3.33309 6.08585 0
      vertex -7.29857 -9.00774 0
      vertex -3.87108 5.82287 0
    endloop
  endfacet
  facet normal 0 0 -1
    outer loop
      vertex -3.87108 5.82287 0
      vertex -7.29857 -9.00774 0
      vertex -4.35518 5.57285 0
    endloop
  endfacet
  facet normal 0 0 -1
    outer loop
      vertex 11.6895 -6.90325 0
      vertex -11.5642 -40.7336 0
      vertex -7.29857 -9.00774 0
    endloop
  endfacet
  facet normal 0 0 -1
    outer loop
      vertex -4.35518 5.57285 0
      vertex -2.37331 43.6174 0
      vertex 14.1719 32.0323 0
    endloop
  endfacet
  facet normal 0 0 -1
    outer loop
      vertex -14.2167 -8.51082 0
      vertex -4.35518 5.57285 0
      vertex -7.29857 -9.00774 0
    endloop
  endfacet
  facet normal 0 0 -1
    outer loop
      vertex -45.029 -17.3013 0
      vertex -4.35518 5.57285 0
      vertex -14.2167 -8.51082 0
    endloop
  endfacet
  facet normal 0 0 -1
    outer loop
      vertex -45.029 -17.3013 0
      vertex -14.2167 -8.51082 0
      vertex -28.4838 -28.8864 0
    endloop
  endfacet
  facet normal -0 0 -1
    outer loop
      vertex -4.35518 5.57285 0
      vertex -45.029 -17.3013 0
      vertex -2.37331 43.6174 0
    endloop
  endfacet
  facet normal 0 0 1
    outer loop
      vertex 14.1719 32.0323 8
      vertex 3.19235 31.0373 8
      vertex 3.35663 30 8
    endloop
  endfacet
  facet normal 0 0 1
    outer loop
      vertex 14.1719 32.0323 8
      vertex 2.71557 31.973 8
      vertex 3.19235 31.0373 8
    endloop
  endfacet
  facet normal 0 0 1
    outer loop
      vertex 14.1719 32.0323 8
      vertex 1.97298 32.7156 8
      vertex 2.71557 31.973 8
    endloop
  endfacet
  facet normal 0 0 1
    outer loop
      vertex -2.37331 43.6174 8
      vertex 1.97298 32.7156 8
      vertex 14.1719 32.0323 8
    endloop
  endfacet
  facet normal 0 0 1
    outer loop
      vertex 1.97298 32.7156 8
      vertex -2.37331 43.6174 8
      vertex 1.03726 33.1923 8
    endloop
  endfacet
  facet normal 0 0 1
    outer loop
      vertex 1.03726 33.1923 8
      vertex -2.37331 43.6174 8
      vertex 0 33.3566 8
    endloop
  endfacet
  facet normal 0 0 1
    outer loop
      vertex -2.37331 43.6174 8
      vertex -1.03726 33.1923 8
      vertex 0 33.3566 8
    endloop
  endfacet
  facet normal 0 0 1
    outer loop
      vertex -2.37331 43.6174 8
      vertex -1.97298 32.7156 8
      vertex -1.03726 33.1923 8
    endloop
  endfacet
  facet normal 0 0 1
    outer loop
      vertex -2.37331 43.6174 8
      vertex -2.71557 31.973 8
      vertex -1.97298 32.7156 8
    endloop
  endfacet
  facet normal 0 0 1
    outer loop
      vertex -2.37331 43.6174 8
      vertex -3.19235 31.0373 8
      vertex -2.71557 31.973 8
    endloop
  endfacet
  facet normal 0 0 1
    outer loop
      vertex -45.029 -17.3013 8
      vertex -3.19235 31.0373 8
      vertex -2.37331 43.6174 8
    endloop
  endfacet
  facet normal 0 0 1
    outer loop
      vertex -3.19235 28.9627 8
      vertex -14.2167 -8.51082 8
      vertex -4.35518 5.57285 8
    endloop
  endfacet
  facet normal 0 0 1
    outer loop
      vertex -3.19235 31.0373 8
      vertex -45.029 -17.3013 8
      vertex -3.35663 30 8
    endloop
  endfacet
  facet normal 0 0 1
    outer loop
      vertex -4.35518 5.57285 8
      vertex -14.2167 -8.51082 8
      vertex -7.29857 -9.00774 8
    endloop
  endfacet
  facet normal 0 0 1
    outer loop
      vertex -3.35663 30 8
      vertex -45.029 -17.3013 8
      vertex -14.2167 -8.51082 8
    endloop
  endfacet
  facet normal 0 0 1
    outer loop
      vertex -14.2167 -8.51082 8
      vertex -45.029 -17.3013 8
      vertex -28.4838 -28.8864 8
    endloop
  endfacet
  facet normal 0 0 1
    outer loop
      vertex 3.19235 28.9627 8
      vertex 14.1719 32.0323 8
      vertex 3.35663 30 8
    endloop
  endfacet
  facet normal 0 0 1
    outer loop
      vertex 2.71557 28.027 8
      vertex 14.1719 32.0323 8
      vertex 3.19235 28.9627 8
    endloop
  endfacet
  facet normal 0 0 1
    outer loop
      vertex 1.97298 27.2844 8
      vertex 14.1719 32.0323 8
      vertex 2.71557 28.027 8
    endloop
  endfacet
  facet normal 0 0 1
    outer loop
      vertex -4.35518 5.57285 8
      vertex 1.97298 27.2844 8
      vertex 1.03726 26.8077 8
    endloop
  endfacet
  facet normal -0 0 1
    outer loop
      vertex 1.97298 27.2844 8
      vertex -4.35518 5.57285 8
      vertex 14.1719 32.0323 8
    endloop
  endfacet
  facet normal -0 0 1
    outer loop
      vertex 0 26.6434 8
      vertex -4.35518 5.57285 8
      vertex 1.03726 26.8077 8
    endloop
  endfacet
  facet normal 0 0 1
    outer loop
      vertex -1.03726 26.8077 8
      vertex -4.35518 5.57285 8
      vertex 0 26.6434 8
    endloop
  endfacet
  facet normal 0 0 1
    outer loop
      vertex -1.97298 27.2844 8
      vertex -4.35518 5.57285 8
      vertex -1.03726 26.8077 8
    endloop
  endfacet
  facet normal 0 0 1
    outer loop
      vertex -2.71557 28.027 8
      vertex -4.35518 5.57285 8
      vertex -1.97298 27.2844 8
    endloop
  endfacet
  facet normal 0 0 1
    outer loop
      vertex -3.19235 28.9627 8
      vertex -4.35518 5.57285 8
      vertex -2.71557 28.027 8
    endloop
  endfacet
  facet normal 0 0 1
    outer loop
      vertex -14.2167 -8.51082 8
      vertex -3.19235 28.9627 8
      vertex -3.35663 30 8
    endloop
  endfacet
  facet normal 0 0 1
    outer loop
      vertex 11.6895 -6.90325 8
      vertex 3.19235 -36.9627 8
      vertex 3.35663 -38 8
    endloop
  endfacet
  facet normal -0 0 1
    outer loop
      vertex 1.94256 8.28945 8
      vertex 11.6895 -6.90325 8
      vertex 2.91189 8.65607 8
    endloop
  endfacet
  facet normal 0 0 1
    outer loop
      vertex 11.6895 -6.90325 8
      vertex 2.71557 -36.027 8
      vertex 3.19235 -36.9627 8
    endloop
  endfacet
  facet normal 0 0 1
    outer loop
      vertex 11.6895 -6.90325 8
      vertex 1.97298 -35.2844 8
      vertex 2.71557 -36.027 8
    endloop
  endfacet
  facet normal -0 0 1
    outer loop
      vertex 1.02716 7.93578 8
      vertex 11.6895 -6.90325 8
      vertex 1.94256 8.28945 8
    endloop
  endfacet
  facet normal 0 -0 1
    outer loop
      vertex 1.03726 -34.8077 8
      vertex 11.6895 -6.90325 8
      vertex -7.29857 -9.00774 8
    endloop
  endfacet
  facet normal -0 0 1
    outer loop
      vertex 0.165664 7.59506 8
      vertex 11.6895 -6.90325 8
      vertex 1.02716 7.93578 8
    endloop
  endfacet
  facet normal -0 0 1
    outer loop
      vertex -0.641917 7.2673 8
      vertex 11.6895 -6.90325 8
      vertex 0.165664 7.59506 8
    endloop
  endfacet
  facet normal 0 0 1
    outer loop
      vertex 11.6895 -6.90325 8
      vertex 1.03726 -34.8077 8
      vertex 1.97298 -35.2844 8
    endloop
  endfacet
  facet normal -0 0 1
    outer loop
      vertex -1.39559 6.95251 8
      vertex 11.6895 -6.90325 8
      vertex -0.641917 7.2673 8
    endloop
  endfacet
  facet normal 0 0 1
    outer loop
      vertex 1.03726 -34.8077 8
      vertex -7.29857 -9.00774 8
      vertex 0 -34.6434 8
    endloop
  endfacet
  facet normal -0 0 1
    outer loop
      vertex -2.09534 6.65066 8
      vertex 11.6895 -6.90325 8
      vertex -1.39559 6.95251 8
    endloop
  endfacet
  facet normal 0 0 1
    outer loop
      vertex 0 -34.6434 8
      vertex -7.29857 -9.00774 8
      vertex -1.03726 -34.8077 8
    endloop
  endfacet
  facet normal -0 0 1
    outer loop
      vertex -2.74116 6.36177 8
      vertex 11.6895 -6.90325 8
      vertex -2.09534 6.65066 8
    endloop
  endfacet
  facet normal 0 0 1
    outer loop
      vertex -1.03726 -34.8077 8
      vertex -7.29857 -9.00774 8
      vertex -1.97298 -35.2844 8
    endloop
  endfacet
  facet normal 0 0 1
    outer loop
      vertex 11.6895 -6.90325 8
      vertex -2.74116 6.36177 8
      vertex -7.29857 -9.00774 8
    endloop
  endfacet
  facet normal 0 0 1
    outer loop
      vertex -1.97298 -35.2844 8
      vertex -7.29857 -9.00774 8
      vertex -2.71557 -36.027 8
    endloop
  endfacet
  facet normal 0 0 1
    outer loop
      vertex -7.29857 -9.00774 8
      vertex -2.74116 6.36177 8
      vertex -3.33309 6.08585 8
    endloop
  endfacet
  facet normal 0 0 1
    outer loop
      vertex -11.5642 -40.7336 8
      vertex -2.71557 -36.027 8
      vertex -7.29857 -9.00774 8
    endloop
  endfacet
  facet normal 0 0 1
    outer loop
      vertex -7.29857 -9.00774 8
      vertex -3.33309 6.08585 8
      vertex -3.87108 5.82287 8
    endloop
  endfacet
  facet normal 0 0 1
    outer loop
      vertex 32.0081 19.5432 8
      vertex 11.6895 -6.90325 8
      vertex 50.0115 6.93717 8
    endloop
  endfacet
  facet normal -0 0 1
    outer loop
      vertex 6.14339 9.83369 8
      vertex 11.6895 -6.90325 8
      vertex 32.0081 19.5432 8
    endloop
  endfacet
  facet normal -0 0 1
    outer loop
      vertex 5.01231 9.42819 8
      vertex 11.6895 -6.90325 8
      vertex 6.14339 9.83369 8
    endloop
  endfacet
  facet normal -0 0 1
    outer loop
      vertex 3.93515 9.03566 8
      vertex 11.6895 -6.90325 8
      vertex 5.01231 9.42819 8
    endloop
  endfacet
  facet normal -0 0 1
    outer loop
      vertex 2.91189 8.65607 8
      vertex 11.6895 -6.90325 8
      vertex 3.93515 9.03566 8
    endloop
  endfacet
  facet normal 0 0 1
    outer loop
      vertex 11.6895 -6.90325 8
      vertex 3.35663 -38 8
      vertex 7.02234 -53.7481 8
    endloop
  endfacet
  facet normal -0 0 1
    outer loop
      vertex 3.19235 -39.0373 8
      vertex 7.02234 -53.7481 8
      vertex 3.35663 -38 8
    endloop
  endfacet
  facet normal -0 0 1
    outer loop
      vertex 2.71557 -39.973 8
      vertex 7.02234 -53.7481 8
      vertex 3.19235 -39.0373 8
    endloop
  endfacet
  facet normal -0 0 1
    outer loop
      vertex 1.97298 -40.7156 8
      vertex 7.02234 -53.7481 8
      vertex 2.71557 -39.973 8
    endloop
  endfacet
  facet normal -0 0 1
    outer loop
      vertex 1.03726 -41.1923 8
      vertex 7.02234 -53.7481 8
      vertex 1.97298 -40.7156 8
    endloop
  endfacet
  facet normal -0 0 1
    outer loop
      vertex 0 -41.3566 8
      vertex 7.02234 -53.7481 8
      vertex 1.03726 -41.1923 8
    endloop
  endfacet
  facet normal 0 0 1
    outer loop
      vertex -1.03726 -41.1923 8
      vertex 7.02234 -53.7481 8
      vertex 0 -41.3566 8
    endloop
  endfacet
  facet normal -0 0 1
    outer loop
      vertex -11.5642 -40.7336 8
      vertex -1.03726 -41.1923 8
      vertex -1.97298 -40.7156 8
    endloop
  endfacet
  facet normal 0 0 1
    outer loop
      vertex -11.5642 -40.7336 8
      vertex -1.97298 -40.7156 8
      vertex -2.71557 -39.973 8
    endloop
  endfacet
  facet normal 0 0 1
    outer loop
      vertex -7.29857 -9.00774 8
      vertex -3.87108 5.82287 8
      vertex -4.35518 5.57285 8
    endloop
  endfacet
  facet normal 0 0 1
    outer loop
      vertex -2.71557 -36.027 8
      vertex -11.5642 -40.7336 8
      vertex -3.19235 -36.9627 8
    endloop
  endfacet
  facet normal 0 0 1
    outer loop
      vertex -1.03726 -41.1923 8
      vertex -11.5642 -40.7336 8
      vertex 7.02234 -53.7481 8
    endloop
  endfacet
  facet normal 0 0 1
    outer loop
      vertex -3.19235 -39.0373 8
      vertex -11.5642 -40.7336 8
      vertex -2.71557 -39.973 8
    endloop
  endfacet
  facet normal 0 0 1
    outer loop
      vertex -3.35663 -38 8
      vertex -11.5642 -40.7336 8
      vertex -3.19235 -39.0373 8
    endloop
  endfacet
  facet normal 0 0 1
    outer loop
      vertex -3.19235 -36.9627 8
      vertex -11.5642 -40.7336 8
      vertex -3.35663 -38 8
    endloop
  endfacet
  facet normal -0.0716444 -0.99743 0
    outer loop
      vertex -14.2167 -8.51082 0
      vertex -7.29857 -9.00774 8
      vertex -14.2167 -8.51082 8
    endloop
  endfacet
  facet normal -0.0716444 -0.99743 -0
    outer loop
      vertex -7.29857 -9.00774 8
      vertex -14.2167 -8.51082 0
      vertex -7.29857 -9.00774 0
    endloop
  endfacet
  facet normal -0.991082 0.133254 0
    outer loop
      vertex -11.5642 -40.7336 0
      vertex -7.29857 -9.00774 8
      vertex -7.29857 -9.00774 0
    endloop
  endfacet
  facet normal -0.991082 0.133254 0
    outer loop
      vertex -7.29857 -9.00774 8
      vertex -11.5642 -40.7336 0
      vertex -11.5642 -40.7336 8
    endloop
  endfacet
  facet normal -0.573576 -0.819152 0
    outer loop
      vertex -11.5642 -40.7336 0
      vertex 7.02234 -53.7481 8
      vertex -11.5642 -40.7336 8
    endloop
  endfacet
  facet normal -0.573576 -0.819152 -0
    outer loop
      vertex 7.02234 -53.7481 8
      vertex -11.5642 -40.7336 0
      vertex 7.02234 -53.7481 0
    endloop
  endfacet
  facet normal 0.995074 -0.0991386 0
    outer loop
      vertex 7.02234 -53.7481 8
      vertex 11.6895 -6.90325 0
      vertex 11.6895 -6.90325 8
    endloop
  endfacet
  facet normal 0.995074 -0.0991386 0
    outer loop
      vertex 11.6895 -6.90325 0
      vertex 7.02234 -53.7481 8
      vertex 7.02234 -53.7481 0
    endloop
  endfacet
  facet normal 0.339686 -0.940539 0
    outer loop
      vertex 11.6895 -6.90325 0
      vertex 50.0115 6.93717 8
      vertex 11.6895 -6.90325 8
    endloop
  endfacet
  facet normal 0.339686 -0.940539 0
    outer loop
      vertex 50.0115 6.93717 8
      vertex 11.6895 -6.90325 0
      vertex 50.0115 6.93717 0
    endloop
  endfacet
  facet normal 0.573577 0.819152 -0
    outer loop
      vertex 50.0115 6.93717 0
      vertex 32.0081 19.5432 8
      vertex 50.0115 6.93717 8
    endloop
  endfacet
  facet normal 0.573577 0.819152 0
    outer loop
      vertex 32.0081 19.5432 8
      vertex 50.0115 6.93717 0
      vertex 32.0081 19.5432 0
    endloop
  endfacet
  facet normal -0.351449 0.936207 0
    outer loop
      vertex 32.0081 19.5432 0
      vertex 6.14339 9.83369 8
      vertex 32.0081 19.5432 8
    endloop
  endfacet
  facet normal -0.351449 0.936207 0
    outer loop
      vertex 6.14339 9.83369 8
      vertex 32.0081 19.5432 0
      vertex 6.14339 9.83369 0
    endloop
  endfacet
  facet normal -0.337476 0.941334 0
    outer loop
      vertex 6.14339 9.83369 0
      vertex 5.01231 9.42819 8
      vertex 6.14339 9.83369 8
    endloop
  endfacet
  facet normal -0.337476 0.941334 0
    outer loop
      vertex 5.01231 9.42819 8
      vertex 6.14339 9.83369 0
      vertex 5.01231 9.42819 0
    endloop
  endfacet
  facet normal -0.342388 0.939559 0
    outer loop
      vertex 5.01231 9.42819 0
      vertex 3.93515 9.03566 8
      vertex 5.01231 9.42819 8
    endloop
  endfacet
  facet normal -0.342388 0.939559 0
    outer loop
      vertex 3.93515 9.03566 8
      vertex 5.01231 9.42819 0
      vertex 3.93515 9.03566 0
    endloop
  endfacet
  facet normal -0.347799 0.937569 0
    outer loop
      vertex 3.93515 9.03566 0
      vertex 2.91189 8.65607 8
      vertex 3.93515 9.03566 8
    endloop
  endfacet
  facet normal -0.347799 0.937569 0
    outer loop
      vertex 2.91189 8.65607 8
      vertex 3.93515 9.03566 0
      vertex 2.91189 8.65607 0
    endloop
  endfacet
  facet normal -0.353768 0.935333 0
    outer loop
      vertex 2.91189 8.65607 0
      vertex 1.94256 8.28945 8
      vertex 2.91189 8.65607 8
    endloop
  endfacet
  facet normal -0.353768 0.935333 0
    outer loop
      vertex 1.94256 8.28945 8
      vertex 2.91189 8.65607 0
      vertex 1.94256 8.28945 0
    endloop
  endfacet
  facet normal -0.36039 0.932802 0
    outer loop
      vertex 1.94256 8.28945 0
      vertex 1.02716 7.93578 8
      vertex 1.94256 8.28945 8
    endloop
  endfacet
  facet normal -0.36039 0.932802 0
    outer loop
      vertex 1.02716 7.93578 8
      vertex 1.94256 8.28945 0
      vertex 1.02716 7.93578 0
    endloop
  endfacet
  facet normal -0.367779 0.929913 0
    outer loop
      vertex 1.02716 7.93578 0
      vertex 0.165664 7.59506 8
      vertex 1.02716 7.93578 8
    endloop
  endfacet
  facet normal -0.367779 0.929913 0
    outer loop
      vertex 0.165664 7.59506 8
      vertex 1.02716 7.93578 0
      vertex 0.165664 7.59506 0
    endloop
  endfacet
  facet normal -0.376055 0.926597 0
    outer loop
      vertex 0.165664 7.59506 0
      vertex -0.641917 7.2673 8
      vertex 0.165664 7.59506 8
    endloop
  endfacet
  facet normal -0.376055 0.926597 0
    outer loop
      vertex -0.641917 7.2673 8
      vertex 0.165664 7.59506 0
      vertex -0.641917 7.2673 0
    endloop
  endfacet
  facet normal -0.385413 0.922744 0
    outer loop
      vertex -0.641917 7.2673 0
      vertex -1.39559 6.95251 8
      vertex -0.641917 7.2673 8
    endloop
  endfacet
  facet normal -0.385413 0.922744 0
    outer loop
      vertex -1.39559 6.95251 8
      vertex -0.641917 7.2673 0
      vertex -1.39559 6.95251 0
    endloop
  endfacet
  facet normal -0.396085 0.918214 0
    outer loop
      vertex -1.39559 6.95251 0
      vertex -2.09534 6.65066 8
      vertex -1.39559 6.95251 8
    endloop
  endfacet
  facet normal -0.396085 0.918214 0
    outer loop
      vertex -2.09534 6.65066 8
      vertex -1.39559 6.95251 0
      vertex -2.09534 6.65066 0
    endloop
  endfacet
  facet normal -0.408328 0.912835 0
    outer loop
      vertex -2.09534 6.65066 0
      vertex -2.74116 6.36177 8
      vertex -2.09534 6.65066 8
    endloop
  endfacet
  facet normal -0.408328 0.912835 0
    outer loop
      vertex -2.74116 6.36177 8
      vertex -2.09534 6.65066 0
      vertex -2.74116 6.36177 0
    endloop
  endfacet
  facet normal -0.422495 0.906365 0
    outer loop
      vertex -2.74116 6.36177 0
      vertex -3.33309 6.08585 8
      vertex -2.74116 6.36177 8
    endloop
  endfacet
  facet normal -0.422495 0.906365 0
    outer loop
      vertex -3.33309 6.08585 8
      vertex -2.74116 6.36177 0
      vertex -3.33309 6.08585 0
    endloop
  endfacet
  facet normal -0.439163 0.898408 0
    outer loop
      vertex -3.33309 6.08585 0
      vertex -3.87108 5.82287 8
      vertex -3.33309 6.08585 8
    endloop
  endfacet
  facet normal -0.439163 0.898408 0
    outer loop
      vertex -3.87108 5.82287 8
      vertex -3.33309 6.08585 0
      vertex -3.87108 5.82287 0
    endloop
  endfacet
  facet normal -0.458877 0.8885 0
    outer loop
      vertex -3.87108 5.82287 0
      vertex -4.35518 5.57285 8
      vertex -3.87108 5.82287 8
    endloop
  endfacet
  facet normal -0.458877 0.8885 0
    outer loop
      vertex -4.35518 5.57285 8
      vertex -3.87108 5.82287 0
      vertex -4.35518 5.57285 0
    endloop
  endfacet
  facet normal 0.819152 -0.573576 0
    outer loop
      vertex -4.35518 5.57285 8
      vertex 14.1719 32.0323 0
      vertex 14.1719 32.0323 8
    endloop
  endfacet
  facet normal 0.819152 -0.573576 0
    outer loop
      vertex 14.1719 32.0323 0
      vertex -4.35518 5.57285 8
      vertex -4.35518 5.57285 0
    endloop
  endfacet
  facet normal 0.573577 0.819152 -0
    outer loop
      vertex 14.1719 32.0323 0
      vertex -2.37331 43.6174 8
      vertex 14.1719 32.0323 8
    endloop
  endfacet
  facet normal 0.573577 0.819152 0
    outer loop
      vertex -2.37331 43.6174 8
      vertex 14.1719 32.0323 0
      vertex -2.37331 43.6174 0
    endloop
  endfacet
  facet normal -0.819152 0.573576 0
    outer loop
      vertex -45.029 -17.3013 0
      vertex -2.37331 43.6174 8
      vertex -2.37331 43.6174 0
    endloop
  endfacet
  facet normal -0.819152 0.573576 0
    outer loop
      vertex -2.37331 43.6174 8
      vertex -45.029 -17.3013 0
      vertex -45.029 -17.3013 8
    endloop
  endfacet
  facet normal -0.573576 -0.819152 0
    outer loop
      vertex -45.029 -17.3013 0
      vertex -28.4838 -28.8864 8
      vertex -45.029 -17.3013 8
    endloop
  endfacet
  facet normal -0.573576 -0.819152 -0
    outer loop
      vertex -28.4838 -28.8864 8
      vertex -45.029 -17.3013 0
      vertex -28.4838 -28.8864 0
    endloop
  endfacet
  facet normal 0.819152 -0.573576 0
    outer loop
      vertex -28.4838 -28.8864 8
      vertex -14.2167 -8.51082 0
      vertex -14.2167 -8.51082 8
    endloop
  endfacet
  facet normal 0.819152 -0.573576 0
    outer loop
      vertex -14.2167 -8.51082 0
      vertex -28.4838 -28.8864 8
      vertex -28.4838 -28.8864 0
    endloop
  endfacet
  facet normal -0.824672 -0.130615 0.550323
    outer loop
      vertex 3.35663 -38 8
      vertex 1.7119 -37.4438 5.66735
      vertex 1.8 -38 5.66734
    endloop
  endfacet
  facet normal -0.824672 -0.130615 0.550323
    outer loop
      vertex 1.7119 -37.4438 5.66735
      vertex 3.35663 -38 8
      vertex 3.19235 -36.9627 8
    endloop
  endfacet
  facet normal 0.824672 -0.130615 0.550323
    outer loop
      vertex -3.35663 -38 8
      vertex -1.7119 -37.4438 5.66735
      vertex -3.19235 -36.9627 8
    endloop
  endfacet
  facet normal 0.824672 -0.130615 0.550323
    outer loop
      vertex -1.7119 -37.4438 5.66735
      vertex -3.35663 -38 8
      vertex -1.8 -38 5.66734
    endloop
  endfacet
  facet normal -0.824672 0.130616 0.550323
    outer loop
      vertex 1.7119 -38.5562 5.66734
      vertex 3.35663 -38 8
      vertex 1.8 -38 5.66734
    endloop
  endfacet
  facet normal -0.824672 0.130615 0.550323
    outer loop
      vertex 3.35663 -38 8
      vertex 1.7119 -38.5562 5.66734
      vertex 3.19235 -39.0373 8
    endloop
  endfacet
  facet normal 0.130617 -0.824672 0.550323
    outer loop
      vertex -1.03726 -34.8077 8
      vertex -0.556231 -36.2881 5.66735
      vertex 0 -34.6434 8
    endloop
  endfacet
  facet normal 0.130614 -0.824672 0.550323
    outer loop
      vertex 0 -34.6434 8
      vertex -0.556231 -36.2881 5.66735
      vertex 0 -36.2 5.66734
    endloop
  endfacet
  facet normal 0.130614 0.824673 0.550322
    outer loop
      vertex 0 -41.3566 8
      vertex -0.556231 -39.7119 5.66734
      vertex -1.03726 -41.1923 8
    endloop
  endfacet
  facet normal 0.130614 0.824673 0.550322
    outer loop
      vertex -0.556231 -39.7119 5.66734
      vertex 0 -41.3566 8
      vertex 0 -39.8 5.66734
    endloop
  endfacet
  facet normal 0.590401 -0.590399 0.550323
    outer loop
      vertex -2.71557 -36.027 8
      vertex -1.05801 -36.5438 5.66734
      vertex -1.97298 -35.2844 8
    endloop
  endfacet
  facet normal 0.5904 -0.590401 0.550323
    outer loop
      vertex -1.05801 -36.5438 5.66734
      vertex -2.71557 -36.027 8
      vertex -1.45623 -36.942 5.66734
    endloop
  endfacet
  facet normal -0.590401 -0.590399 0.550323
    outer loop
      vertex 1.05801 -36.5438 5.66734
      vertex 2.71557 -36.027 8
      vertex 1.97298 -35.2844 8
    endloop
  endfacet
  facet normal -0.5904 -0.590401 0.550323
    outer loop
      vertex 2.71557 -36.027 8
      vertex 1.05801 -36.5438 5.66734
      vertex 1.45623 -36.942 5.66734
    endloop
  endfacet
  facet normal -0.379061 0.743947 0.550322
    outer loop
      vertex 1.05801 -39.4562 5.66734
      vertex 1.03726 -41.1923 8
      vertex 1.97298 -40.7156 8
    endloop
  endfacet
  facet normal -0.379062 0.743947 0.550322
    outer loop
      vertex 1.03726 -41.1923 8
      vertex 1.05801 -39.4562 5.66734
      vertex 0.556231 -39.7119 5.66734
    endloop
  endfacet
  facet normal 0.743948 0.379059 0.550323
    outer loop
      vertex -3.19235 -39.0373 8
      vertex -1.45623 -39.058 5.66734
      vertex -1.7119 -38.5562 5.66734
    endloop
  endfacet
  facet normal 0.743948 0.379061 0.550323
    outer loop
      vertex -2.71557 -39.973 8
      vertex -1.45623 -39.058 5.66734
      vertex -3.19235 -39.0373 8
    endloop
  endfacet
  facet normal 0.743948 -0.379061 0.550323
    outer loop
      vertex -3.19235 -36.9627 8
      vertex -1.45623 -36.942 5.66734
      vertex -2.71557 -36.027 8
    endloop
  endfacet
  facet normal 0.743948 -0.379061 0.550323
    outer loop
      vertex -1.45623 -36.942 5.66734
      vertex -3.19235 -36.9627 8
      vertex -1.7119 -37.4438 5.66735
    endloop
  endfacet
  facet normal 0.379059 -0.743948 0.550323
    outer loop
      vertex -1.05801 -36.5438 5.66734
      vertex -1.03726 -34.8077 8
      vertex -1.97298 -35.2844 8
    endloop
  endfacet
  facet normal 0.379061 -0.743947 0.550322
    outer loop
      vertex -1.03726 -34.8077 8
      vertex -1.05801 -36.5438 5.66734
      vertex -0.556231 -36.2881 5.66735
    endloop
  endfacet
  facet normal -0.379061 -0.743947 0.550322
    outer loop
      vertex 1.05801 -36.5438 5.66734
      vertex 1.03726 -34.8077 8
      vertex 0.556231 -36.2881 5.66735
    endloop
  endfacet
  facet normal -0.379059 -0.743948 0.550323
    outer loop
      vertex 1.03726 -34.8077 8
      vertex 1.05801 -36.5438 5.66734
      vertex 1.97298 -35.2844 8
    endloop
  endfacet
  facet normal -0.743948 -0.379061 0.550323
    outer loop
      vertex 1.45623 -36.942 5.66734
      vertex 3.19235 -36.9627 8
      vertex 2.71557 -36.027 8
    endloop
  endfacet
  facet normal -0.743948 -0.379061 0.550323
    outer loop
      vertex 3.19235 -36.9627 8
      vertex 1.45623 -36.942 5.66734
      vertex 1.7119 -37.4438 5.66735
    endloop
  endfacet
  facet normal -0.743948 0.379059 0.550323
    outer loop
      vertex 1.45623 -39.058 5.66734
      vertex 3.19235 -39.0373 8
      vertex 1.7119 -38.5562 5.66734
    endloop
  endfacet
  facet normal -0.743948 0.379061 0.550323
    outer loop
      vertex 3.19235 -39.0373 8
      vertex 1.45623 -39.058 5.66734
      vertex 2.71557 -39.973 8
    endloop
  endfacet
  facet normal -0.130614 0.824673 0.550322
    outer loop
      vertex 0.556231 -39.7119 5.66734
      vertex 0 -41.3566 8
      vertex 1.03726 -41.1923 8
    endloop
  endfacet
  facet normal -0.130614 0.824673 0.550322
    outer loop
      vertex 0 -41.3566 8
      vertex 0.556231 -39.7119 5.66734
      vertex 0 -39.8 5.66734
    endloop
  endfacet
  facet normal 0.379062 0.743947 0.550322
    outer loop
      vertex -1.05801 -39.4562 5.66734
      vertex -1.03726 -41.1923 8
      vertex -0.556231 -39.7119 5.66734
    endloop
  endfacet
  facet normal 0.379061 0.743947 0.550322
    outer loop
      vertex -1.03726 -41.1923 8
      vertex -1.05801 -39.4562 5.66734
      vertex -1.97298 -40.7156 8
    endloop
  endfacet
  facet normal 0.824672 0.130616 0.550323
    outer loop
      vertex -3.35663 -38 8
      vertex -1.7119 -38.5562 5.66734
      vertex -1.8 -38 5.66734
    endloop
  endfacet
  facet normal 0.824672 0.130615 0.550323
    outer loop
      vertex -1.7119 -38.5562 5.66734
      vertex -3.35663 -38 8
      vertex -3.19235 -39.0373 8
    endloop
  endfacet
  facet normal -0.130617 -0.824672 0.550323
    outer loop
      vertex 0 -34.6434 8
      vertex 0.556231 -36.2881 5.66735
      vertex 1.03726 -34.8077 8
    endloop
  endfacet
  facet normal -0.130614 -0.824672 0.550323
    outer loop
      vertex 0.556231 -36.2881 5.66735
      vertex 0 -34.6434 8
      vertex 0 -36.2 5.66734
    endloop
  endfacet
  facet normal -0.5904 0.590401 0.550323
    outer loop
      vertex 1.45623 -39.058 5.66734
      vertex 1.97298 -40.7156 8
      vertex 2.71557 -39.973 8
    endloop
  endfacet
  facet normal -0.5904 0.590401 0.550322
    outer loop
      vertex 1.97298 -40.7156 8
      vertex 1.45623 -39.058 5.66734
      vertex 1.05801 -39.4562 5.66734
    endloop
  endfacet
  facet normal 0.5904 0.590401 0.550322
    outer loop
      vertex -1.45623 -39.058 5.66734
      vertex -1.97298 -40.7156 8
      vertex -1.05801 -39.4562 5.66734
    endloop
  endfacet
  facet normal 0.5904 0.590401 0.550323
    outer loop
      vertex -1.97298 -40.7156 8
      vertex -1.45623 -39.058 5.66734
      vertex -2.71557 -39.973 8
    endloop
  endfacet
  facet normal -0.987689 -0.156433 2.11486e-08
    outer loop
      vertex 1.8 -38 0.0999994
      vertex 1.7119 -37.4438 5.66735
      vertex 1.7119 -37.4438 0.0999994
    endloop
  endfacet
  facet normal -0.987689 -0.156433 0
    outer loop
      vertex 1.7119 -37.4438 5.66735
      vertex 1.8 -38 0.0999994
      vertex 1.8 -38 5.66734
    endloop
  endfacet
  facet normal 0.987689 -0.156433 0
    outer loop
      vertex -1.8 -38 5.66734
      vertex -1.7119 -37.4438 0.0999994
      vertex -1.7119 -37.4438 5.66735
    endloop
  endfacet
  facet normal 0.987689 -0.156433 0
    outer loop
      vertex -1.7119 -37.4438 0.0999994
      vertex -1.8 -38 5.66734
      vertex -1.8 -38 0.0999994
    endloop
  endfacet
  facet normal 0.156432 -0.987689 0
    outer loop
      vertex -0.556231 -36.2881 0.0999994
      vertex 0 -36.2 5.66734
      vertex -0.556231 -36.2881 5.66735
    endloop
  endfacet
  facet normal 0.156432 -0.987689 0
    outer loop
      vertex 0 -36.2 5.66734
      vertex -0.556231 -36.2881 0.0999994
      vertex 0 -36.2 0.0999994
    endloop
  endfacet
  facet normal -0.156432 0.987689 0
    outer loop
      vertex 0.556231 -39.7119 0.0999994
      vertex 0 -39.8 5.66734
      vertex 0.556231 -39.7119 5.66734
    endloop
  endfacet
  facet normal -0.156432 0.987689 0
    outer loop
      vertex 0 -39.8 5.66734
      vertex 0.556231 -39.7119 0.0999994
      vertex 0 -39.8 0.0999994
    endloop
  endfacet
  facet normal -0.891007 0.453989 0
    outer loop
      vertex 1.45623 -39.058 0.0999994
      vertex 1.7119 -38.5562 5.66734
      vertex 1.7119 -38.5562 0.0999994
    endloop
  endfacet
  facet normal -0.891007 0.453989 0
    outer loop
      vertex 1.7119 -38.5562 5.66734
      vertex 1.45623 -39.058 0.0999994
      vertex 1.45623 -39.058 5.66734
    endloop
  endfacet
  facet normal -0.453993 -0.891005 9.721e-09
    outer loop
      vertex 0.556231 -36.2881 5.66735
      vertex 0.556231 -36.2881 0.0999994
      vertex 1.05801 -36.5438 5.66734
    endloop
  endfacet
  facet normal -0.453993 -0.891005 -0
    outer loop
      vertex 1.05801 -36.5438 5.66734
      vertex 0.556231 -36.2881 0.0999994
      vertex 1.05801 -36.5438 0.0999994
    endloop
  endfacet
  facet normal -0.891006 -0.453992 0
    outer loop
      vertex 1.7119 -37.4438 0.0999994
      vertex 1.45623 -36.942 5.66734
      vertex 1.45623 -36.942 0.0999994
    endloop
  endfacet
  facet normal -0.891006 -0.453992 0
    outer loop
      vertex 1.45623 -36.942 5.66734
      vertex 1.7119 -37.4438 0.0999994
      vertex 1.7119 -37.4438 5.66735
    endloop
  endfacet
  facet normal -0.156432 -0.987689 0
    outer loop
      vertex 0 -36.2 0.0999994
      vertex 0.556231 -36.2881 5.66735
      vertex 0 -36.2 5.66734
    endloop
  endfacet
  facet normal -0.156432 -0.987689 -0
    outer loop
      vertex 0.556231 -36.2881 5.66735
      vertex 0 -36.2 0.0999994
      vertex 0.556231 -36.2881 0.0999994
    endloop
  endfacet
  facet normal 0.707106 -0.707107 0
    outer loop
      vertex -1.45623 -36.942 5.66734
      vertex -1.45623 -36.942 0.0999994
      vertex -1.05801 -36.5438 5.66734
    endloop
  endfacet
  facet normal 0.707106 -0.707108 4.54222e-08
    outer loop
      vertex -1.05801 -36.5438 0.0999994
      vertex -1.05801 -36.5438 5.66734
      vertex -1.45623 -36.942 0.0999994
    endloop
  endfacet
  facet normal 0.891006 -0.453992 0
    outer loop
      vertex -1.7119 -37.4438 5.66735
      vertex -1.45623 -36.942 0.0999994
      vertex -1.45623 -36.942 5.66734
    endloop
  endfacet
  facet normal 0.891006 -0.453992 0
    outer loop
      vertex -1.45623 -36.942 0.0999994
      vertex -1.7119 -37.4438 5.66735
      vertex -1.7119 -37.4438 0.0999994
    endloop
  endfacet
  facet normal 0.453993 -0.891005 0
    outer loop
      vertex -1.05801 -36.5438 0.0999994
      vertex -0.556231 -36.2881 5.66735
      vertex -1.05801 -36.5438 5.66734
    endloop
  endfacet
  facet normal 0.453993 -0.891005 9.721e-09
    outer loop
      vertex -0.556231 -36.2881 0.0999994
      vertex -0.556231 -36.2881 5.66735
      vertex -1.05801 -36.5438 0.0999994
    endloop
  endfacet
  facet normal 0 0 1
    outer loop
      vertex 1.7119 -37.4438 0.0999994
      vertex 1.7119 -38.5562 0.0999994
      vertex 1.8 -38 0.0999994
    endloop
  endfacet
  facet normal 0 0 1
    outer loop
      vertex 1.45623 -36.942 0.0999994
      vertex 1.7119 -38.5562 0.0999994
      vertex 1.7119 -37.4438 0.0999994
    endloop
  endfacet
  facet normal 0 0 1
    outer loop
      vertex 1.45623 -36.942 0.0999994
      vertex 1.45623 -39.058 0.0999994
      vertex 1.7119 -38.5562 0.0999994
    endloop
  endfacet
  facet normal 0 0 1
    outer loop
      vertex 1.05801 -36.5438 0.0999994
      vertex 1.45623 -39.058 0.0999994
      vertex 1.45623 -36.942 0.0999994
    endloop
  endfacet
  facet normal 0 0 1
    outer loop
      vertex 1.05801 -36.5438 0.0999994
      vertex 1.05801 -39.4562 0.0999994
      vertex 1.45623 -39.058 0.0999994
    endloop
  endfacet
  facet normal 0 0 1
    outer loop
      vertex 0.556231 -36.2881 0.0999994
      vertex 1.05801 -39.4562 0.0999994
      vertex 1.05801 -36.5438 0.0999994
    endloop
  endfacet
  facet normal 0 0 1
    outer loop
      vertex 0.556231 -36.2881 0.0999994
      vertex 0.556231 -39.7119 0.0999994
      vertex 1.05801 -39.4562 0.0999994
    endloop
  endfacet
  facet normal 0 0 1
    outer loop
      vertex 0 -36.2 0.0999994
      vertex 0.556231 -39.7119 0.0999994
      vertex 0.556231 -36.2881 0.0999994
    endloop
  endfacet
  facet normal 0 0 1
    outer loop
      vertex 0 -36.2 0.0999994
      vertex 0 -39.8 0.0999994
      vertex 0.556231 -39.7119 0.0999994
    endloop
  endfacet
  facet normal -0 0 1
    outer loop
      vertex -0.556231 -36.2881 0.0999994
      vertex 0 -39.8 0.0999994
      vertex 0 -36.2 0.0999994
    endloop
  endfacet
  facet normal 0 0 1
    outer loop
      vertex -0.556231 -36.2881 0.0999994
      vertex -0.556231 -39.7119 0.0999994
      vertex 0 -39.8 0.0999994
    endloop
  endfacet
  facet normal -0 0 1
    outer loop
      vertex -1.05801 -36.5438 0.0999994
      vertex -0.556231 -39.7119 0.0999994
      vertex -0.556231 -36.2881 0.0999994
    endloop
  endfacet
  facet normal 0 0 1
    outer loop
      vertex -1.05801 -36.5438 0.0999994
      vertex -1.05801 -39.4562 0.0999994
      vertex -0.556231 -39.7119 0.0999994
    endloop
  endfacet
  facet normal -0 0 1
    outer loop
      vertex -1.45623 -36.942 0.0999994
      vertex -1.05801 -39.4562 0.0999994
      vertex -1.05801 -36.5438 0.0999994
    endloop
  endfacet
  facet normal 0 0 1
    outer loop
      vertex -1.45623 -36.942 0.0999994
      vertex -1.45623 -39.058 0.0999994
      vertex -1.05801 -39.4562 0.0999994
    endloop
  endfacet
  facet normal -0 0 1
    outer loop
      vertex -1.7119 -37.4438 0.0999994
      vertex -1.45623 -39.058 0.0999994
      vertex -1.45623 -36.942 0.0999994
    endloop
  endfacet
  facet normal 0 0 1
    outer loop
      vertex -1.7119 -37.4438 0.0999994
      vertex -1.7119 -38.5562 0.0999994
      vertex -1.45623 -39.058 0.0999994
    endloop
  endfacet
  facet normal 0 -0 1
    outer loop
      vertex -1.7119 -38.5562 0.0999994
      vertex -1.7119 -37.4438 0.0999994
      vertex -1.8 -38 0.0999994
    endloop
  endfacet
  facet normal -0.707106 -0.707107 4.54222e-08
    outer loop
      vertex 1.05801 -36.5438 0.0999994
      vertex 1.45623 -36.942 5.66734
      vertex 1.05801 -36.5438 5.66734
    endloop
  endfacet
  facet normal -0.707106 -0.707108 -0
    outer loop
      vertex 1.45623 -36.942 5.66734
      vertex 1.05801 -36.5438 0.0999994
      vertex 1.45623 -36.942 0.0999994
    endloop
  endfacet
  facet normal -0.453993 0.891005 0
    outer loop
      vertex 1.05801 -39.4562 0.0999994
      vertex 0.556231 -39.7119 5.66734
      vertex 1.05801 -39.4562 5.66734
    endloop
  endfacet
  facet normal -0.453993 0.891005 0
    outer loop
      vertex 0.556231 -39.7119 5.66734
      vertex 1.05801 -39.4562 0.0999994
      vertex 0.556231 -39.7119 0.0999994
    endloop
  endfacet
  facet normal -0.987688 0.156434 0
    outer loop
      vertex 1.7119 -38.5562 0.0999994
      vertex 1.8 -38 5.66734
      vertex 1.8 -38 0.0999994
    endloop
  endfacet
  facet normal -0.987688 0.156434 0
    outer loop
      vertex 1.8 -38 5.66734
      vertex 1.7119 -38.5562 0.0999994
      vertex 1.7119 -38.5562 5.66734
    endloop
  endfacet
  facet normal -0.707106 0.707107 -3.02815e-08
    outer loop
      vertex 1.45623 -39.058 5.66734
      vertex 1.45623 -39.058 0.0999994
      vertex 1.05801 -39.4562 5.66734
    endloop
  endfacet
  facet normal -0.707106 0.707108 3.02814e-08
    outer loop
      vertex 1.05801 -39.4562 0.0999994
      vertex 1.05801 -39.4562 5.66734
      vertex 1.45623 -39.058 0.0999994
    endloop
  endfacet
  facet normal 0.891007 0.453989 0
    outer loop
      vertex -1.45623 -39.058 5.66734
      vertex -1.7119 -38.5562 0.0999994
      vertex -1.7119 -38.5562 5.66734
    endloop
  endfacet
  facet normal 0.891007 0.453989 0
    outer loop
      vertex -1.7119 -38.5562 0.0999994
      vertex -1.45623 -39.058 5.66734
      vertex -1.45623 -39.058 0.0999994
    endloop
  endfacet
  facet normal 0.987688 0.156434 0
    outer loop
      vertex -1.7119 -38.5562 5.66734
      vertex -1.8 -38 0.0999994
      vertex -1.8 -38 5.66734
    endloop
  endfacet
  facet normal 0.987688 0.156434 0
    outer loop
      vertex -1.8 -38 0.0999994
      vertex -1.7119 -38.5562 5.66734
      vertex -1.7119 -38.5562 0.0999994
    endloop
  endfacet
  facet normal 0.156432 0.987689 -0
    outer loop
      vertex 0 -39.8 0.0999994
      vertex -0.556231 -39.7119 5.66734
      vertex 0 -39.8 5.66734
    endloop
  endfacet
  facet normal 0.156432 0.987689 0
    outer loop
      vertex -0.556231 -39.7119 5.66734
      vertex 0 -39.8 0.0999994
      vertex -0.556231 -39.7119 0.0999994
    endloop
  endfacet
  facet normal 0.707106 0.707107 3.02815e-08
    outer loop
      vertex -1.05801 -39.4562 5.66734
      vertex -1.05801 -39.4562 0.0999994
      vertex -1.45623 -39.058 5.66734
    endloop
  endfacet
  facet normal 0.707106 0.707108 -3.02814e-08
    outer loop
      vertex -1.45623 -39.058 0.0999994
      vertex -1.45623 -39.058 5.66734
      vertex -1.05801 -39.4562 0.0999994
    endloop
  endfacet
  facet normal 0.453993 0.891005 -0
    outer loop
      vertex -0.556231 -39.7119 0.0999994
      vertex -1.05801 -39.4562 5.66734
      vertex -0.556231 -39.7119 5.66734
    endloop
  endfacet
  facet normal 0.453993 0.891005 0
    outer loop
      vertex -1.05801 -39.4562 5.66734
      vertex -0.556231 -39.7119 0.0999994
      vertex -1.05801 -39.4562 0.0999994
    endloop
  endfacet
  facet normal -0.824672 -0.130615 0.550323
    outer loop
      vertex 3.35663 30 8
      vertex 1.7119 30.5562 5.66734
      vertex 1.8 30 5.66734
    endloop
  endfacet
  facet normal -0.824672 -0.130615 0.550323
    outer loop
      vertex 1.7119 30.5562 5.66734
      vertex 3.35663 30 8
      vertex 3.19235 31.0373 8
    endloop
  endfacet
  facet normal 0.824672 0.130615 0.550323
    outer loop
      vertex -3.35663 30 8
      vertex -1.7119 29.4438 5.66735
      vertex -1.8 30 5.66734
    endloop
  endfacet
  facet normal 0.824672 0.130615 0.550323
    outer loop
      vertex -1.7119 29.4438 5.66735
      vertex -3.35663 30 8
      vertex -3.19235 28.9627 8
    endloop
  endfacet
  facet normal -0.824672 0.130615 0.550323
    outer loop
      vertex 1.7119 29.4438 5.66735
      vertex 3.35663 30 8
      vertex 1.8 30 5.66734
    endloop
  endfacet
  facet normal -0.824672 0.130615 0.550323
    outer loop
      vertex 3.35663 30 8
      vertex 1.7119 29.4438 5.66735
      vertex 3.19235 28.9627 8
    endloop
  endfacet
  facet normal 0.130614 -0.824673 0.550322
    outer loop
      vertex -0.556231 31.7119 5.66734
      vertex 0 33.3566 8
      vertex -1.03726 33.1923 8
    endloop
  endfacet
  facet normal 0.130614 -0.824673 0.550322
    outer loop
      vertex 0 33.3566 8
      vertex -0.556231 31.7119 5.66734
      vertex 0 31.8 5.66734
    endloop
  endfacet
  facet normal -0.130616 0.824672 0.550323
    outer loop
      vertex 1.03726 26.8077 8
      vertex 0.556231 28.2881 5.66735
      vertex 0 26.6434 8
    endloop
  endfacet
  facet normal -0.130614 0.824672 0.550323
    outer loop
      vertex 0 26.6434 8
      vertex 0.556231 28.2881 5.66735
      vertex 0 28.2 5.66734
    endloop
  endfacet
  facet normal 0.743948 -0.37906 0.550323
    outer loop
      vertex -3.19235 31.0373 8
      vertex -1.45623 31.058 5.66734
      vertex -2.71557 31.973 8
    endloop
  endfacet
  facet normal 0.743948 -0.37906 0.550323
    outer loop
      vertex -1.45623 31.058 5.66734
      vertex -3.19235 31.0373 8
      vertex -1.7119 30.5562 5.66734
    endloop
  endfacet
  facet normal -0.5904 -0.590401 0.550322
    outer loop
      vertex 1.45623 31.058 5.66734
      vertex 1.97298 32.7156 8
      vertex 1.05801 31.4562 5.66734
    endloop
  endfacet
  facet normal -0.5904 -0.590401 0.550323
    outer loop
      vertex 1.97298 32.7156 8
      vertex 1.45623 31.058 5.66734
      vertex 2.71557 31.973 8
    endloop
  endfacet
  facet normal -0.5904 0.590401 0.550323
    outer loop
      vertex 1.05801 28.5438 5.66734
      vertex 2.71557 28.027 8
      vertex 1.45623 28.942 5.66734
    endloop
  endfacet
  facet normal -0.5904 0.5904 0.550323
    outer loop
      vertex 2.71557 28.027 8
      vertex 1.05801 28.5438 5.66734
      vertex 1.97298 27.2844 8
    endloop
  endfacet
  facet normal 0.5904 0.590401 0.550323
    outer loop
      vertex -2.71557 28.027 8
      vertex -1.05801 28.5438 5.66734
      vertex -1.45623 28.942 5.66734
    endloop
  endfacet
  facet normal 0.5904 0.5904 0.550323
    outer loop
      vertex -1.05801 28.5438 5.66734
      vertex -2.71557 28.027 8
      vertex -1.97298 27.2844 8
    endloop
  endfacet
  facet normal 0.824672 -0.130615 0.550323
    outer loop
      vertex -3.35663 30 8
      vertex -1.7119 30.5562 5.66734
      vertex -3.19235 31.0373 8
    endloop
  endfacet
  facet normal 0.824672 -0.130615 0.550323
    outer loop
      vertex -1.7119 30.5562 5.66734
      vertex -3.35663 30 8
      vertex -1.8 30 5.66734
    endloop
  endfacet
  facet normal 0.379061 -0.743947 0.550322
    outer loop
      vertex -1.05801 31.4562 5.66734
      vertex -1.03726 33.1923 8
      vertex -1.97298 32.7156 8
    endloop
  endfacet
  facet normal 0.379062 -0.743947 0.550322
    outer loop
      vertex -1.03726 33.1923 8
      vertex -1.05801 31.4562 5.66734
      vertex -0.556231 31.7119 5.66734
    endloop
  endfacet
  facet normal -0.379062 -0.743947 0.550322
    outer loop
      vertex 1.05801 31.4562 5.66734
      vertex 1.03726 33.1923 8
      vertex 0.556231 31.7119 5.66734
    endloop
  endfacet
  facet normal -0.379061 -0.743947 0.550322
    outer loop
      vertex 1.03726 33.1923 8
      vertex 1.05801 31.4562 5.66734
      vertex 1.97298 32.7156 8
    endloop
  endfacet
  facet normal -0.743948 -0.37906 0.550323
    outer loop
      vertex 1.45623 31.058 5.66734
      vertex 3.19235 31.0373 8
      vertex 2.71557 31.973 8
    endloop
  endfacet
  facet normal -0.743948 -0.37906 0.550323
    outer loop
      vertex 3.19235 31.0373 8
      vertex 1.45623 31.058 5.66734
      vertex 1.7119 30.5562 5.66734
    endloop
  endfacet
  facet normal -0.743948 0.379061 0.550323
    outer loop
      vertex 1.45623 28.942 5.66734
      vertex 3.19235 28.9627 8
      vertex 1.7119 29.4438 5.66735
    endloop
  endfacet
  facet normal -0.743948 0.379061 0.550323
    outer loop
      vertex 3.19235 28.9627 8
      vertex 1.45623 28.942 5.66734
      vertex 2.71557 28.027 8
    endloop
  endfacet
  facet normal -0.37906 0.743948 0.550323
    outer loop
      vertex 1.05801 28.5438 5.66734
      vertex 1.03726 26.8077 8
      vertex 1.97298 27.2844 8
    endloop
  endfacet
  facet normal -0.379061 0.743947 0.550322
    outer loop
      vertex 1.03726 26.8077 8
      vertex 1.05801 28.5438 5.66734
      vertex 0.556231 28.2881 5.66735
    endloop
  endfacet
  facet normal 0.379061 0.743947 0.550322
    outer loop
      vertex -1.05801 28.5438 5.66734
      vertex -1.03726 26.8077 8
      vertex -0.556231 28.2881 5.66735
    endloop
  endfacet
  facet normal 0.37906 0.743948 0.550323
    outer loop
      vertex -1.03726 26.8077 8
      vertex -1.05801 28.5438 5.66734
      vertex -1.97298 27.2844 8
    endloop
  endfacet
  facet normal 0.743948 0.379061 0.550323
    outer loop
      vertex -3.19235 28.9627 8
      vertex -1.45623 28.942 5.66734
      vertex -1.7119 29.4438 5.66735
    endloop
  endfacet
  facet normal 0.743948 0.379061 0.550323
    outer loop
      vertex -1.45623 28.942 5.66734
      vertex -3.19235 28.9627 8
      vertex -2.71557 28.027 8
    endloop
  endfacet
  facet normal 0.5904 -0.590401 0.550323
    outer loop
      vertex -1.45623 31.058 5.66734
      vertex -1.97298 32.7156 8
      vertex -2.71557 31.973 8
    endloop
  endfacet
  facet normal 0.5904 -0.590401 0.550322
    outer loop
      vertex -1.97298 32.7156 8
      vertex -1.45623 31.058 5.66734
      vertex -1.05801 31.4562 5.66734
    endloop
  endfacet
  facet normal -0.130614 -0.824673 0.550322
    outer loop
      vertex 0 33.3566 8
      vertex 0.556231 31.7119 5.66734
      vertex 1.03726 33.1923 8
    endloop
  endfacet
  facet normal -0.130614 -0.824673 0.550322
    outer loop
      vertex 0.556231 31.7119 5.66734
      vertex 0 33.3566 8
      vertex 0 31.8 5.66734
    endloop
  endfacet
  facet normal 0.130616 0.824672 0.550323
    outer loop
      vertex 0 26.6434 8
      vertex -0.556231 28.2881 5.66735
      vertex -1.03726 26.8077 8
    endloop
  endfacet
  facet normal 0.130614 0.824672 0.550323
    outer loop
      vertex -0.556231 28.2881 5.66735
      vertex 0 26.6434 8
      vertex 0 28.2 5.66734
    endloop
  endfacet
  facet normal -0.987689 -0.156433 0
    outer loop
      vertex 1.8 30 0.0999994
      vertex 1.7119 30.5562 5.66734
      vertex 1.7119 30.5562 0.0999994
    endloop
  endfacet
  facet normal -0.987689 -0.156433 0
    outer loop
      vertex 1.7119 30.5562 5.66734
      vertex 1.8 30 0.0999994
      vertex 1.8 30 5.66734
    endloop
  endfacet
  facet normal 0.156432 -0.987689 0
    outer loop
      vertex -0.556231 31.7119 0.0999994
      vertex 0 31.8 5.66734
      vertex -0.556231 31.7119 5.66734
    endloop
  endfacet
  facet normal 0.156432 -0.987689 0
    outer loop
      vertex 0 31.8 5.66734
      vertex -0.556231 31.7119 0.0999994
      vertex 0 31.8 0.0999994
    endloop
  endfacet
  facet normal -0.156432 0.987689 0
    outer loop
      vertex 0.556231 28.2881 0.0999994
      vertex 0 28.2 5.66734
      vertex 0.556231 28.2881 5.66735
    endloop
  endfacet
  facet normal -0.156432 0.987689 0
    outer loop
      vertex 0 28.2 5.66734
      vertex 0.556231 28.2881 0.0999994
      vertex 0 28.2 0.0999994
    endloop
  endfacet
  facet normal 0.453993 0.891005 9.721e-09
    outer loop
      vertex -0.556231 28.2881 5.66735
      vertex -0.556231 28.2881 0.0999994
      vertex -1.05801 28.5438 5.66734
    endloop
  endfacet
  facet normal 0.453993 0.891005 0
    outer loop
      vertex -1.05801 28.5438 5.66734
      vertex -0.556231 28.2881 0.0999994
      vertex -1.05801 28.5438 0.0999994
    endloop
  endfacet
  facet normal -0.453993 -0.891005 0
    outer loop
      vertex 0.556231 31.7119 0.0999994
      vertex 1.05801 31.4562 5.66734
      vertex 0.556231 31.7119 5.66734
    endloop
  endfacet
  facet normal -0.453993 -0.891005 -0
    outer loop
      vertex 1.05801 31.4562 5.66734
      vertex 0.556231 31.7119 0.0999994
      vertex 1.05801 31.4562 0.0999994
    endloop
  endfacet
  facet normal -0.891006 -0.453991 0
    outer loop
      vertex 1.7119 30.5562 0.0999994
      vertex 1.45623 31.058 5.66734
      vertex 1.45623 31.058 0.0999994
    endloop
  endfacet
  facet normal -0.891006 -0.453991 0
    outer loop
      vertex 1.45623 31.058 5.66734
      vertex 1.7119 30.5562 0.0999994
      vertex 1.7119 30.5562 5.66734
    endloop
  endfacet
  facet normal -0.156432 -0.987689 0
    outer loop
      vertex 0 31.8 0.0999994
      vertex 0.556231 31.7119 5.66734
      vertex 0 31.8 5.66734
    endloop
  endfacet
  facet normal -0.156432 -0.987689 -0
    outer loop
      vertex 0.556231 31.7119 5.66734
      vertex 0 31.8 0.0999994
      vertex 0.556231 31.7119 0.0999994
    endloop
  endfacet
  facet normal 0.891006 -0.453991 0
    outer loop
      vertex -1.7119 30.5562 5.66734
      vertex -1.45623 31.058 0.0999994
      vertex -1.45623 31.058 5.66734
    endloop
  endfacet
  facet normal 0.891006 -0.453991 0
    outer loop
      vertex -1.45623 31.058 0.0999994
      vertex -1.7119 30.5562 5.66734
      vertex -1.7119 30.5562 0.0999994
    endloop
  endfacet
  facet normal 0 0 1
    outer loop
      vertex 1.7119 30.5562 0.0999994
      vertex 1.7119 29.4438 0.0999994
      vertex 1.8 30 0.0999994
    endloop
  endfacet
  facet normal 0 0 1
    outer loop
      vertex 1.45623 31.058 0.0999994
      vertex 1.7119 29.4438 0.0999994
      vertex 1.7119 30.5562 0.0999994
    endloop
  endfacet
  facet normal 0 0 1
    outer loop
      vertex 1.45623 31.058 0.0999994
      vertex 1.45623 28.942 0.0999994
      vertex 1.7119 29.4438 0.0999994
    endloop
  endfacet
  facet normal 0 0 1
    outer loop
      vertex 1.05801 31.4562 0.0999994
      vertex 1.45623 28.942 0.0999994
      vertex 1.45623 31.058 0.0999994
    endloop
  endfacet
  facet normal 0 0 1
    outer loop
      vertex 1.05801 31.4562 0.0999994
      vertex 1.05801 28.5438 0.0999994
      vertex 1.45623 28.942 0.0999994
    endloop
  endfacet
  facet normal 0 0 1
    outer loop
      vertex 0.556231 31.7119 0.0999994
      vertex 1.05801 28.5438 0.0999994
      vertex 1.05801 31.4562 0.0999994
    endloop
  endfacet
  facet normal 0 0 1
    outer loop
      vertex 0.556231 31.7119 0.0999994
      vertex 0.556231 28.2881 0.0999994
      vertex 1.05801 28.5438 0.0999994
    endloop
  endfacet
  facet normal 0 0 1
    outer loop
      vertex 0 31.8 0.0999994
      vertex 0.556231 28.2881 0.0999994
      vertex 0.556231 31.7119 0.0999994
    endloop
  endfacet
  facet normal 0 0 1
    outer loop
      vertex 0 31.8 0.0999994
      vertex 0 28.2 0.0999994
      vertex 0.556231 28.2881 0.0999994
    endloop
  endfacet
  facet normal -0 0 1
    outer loop
      vertex -0.556231 31.7119 0.0999994
      vertex 0 28.2 0.0999994
      vertex 0 31.8 0.0999994
    endloop
  endfacet
  facet normal 0 0 1
    outer loop
      vertex -0.556231 31.7119 0.0999994
      vertex -0.556231 28.2881 0.0999994
      vertex 0 28.2 0.0999994
    endloop
  endfacet
  facet normal -0 0 1
    outer loop
      vertex -1.05801 31.4562 0.0999994
      vertex -0.556231 28.2881 0.0999994
      vertex -0.556231 31.7119 0.0999994
    endloop
  endfacet
  facet normal 0 0 1
    outer loop
      vertex -1.05801 31.4562 0.0999994
      vertex -1.05801 28.5438 0.0999994
      vertex -0.556231 28.2881 0.0999994
    endloop
  endfacet
  facet normal -0 0 1
    outer loop
      vertex -1.45623 31.058 0.0999994
      vertex -1.05801 28.5438 0.0999994
      vertex -1.05801 31.4562 0.0999994
    endloop
  endfacet
  facet normal 0 0 1
    outer loop
      vertex -1.45623 31.058 0.0999994
      vertex -1.45623 28.942 0.0999994
      vertex -1.05801 28.5438 0.0999994
    endloop
  endfacet
  facet normal -0 0 1
    outer loop
      vertex -1.7119 30.5562 0.0999994
      vertex -1.45623 28.942 0.0999994
      vertex -1.45623 31.058 0.0999994
    endloop
  endfacet
  facet normal 0 0 1
    outer loop
      vertex -1.7119 30.5562 0.0999994
      vertex -1.7119 29.4438 0.0999994
      vertex -1.45623 28.942 0.0999994
    endloop
  endfacet
  facet normal 0 -0 1
    outer loop
      vertex -1.7119 29.4438 0.0999994
      vertex -1.7119 30.5562 0.0999994
      vertex -1.8 30 0.0999994
    endloop
  endfacet
  facet normal 0.987689 -0.156433 0
    outer loop
      vertex -1.8 30 5.66734
      vertex -1.7119 30.5562 0.0999994
      vertex -1.7119 30.5562 5.66734
    endloop
  endfacet
  facet normal 0.987689 -0.156433 0
    outer loop
      vertex -1.7119 30.5562 0.0999994
      vertex -1.8 30 5.66734
      vertex -1.8 30 0.0999994
    endloop
  endfacet
  facet normal 0.453993 -0.891005 0
    outer loop
      vertex -1.05801 31.4562 0.0999994
      vertex -0.556231 31.7119 5.66734
      vertex -1.05801 31.4562 5.66734
    endloop
  endfacet
  facet normal 0.453993 -0.891005 0
    outer loop
      vertex -0.556231 31.7119 5.66734
      vertex -1.05801 31.4562 0.0999994
      vertex -0.556231 31.7119 0.0999994
    endloop
  endfacet
  facet normal -0.987689 0.156433 0
    outer loop
      vertex 1.8 30 0.0999994
      vertex 1.7119 29.4438 5.66735
      vertex 1.8 30 5.66734
    endloop
  endfacet
  facet normal -0.987689 0.156433 -3.24446e-08
    outer loop
      vertex 1.7119 29.4438 0.0999994
      vertex 1.7119 29.4438 5.66735
      vertex 1.8 30 0.0999994
    endloop
  endfacet
  facet normal -0.453993 0.891005 0
    outer loop
      vertex 1.05801 28.5438 0.0999994
      vertex 0.556231 28.2881 5.66735
      vertex 1.05801 28.5438 5.66734
    endloop
  endfacet
  facet normal -0.453993 0.891005 9.721e-09
    outer loop
      vertex 0.556231 28.2881 0.0999994
      vertex 0.556231 28.2881 5.66735
      vertex 1.05801 28.5438 0.0999994
    endloop
  endfacet
  facet normal -0.891006 0.453992 0
    outer loop
      vertex 1.45623 28.942 0.0999994
      vertex 1.7119 29.4438 5.66735
      vertex 1.7119 29.4438 0.0999994
    endloop
  endfacet
  facet normal -0.891006 0.453992 0
    outer loop
      vertex 1.7119 29.4438 5.66735
      vertex 1.45623 28.942 0.0999994
      vertex 1.45623 28.942 5.66734
    endloop
  endfacet
  facet normal 0.156432 0.987689 -0
    outer loop
      vertex 0 28.2 0.0999994
      vertex -0.556231 28.2881 5.66735
      vertex 0 28.2 5.66734
    endloop
  endfacet
  facet normal 0.156432 0.987689 0
    outer loop
      vertex -0.556231 28.2881 5.66735
      vertex 0 28.2 0.0999994
      vertex -0.556231 28.2881 0.0999994
    endloop
  endfacet
  facet normal 0.891006 0.453992 0
    outer loop
      vertex -1.45623 28.942 5.66734
      vertex -1.7119 29.4438 0.0999994
      vertex -1.7119 29.4438 5.66735
    endloop
  endfacet
  facet normal 0.891006 0.453992 0
    outer loop
      vertex -1.7119 29.4438 0.0999994
      vertex -1.45623 28.942 5.66734
      vertex -1.45623 28.942 0.0999994
    endloop
  endfacet
  facet normal -0.707106 -0.707107 3.02815e-08
    outer loop
      vertex 1.05801 31.4562 5.66734
      vertex 1.05801 31.4562 0.0999994
      vertex 1.45623 31.058 5.66734
    endloop
  endfacet
  facet normal -0.707106 -0.707108 -3.02814e-08
    outer loop
      vertex 1.45623 31.058 0.0999994
      vertex 1.45623 31.058 5.66734
      vertex 1.05801 31.4562 0.0999994
    endloop
  endfacet
  facet normal 0.987689 0.156433 0
    outer loop
      vertex -1.7119 29.4438 5.66735
      vertex -1.8 30 0.0999994
      vertex -1.8 30 5.66734
    endloop
  endfacet
  facet normal 0.987689 0.156433 -3.24446e-08
    outer loop
      vertex -1.7119 29.4438 5.66735
      vertex -1.7119 29.4438 0.0999994
      vertex -1.8 30 0.0999994
    endloop
  endfacet
  facet normal 0.707106 -0.707107 -3.02815e-08
    outer loop
      vertex -1.45623 31.058 5.66734
      vertex -1.45623 31.058 0.0999994
      vertex -1.05801 31.4562 5.66734
    endloop
  endfacet
  facet normal 0.707106 -0.707108 3.02814e-08
    outer loop
      vertex -1.05801 31.4562 0.0999994
      vertex -1.05801 31.4562 5.66734
      vertex -1.45623 31.058 0.0999994
    endloop
  endfacet
  facet normal -0.707106 0.707107 0
    outer loop
      vertex 1.45623 28.942 5.66734
      vertex 1.45623 28.942 0.0999994
      vertex 1.05801 28.5438 5.66734
    endloop
  endfacet
  facet normal -0.707106 0.707108 4.54222e-08
    outer loop
      vertex 1.05801 28.5438 0.0999994
      vertex 1.05801 28.5438 5.66734
      vertex 1.45623 28.942 0.0999994
    endloop
  endfacet
  facet normal 0.707106 0.707107 4.54222e-08
    outer loop
      vertex -1.05801 28.5438 0.0999994
      vertex -1.45623 28.942 5.66734
      vertex -1.05801 28.5438 5.66734
    endloop
  endfacet
  facet normal 0.707106 0.707108 0
    outer loop
      vertex -1.45623 28.942 5.66734
      vertex -1.05801 28.5438 0.0999994
      vertex -1.45623 28.942 0.0999994
    endloop
  endfacet
endsolid OpenSCAD_Model
