solid OpenSCAD_Model
  facet normal 0 0 -1
    outer loop
      vertex 56.401 -21.5276 0
      vertex 29.0062 -21.4037 0
      vertex 39.1672 -0.989204 0
    endloop
  endfacet
  facet normal -0 0 -1
    outer loop
      vertex 56.401 -21.5276 0
      vertex 26.203 -23.5269 0
      vertex 29.0062 -21.4037 0
    endloop
  endfacet
  facet normal 0 0 -1
    outer loop
      vertex 56.401 -21.5276 0
      vertex 23.7427 -25.3956 0
      vertex 26.203 -23.5269 0
    endloop
  endfacet
  facet normal 0 0 -1
    outer loop
      vertex 56.401 -21.5276 0
      vertex 21.6251 -27.0097 0
      vertex 23.7427 -25.3956 0
    endloop
  endfacet
  facet normal 0 0 -1
    outer loop
      vertex 56.401 -21.5276 0
      vertex 19.8503 -28.3692 0
      vertex 21.6251 -27.0097 0
    endloop
  endfacet
  facet normal 0 0 -1
    outer loop
      vertex 56.401 -21.5276 0
      vertex 18.4183 -29.4741 0
      vertex 19.8503 -28.3692 0
    endloop
  endfacet
  facet normal 0 0 -1
    outer loop
      vertex 56.401 -21.5276 0
      vertex 17.8309 -29.9311 0
      vertex 18.4183 -29.4741 0
    endloop
  endfacet
  facet normal 0 0 -1
    outer loop
      vertex 56.401 -21.5276 0
      vertex 17.3291 -30.3245 0
      vertex 17.8309 -29.9311 0
    endloop
  endfacet
  facet normal 0 0 -1
    outer loop
      vertex 56.401 -21.5276 0
      vertex 16.913 -30.6542 0
      vertex 17.3291 -30.3245 0
    endloop
  endfacet
  facet normal 0 0 -1
    outer loop
      vertex -0.568171 -69.3305 0
      vertex 16.913 -30.6542 0
      vertex 56.401 -21.5276 0
    endloop
  endfacet
  facet normal 0 0 -1
    outer loop
      vertex 16.913 -30.6542 0
      vertex -0.568171 -69.3305 0
      vertex 15.8191 -31.5316 0
    endloop
  endfacet
  facet normal 0 0 -1
    outer loop
      vertex 15.8191 -31.5316 0
      vertex -0.568171 -69.3305 0
      vertex 14.7759 -32.377 0
    endloop
  endfacet
  facet normal 0 0 -1
    outer loop
      vertex 14.7759 -32.377 0
      vertex -0.568171 -69.3305 0
      vertex 13.7835 -33.1904 0
    endloop
  endfacet
  facet normal 0 0 -1
    outer loop
      vertex 13.7835 -33.1904 0
      vertex -0.568171 -69.3305 0
      vertex 12.8417 -33.9718 0
    endloop
  endfacet
  facet normal 0 0 -1
    outer loop
      vertex 12.8417 -33.9718 0
      vertex -0.568171 -69.3305 0
      vertex -12.4385 -55.1839 0
    endloop
  endfacet
  facet normal 0 0 -1
    outer loop
      vertex 28.7118 -21.0528 0
      vertex 39.1672 -0.989204 0
      vertex 29.0062 -21.4037 0
    endloop
  endfacet
  facet normal -0 0 -1
    outer loop
      vertex 28.7118 -21.0528 0
      vertex -11.058 -23.2753 0
      vertex 39.1672 -0.989204 0
    endloop
  endfacet
  facet normal -0 0 -1
    outer loop
      vertex -11.058 -23.2753 0
      vertex -21.8894 -43.9208 0
      vertex -11.3196 -22.9635 0
    endloop
  endfacet
  facet normal 0 0 -1
    outer loop
      vertex -21.8894 -43.9208 0
      vertex -11.058 -23.2753 0
      vertex 28.7118 -21.0528 0
    endloop
  endfacet
  facet normal 0 0 -1
    outer loop
      vertex -3.22618 17.1665 0
      vertex 19.154 22.8616 0
      vertex -2.93178 16.8156 0
    endloop
  endfacet
  facet normal 0 0 -1
    outer loop
      vertex -11.3196 -22.9635 0
      vertex -2.93178 16.8156 0
      vertex 19.154 22.8616 0
    endloop
  endfacet
  facet normal 0 0 -1
    outer loop
      vertex -34.1853 -29.2671 0
      vertex -11.3196 -22.9635 0
      vertex -21.8894 -43.9208 0
    endloop
  endfacet
  facet normal -0 0 -1
    outer loop
      vertex -11.3196 -22.9635 0
      vertex -34.1853 -29.2671 0
      vertex -2.93178 16.8156 0
    endloop
  endfacet
  facet normal -0 0 -1
    outer loop
      vertex 19.154 22.8616 0
      vertex -3.22618 17.1665 0
      vertex 1.95241 43.3617 0
    endloop
  endfacet
  facet normal 0 0 -1
    outer loop
      vertex -4.70944 15.7154 0
      vertex 1.95241 43.3617 0
      vertex -3.22618 17.1665 0
    endloop
  endfacet
  facet normal 0 0 -1
    outer loop
      vertex -6.14549 14.3205 0
      vertex 1.95241 43.3617 0
      vertex -4.70944 15.7154 0
    endloop
  endfacet
  facet normal 0 0 -1
    outer loop
      vertex -7.53435 12.9817 0
      vertex 1.95241 43.3617 0
      vertex -6.14549 14.3205 0
    endloop
  endfacet
  facet normal 0 0 -1
    outer loop
      vertex -8.87601 11.699 0
      vertex 1.95241 43.3617 0
      vertex -7.53435 12.9817 0
    endloop
  endfacet
  facet normal 0 0 -1
    outer loop
      vertex -10.1705 10.4725 0
      vertex 1.95241 43.3617 0
      vertex -8.87601 11.699 0
    endloop
  endfacet
  facet normal 0 0 -1
    outer loop
      vertex -11.4177 9.30206 0
      vertex 1.95241 43.3617 0
      vertex -10.1705 10.4725 0
    endloop
  endfacet
  facet normal 0 0 -1
    outer loop
      vertex -12.6177 8.18778 0
      vertex 1.95241 43.3617 0
      vertex -11.4177 9.30206 0
    endloop
  endfacet
  facet normal 0 0 -1
    outer loop
      vertex -13.7706 7.1296 0
      vertex 1.95241 43.3617 0
      vertex -12.6177 8.18778 0
    endloop
  endfacet
  facet normal 0 0 -1
    outer loop
      vertex -55.0168 -4.44112 0
      vertex -13.7706 7.1296 0
      vertex -14.8762 6.12755 0
    endloop
  endfacet
  facet normal 0 0 -1
    outer loop
      vertex -55.0168 -4.44112 0
      vertex -14.8762 6.12755 0
      vertex -15.9346 5.18162 0
    endloop
  endfacet
  facet normal 0 0 -1
    outer loop
      vertex -55.0168 -4.44112 0
      vertex -15.9346 5.18162 0
      vertex -16.9458 4.29183 0
    endloop
  endfacet
  facet normal 0 0 -1
    outer loop
      vertex -55.0168 -4.44112 0
      vertex -16.9458 4.29183 0
      vertex -17.9099 3.45815 0
    endloop
  endfacet
  facet normal 0 0 -1
    outer loop
      vertex -55.0168 -4.44112 0
      vertex -17.9099 3.45815 0
      vertex -18.8267 2.68061 0
    endloop
  endfacet
  facet normal 0 0 -1
    outer loop
      vertex -55.0168 -4.44112 0
      vertex -18.8267 2.68061 0
      vertex -43.5707 -18.0821 0
    endloop
  endfacet
  facet normal -0 0 -1
    outer loop
      vertex -13.7706 7.1296 0
      vertex -55.0168 -4.44112 0
      vertex 1.95241 43.3617 0
    endloop
  endfacet
  facet normal 0 0 1
    outer loop
      vertex -4.70944 15.7154 8
      vertex -2.71557 28.027 8
      vertex -3.19235 28.9627 8
    endloop
  endfacet
  facet normal 0 0 1
    outer loop
      vertex -2.71557 28.027 8
      vertex -3.22618 17.1665 8
      vertex -2.93178 16.8156 8
    endloop
  endfacet
  facet normal 0 0 1
    outer loop
      vertex -8.87601 11.699 8
      vertex -3.19235 28.9627 8
      vertex -3.35663 30 8
    endloop
  endfacet
  facet normal 0 0 1
    outer loop
      vertex -2.71557 28.027 8
      vertex -4.70944 15.7154 8
      vertex -3.22618 17.1665 8
    endloop
  endfacet
  facet normal 0 0 1
    outer loop
      vertex 19.154 22.8616 8
      vertex 3.19235 31.0373 8
      vertex 3.35663 30 8
    endloop
  endfacet
  facet normal 0 0 1
    outer loop
      vertex 19.154 22.8616 8
      vertex 2.71557 31.973 8
      vertex 3.19235 31.0373 8
    endloop
  endfacet
  facet normal 0 0 1
    outer loop
      vertex 1.95241 43.3617 8
      vertex 2.71557 31.973 8
      vertex 19.154 22.8616 8
    endloop
  endfacet
  facet normal 0 0 1
    outer loop
      vertex 2.71557 31.973 8
      vertex 1.95241 43.3617 8
      vertex 1.97298 32.7156 8
    endloop
  endfacet
  facet normal 0 0 1
    outer loop
      vertex 1.95241 43.3617 8
      vertex 1.03726 33.1923 8
      vertex 1.97298 32.7156 8
    endloop
  endfacet
  facet normal 0 0 1
    outer loop
      vertex 1.95241 43.3617 8
      vertex 0 33.3566 8
      vertex 1.03726 33.1923 8
    endloop
  endfacet
  facet normal 0 0 1
    outer loop
      vertex 1.95241 43.3617 8
      vertex -1.03726 33.1923 8
      vertex 0 33.3566 8
    endloop
  endfacet
  facet normal 0 0 1
    outer loop
      vertex 1.95241 43.3617 8
      vertex -1.97298 32.7156 8
      vertex -1.03726 33.1923 8
    endloop
  endfacet
  facet normal 0 0 1
    outer loop
      vertex 1.95241 43.3617 8
      vertex -2.71557 31.973 8
      vertex -1.97298 32.7156 8
    endloop
  endfacet
  facet normal 0 0 1
    outer loop
      vertex -55.0168 -4.44112 8
      vertex -2.71557 31.973 8
      vertex 1.95241 43.3617 8
    endloop
  endfacet
  facet normal 0 0 1
    outer loop
      vertex -3.19235 28.9627 8
      vertex -6.14549 14.3205 8
      vertex -4.70944 15.7154 8
    endloop
  endfacet
  facet normal 0 0 1
    outer loop
      vertex -55.0168 -4.44112 8
      vertex -3.35663 30 8
      vertex -3.19235 31.0373 8
    endloop
  endfacet
  facet normal 0 0 1
    outer loop
      vertex -3.19235 28.9627 8
      vertex -7.53435 12.9817 8
      vertex -6.14549 14.3205 8
    endloop
  endfacet
  facet normal 0 0 1
    outer loop
      vertex -3.19235 28.9627 8
      vertex -8.87601 11.699 8
      vertex -7.53435 12.9817 8
    endloop
  endfacet
  facet normal 0 0 1
    outer loop
      vertex -3.35663 30 8
      vertex -10.1705 10.4725 8
      vertex -8.87601 11.699 8
    endloop
  endfacet
  facet normal 0 0 1
    outer loop
      vertex -3.35663 30 8
      vertex -11.4177 9.30206 8
      vertex -10.1705 10.4725 8
    endloop
  endfacet
  facet normal 0 0 1
    outer loop
      vertex -3.35663 30 8
      vertex -12.6177 8.18778 8
      vertex -11.4177 9.30206 8
    endloop
  endfacet
  facet normal 0 0 1
    outer loop
      vertex -3.35663 30 8
      vertex -13.7706 7.1296 8
      vertex -12.6177 8.18778 8
    endloop
  endfacet
  facet normal 0 0 1
    outer loop
      vertex -2.71557 31.973 8
      vertex -55.0168 -4.44112 8
      vertex -3.19235 31.0373 8
    endloop
  endfacet
  facet normal 0 0 1
    outer loop
      vertex -3.35663 30 8
      vertex -55.0168 -4.44112 8
      vertex -16.9458 4.29183 8
    endloop
  endfacet
  facet normal 0 0 1
    outer loop
      vertex -3.35663 30 8
      vertex -14.8762 6.12755 8
      vertex -13.7706 7.1296 8
    endloop
  endfacet
  facet normal 0 0 1
    outer loop
      vertex -3.35663 30 8
      vertex -15.9346 5.18162 8
      vertex -14.8762 6.12755 8
    endloop
  endfacet
  facet normal 0 0 1
    outer loop
      vertex -3.35663 30 8
      vertex -16.9458 4.29183 8
      vertex -15.9346 5.18162 8
    endloop
  endfacet
  facet normal 0 0 1
    outer loop
      vertex -16.9458 4.29183 8
      vertex -55.0168 -4.44112 8
      vertex -17.9099 3.45815 8
    endloop
  endfacet
  facet normal 0 0 1
    outer loop
      vertex -17.9099 3.45815 8
      vertex -55.0168 -4.44112 8
      vertex -18.8267 2.68061 8
    endloop
  endfacet
  facet normal 0 0 1
    outer loop
      vertex -18.8267 2.68061 8
      vertex -55.0168 -4.44112 8
      vertex -43.5707 -18.0821 8
    endloop
  endfacet
  facet normal -0 0 1
    outer loop
      vertex 3.19235 28.9627 8
      vertex 19.154 22.8616 8
      vertex 3.35663 30 8
    endloop
  endfacet
  facet normal -0 0 1
    outer loop
      vertex 2.71557 28.027 8
      vertex 19.154 22.8616 8
      vertex 3.19235 28.9627 8
    endloop
  endfacet
  facet normal -0 0 1
    outer loop
      vertex 1.97298 27.2844 8
      vertex 19.154 22.8616 8
      vertex 2.71557 28.027 8
    endloop
  endfacet
  facet normal 0 0 1
    outer loop
      vertex -2.93178 16.8156 8
      vertex 1.97298 27.2844 8
      vertex 1.03726 26.8077 8
    endloop
  endfacet
  facet normal 0 0 1
    outer loop
      vertex -2.93178 16.8156 8
      vertex 1.03726 26.8077 8
      vertex 0 26.6434 8
    endloop
  endfacet
  facet normal 0 0 1
    outer loop
      vertex -2.93178 16.8156 8
      vertex 0 26.6434 8
      vertex -1.03726 26.8077 8
    endloop
  endfacet
  facet normal 0 0 1
    outer loop
      vertex -2.93178 16.8156 8
      vertex -1.97298 27.2844 8
      vertex -2.71557 28.027 8
    endloop
  endfacet
  facet normal 0 0 1
    outer loop
      vertex -2.93178 16.8156 8
      vertex -1.03726 26.8077 8
      vertex -1.97298 27.2844 8
    endloop
  endfacet
  facet normal 0 0 1
    outer loop
      vertex 1.97298 27.2844 8
      vertex -2.93178 16.8156 8
      vertex 19.154 22.8616 8
    endloop
  endfacet
  facet normal -0 0 1
    outer loop
      vertex -2.93178 16.8156 8
      vertex -11.3196 -22.9635 8
      vertex 19.154 22.8616 8
    endloop
  endfacet
  facet normal 0 0 1
    outer loop
      vertex -34.1853 -29.2671 8
      vertex -11.3196 -22.9635 8
      vertex -2.93178 16.8156 8
    endloop
  endfacet
  facet normal 0 0 1
    outer loop
      vertex -11.3196 -22.9635 8
      vertex -34.1853 -29.2671 8
      vertex -21.8894 -43.9208 8
    endloop
  endfacet
  facet normal 0 0 1
    outer loop
      vertex 12.8417 -33.9718 8
      vertex 3.19235 -56.9627 8
      vertex 3.35663 -58 8
    endloop
  endfacet
  facet normal 0 0 1
    outer loop
      vertex 12.8417 -33.9718 8
      vertex 2.71557 -56.027 8
      vertex 3.19235 -56.9627 8
    endloop
  endfacet
  facet normal 0 0 1
    outer loop
      vertex 12.8417 -33.9718 8
      vertex 1.97298 -55.2844 8
      vertex 2.71557 -56.027 8
    endloop
  endfacet
  facet normal 0 0 1
    outer loop
      vertex 12.8417 -33.9718 8
      vertex 1.03726 -54.8077 8
      vertex 1.97298 -55.2844 8
    endloop
  endfacet
  facet normal 0 0 1
    outer loop
      vertex 12.8417 -33.9718 8
      vertex 0 -54.6434 8
      vertex 1.03726 -54.8077 8
    endloop
  endfacet
  facet normal 0 0 1
    outer loop
      vertex 12.8417 -33.9718 8
      vertex -1.03726 -54.8077 8
      vertex 0 -54.6434 8
    endloop
  endfacet
  facet normal 0 0 1
    outer loop
      vertex -12.4385 -55.1839 8
      vertex -1.03726 -54.8077 8
      vertex 12.8417 -33.9718 8
    endloop
  endfacet
  facet normal 0 0 1
    outer loop
      vertex -1.03726 -54.8077 8
      vertex -12.4385 -55.1839 8
      vertex -1.97298 -55.2844 8
    endloop
  endfacet
  facet normal 0 0 1
    outer loop
      vertex -3.19235 -56.9627 8
      vertex -12.4385 -55.1839 8
      vertex -3.35663 -58 8
    endloop
  endfacet
  facet normal 0 0 1
    outer loop
      vertex -2.71557 -56.027 8
      vertex -12.4385 -55.1839 8
      vertex -3.19235 -56.9627 8
    endloop
  endfacet
  facet normal 0 0 1
    outer loop
      vertex -1.97298 -55.2844 8
      vertex -12.4385 -55.1839 8
      vertex -2.71557 -56.027 8
    endloop
  endfacet
  facet normal 0 0 1
    outer loop
      vertex 39.1672 -0.989204 8
      vertex 28.7118 -21.0528 8
      vertex 29.0062 -21.4037 8
    endloop
  endfacet
  facet normal 0 0 1
    outer loop
      vertex -11.058 -23.2753 8
      vertex 28.7118 -21.0528 8
      vertex 39.1672 -0.989204 8
    endloop
  endfacet
  facet normal -0 0 1
    outer loop
      vertex -11.058 -23.2753 8
      vertex -21.8894 -43.9208 8
      vertex 28.7118 -21.0528 8
    endloop
  endfacet
  facet normal 0 0 1
    outer loop
      vertex -21.8894 -43.9208 8
      vertex -11.058 -23.2753 8
      vertex -11.3196 -22.9635 8
    endloop
  endfacet
  facet normal -0 0 1
    outer loop
      vertex 29.0062 -21.4037 8
      vertex 56.401 -21.5276 8
      vertex 39.1672 -0.989204 8
    endloop
  endfacet
  facet normal 0 0 1
    outer loop
      vertex 26.203 -23.5269 8
      vertex 56.401 -21.5276 8
      vertex 29.0062 -21.4037 8
    endloop
  endfacet
  facet normal 0 0 1
    outer loop
      vertex 23.7427 -25.3956 8
      vertex 56.401 -21.5276 8
      vertex 26.203 -23.5269 8
    endloop
  endfacet
  facet normal 0 0 1
    outer loop
      vertex 21.6251 -27.0097 8
      vertex 56.401 -21.5276 8
      vertex 23.7427 -25.3956 8
    endloop
  endfacet
  facet normal 0 0 1
    outer loop
      vertex 19.8503 -28.3692 8
      vertex 56.401 -21.5276 8
      vertex 21.6251 -27.0097 8
    endloop
  endfacet
  facet normal 0 0 1
    outer loop
      vertex 3.35663 -58 8
      vertex 19.8503 -28.3692 8
      vertex 18.4183 -29.4741 8
    endloop
  endfacet
  facet normal 0 0 1
    outer loop
      vertex 3.35663 -58 8
      vertex 18.4183 -29.4741 8
      vertex 17.8309 -29.9311 8
    endloop
  endfacet
  facet normal 0 0 1
    outer loop
      vertex 3.35663 -58 8
      vertex 17.8309 -29.9311 8
      vertex 17.3291 -30.3245 8
    endloop
  endfacet
  facet normal 0 0 1
    outer loop
      vertex 3.35663 -58 8
      vertex 17.3291 -30.3245 8
      vertex 16.913 -30.6542 8
    endloop
  endfacet
  facet normal 0 0 1
    outer loop
      vertex 3.35663 -58 8
      vertex 16.913 -30.6542 8
      vertex 15.8191 -31.5316 8
    endloop
  endfacet
  facet normal 0 0 1
    outer loop
      vertex 3.35663 -58 8
      vertex 15.8191 -31.5316 8
      vertex 14.7759 -32.377 8
    endloop
  endfacet
  facet normal 0 0 1
    outer loop
      vertex 3.35663 -58 8
      vertex 14.7759 -32.377 8
      vertex 13.7835 -33.1904 8
    endloop
  endfacet
  facet normal 0 0 1
    outer loop
      vertex 3.35663 -58 8
      vertex 13.7835 -33.1904 8
      vertex 12.8417 -33.9718 8
    endloop
  endfacet
  facet normal -0 0 1
    outer loop
      vertex 19.8503 -28.3692 8
      vertex 3.35663 -58 8
      vertex 56.401 -21.5276 8
    endloop
  endfacet
  facet normal 0 0 1
    outer loop
      vertex 3.19235 -59.0373 8
      vertex 56.401 -21.5276 8
      vertex 3.35663 -58 8
    endloop
  endfacet
  facet normal 0 0 1
    outer loop
      vertex -0.568171 -69.3305 8
      vertex 3.19235 -59.0373 8
      vertex 2.71557 -59.973 8
    endloop
  endfacet
  facet normal 0 0 1
    outer loop
      vertex -0.568171 -69.3305 8
      vertex 2.71557 -59.973 8
      vertex 1.97298 -60.7156 8
    endloop
  endfacet
  facet normal -0 0 1
    outer loop
      vertex 3.19235 -59.0373 8
      vertex -0.568171 -69.3305 8
      vertex 56.401 -21.5276 8
    endloop
  endfacet
  facet normal -0 0 1
    outer loop
      vertex 1.03726 -61.1923 8
      vertex -0.568171 -69.3305 8
      vertex 1.97298 -60.7156 8
    endloop
  endfacet
  facet normal -0 0 1
    outer loop
      vertex 0 -61.3566 8
      vertex -0.568171 -69.3305 8
      vertex 1.03726 -61.1923 8
    endloop
  endfacet
  facet normal 0 0 1
    outer loop
      vertex -1.03726 -61.1923 8
      vertex -0.568171 -69.3305 8
      vertex 0 -61.3566 8
    endloop
  endfacet
  facet normal 0 0 1
    outer loop
      vertex -1.97298 -60.7156 8
      vertex -0.568171 -69.3305 8
      vertex -1.03726 -61.1923 8
    endloop
  endfacet
  facet normal 0 0 1
    outer loop
      vertex -2.71557 -59.973 8
      vertex -0.568171 -69.3305 8
      vertex -1.97298 -60.7156 8
    endloop
  endfacet
  facet normal 0 0 1
    outer loop
      vertex -12.4385 -55.1839 8
      vertex -2.71557 -59.973 8
      vertex -3.19235 -59.0373 8
    endloop
  endfacet
  facet normal 0 0 1
    outer loop
      vertex -2.71557 -59.973 8
      vertex -12.4385 -55.1839 8
      vertex -0.568171 -69.3305 8
    endloop
  endfacet
  facet normal 0 0 1
    outer loop
      vertex -12.4385 -55.1839 8
      vertex -3.19235 -59.0373 8
      vertex -3.35663 -58 8
    endloop
  endfacet
  facet normal 0.646805 -0.762656 0
    outer loop
      vertex -18.8267 2.68061 0
      vertex -17.9099 3.45815 8
      vertex -18.8267 2.68061 8
    endloop
  endfacet
  facet normal 0.646805 -0.762656 0
    outer loop
      vertex -17.9099 3.45815 8
      vertex -18.8267 2.68061 0
      vertex -17.9099 3.45815 0
    endloop
  endfacet
  facet normal 0.654125 -0.756386 0
    outer loop
      vertex -17.9099 3.45815 0
      vertex -16.9458 4.29183 8
      vertex -17.9099 3.45815 8
    endloop
  endfacet
  facet normal 0.654125 -0.756386 0
    outer loop
      vertex -16.9458 4.29183 8
      vertex -17.9099 3.45815 0
      vertex -16.9458 4.29183 0
    endloop
  endfacet
  facet normal 0.660591 -0.750746 0
    outer loop
      vertex -16.9458 4.29183 0
      vertex -15.9346 5.18162 8
      vertex -16.9458 4.29183 8
    endloop
  endfacet
  facet normal 0.660591 -0.750746 0
    outer loop
      vertex -15.9346 5.18162 8
      vertex -16.9458 4.29183 0
      vertex -15.9346 5.18162 0
    endloop
  endfacet
  facet normal 0.666371 -0.74562 0
    outer loop
      vertex -15.9346 5.18162 0
      vertex -14.8762 6.12755 8
      vertex -15.9346 5.18162 8
    endloop
  endfacet
  facet normal 0.666371 -0.74562 0
    outer loop
      vertex -14.8762 6.12755 8
      vertex -15.9346 5.18162 0
      vertex -14.8762 6.12755 0
    endloop
  endfacet
  facet normal 0.671547 -0.740962 0
    outer loop
      vertex -14.8762 6.12755 0
      vertex -13.7706 7.1296 8
      vertex -14.8762 6.12755 8
    endloop
  endfacet
  facet normal 0.671547 -0.740962 0
    outer loop
      vertex -13.7706 7.1296 8
      vertex -14.8762 6.12755 0
      vertex -13.7706 7.1296 0
    endloop
  endfacet
  facet normal 0.676213 -0.736706 0
    outer loop
      vertex -13.7706 7.1296 0
      vertex -12.6177 8.18778 8
      vertex -13.7706 7.1296 8
    endloop
  endfacet
  facet normal 0.676213 -0.736706 0
    outer loop
      vertex -12.6177 8.18778 8
      vertex -13.7706 7.1296 0
      vertex -12.6177 8.18778 0
    endloop
  endfacet
  facet normal 0.680443 -0.732801 0
    outer loop
      vertex -12.6177 8.18778 0
      vertex -11.4177 9.30206 8
      vertex -12.6177 8.18778 8
    endloop
  endfacet
  facet normal 0.680443 -0.732801 0
    outer loop
      vertex -11.4177 9.30206 8
      vertex -12.6177 8.18778 0
      vertex -11.4177 9.30206 0
    endloop
  endfacet
  facet normal 0.684291 -0.729209 0
    outer loop
      vertex -11.4177 9.30206 0
      vertex -10.1705 10.4725 8
      vertex -11.4177 9.30206 8
    endloop
  endfacet
  facet normal 0.684291 -0.729209 0
    outer loop
      vertex -10.1705 10.4725 8
      vertex -11.4177 9.30206 0
      vertex -10.1705 10.4725 0
    endloop
  endfacet
  facet normal 0.687816 -0.725885 0
    outer loop
      vertex -10.1705 10.4725 0
      vertex -8.87601 11.699 8
      vertex -10.1705 10.4725 8
    endloop
  endfacet
  facet normal 0.687816 -0.725885 0
    outer loop
      vertex -8.87601 11.699 8
      vertex -10.1705 10.4725 0
      vertex -8.87601 11.699 0
    endloop
  endfacet
  facet normal 0.691037 -0.722819 0
    outer loop
      vertex -8.87601 11.699 0
      vertex -7.53435 12.9817 8
      vertex -8.87601 11.699 8
    endloop
  endfacet
  facet normal 0.691037 -0.722819 0
    outer loop
      vertex -7.53435 12.9817 8
      vertex -8.87601 11.699 0
      vertex -7.53435 12.9817 0
    endloop
  endfacet
  facet normal 0.694009 -0.719966 0
    outer loop
      vertex -7.53435 12.9817 0
      vertex -6.14549 14.3205 8
      vertex -7.53435 12.9817 8
    endloop
  endfacet
  facet normal 0.694009 -0.719966 0
    outer loop
      vertex -6.14549 14.3205 8
      vertex -7.53435 12.9817 0
      vertex -6.14549 14.3205 0
    endloop
  endfacet
  facet normal 0.696759 -0.717305 0
    outer loop
      vertex -6.14549 14.3205 0
      vertex -4.70944 15.7154 8
      vertex -6.14549 14.3205 8
    endloop
  endfacet
  facet normal 0.696759 -0.717305 0
    outer loop
      vertex -4.70944 15.7154 8
      vertex -6.14549 14.3205 0
      vertex -4.70944 15.7154 0
    endloop
  endfacet
  facet normal 0.699301 -0.714828 0
    outer loop
      vertex -4.70944 15.7154 0
      vertex -3.22618 17.1665 8
      vertex -4.70944 15.7154 8
    endloop
  endfacet
  facet normal 0.699301 -0.714828 0
    outer loop
      vertex -3.22618 17.1665 8
      vertex -4.70944 15.7154 0
      vertex -3.22618 17.1665 0
    endloop
  endfacet
  facet normal -0.766046 -0.642786 0
    outer loop
      vertex -2.93178 16.8156 0
      vertex -3.22618 17.1665 8
      vertex -3.22618 17.1665 0
    endloop
  endfacet
  facet normal -0.766046 -0.642786 0
    outer loop
      vertex -3.22618 17.1665 8
      vertex -2.93178 16.8156 0
      vertex -2.93178 16.8156 8
    endloop
  endfacet
  facet normal -0.827616 0.561294 0
    outer loop
      vertex -34.1853 -29.2671 0
      vertex -2.93178 16.8156 8
      vertex -2.93178 16.8156 0
    endloop
  endfacet
  facet normal -0.827616 0.561294 0
    outer loop
      vertex -2.93178 16.8156 8
      vertex -34.1853 -29.2671 0
      vertex -34.1853 -29.2671 8
    endloop
  endfacet
  facet normal -0.766044 -0.642788 0
    outer loop
      vertex -21.8894 -43.9208 0
      vertex -34.1853 -29.2671 8
      vertex -34.1853 -29.2671 0
    endloop
  endfacet
  facet normal -0.766044 -0.642788 0
    outer loop
      vertex -34.1853 -29.2671 8
      vertex -21.8894 -43.9208 0
      vertex -21.8894 -43.9208 8
    endloop
  endfacet
  facet normal 0.411822 -0.911264 0
    outer loop
      vertex -21.8894 -43.9208 0
      vertex 28.7118 -21.0528 8
      vertex -21.8894 -43.9208 8
    endloop
  endfacet
  facet normal 0.411822 -0.911264 0
    outer loop
      vertex 28.7118 -21.0528 8
      vertex -21.8894 -43.9208 0
      vertex 28.7118 -21.0528 0
    endloop
  endfacet
  facet normal -0.766045 -0.642786 0
    outer loop
      vertex 29.0062 -21.4037 0
      vertex 28.7118 -21.0528 8
      vertex 28.7118 -21.0528 0
    endloop
  endfacet
  facet normal -0.766045 -0.642786 0
    outer loop
      vertex 28.7118 -21.0528 8
      vertex 29.0062 -21.4037 0
      vertex 29.0062 -21.4037 8
    endloop
  endfacet
  facet normal -0.603795 0.79714 0
    outer loop
      vertex 29.0062 -21.4037 0
      vertex 26.203 -23.5269 8
      vertex 29.0062 -21.4037 8
    endloop
  endfacet
  facet normal -0.603795 0.79714 0
    outer loop
      vertex 26.203 -23.5269 8
      vertex 29.0062 -21.4037 0
      vertex 26.203 -23.5269 0
    endloop
  endfacet
  facet normal -0.604831 0.796354 0
    outer loop
      vertex 26.203 -23.5269 0
      vertex 23.7427 -25.3956 8
      vertex 26.203 -23.5269 8
    endloop
  endfacet
  facet normal -0.604831 0.796354 0
    outer loop
      vertex 23.7427 -25.3956 8
      vertex 26.203 -23.5269 0
      vertex 23.7427 -25.3956 0
    endloop
  endfacet
  facet normal -0.606211 0.795304 0
    outer loop
      vertex 23.7427 -25.3956 0
      vertex 21.6251 -27.0097 8
      vertex 23.7427 -25.3956 8
    endloop
  endfacet
  facet normal -0.606211 0.795304 0
    outer loop
      vertex 21.6251 -27.0097 8
      vertex 23.7427 -25.3956 0
      vertex 21.6251 -27.0097 0
    endloop
  endfacet
  facet normal -0.608105 0.793857 0
    outer loop
      vertex 21.6251 -27.0097 0
      vertex 19.8503 -28.3692 8
      vertex 21.6251 -27.0097 8
    endloop
  endfacet
  facet normal -0.608105 0.793857 0
    outer loop
      vertex 19.8503 -28.3692 8
      vertex 21.6251 -27.0097 0
      vertex 19.8503 -28.3692 0
    endloop
  endfacet
  facet normal -0.610893 0.791713 0
    outer loop
      vertex 19.8503 -28.3692 0
      vertex 18.4183 -29.4741 8
      vertex 19.8503 -28.3692 8
    endloop
  endfacet
  facet normal -0.610893 0.791713 0
    outer loop
      vertex 18.4183 -29.4741 8
      vertex 19.8503 -28.3692 0
      vertex 18.4183 -29.4741 0
    endloop
  endfacet
  facet normal -0.614033 0.789281 0
    outer loop
      vertex 18.4183 -29.4741 0
      vertex 17.8309 -29.9311 8
      vertex 18.4183 -29.4741 8
    endloop
  endfacet
  facet normal -0.614033 0.789281 0
    outer loop
      vertex 17.8309 -29.9311 8
      vertex 18.4183 -29.4741 0
      vertex 17.8309 -29.9311 0
    endloop
  endfacet
  facet normal -0.616968 0.786988 0
    outer loop
      vertex 17.8309 -29.9311 0
      vertex 17.3291 -30.3245 8
      vertex 17.8309 -29.9311 8
    endloop
  endfacet
  facet normal -0.616968 0.786988 0
    outer loop
      vertex 17.3291 -30.3245 8
      vertex 17.8309 -29.9311 0
      vertex 17.3291 -30.3245 0
    endloop
  endfacet
  facet normal -0.621087 0.783742 0
    outer loop
      vertex 17.3291 -30.3245 0
      vertex 16.913 -30.6542 8
      vertex 17.3291 -30.3245 8
    endloop
  endfacet
  facet normal -0.621087 0.783742 0
    outer loop
      vertex 16.913 -30.6542 8
      vertex 17.3291 -30.3245 0
      vertex 16.913 -30.6542 0
    endloop
  endfacet
  facet normal -0.625685 0.780076 0
    outer loop
      vertex 16.913 -30.6542 0
      vertex 15.8191 -31.5316 8
      vertex 16.913 -30.6542 8
    endloop
  endfacet
  facet normal -0.625685 0.780076 0
    outer loop
      vertex 15.8191 -31.5316 8
      vertex 16.913 -30.6542 0
      vertex 15.8191 -31.5316 0
    endloop
  endfacet
  facet normal -0.62961 0.776912 0
    outer loop
      vertex 15.8191 -31.5316 0
      vertex 14.7759 -32.377 8
      vertex 15.8191 -31.5316 8
    endloop
  endfacet
  facet normal -0.62961 0.776912 0
    outer loop
      vertex 14.7759 -32.377 8
      vertex 15.8191 -31.5316 0
      vertex 14.7759 -32.377 0
    endloop
  endfacet
  facet normal -0.633882 0.77343 0
    outer loop
      vertex 14.7759 -32.377 0
      vertex 13.7835 -33.1904 8
      vertex 14.7759 -32.377 8
    endloop
  endfacet
  facet normal -0.633882 0.77343 0
    outer loop
      vertex 13.7835 -33.1904 8
      vertex 14.7759 -32.377 0
      vertex 13.7835 -33.1904 0
    endloop
  endfacet
  facet normal -0.638555 0.769576 0
    outer loop
      vertex 13.7835 -33.1904 0
      vertex 12.8417 -33.9718 8
      vertex 13.7835 -33.1904 8
    endloop
  endfacet
  facet normal -0.638555 0.769576 0
    outer loop
      vertex 12.8417 -33.9718 8
      vertex 13.7835 -33.1904 0
      vertex 12.8417 -33.9718 0
    endloop
  endfacet
  facet normal -0.642777 0.766053 0
    outer loop
      vertex 12.8417 -33.9718 0
      vertex -12.4385 -55.1839 8
      vertex 12.8417 -33.9718 8
    endloop
  endfacet
  facet normal -0.642777 0.766053 0
    outer loop
      vertex -12.4385 -55.1839 8
      vertex 12.8417 -33.9718 0
      vertex -12.4385 -55.1839 0
    endloop
  endfacet
  facet normal -0.766044 -0.642788 0
    outer loop
      vertex -0.568171 -69.3305 0
      vertex -12.4385 -55.1839 8
      vertex -12.4385 -55.1839 0
    endloop
  endfacet
  facet normal -0.766044 -0.642788 0
    outer loop
      vertex -12.4385 -55.1839 8
      vertex -0.568171 -69.3305 0
      vertex -0.568171 -69.3305 8
    endloop
  endfacet
  facet normal 0.642788 -0.766044 0
    outer loop
      vertex -0.568171 -69.3305 0
      vertex 56.401 -21.5276 8
      vertex -0.568171 -69.3305 8
    endloop
  endfacet
  facet normal 0.642788 -0.766044 0
    outer loop
      vertex 56.401 -21.5276 8
      vertex -0.568171 -69.3305 0
      vertex 56.401 -21.5276 0
    endloop
  endfacet
  facet normal 0.766044 0.642788 0
    outer loop
      vertex 56.401 -21.5276 8
      vertex 39.1672 -0.989204 0
      vertex 39.1672 -0.989204 8
    endloop
  endfacet
  facet normal 0.766044 0.642788 0
    outer loop
      vertex 39.1672 -0.989204 0
      vertex 56.401 -21.5276 8
      vertex 56.401 -21.5276 0
    endloop
  endfacet
  facet normal -0.405588 0.914056 0
    outer loop
      vertex 39.1672 -0.989204 0
      vertex -11.058 -23.2753 8
      vertex 39.1672 -0.989204 8
    endloop
  endfacet
  facet normal -0.405588 0.914056 0
    outer loop
      vertex -11.058 -23.2753 8
      vertex 39.1672 -0.989204 0
      vertex -11.058 -23.2753 0
    endloop
  endfacet
  facet normal 0.766042 0.64279 0
    outer loop
      vertex -11.058 -23.2753 8
      vertex -11.3196 -22.9635 0
      vertex -11.3196 -22.9635 8
    endloop
  endfacet
  facet normal 0.766042 0.64279 0
    outer loop
      vertex -11.3196 -22.9635 0
      vertex -11.058 -23.2753 8
      vertex -11.058 -23.2753 0
    endloop
  endfacet
  facet normal 0.832691 -0.553738 0
    outer loop
      vertex -11.3196 -22.9635 8
      vertex 19.154 22.8616 0
      vertex 19.154 22.8616 8
    endloop
  endfacet
  facet normal 0.832691 -0.553738 0
    outer loop
      vertex 19.154 22.8616 0
      vertex -11.3196 -22.9635 8
      vertex -11.3196 -22.9635 0
    endloop
  endfacet
  facet normal 0.766044 0.642788 0
    outer loop
      vertex 19.154 22.8616 8
      vertex 1.95241 43.3617 0
      vertex 1.95241 43.3617 8
    endloop
  endfacet
  facet normal 0.766044 0.642788 0
    outer loop
      vertex 1.95241 43.3617 0
      vertex 19.154 22.8616 8
      vertex 19.154 22.8616 0
    endloop
  endfacet
  facet normal -0.642788 0.766044 0
    outer loop
      vertex 1.95241 43.3617 0
      vertex -55.0168 -4.44112 8
      vertex 1.95241 43.3617 8
    endloop
  endfacet
  facet normal -0.642788 0.766044 0
    outer loop
      vertex -55.0168 -4.44112 8
      vertex 1.95241 43.3617 0
      vertex -55.0168 -4.44112 0
    endloop
  endfacet
  facet normal -0.766044 -0.642788 0
    outer loop
      vertex -43.5707 -18.0821 0
      vertex -55.0168 -4.44112 8
      vertex -55.0168 -4.44112 0
    endloop
  endfacet
  facet normal -0.766044 -0.642788 0
    outer loop
      vertex -55.0168 -4.44112 8
      vertex -43.5707 -18.0821 0
      vertex -43.5707 -18.0821 8
    endloop
  endfacet
  facet normal 0.642788 -0.766044 0
    outer loop
      vertex -43.5707 -18.0821 0
      vertex -18.8267 2.68061 8
      vertex -43.5707 -18.0821 8
    endloop
  endfacet
  facet normal 0.642788 -0.766044 0
    outer loop
      vertex -18.8267 2.68061 8
      vertex -43.5707 -18.0821 0
      vertex -18.8267 2.68061 0
    endloop
  endfacet
  facet normal -0.824672 -0.130615 0.550323
    outer loop
      vertex 3.35663 -58 8
      vertex 1.7119 -57.4438 5.66735
      vertex 1.8 -58 5.66734
    endloop
  endfacet
  facet normal -0.824672 -0.130615 0.550323
    outer loop
      vertex 1.7119 -57.4438 5.66735
      vertex 3.35663 -58 8
      vertex 3.19235 -56.9627 8
    endloop
  endfacet
  facet normal 0.824672 -0.130615 0.550323
    outer loop
      vertex -3.35663 -58 8
      vertex -1.7119 -57.4438 5.66735
      vertex -3.19235 -56.9627 8
    endloop
  endfacet
  facet normal 0.824672 -0.130615 0.550323
    outer loop
      vertex -1.7119 -57.4438 5.66735
      vertex -3.35663 -58 8
      vertex -1.8 -58 5.66734
    endloop
  endfacet
  facet normal -0.824672 0.130616 0.550323
    outer loop
      vertex 1.7119 -58.5562 5.66734
      vertex 3.35663 -58 8
      vertex 1.8 -58 5.66734
    endloop
  endfacet
  facet normal -0.824672 0.130615 0.550323
    outer loop
      vertex 3.35663 -58 8
      vertex 1.7119 -58.5562 5.66734
      vertex 3.19235 -59.0373 8
    endloop
  endfacet
  facet normal 0.130617 -0.824672 0.550323
    outer loop
      vertex -1.03726 -54.8077 8
      vertex -0.556231 -56.2881 5.66735
      vertex 0 -54.6434 8
    endloop
  endfacet
  facet normal 0.130614 -0.824672 0.550323
    outer loop
      vertex 0 -54.6434 8
      vertex -0.556231 -56.2881 5.66735
      vertex 0 -56.2 5.66734
    endloop
  endfacet
  facet normal 0.130614 0.824673 0.550322
    outer loop
      vertex 0 -61.3566 8
      vertex -0.556231 -59.7119 5.66734
      vertex -1.03726 -61.1923 8
    endloop
  endfacet
  facet normal 0.130614 0.824673 0.550322
    outer loop
      vertex -0.556231 -59.7119 5.66734
      vertex 0 -61.3566 8
      vertex 0 -59.8 5.66734
    endloop
  endfacet
  facet normal 0.590401 -0.590399 0.550323
    outer loop
      vertex -2.71557 -56.027 8
      vertex -1.05801 -56.5438 5.66734
      vertex -1.97298 -55.2844 8
    endloop
  endfacet
  facet normal 0.5904 -0.590401 0.550323
    outer loop
      vertex -1.05801 -56.5438 5.66734
      vertex -2.71557 -56.027 8
      vertex -1.45623 -56.942 5.66734
    endloop
  endfacet
  facet normal -0.590401 -0.590399 0.550323
    outer loop
      vertex 1.05801 -56.5438 5.66734
      vertex 2.71557 -56.027 8
      vertex 1.97298 -55.2844 8
    endloop
  endfacet
  facet normal -0.5904 -0.590401 0.550323
    outer loop
      vertex 2.71557 -56.027 8
      vertex 1.05801 -56.5438 5.66734
      vertex 1.45623 -56.942 5.66734
    endloop
  endfacet
  facet normal -0.379061 0.743947 0.550322
    outer loop
      vertex 1.05801 -59.4562 5.66734
      vertex 1.03726 -61.1923 8
      vertex 1.97298 -60.7156 8
    endloop
  endfacet
  facet normal -0.379062 0.743947 0.550322
    outer loop
      vertex 1.03726 -61.1923 8
      vertex 1.05801 -59.4562 5.66734
      vertex 0.556231 -59.7119 5.66734
    endloop
  endfacet
  facet normal 0.743948 0.379059 0.550323
    outer loop
      vertex -3.19235 -59.0373 8
      vertex -1.45623 -59.058 5.66734
      vertex -1.7119 -58.5562 5.66734
    endloop
  endfacet
  facet normal 0.743948 0.379061 0.550323
    outer loop
      vertex -2.71557 -59.973 8
      vertex -1.45623 -59.058 5.66734
      vertex -3.19235 -59.0373 8
    endloop
  endfacet
  facet normal 0.743948 -0.379061 0.550323
    outer loop
      vertex -3.19235 -56.9627 8
      vertex -1.45623 -56.942 5.66734
      vertex -2.71557 -56.027 8
    endloop
  endfacet
  facet normal 0.743948 -0.379061 0.550323
    outer loop
      vertex -1.45623 -56.942 5.66734
      vertex -3.19235 -56.9627 8
      vertex -1.7119 -57.4438 5.66735
    endloop
  endfacet
  facet normal 0.379059 -0.743948 0.550323
    outer loop
      vertex -1.05801 -56.5438 5.66734
      vertex -1.03726 -54.8077 8
      vertex -1.97298 -55.2844 8
    endloop
  endfacet
  facet normal 0.379061 -0.743947 0.550322
    outer loop
      vertex -1.03726 -54.8077 8
      vertex -1.05801 -56.5438 5.66734
      vertex -0.556231 -56.2881 5.66735
    endloop
  endfacet
  facet normal -0.379061 -0.743947 0.550322
    outer loop
      vertex 1.05801 -56.5438 5.66734
      vertex 1.03726 -54.8077 8
      vertex 0.556231 -56.2881 5.66735
    endloop
  endfacet
  facet normal -0.379059 -0.743948 0.550323
    outer loop
      vertex 1.03726 -54.8077 8
      vertex 1.05801 -56.5438 5.66734
      vertex 1.97298 -55.2844 8
    endloop
  endfacet
  facet normal -0.743948 -0.379061 0.550323
    outer loop
      vertex 1.45623 -56.942 5.66734
      vertex 3.19235 -56.9627 8
      vertex 2.71557 -56.027 8
    endloop
  endfacet
  facet normal -0.743948 -0.379061 0.550323
    outer loop
      vertex 3.19235 -56.9627 8
      vertex 1.45623 -56.942 5.66734
      vertex 1.7119 -57.4438 5.66735
    endloop
  endfacet
  facet normal -0.743948 0.379059 0.550323
    outer loop
      vertex 1.45623 -59.058 5.66734
      vertex 3.19235 -59.0373 8
      vertex 1.7119 -58.5562 5.66734
    endloop
  endfacet
  facet normal -0.743948 0.379061 0.550323
    outer loop
      vertex 3.19235 -59.0373 8
      vertex 1.45623 -59.058 5.66734
      vertex 2.71557 -59.973 8
    endloop
  endfacet
  facet normal -0.130614 0.824673 0.550322
    outer loop
      vertex 0.556231 -59.7119 5.66734
      vertex 0 -61.3566 8
      vertex 1.03726 -61.1923 8
    endloop
  endfacet
  facet normal -0.130614 0.824673 0.550322
    outer loop
      vertex 0 -61.3566 8
      vertex 0.556231 -59.7119 5.66734
      vertex 0 -59.8 5.66734
    endloop
  endfacet
  facet normal 0.379062 0.743947 0.550322
    outer loop
      vertex -1.05801 -59.4562 5.66734
      vertex -1.03726 -61.1923 8
      vertex -0.556231 -59.7119 5.66734
    endloop
  endfacet
  facet normal 0.379061 0.743947 0.550322
    outer loop
      vertex -1.03726 -61.1923 8
      vertex -1.05801 -59.4562 5.66734
      vertex -1.97298 -60.7156 8
    endloop
  endfacet
  facet normal 0.824672 0.130616 0.550323
    outer loop
      vertex -3.35663 -58 8
      vertex -1.7119 -58.5562 5.66734
      vertex -1.8 -58 5.66734
    endloop
  endfacet
  facet normal 0.824672 0.130615 0.550323
    outer loop
      vertex -1.7119 -58.5562 5.66734
      vertex -3.35663 -58 8
      vertex -3.19235 -59.0373 8
    endloop
  endfacet
  facet normal -0.130617 -0.824672 0.550323
    outer loop
      vertex 0 -54.6434 8
      vertex 0.556231 -56.2881 5.66735
      vertex 1.03726 -54.8077 8
    endloop
  endfacet
  facet normal -0.130614 -0.824672 0.550323
    outer loop
      vertex 0.556231 -56.2881 5.66735
      vertex 0 -54.6434 8
      vertex 0 -56.2 5.66734
    endloop
  endfacet
  facet normal -0.5904 0.590401 0.550323
    outer loop
      vertex 1.45623 -59.058 5.66734
      vertex 1.97298 -60.7156 8
      vertex 2.71557 -59.973 8
    endloop
  endfacet
  facet normal -0.5904 0.590401 0.550322
    outer loop
      vertex 1.97298 -60.7156 8
      vertex 1.45623 -59.058 5.66734
      vertex 1.05801 -59.4562 5.66734
    endloop
  endfacet
  facet normal 0.5904 0.590401 0.550322
    outer loop
      vertex -1.45623 -59.058 5.66734
      vertex -1.97298 -60.7156 8
      vertex -1.05801 -59.4562 5.66734
    endloop
  endfacet
  facet normal 0.5904 0.590401 0.550323
    outer loop
      vertex -1.97298 -60.7156 8
      vertex -1.45623 -59.058 5.66734
      vertex -2.71557 -59.973 8
    endloop
  endfacet
  facet normal -0.987689 -0.156433 2.11486e-08
    outer loop
      vertex 1.8 -58 0.0999994
      vertex 1.7119 -57.4438 5.66735
      vertex 1.7119 -57.4438 0.0999994
    endloop
  endfacet
  facet normal -0.987689 -0.156433 0
    outer loop
      vertex 1.7119 -57.4438 5.66735
      vertex 1.8 -58 0.0999994
      vertex 1.8 -58 5.66734
    endloop
  endfacet
  facet normal 0.987689 -0.156433 0
    outer loop
      vertex -1.8 -58 5.66734
      vertex -1.7119 -57.4438 0.0999994
      vertex -1.7119 -57.4438 5.66735
    endloop
  endfacet
  facet normal 0.987689 -0.156433 0
    outer loop
      vertex -1.7119 -57.4438 0.0999994
      vertex -1.8 -58 5.66734
      vertex -1.8 -58 0.0999994
    endloop
  endfacet
  facet normal 0.987688 0.156434 0
    outer loop
      vertex -1.7119 -58.5562 5.66734
      vertex -1.8 -58 0.0999994
      vertex -1.8 -58 5.66734
    endloop
  endfacet
  facet normal 0.987688 0.156434 0
    outer loop
      vertex -1.8 -58 0.0999994
      vertex -1.7119 -58.5562 5.66734
      vertex -1.7119 -58.5562 0.0999994
    endloop
  endfacet
  facet normal 0.156432 -0.987689 0
    outer loop
      vertex -0.556231 -56.2881 0.0999994
      vertex 0 -56.2 5.66734
      vertex -0.556231 -56.2881 5.66735
    endloop
  endfacet
  facet normal 0.156432 -0.987689 0
    outer loop
      vertex 0 -56.2 5.66734
      vertex -0.556231 -56.2881 0.0999994
      vertex 0 -56.2 0.0999994
    endloop
  endfacet
  facet normal -0.707106 -0.707107 4.54222e-08
    outer loop
      vertex 1.05801 -56.5438 0.0999994
      vertex 1.45623 -56.942 5.66734
      vertex 1.05801 -56.5438 5.66734
    endloop
  endfacet
  facet normal -0.707106 -0.707108 -0
    outer loop
      vertex 1.45623 -56.942 5.66734
      vertex 1.05801 -56.5438 0.0999994
      vertex 1.45623 -56.942 0.0999994
    endloop
  endfacet
  facet normal -0.891006 -0.453992 0
    outer loop
      vertex 1.7119 -57.4438 0.0999994
      vertex 1.45623 -56.942 5.66734
      vertex 1.45623 -56.942 0.0999994
    endloop
  endfacet
  facet normal -0.891006 -0.453992 0
    outer loop
      vertex 1.45623 -56.942 5.66734
      vertex 1.7119 -57.4438 0.0999994
      vertex 1.7119 -57.4438 5.66735
    endloop
  endfacet
  facet normal 0.453993 -0.891005 0
    outer loop
      vertex -1.05801 -56.5438 0.0999994
      vertex -0.556231 -56.2881 5.66735
      vertex -1.05801 -56.5438 5.66734
    endloop
  endfacet
  facet normal 0.453993 -0.891005 9.721e-09
    outer loop
      vertex -0.556231 -56.2881 0.0999994
      vertex -0.556231 -56.2881 5.66735
      vertex -1.05801 -56.5438 0.0999994
    endloop
  endfacet
  facet normal 0.891006 -0.453992 0
    outer loop
      vertex -1.7119 -57.4438 5.66735
      vertex -1.45623 -56.942 0.0999994
      vertex -1.45623 -56.942 5.66734
    endloop
  endfacet
  facet normal 0.891006 -0.453992 0
    outer loop
      vertex -1.45623 -56.942 0.0999994
      vertex -1.7119 -57.4438 5.66735
      vertex -1.7119 -57.4438 0.0999994
    endloop
  endfacet
  facet normal 0.707106 -0.707107 0
    outer loop
      vertex -1.45623 -56.942 5.66734
      vertex -1.45623 -56.942 0.0999994
      vertex -1.05801 -56.5438 5.66734
    endloop
  endfacet
  facet normal 0.707106 -0.707108 4.54222e-08
    outer loop
      vertex -1.05801 -56.5438 0.0999994
      vertex -1.05801 -56.5438 5.66734
      vertex -1.45623 -56.942 0.0999994
    endloop
  endfacet
  facet normal -0.453993 -0.891005 9.721e-09
    outer loop
      vertex 0.556231 -56.2881 5.66735
      vertex 0.556231 -56.2881 0.0999994
      vertex 1.05801 -56.5438 5.66734
    endloop
  endfacet
  facet normal -0.453993 -0.891005 -0
    outer loop
      vertex 1.05801 -56.5438 5.66734
      vertex 0.556231 -56.2881 0.0999994
      vertex 1.05801 -56.5438 0.0999994
    endloop
  endfacet
  facet normal -0.156432 -0.987689 0
    outer loop
      vertex 0 -56.2 0.0999994
      vertex 0.556231 -56.2881 5.66735
      vertex 0 -56.2 5.66734
    endloop
  endfacet
  facet normal -0.156432 -0.987689 -0
    outer loop
      vertex 0.556231 -56.2881 5.66735
      vertex 0 -56.2 0.0999994
      vertex 0.556231 -56.2881 0.0999994
    endloop
  endfacet
  facet normal -0.453993 0.891005 0
    outer loop
      vertex 1.05801 -59.4562 0.0999994
      vertex 0.556231 -59.7119 5.66734
      vertex 1.05801 -59.4562 5.66734
    endloop
  endfacet
  facet normal -0.453993 0.891005 0
    outer loop
      vertex 0.556231 -59.7119 5.66734
      vertex 1.05801 -59.4562 0.0999994
      vertex 0.556231 -59.7119 0.0999994
    endloop
  endfacet
  facet normal -0.987688 0.156434 0
    outer loop
      vertex 1.7119 -58.5562 0.0999994
      vertex 1.8 -58 5.66734
      vertex 1.8 -58 0.0999994
    endloop
  endfacet
  facet normal -0.987688 0.156434 0
    outer loop
      vertex 1.8 -58 5.66734
      vertex 1.7119 -58.5562 0.0999994
      vertex 1.7119 -58.5562 5.66734
    endloop
  endfacet
  facet normal 0.891007 0.453989 0
    outer loop
      vertex -1.45623 -59.058 5.66734
      vertex -1.7119 -58.5562 0.0999994
      vertex -1.7119 -58.5562 5.66734
    endloop
  endfacet
  facet normal 0.891007 0.453989 0
    outer loop
      vertex -1.7119 -58.5562 0.0999994
      vertex -1.45623 -59.058 5.66734
      vertex -1.45623 -59.058 0.0999994
    endloop
  endfacet
  facet normal -0.707106 0.707107 -3.02815e-08
    outer loop
      vertex 1.45623 -59.058 5.66734
      vertex 1.45623 -59.058 0.0999994
      vertex 1.05801 -59.4562 5.66734
    endloop
  endfacet
  facet normal -0.707106 0.707108 3.02814e-08
    outer loop
      vertex 1.05801 -59.4562 0.0999994
      vertex 1.05801 -59.4562 5.66734
      vertex 1.45623 -59.058 0.0999994
    endloop
  endfacet
  facet normal -0.891007 0.453989 0
    outer loop
      vertex 1.45623 -59.058 0.0999994
      vertex 1.7119 -58.5562 5.66734
      vertex 1.7119 -58.5562 0.0999994
    endloop
  endfacet
  facet normal -0.891007 0.453989 0
    outer loop
      vertex 1.7119 -58.5562 5.66734
      vertex 1.45623 -59.058 0.0999994
      vertex 1.45623 -59.058 5.66734
    endloop
  endfacet
  facet normal 0 0 1
    outer loop
      vertex 1.7119 -57.4438 0.0999994
      vertex 1.7119 -58.5562 0.0999994
      vertex 1.8 -58 0.0999994
    endloop
  endfacet
  facet normal 0 0 1
    outer loop
      vertex 1.45623 -56.942 0.0999994
      vertex 1.7119 -58.5562 0.0999994
      vertex 1.7119 -57.4438 0.0999994
    endloop
  endfacet
  facet normal 0 0 1
    outer loop
      vertex 1.45623 -56.942 0.0999994
      vertex 1.45623 -59.058 0.0999994
      vertex 1.7119 -58.5562 0.0999994
    endloop
  endfacet
  facet normal 0 0 1
    outer loop
      vertex 1.05801 -56.5438 0.0999994
      vertex 1.45623 -59.058 0.0999994
      vertex 1.45623 -56.942 0.0999994
    endloop
  endfacet
  facet normal 0 0 1
    outer loop
      vertex 1.05801 -56.5438 0.0999994
      vertex 1.05801 -59.4562 0.0999994
      vertex 1.45623 -59.058 0.0999994
    endloop
  endfacet
  facet normal 0 0 1
    outer loop
      vertex 0.556231 -56.2881 0.0999994
      vertex 1.05801 -59.4562 0.0999994
      vertex 1.05801 -56.5438 0.0999994
    endloop
  endfacet
  facet normal 0 0 1
    outer loop
      vertex 0.556231 -56.2881 0.0999994
      vertex 0.556231 -59.7119 0.0999994
      vertex 1.05801 -59.4562 0.0999994
    endloop
  endfacet
  facet normal 0 0 1
    outer loop
      vertex 0 -56.2 0.0999994
      vertex 0.556231 -59.7119 0.0999994
      vertex 0.556231 -56.2881 0.0999994
    endloop
  endfacet
  facet normal 0 0 1
    outer loop
      vertex 0 -56.2 0.0999994
      vertex 0 -59.8 0.0999994
      vertex 0.556231 -59.7119 0.0999994
    endloop
  endfacet
  facet normal -0 0 1
    outer loop
      vertex -0.556231 -56.2881 0.0999994
      vertex 0 -59.8 0.0999994
      vertex 0 -56.2 0.0999994
    endloop
  endfacet
  facet normal 0 0 1
    outer loop
      vertex -0.556231 -56.2881 0.0999994
      vertex -0.556231 -59.7119 0.0999994
      vertex 0 -59.8 0.0999994
    endloop
  endfacet
  facet normal -0 0 1
    outer loop
      vertex -1.05801 -56.5438 0.0999994
      vertex -0.556231 -59.7119 0.0999994
      vertex -0.556231 -56.2881 0.0999994
    endloop
  endfacet
  facet normal 0 0 1
    outer loop
      vertex -1.05801 -56.5438 0.0999994
      vertex -1.05801 -59.4562 0.0999994
      vertex -0.556231 -59.7119 0.0999994
    endloop
  endfacet
  facet normal -0 0 1
    outer loop
      vertex -1.45623 -56.942 0.0999994
      vertex -1.05801 -59.4562 0.0999994
      vertex -1.05801 -56.5438 0.0999994
    endloop
  endfacet
  facet normal 0 0 1
    outer loop
      vertex -1.45623 -56.942 0.0999994
      vertex -1.45623 -59.058 0.0999994
      vertex -1.05801 -59.4562 0.0999994
    endloop
  endfacet
  facet normal -0 0 1
    outer loop
      vertex -1.7119 -57.4438 0.0999994
      vertex -1.45623 -59.058 0.0999994
      vertex -1.45623 -56.942 0.0999994
    endloop
  endfacet
  facet normal 0 0 1
    outer loop
      vertex -1.7119 -57.4438 0.0999994
      vertex -1.7119 -58.5562 0.0999994
      vertex -1.45623 -59.058 0.0999994
    endloop
  endfacet
  facet normal 0 -0 1
    outer loop
      vertex -1.7119 -58.5562 0.0999994
      vertex -1.7119 -57.4438 0.0999994
      vertex -1.8 -58 0.0999994
    endloop
  endfacet
  facet normal 0.156432 0.987689 -0
    outer loop
      vertex 0 -59.8 0.0999994
      vertex -0.556231 -59.7119 5.66734
      vertex 0 -59.8 5.66734
    endloop
  endfacet
  facet normal 0.156432 0.987689 0
    outer loop
      vertex -0.556231 -59.7119 5.66734
      vertex 0 -59.8 0.0999994
      vertex -0.556231 -59.7119 0.0999994
    endloop
  endfacet
  facet normal -0.156432 0.987689 0
    outer loop
      vertex 0.556231 -59.7119 0.0999994
      vertex 0 -59.8 5.66734
      vertex 0.556231 -59.7119 5.66734
    endloop
  endfacet
  facet normal -0.156432 0.987689 0
    outer loop
      vertex 0 -59.8 5.66734
      vertex 0.556231 -59.7119 0.0999994
      vertex 0 -59.8 0.0999994
    endloop
  endfacet
  facet normal 0.707106 0.707107 3.02815e-08
    outer loop
      vertex -1.05801 -59.4562 5.66734
      vertex -1.05801 -59.4562 0.0999994
      vertex -1.45623 -59.058 5.66734
    endloop
  endfacet
  facet normal 0.707106 0.707108 -3.02814e-08
    outer loop
      vertex -1.45623 -59.058 0.0999994
      vertex -1.45623 -59.058 5.66734
      vertex -1.05801 -59.4562 0.0999994
    endloop
  endfacet
  facet normal 0.453993 0.891005 -0
    outer loop
      vertex -0.556231 -59.7119 0.0999994
      vertex -1.05801 -59.4562 5.66734
      vertex -0.556231 -59.7119 5.66734
    endloop
  endfacet
  facet normal 0.453993 0.891005 0
    outer loop
      vertex -1.05801 -59.4562 5.66734
      vertex -0.556231 -59.7119 0.0999994
      vertex -1.05801 -59.4562 0.0999994
    endloop
  endfacet
  facet normal -0.824672 -0.130615 0.550323
    outer loop
      vertex 3.35663 30 8
      vertex 1.7119 30.5562 5.66734
      vertex 1.8 30 5.66734
    endloop
  endfacet
  facet normal -0.824672 -0.130615 0.550323
    outer loop
      vertex 1.7119 30.5562 5.66734
      vertex 3.35663 30 8
      vertex 3.19235 31.0373 8
    endloop
  endfacet
  facet normal 0.824672 0.130615 0.550323
    outer loop
      vertex -3.35663 30 8
      vertex -1.7119 29.4438 5.66735
      vertex -1.8 30 5.66734
    endloop
  endfacet
  facet normal 0.824672 0.130615 0.550323
    outer loop
      vertex -1.7119 29.4438 5.66735
      vertex -3.35663 30 8
      vertex -3.19235 28.9627 8
    endloop
  endfacet
  facet normal -0.824672 0.130615 0.550323
    outer loop
      vertex 1.7119 29.4438 5.66735
      vertex 3.35663 30 8
      vertex 1.8 30 5.66734
    endloop
  endfacet
  facet normal -0.824672 0.130615 0.550323
    outer loop
      vertex 3.35663 30 8
      vertex 1.7119 29.4438 5.66735
      vertex 3.19235 28.9627 8
    endloop
  endfacet
  facet normal 0.130614 -0.824673 0.550322
    outer loop
      vertex -0.556231 31.7119 5.66734
      vertex 0 33.3566 8
      vertex -1.03726 33.1923 8
    endloop
  endfacet
  facet normal 0.130614 -0.824673 0.550322
    outer loop
      vertex 0 33.3566 8
      vertex -0.556231 31.7119 5.66734
      vertex 0 31.8 5.66734
    endloop
  endfacet
  facet normal 0.130616 0.824672 0.550323
    outer loop
      vertex 0 26.6434 8
      vertex -0.556231 28.2881 5.66735
      vertex -1.03726 26.8077 8
    endloop
  endfacet
  facet normal 0.130614 0.824672 0.550323
    outer loop
      vertex -0.556231 28.2881 5.66735
      vertex 0 26.6434 8
      vertex 0 28.2 5.66734
    endloop
  endfacet
  facet normal 0.743948 -0.37906 0.550323
    outer loop
      vertex -3.19235 31.0373 8
      vertex -1.45623 31.058 5.66734
      vertex -2.71557 31.973 8
    endloop
  endfacet
  facet normal 0.743948 -0.37906 0.550323
    outer loop
      vertex -1.45623 31.058 5.66734
      vertex -3.19235 31.0373 8
      vertex -1.7119 30.5562 5.66734
    endloop
  endfacet
  facet normal -0.5904 -0.590401 0.550322
    outer loop
      vertex 1.45623 31.058 5.66734
      vertex 1.97298 32.7156 8
      vertex 1.05801 31.4562 5.66734
    endloop
  endfacet
  facet normal -0.5904 -0.590401 0.550323
    outer loop
      vertex 1.97298 32.7156 8
      vertex 1.45623 31.058 5.66734
      vertex 2.71557 31.973 8
    endloop
  endfacet
  facet normal -0.5904 0.590401 0.550323
    outer loop
      vertex 1.05801 28.5438 5.66734
      vertex 2.71557 28.027 8
      vertex 1.45623 28.942 5.66734
    endloop
  endfacet
  facet normal -0.5904 0.5904 0.550323
    outer loop
      vertex 2.71557 28.027 8
      vertex 1.05801 28.5438 5.66734
      vertex 1.97298 27.2844 8
    endloop
  endfacet
  facet normal 0.5904 0.590401 0.550323
    outer loop
      vertex -2.71557 28.027 8
      vertex -1.05801 28.5438 5.66734
      vertex -1.45623 28.942 5.66734
    endloop
  endfacet
  facet normal 0.5904 0.5904 0.550323
    outer loop
      vertex -1.05801 28.5438 5.66734
      vertex -2.71557 28.027 8
      vertex -1.97298 27.2844 8
    endloop
  endfacet
  facet normal 0.824672 -0.130615 0.550323
    outer loop
      vertex -3.35663 30 8
      vertex -1.7119 30.5562 5.66734
      vertex -3.19235 31.0373 8
    endloop
  endfacet
  facet normal 0.824672 -0.130615 0.550323
    outer loop
      vertex -1.7119 30.5562 5.66734
      vertex -3.35663 30 8
      vertex -1.8 30 5.66734
    endloop
  endfacet
  facet normal 0.379061 -0.743947 0.550322
    outer loop
      vertex -1.05801 31.4562 5.66734
      vertex -1.03726 33.1923 8
      vertex -1.97298 32.7156 8
    endloop
  endfacet
  facet normal 0.379062 -0.743947 0.550322
    outer loop
      vertex -1.03726 33.1923 8
      vertex -1.05801 31.4562 5.66734
      vertex -0.556231 31.7119 5.66734
    endloop
  endfacet
  facet normal -0.379062 -0.743947 0.550322
    outer loop
      vertex 1.05801 31.4562 5.66734
      vertex 1.03726 33.1923 8
      vertex 0.556231 31.7119 5.66734
    endloop
  endfacet
  facet normal -0.379061 -0.743947 0.550322
    outer loop
      vertex 1.03726 33.1923 8
      vertex 1.05801 31.4562 5.66734
      vertex 1.97298 32.7156 8
    endloop
  endfacet
  facet normal -0.743948 -0.37906 0.550323
    outer loop
      vertex 1.45623 31.058 5.66734
      vertex 3.19235 31.0373 8
      vertex 2.71557 31.973 8
    endloop
  endfacet
  facet normal -0.743948 -0.37906 0.550323
    outer loop
      vertex 3.19235 31.0373 8
      vertex 1.45623 31.058 5.66734
      vertex 1.7119 30.5562 5.66734
    endloop
  endfacet
  facet normal -0.743948 0.379061 0.550323
    outer loop
      vertex 1.45623 28.942 5.66734
      vertex 3.19235 28.9627 8
      vertex 1.7119 29.4438 5.66735
    endloop
  endfacet
  facet normal -0.743948 0.379061 0.550323
    outer loop
      vertex 3.19235 28.9627 8
      vertex 1.45623 28.942 5.66734
      vertex 2.71557 28.027 8
    endloop
  endfacet
  facet normal -0.37906 0.743948 0.550323
    outer loop
      vertex 1.05801 28.5438 5.66734
      vertex 1.03726 26.8077 8
      vertex 1.97298 27.2844 8
    endloop
  endfacet
  facet normal -0.379061 0.743947 0.550322
    outer loop
      vertex 1.03726 26.8077 8
      vertex 1.05801 28.5438 5.66734
      vertex 0.556231 28.2881 5.66735
    endloop
  endfacet
  facet normal 0.379061 0.743947 0.550322
    outer loop
      vertex -1.05801 28.5438 5.66734
      vertex -1.03726 26.8077 8
      vertex -0.556231 28.2881 5.66735
    endloop
  endfacet
  facet normal 0.37906 0.743948 0.550323
    outer loop
      vertex -1.03726 26.8077 8
      vertex -1.05801 28.5438 5.66734
      vertex -1.97298 27.2844 8
    endloop
  endfacet
  facet normal 0.743948 0.379061 0.550323
    outer loop
      vertex -3.19235 28.9627 8
      vertex -1.45623 28.942 5.66734
      vertex -1.7119 29.4438 5.66735
    endloop
  endfacet
  facet normal 0.743948 0.379061 0.550323
    outer loop
      vertex -1.45623 28.942 5.66734
      vertex -3.19235 28.9627 8
      vertex -2.71557 28.027 8
    endloop
  endfacet
  facet normal 0.5904 -0.590401 0.550323
    outer loop
      vertex -1.45623 31.058 5.66734
      vertex -1.97298 32.7156 8
      vertex -2.71557 31.973 8
    endloop
  endfacet
  facet normal 0.5904 -0.590401 0.550322
    outer loop
      vertex -1.97298 32.7156 8
      vertex -1.45623 31.058 5.66734
      vertex -1.05801 31.4562 5.66734
    endloop
  endfacet
  facet normal -0.130614 -0.824673 0.550322
    outer loop
      vertex 0 33.3566 8
      vertex 0.556231 31.7119 5.66734
      vertex 1.03726 33.1923 8
    endloop
  endfacet
  facet normal -0.130614 -0.824673 0.550322
    outer loop
      vertex 0.556231 31.7119 5.66734
      vertex 0 33.3566 8
      vertex 0 31.8 5.66734
    endloop
  endfacet
  facet normal -0.130616 0.824672 0.550323
    outer loop
      vertex 1.03726 26.8077 8
      vertex 0.556231 28.2881 5.66735
      vertex 0 26.6434 8
    endloop
  endfacet
  facet normal -0.130614 0.824672 0.550323
    outer loop
      vertex 0 26.6434 8
      vertex 0.556231 28.2881 5.66735
      vertex 0 28.2 5.66734
    endloop
  endfacet
  facet normal -0.987689 -0.156433 0
    outer loop
      vertex 1.8 30 0.0999994
      vertex 1.7119 30.5562 5.66734
      vertex 1.7119 30.5562 0.0999994
    endloop
  endfacet
  facet normal -0.987689 -0.156433 0
    outer loop
      vertex 1.7119 30.5562 5.66734
      vertex 1.8 30 0.0999994
      vertex 1.8 30 5.66734
    endloop
  endfacet
  facet normal 0.156432 -0.987689 0
    outer loop
      vertex -0.556231 31.7119 0.0999994
      vertex 0 31.8 5.66734
      vertex -0.556231 31.7119 5.66734
    endloop
  endfacet
  facet normal 0.156432 -0.987689 0
    outer loop
      vertex 0 31.8 5.66734
      vertex -0.556231 31.7119 0.0999994
      vertex 0 31.8 0.0999994
    endloop
  endfacet
  facet normal -0.156432 0.987689 0
    outer loop
      vertex 0.556231 28.2881 0.0999994
      vertex 0 28.2 5.66734
      vertex 0.556231 28.2881 5.66735
    endloop
  endfacet
  facet normal -0.156432 0.987689 0
    outer loop
      vertex 0 28.2 5.66734
      vertex 0.556231 28.2881 0.0999994
      vertex 0 28.2 0.0999994
    endloop
  endfacet
  facet normal -0.453993 -0.891005 0
    outer loop
      vertex 0.556231 31.7119 0.0999994
      vertex 1.05801 31.4562 5.66734
      vertex 0.556231 31.7119 5.66734
    endloop
  endfacet
  facet normal -0.453993 -0.891005 -0
    outer loop
      vertex 1.05801 31.4562 5.66734
      vertex 0.556231 31.7119 0.0999994
      vertex 1.05801 31.4562 0.0999994
    endloop
  endfacet
  facet normal -0.891006 -0.453991 0
    outer loop
      vertex 1.7119 30.5562 0.0999994
      vertex 1.45623 31.058 5.66734
      vertex 1.45623 31.058 0.0999994
    endloop
  endfacet
  facet normal -0.891006 -0.453991 0
    outer loop
      vertex 1.45623 31.058 5.66734
      vertex 1.7119 30.5562 0.0999994
      vertex 1.7119 30.5562 5.66734
    endloop
  endfacet
  facet normal -0.156432 -0.987689 0
    outer loop
      vertex 0 31.8 0.0999994
      vertex 0.556231 31.7119 5.66734
      vertex 0 31.8 5.66734
    endloop
  endfacet
  facet normal -0.156432 -0.987689 -0
    outer loop
      vertex 0.556231 31.7119 5.66734
      vertex 0 31.8 0.0999994
      vertex 0.556231 31.7119 0.0999994
    endloop
  endfacet
  facet normal 0.891006 -0.453991 0
    outer loop
      vertex -1.7119 30.5562 5.66734
      vertex -1.45623 31.058 0.0999994
      vertex -1.45623 31.058 5.66734
    endloop
  endfacet
  facet normal 0.891006 -0.453991 0
    outer loop
      vertex -1.45623 31.058 0.0999994
      vertex -1.7119 30.5562 5.66734
      vertex -1.7119 30.5562 0.0999994
    endloop
  endfacet
  facet normal 0 0 1
    outer loop
      vertex 1.7119 30.5562 0.0999994
      vertex 1.7119 29.4438 0.0999994
      vertex 1.8 30 0.0999994
    endloop
  endfacet
  facet normal 0 0 1
    outer loop
      vertex 1.45623 31.058 0.0999994
      vertex 1.7119 29.4438 0.0999994
      vertex 1.7119 30.5562 0.0999994
    endloop
  endfacet
  facet normal 0 0 1
    outer loop
      vertex 1.45623 31.058 0.0999994
      vertex 1.45623 28.942 0.0999994
      vertex 1.7119 29.4438 0.0999994
    endloop
  endfacet
  facet normal 0 0 1
    outer loop
      vertex 1.05801 31.4562 0.0999994
      vertex 1.45623 28.942 0.0999994
      vertex 1.45623 31.058 0.0999994
    endloop
  endfacet
  facet normal 0 0 1
    outer loop
      vertex 1.05801 31.4562 0.0999994
      vertex 1.05801 28.5438 0.0999994
      vertex 1.45623 28.942 0.0999994
    endloop
  endfacet
  facet normal 0 0 1
    outer loop
      vertex 0.556231 31.7119 0.0999994
      vertex 1.05801 28.5438 0.0999994
      vertex 1.05801 31.4562 0.0999994
    endloop
  endfacet
  facet normal 0 0 1
    outer loop
      vertex 0.556231 31.7119 0.0999994
      vertex 0.556231 28.2881 0.0999994
      vertex 1.05801 28.5438 0.0999994
    endloop
  endfacet
  facet normal 0 0 1
    outer loop
      vertex 0 31.8 0.0999994
      vertex 0.556231 28.2881 0.0999994
      vertex 0.556231 31.7119 0.0999994
    endloop
  endfacet
  facet normal 0 0 1
    outer loop
      vertex 0 31.8 0.0999994
      vertex 0 28.2 0.0999994
      vertex 0.556231 28.2881 0.0999994
    endloop
  endfacet
  facet normal -0 0 1
    outer loop
      vertex -0.556231 31.7119 0.0999994
      vertex 0 28.2 0.0999994
      vertex 0 31.8 0.0999994
    endloop
  endfacet
  facet normal 0 0 1
    outer loop
      vertex -0.556231 31.7119 0.0999994
      vertex -0.556231 28.2881 0.0999994
      vertex 0 28.2 0.0999994
    endloop
  endfacet
  facet normal -0 0 1
    outer loop
      vertex -1.05801 31.4562 0.0999994
      vertex -0.556231 28.2881 0.0999994
      vertex -0.556231 31.7119 0.0999994
    endloop
  endfacet
  facet normal 0 0 1
    outer loop
      vertex -1.05801 31.4562 0.0999994
      vertex -1.05801 28.5438 0.0999994
      vertex -0.556231 28.2881 0.0999994
    endloop
  endfacet
  facet normal -0 0 1
    outer loop
      vertex -1.45623 31.058 0.0999994
      vertex -1.05801 28.5438 0.0999994
      vertex -1.05801 31.4562 0.0999994
    endloop
  endfacet
  facet normal 0 0 1
    outer loop
      vertex -1.45623 31.058 0.0999994
      vertex -1.45623 28.942 0.0999994
      vertex -1.05801 28.5438 0.0999994
    endloop
  endfacet
  facet normal -0 0 1
    outer loop
      vertex -1.7119 30.5562 0.0999994
      vertex -1.45623 28.942 0.0999994
      vertex -1.45623 31.058 0.0999994
    endloop
  endfacet
  facet normal 0 0 1
    outer loop
      vertex -1.7119 30.5562 0.0999994
      vertex -1.7119 29.4438 0.0999994
      vertex -1.45623 28.942 0.0999994
    endloop
  endfacet
  facet normal 0 -0 1
    outer loop
      vertex -1.7119 29.4438 0.0999994
      vertex -1.7119 30.5562 0.0999994
      vertex -1.8 30 0.0999994
    endloop
  endfacet
  facet normal 0.987689 -0.156433 0
    outer loop
      vertex -1.8 30 5.66734
      vertex -1.7119 30.5562 0.0999994
      vertex -1.7119 30.5562 5.66734
    endloop
  endfacet
  facet normal 0.987689 -0.156433 0
    outer loop
      vertex -1.7119 30.5562 0.0999994
      vertex -1.8 30 5.66734
      vertex -1.8 30 0.0999994
    endloop
  endfacet
  facet normal 0.453993 -0.891005 0
    outer loop
      vertex -1.05801 31.4562 0.0999994
      vertex -0.556231 31.7119 5.66734
      vertex -1.05801 31.4562 5.66734
    endloop
  endfacet
  facet normal 0.453993 -0.891005 0
    outer loop
      vertex -0.556231 31.7119 5.66734
      vertex -1.05801 31.4562 0.0999994
      vertex -0.556231 31.7119 0.0999994
    endloop
  endfacet
  facet normal -0.453993 0.891005 0
    outer loop
      vertex 1.05801 28.5438 0.0999994
      vertex 0.556231 28.2881 5.66735
      vertex 1.05801 28.5438 5.66734
    endloop
  endfacet
  facet normal -0.453993 0.891005 9.721e-09
    outer loop
      vertex 0.556231 28.2881 0.0999994
      vertex 0.556231 28.2881 5.66735
      vertex 1.05801 28.5438 0.0999994
    endloop
  endfacet
  facet normal -0.987689 0.156433 0
    outer loop
      vertex 1.8 30 0.0999994
      vertex 1.7119 29.4438 5.66735
      vertex 1.8 30 5.66734
    endloop
  endfacet
  facet normal -0.987689 0.156433 -3.24446e-08
    outer loop
      vertex 1.7119 29.4438 0.0999994
      vertex 1.7119 29.4438 5.66735
      vertex 1.8 30 0.0999994
    endloop
  endfacet
  facet normal 0.156432 0.987689 -0
    outer loop
      vertex 0 28.2 0.0999994
      vertex -0.556231 28.2881 5.66735
      vertex 0 28.2 5.66734
    endloop
  endfacet
  facet normal 0.156432 0.987689 0
    outer loop
      vertex -0.556231 28.2881 5.66735
      vertex 0 28.2 0.0999994
      vertex -0.556231 28.2881 0.0999994
    endloop
  endfacet
  facet normal 0.891006 0.453992 0
    outer loop
      vertex -1.45623 28.942 5.66734
      vertex -1.7119 29.4438 0.0999994
      vertex -1.7119 29.4438 5.66735
    endloop
  endfacet
  facet normal 0.891006 0.453992 0
    outer loop
      vertex -1.7119 29.4438 0.0999994
      vertex -1.45623 28.942 5.66734
      vertex -1.45623 28.942 0.0999994
    endloop
  endfacet
  facet normal -0.707106 -0.707107 3.02815e-08
    outer loop
      vertex 1.05801 31.4562 5.66734
      vertex 1.05801 31.4562 0.0999994
      vertex 1.45623 31.058 5.66734
    endloop
  endfacet
  facet normal -0.707106 -0.707108 -3.02814e-08
    outer loop
      vertex 1.45623 31.058 0.0999994
      vertex 1.45623 31.058 5.66734
      vertex 1.05801 31.4562 0.0999994
    endloop
  endfacet
  facet normal 0.987689 0.156433 0
    outer loop
      vertex -1.7119 29.4438 5.66735
      vertex -1.8 30 0.0999994
      vertex -1.8 30 5.66734
    endloop
  endfacet
  facet normal 0.987689 0.156433 -3.24446e-08
    outer loop
      vertex -1.7119 29.4438 5.66735
      vertex -1.7119 29.4438 0.0999994
      vertex -1.8 30 0.0999994
    endloop
  endfacet
  facet normal 0.707106 -0.707107 -3.02815e-08
    outer loop
      vertex -1.45623 31.058 5.66734
      vertex -1.45623 31.058 0.0999994
      vertex -1.05801 31.4562 5.66734
    endloop
  endfacet
  facet normal 0.707106 -0.707108 3.02814e-08
    outer loop
      vertex -1.05801 31.4562 0.0999994
      vertex -1.05801 31.4562 5.66734
      vertex -1.45623 31.058 0.0999994
    endloop
  endfacet
  facet normal -0.707106 0.707107 0
    outer loop
      vertex 1.45623 28.942 5.66734
      vertex 1.45623 28.942 0.0999994
      vertex 1.05801 28.5438 5.66734
    endloop
  endfacet
  facet normal -0.707106 0.707108 4.54222e-08
    outer loop
      vertex 1.05801 28.5438 0.0999994
      vertex 1.05801 28.5438 5.66734
      vertex 1.45623 28.942 0.0999994
    endloop
  endfacet
  facet normal 0.707106 0.707107 4.54222e-08
    outer loop
      vertex -1.05801 28.5438 0.0999994
      vertex -1.45623 28.942 5.66734
      vertex -1.05801 28.5438 5.66734
    endloop
  endfacet
  facet normal 0.707106 0.707108 0
    outer loop
      vertex -1.45623 28.942 5.66734
      vertex -1.05801 28.5438 0.0999994
      vertex -1.45623 28.942 0.0999994
    endloop
  endfacet
  facet normal -0.891006 0.453992 0
    outer loop
      vertex 1.45623 28.942 0.0999994
      vertex 1.7119 29.4438 5.66735
      vertex 1.7119 29.4438 0.0999994
    endloop
  endfacet
  facet normal -0.891006 0.453992 0
    outer loop
      vertex 1.7119 29.4438 5.66735
      vertex 1.45623 28.942 0.0999994
      vertex 1.45623 28.942 5.66734
    endloop
  endfacet
  facet normal 0.453993 0.891005 9.721e-09
    outer loop
      vertex -0.556231 28.2881 5.66735
      vertex -0.556231 28.2881 0.0999994
      vertex -1.05801 28.5438 5.66734
    endloop
  endfacet
  facet normal 0.453993 0.891005 0
    outer loop
      vertex -1.05801 28.5438 5.66734
      vertex -0.556231 28.2881 0.0999994
      vertex -1.05801 28.5438 0.0999994
    endloop
  endfacet
endsolid OpenSCAD_Model
