solid OpenSCAD_Model
  facet normal -0 0 -1
    outer loop
      vertex 55.0707 5.18149 0
      vertex 19.7399 -9.06419 0
      vertex 41.3524 16.6925 0
    endloop
  endfacet
  facet normal 0 0 -1
    outer loop
      vertex 55.0707 5.18149 0
      vertex 19.0523 -9.89025 0
      vertex 19.7399 -9.06419 0
    endloop
  endfacet
  facet normal 0 0 -1
    outer loop
      vertex 55.0707 5.18149 0
      vertex 18.3374 -10.7619 0
      vertex 19.0523 -9.89025 0
    endloop
  endfacet
  facet normal 0 0 -1
    outer loop
      vertex 55.0707 5.18149 0
      vertex 17.5954 -11.679 0
      vertex 18.3374 -10.7619 0
    endloop
  endfacet
  facet normal 0 0 -1
    outer loop
      vertex 55.0707 5.18149 0
      vertex 16.8261 -12.6417 0
      vertex 17.5954 -11.679 0
    endloop
  endfacet
  facet normal 0 0 -1
    outer loop
      vertex 55.0707 5.18149 0
      vertex 16.0297 -13.65 0
      vertex 16.8261 -12.6417 0
    endloop
  endfacet
  facet normal 0 0 -1
    outer loop
      vertex 7.26785 -51.7877 0
      vertex 16.0297 -13.65 0
      vertex 55.0707 5.18149 0
    endloop
  endfacet
  facet normal 0 0 -1
    outer loop
      vertex 16.0297 -13.65 0
      vertex 7.26785 -51.7877 0
      vertex 15.206 -14.7038 0
    endloop
  endfacet
  facet normal 0 0 -1
    outer loop
      vertex 15.206 -14.7038 0
      vertex 7.26785 -51.7877 0
      vertex 14.3551 -15.8031 0
    endloop
  endfacet
  facet normal 0 0 -1
    outer loop
      vertex 14.3551 -15.8031 0
      vertex 7.26785 -51.7877 0
      vertex 13.4771 -16.948 0
    endloop
  endfacet
  facet normal 0 0 -1
    outer loop
      vertex 13.4771 -16.948 0
      vertex 7.26785 -51.7877 0
      vertex 12.5718 -18.1385 0
    endloop
  endfacet
  facet normal 0 0 -1
    outer loop
      vertex 12.5718 -18.1385 0
      vertex 7.26785 -51.7877 0
      vertex 11.6393 -19.3745 0
    endloop
  endfacet
  facet normal 0 0 -1
    outer loop
      vertex 11.6393 -19.3745 0
      vertex 7.26785 -51.7877 0
      vertex 10.6796 -20.656 0
    endloop
  endfacet
  facet normal 0 0 -1
    outer loop
      vertex 10.6796 -20.656 0
      vertex 7.26785 -51.7877 0
      vertex 9.69272 -21.9831 0
    endloop
  endfacet
  facet normal 0 0 -1
    outer loop
      vertex -12.9197 -34.8483 0
      vertex 8.67864 -23.3557 0
      vertex 7.26785 -51.7877 0
    endloop
  endfacet
  facet normal 0 0 -1
    outer loop
      vertex 9.69272 -21.9831 0
      vertex 7.26785 -51.7877 0
      vertex 8.67864 -23.3557 0
    endloop
  endfacet
  facet normal 0 0 -1
    outer loop
      vertex -0.053278 22.7496 0
      vertex 20.9311 33.828 0
      vertex 8.44423 -23.159 0
    endloop
  endfacet
  facet normal -0 0 -1
    outer loop
      vertex 8.67864 -23.3557 0
      vertex -12.9197 -34.8483 0
      vertex 8.44423 -23.159 0
    endloop
  endfacet
  facet normal 0 0 -1
    outer loop
      vertex -0.404132 23.044 0
      vertex 20.9311 33.828 0
      vertex -0.053278 22.7496 0
    endloop
  endfacet
  facet normal -0 0 -1
    outer loop
      vertex 8.44423 -23.159 0
      vertex -12.9197 -34.8483 0
      vertex -0.053278 22.7496 0
    endloop
  endfacet
  facet normal -0 0 -1
    outer loop
      vertex 20.9311 33.828 0
      vertex -0.404132 23.044 0
      vertex 0.820943 50.7024 0
    endloop
  endfacet
  facet normal 0 0 -1
    outer loop
      vertex -1.49469 21.5218 0
      vertex 0.820943 50.7024 0
      vertex -0.404132 23.044 0
    endloop
  endfacet
  facet normal 0 0 -1
    outer loop
      vertex -2.54949 20.06 0
      vertex 0.820943 50.7024 0
      vertex -1.49469 21.5218 0
    endloop
  endfacet
  facet normal 0 0 -1
    outer loop
      vertex -3.56859 18.6586 0
      vertex 0.820943 50.7024 0
      vertex -2.54949 20.06 0
    endloop
  endfacet
  facet normal 0 0 -1
    outer loop
      vertex -4.55194 17.3175 0
      vertex 0.820943 50.7024 0
      vertex -3.56859 18.6586 0
    endloop
  endfacet
  facet normal 0 0 -1
    outer loop
      vertex -5.49956 16.0369 0
      vertex 0.820943 50.7024 0
      vertex -4.55194 17.3175 0
    endloop
  endfacet
  facet normal 0 0 -1
    outer loop
      vertex -6.41144 14.8166 0
      vertex 0.820943 50.7024 0
      vertex -5.49956 16.0369 0
    endloop
  endfacet
  facet normal 0 0 -1
    outer loop
      vertex -7.28758 13.6567 0
      vertex 0.820943 50.7024 0
      vertex -6.41144 14.8166 0
    endloop
  endfacet
  facet normal 0 0 -1
    outer loop
      vertex -8.12799 12.5572 0
      vertex 0.820943 50.7024 0
      vertex -7.28758 13.6567 0
    endloop
  endfacet
  facet normal 0 0 -1
    outer loop
      vertex -8.93267 11.5182 0
      vertex 0.820943 50.7024 0
      vertex -8.12799 12.5572 0
    endloop
  endfacet
  facet normal 0 0 -1
    outer loop
      vertex -46.9819 -6.26677 0
      vertex -8.93267 11.5182 0
      vertex -9.70162 10.5394 0
    endloop
  endfacet
  facet normal 0 0 -1
    outer loop
      vertex -46.9819 -6.26677 0
      vertex -9.70162 10.5394 0
      vertex -10.4348 9.62115 0
    endloop
  endfacet
  facet normal 0 0 -1
    outer loop
      vertex -46.9819 -6.26677 0
      vertex -10.4348 9.62115 0
      vertex -11.1323 8.76322 0
    endloop
  endfacet
  facet normal 0 0 -1
    outer loop
      vertex -46.9819 -6.26677 0
      vertex -11.1323 8.76322 0
      vertex -11.7941 7.96568 0
    endloop
  endfacet
  facet normal 0 0 -1
    outer loop
      vertex -46.9819 -6.26677 0
      vertex -11.7941 7.96568 0
      vertex -33.3409 -17.7129 0
    endloop
  endfacet
  facet normal -0 0 -1
    outer loop
      vertex -8.93267 11.5182 0
      vertex -46.9819 -6.26677 0
      vertex 0.820943 50.7024 0
    endloop
  endfacet
  facet normal 0 0 1
    outer loop
      vertex 20.9311 33.828 8
      vertex -0.053278 22.7496 8
      vertex 8.44423 -23.159 8
    endloop
  endfacet
  facet normal 0 0 1
    outer loop
      vertex 8.44423 -23.159 8
      vertex 3.19235 -32.9627 8
      vertex 3.35663 -34 8
    endloop
  endfacet
  facet normal 0 0 1
    outer loop
      vertex -0.053278 22.7496 8
      vertex 3.19235 33.9627 8
      vertex 2.71557 33.027 8
    endloop
  endfacet
  facet normal 0 0 1
    outer loop
      vertex -1.03726 -30.8077 8
      vertex 8.44423 -23.159 8
      vertex -0.053278 22.7496 8
    endloop
  endfacet
  facet normal 0 0 1
    outer loop
      vertex -0.053278 22.7496 8
      vertex 2.71557 33.027 8
      vertex 1.97298 32.2844 8
    endloop
  endfacet
  facet normal 0 0 1
    outer loop
      vertex 8.44423 -23.159 8
      vertex 2.71557 -32.027 8
      vertex 3.19235 -32.9627 8
    endloop
  endfacet
  facet normal 0 0 1
    outer loop
      vertex -0.053278 22.7496 8
      vertex 1.97298 32.2844 8
      vertex 1.03726 31.8077 8
    endloop
  endfacet
  facet normal 0 0 1
    outer loop
      vertex 8.44423 -23.159 8
      vertex 1.97298 -31.2844 8
      vertex 2.71557 -32.027 8
    endloop
  endfacet
  facet normal 0 0 1
    outer loop
      vertex -0.404132 23.044 8
      vertex 1.03726 31.8077 8
      vertex 0 31.6434 8
    endloop
  endfacet
  facet normal 0 0 1
    outer loop
      vertex 8.44423 -23.159 8
      vertex 1.03726 -30.8077 8
      vertex 1.97298 -31.2844 8
    endloop
  endfacet
  facet normal 0 0 1
    outer loop
      vertex 8.44423 -23.159 8
      vertex 0 -30.6434 8
      vertex 1.03726 -30.8077 8
    endloop
  endfacet
  facet normal 0 0 1
    outer loop
      vertex 1.03726 31.8077 8
      vertex -0.404132 23.044 8
      vertex -0.053278 22.7496 8
    endloop
  endfacet
  facet normal 0 0 1
    outer loop
      vertex -1.03726 31.8077 8
      vertex -0.404132 23.044 8
      vertex 0 31.6434 8
    endloop
  endfacet
  facet normal 0 0 1
    outer loop
      vertex -1.97298 32.2844 8
      vertex -0.404132 23.044 8
      vertex -1.03726 31.8077 8
    endloop
  endfacet
  facet normal 0 0 1
    outer loop
      vertex -0.404132 23.044 8
      vertex -1.97298 32.2844 8
      vertex -1.49469 21.5218 8
    endloop
  endfacet
  facet normal 0 0 1
    outer loop
      vertex -2.71557 33.027 8
      vertex -1.49469 21.5218 8
      vertex -1.97298 32.2844 8
    endloop
  endfacet
  facet normal 0 0 1
    outer loop
      vertex -1.49469 21.5218 8
      vertex -2.71557 33.027 8
      vertex -2.54949 20.06 8
    endloop
  endfacet
  facet normal 0 0 1
    outer loop
      vertex -4.55194 17.3175 8
      vertex -2.71557 33.027 8
      vertex -3.19235 33.9627 8
    endloop
  endfacet
  facet normal 0 0 1
    outer loop
      vertex -8.93267 11.5182 8
      vertex -3.19235 33.9627 8
      vertex -3.35663 35 8
    endloop
  endfacet
  facet normal 0 0 1
    outer loop
      vertex -2.71557 33.027 8
      vertex -3.56859 18.6586 8
      vertex -2.54949 20.06 8
    endloop
  endfacet
  facet normal 0 0 1
    outer loop
      vertex -0.053278 22.7496 8
      vertex 20.9311 33.828 8
      vertex 3.19235 33.9627 8
    endloop
  endfacet
  facet normal -0 0 1
    outer loop
      vertex 3.19235 33.9627 8
      vertex 20.9311 33.828 8
      vertex 3.35663 35 8
    endloop
  endfacet
  facet normal 0 0 1
    outer loop
      vertex 20.9311 33.828 8
      vertex 3.19235 36.0373 8
      vertex 3.35663 35 8
    endloop
  endfacet
  facet normal 0 0 1
    outer loop
      vertex 20.9311 33.828 8
      vertex 2.71557 36.973 8
      vertex 3.19235 36.0373 8
    endloop
  endfacet
  facet normal 0 0 1
    outer loop
      vertex 0.820943 50.7024 8
      vertex 2.71557 36.973 8
      vertex 20.9311 33.828 8
    endloop
  endfacet
  facet normal 0 0 1
    outer loop
      vertex 2.71557 36.973 8
      vertex 0.820943 50.7024 8
      vertex 1.97298 37.7156 8
    endloop
  endfacet
  facet normal 0 0 1
    outer loop
      vertex 1.97298 37.7156 8
      vertex 0.820943 50.7024 8
      vertex 1.03726 38.1923 8
    endloop
  endfacet
  facet normal 0 0 1
    outer loop
      vertex 0.820943 50.7024 8
      vertex 0 38.3566 8
      vertex 1.03726 38.1923 8
    endloop
  endfacet
  facet normal 0 0 1
    outer loop
      vertex 0.820943 50.7024 8
      vertex -1.03726 38.1923 8
      vertex 0 38.3566 8
    endloop
  endfacet
  facet normal 0 0 1
    outer loop
      vertex 0.820943 50.7024 8
      vertex -1.97298 37.7156 8
      vertex -1.03726 38.1923 8
    endloop
  endfacet
  facet normal 0 0 1
    outer loop
      vertex 0.820943 50.7024 8
      vertex -2.71557 36.973 8
      vertex -1.97298 37.7156 8
    endloop
  endfacet
  facet normal 0 0 1
    outer loop
      vertex 0.820943 50.7024 8
      vertex -3.19235 36.0373 8
      vertex -2.71557 36.973 8
    endloop
  endfacet
  facet normal 0 0 1
    outer loop
      vertex -2.71557 33.027 8
      vertex -4.55194 17.3175 8
      vertex -3.56859 18.6586 8
    endloop
  endfacet
  facet normal 0 0 1
    outer loop
      vertex -3.19235 33.9627 8
      vertex -5.49956 16.0369 8
      vertex -4.55194 17.3175 8
    endloop
  endfacet
  facet normal 0 0 1
    outer loop
      vertex -3.19235 33.9627 8
      vertex -6.41144 14.8166 8
      vertex -5.49956 16.0369 8
    endloop
  endfacet
  facet normal 0 0 1
    outer loop
      vertex -3.19235 33.9627 8
      vertex -7.28758 13.6567 8
      vertex -6.41144 14.8166 8
    endloop
  endfacet
  facet normal 0 0 1
    outer loop
      vertex -46.9819 -6.26677 8
      vertex -3.35663 35 8
      vertex -3.19235 36.0373 8
    endloop
  endfacet
  facet normal 0 0 1
    outer loop
      vertex -3.19235 33.9627 8
      vertex -8.12799 12.5572 8
      vertex -7.28758 13.6567 8
    endloop
  endfacet
  facet normal 0 0 1
    outer loop
      vertex -3.19235 33.9627 8
      vertex -8.93267 11.5182 8
      vertex -8.12799 12.5572 8
    endloop
  endfacet
  facet normal 0 0 1
    outer loop
      vertex -3.35663 35 8
      vertex -9.70162 10.5394 8
      vertex -8.93267 11.5182 8
    endloop
  endfacet
  facet normal 0 0 1
    outer loop
      vertex -3.35663 35 8
      vertex -10.4348 9.62115 8
      vertex -9.70162 10.5394 8
    endloop
  endfacet
  facet normal 0 0 1
    outer loop
      vertex -46.9819 -6.26677 8
      vertex -3.19235 36.0373 8
      vertex 0.820943 50.7024 8
    endloop
  endfacet
  facet normal 0 0 1
    outer loop
      vertex -3.35663 35 8
      vertex -46.9819 -6.26677 8
      vertex -11.7941 7.96568 8
    endloop
  endfacet
  facet normal 0 0 1
    outer loop
      vertex -3.35663 35 8
      vertex -11.1323 8.76322 8
      vertex -10.4348 9.62115 8
    endloop
  endfacet
  facet normal 0 0 1
    outer loop
      vertex -3.35663 35 8
      vertex -11.7941 7.96568 8
      vertex -11.1323 8.76322 8
    endloop
  endfacet
  facet normal 0 0 1
    outer loop
      vertex -11.7941 7.96568 8
      vertex -46.9819 -6.26677 8
      vertex -33.3409 -17.7129 8
    endloop
  endfacet
  facet normal 0 0 1
    outer loop
      vertex 19.7399 -9.06419 8
      vertex 55.0707 5.18149 8
      vertex 41.3524 16.6925 8
    endloop
  endfacet
  facet normal 0 0 1
    outer loop
      vertex 19.0523 -9.89025 8
      vertex 55.0707 5.18149 8
      vertex 19.7399 -9.06419 8
    endloop
  endfacet
  facet normal 0 0 1
    outer loop
      vertex 18.3374 -10.7619 8
      vertex 55.0707 5.18149 8
      vertex 19.0523 -9.89025 8
    endloop
  endfacet
  facet normal 0 0 1
    outer loop
      vertex 17.5954 -11.679 8
      vertex 55.0707 5.18149 8
      vertex 18.3374 -10.7619 8
    endloop
  endfacet
  facet normal 0 0 1
    outer loop
      vertex 16.8261 -12.6417 8
      vertex 55.0707 5.18149 8
      vertex 17.5954 -11.679 8
    endloop
  endfacet
  facet normal 0 0 1
    outer loop
      vertex 16.0297 -13.65 8
      vertex 55.0707 5.18149 8
      vertex 16.8261 -12.6417 8
    endloop
  endfacet
  facet normal 0 0 1
    outer loop
      vertex 7.26785 -51.7877 8
      vertex 16.0297 -13.65 8
      vertex 15.206 -14.7038 8
    endloop
  endfacet
  facet normal 0 0 1
    outer loop
      vertex 7.26785 -51.7877 8
      vertex 15.206 -14.7038 8
      vertex 14.3551 -15.8031 8
    endloop
  endfacet
  facet normal 0 0 1
    outer loop
      vertex 7.26785 -51.7877 8
      vertex 14.3551 -15.8031 8
      vertex 13.4771 -16.948 8
    endloop
  endfacet
  facet normal 0 0 1
    outer loop
      vertex 7.26785 -51.7877 8
      vertex 13.4771 -16.948 8
      vertex 12.5718 -18.1385 8
    endloop
  endfacet
  facet normal 0 0 1
    outer loop
      vertex 7.26785 -51.7877 8
      vertex 12.5718 -18.1385 8
      vertex 11.6393 -19.3745 8
    endloop
  endfacet
  facet normal 0 0 1
    outer loop
      vertex 7.26785 -51.7877 8
      vertex 11.6393 -19.3745 8
      vertex 10.6796 -20.656 8
    endloop
  endfacet
  facet normal 0 0 1
    outer loop
      vertex 7.26785 -51.7877 8
      vertex 10.6796 -20.656 8
      vertex 9.69272 -21.9831 8
    endloop
  endfacet
  facet normal 0 0 1
    outer loop
      vertex 7.26785 -51.7877 8
      vertex 9.69272 -21.9831 8
      vertex 8.67864 -23.3557 8
    endloop
  endfacet
  facet normal -0 0 1
    outer loop
      vertex 16.0297 -13.65 8
      vertex 7.26785 -51.7877 8
      vertex 55.0707 5.18149 8
    endloop
  endfacet
  facet normal 0 0 1
    outer loop
      vertex 7.26785 -51.7877 8
      vertex 8.67864 -23.3557 8
      vertex 8.44423 -23.159 8
    endloop
  endfacet
  facet normal 0 0 1
    outer loop
      vertex 8.44423 -23.159 8
      vertex 3.35663 -34 8
      vertex 7.26785 -51.7877 8
    endloop
  endfacet
  facet normal -0 0 1
    outer loop
      vertex 3.19235 -35.0373 8
      vertex 7.26785 -51.7877 8
      vertex 3.35663 -34 8
    endloop
  endfacet
  facet normal -0 0 1
    outer loop
      vertex 2.71557 -35.973 8
      vertex 7.26785 -51.7877 8
      vertex 3.19235 -35.0373 8
    endloop
  endfacet
  facet normal -0 0 1
    outer loop
      vertex 1.97298 -36.7156 8
      vertex 7.26785 -51.7877 8
      vertex 2.71557 -35.973 8
    endloop
  endfacet
  facet normal -0 0 1
    outer loop
      vertex 1.03726 -37.1923 8
      vertex 7.26785 -51.7877 8
      vertex 1.97298 -36.7156 8
    endloop
  endfacet
  facet normal -0 0 1
    outer loop
      vertex 0 -37.3566 8
      vertex 7.26785 -51.7877 8
      vertex 1.03726 -37.1923 8
    endloop
  endfacet
  facet normal 0 0 1
    outer loop
      vertex -1.03726 -37.1923 8
      vertex 7.26785 -51.7877 8
      vertex 0 -37.3566 8
    endloop
  endfacet
  facet normal 0 0 1
    outer loop
      vertex -1.97298 -36.7156 8
      vertex 7.26785 -51.7877 8
      vertex -1.03726 -37.1923 8
    endloop
  endfacet
  facet normal 0 0 1
    outer loop
      vertex -12.9197 -34.8483 8
      vertex -1.97298 -36.7156 8
      vertex -2.71557 -35.973 8
    endloop
  endfacet
  facet normal 0 0 1
    outer loop
      vertex -1.97298 -36.7156 8
      vertex -12.9197 -34.8483 8
      vertex 7.26785 -51.7877 8
    endloop
  endfacet
  facet normal 0 0 1
    outer loop
      vertex -3.19235 -35.0373 8
      vertex -12.9197 -34.8483 8
      vertex -2.71557 -35.973 8
    endloop
  endfacet
  facet normal -0 0 1
    outer loop
      vertex -12.9197 -34.8483 8
      vertex -3.19235 -35.0373 8
      vertex -3.35663 -34 8
    endloop
  endfacet
  facet normal 0 0 1
    outer loop
      vertex 8.44423 -23.159 8
      vertex -1.03726 -30.8077 8
      vertex 0 -30.6434 8
    endloop
  endfacet
  facet normal 0 0 1
    outer loop
      vertex -0.053278 22.7496 8
      vertex -1.97298 -31.2844 8
      vertex -1.03726 -30.8077 8
    endloop
  endfacet
  facet normal 0 0 1
    outer loop
      vertex -12.9197 -34.8483 8
      vertex -1.97298 -31.2844 8
      vertex -0.053278 22.7496 8
    endloop
  endfacet
  facet normal 0 0 1
    outer loop
      vertex -1.97298 -31.2844 8
      vertex -12.9197 -34.8483 8
      vertex -2.71557 -32.027 8
    endloop
  endfacet
  facet normal 0 0 1
    outer loop
      vertex -2.71557 -32.027 8
      vertex -12.9197 -34.8483 8
      vertex -3.19235 -32.9627 8
    endloop
  endfacet
  facet normal 0 0 1
    outer loop
      vertex -3.19235 -32.9627 8
      vertex -12.9197 -34.8483 8
      vertex -3.35663 -34 8
    endloop
  endfacet
  facet normal 0.769582 -0.638548 0
    outer loop
      vertex -11.7941 7.96568 8
      vertex -11.1323 8.76322 0
      vertex -11.1323 8.76322 8
    endloop
  endfacet
  facet normal 0.769582 -0.638548 0
    outer loop
      vertex -11.1323 8.76322 0
      vertex -11.7941 7.96568 8
      vertex -11.7941 7.96568 0
    endloop
  endfacet
  facet normal 0.775932 -0.630817 0
    outer loop
      vertex -11.1323 8.76322 8
      vertex -10.4348 9.62115 0
      vertex -10.4348 9.62115 8
    endloop
  endfacet
  facet normal 0.775932 -0.630817 0
    outer loop
      vertex -10.4348 9.62115 0
      vertex -11.1323 8.76322 8
      vertex -11.1323 8.76322 0
    endloop
  endfacet
  facet normal 0.781459 -0.623956 0
    outer loop
      vertex -10.4348 9.62115 8
      vertex -9.70162 10.5394 0
      vertex -9.70162 10.5394 8
    endloop
  endfacet
  facet normal 0.781459 -0.623956 0
    outer loop
      vertex -9.70162 10.5394 0
      vertex -10.4348 9.62115 8
      vertex -10.4348 9.62115 0
    endloop
  endfacet
  facet normal 0.786333 -0.617802 0
    outer loop
      vertex -9.70162 10.5394 8
      vertex -8.93267 11.5182 0
      vertex -8.93267 11.5182 8
    endloop
  endfacet
  facet normal 0.786333 -0.617802 0
    outer loop
      vertex -8.93267 11.5182 0
      vertex -9.70162 10.5394 8
      vertex -9.70162 10.5394 0
    endloop
  endfacet
  facet normal 0.790643 -0.612277 0
    outer loop
      vertex -8.93267 11.5182 8
      vertex -8.12799 12.5572 0
      vertex -8.12799 12.5572 8
    endloop
  endfacet
  facet normal 0.790643 -0.612277 0
    outer loop
      vertex -8.12799 12.5572 0
      vertex -8.93267 11.5182 8
      vertex -8.93267 11.5182 0
    endloop
  endfacet
  facet normal 0.794487 -0.607281 0
    outer loop
      vertex -8.12799 12.5572 8
      vertex -7.28758 13.6567 0
      vertex -7.28758 13.6567 8
    endloop
  endfacet
  facet normal 0.794487 -0.607281 0
    outer loop
      vertex -7.28758 13.6567 0
      vertex -8.12799 12.5572 8
      vertex -8.12799 12.5572 0
    endloop
  endfacet
  facet normal 0.797935 -0.602744 0
    outer loop
      vertex -7.28758 13.6567 8
      vertex -6.41144 14.8166 0
      vertex -6.41144 14.8166 8
    endloop
  endfacet
  facet normal 0.797935 -0.602744 0
    outer loop
      vertex -6.41144 14.8166 0
      vertex -7.28758 13.6567 8
      vertex -7.28758 13.6567 0
    endloop
  endfacet
  facet normal 0.801045 -0.598604 0
    outer loop
      vertex -6.41144 14.8166 8
      vertex -5.49956 16.0369 0
      vertex -5.49956 16.0369 8
    endloop
  endfacet
  facet normal 0.801045 -0.598604 0
    outer loop
      vertex -5.49956 16.0369 0
      vertex -6.41144 14.8166 8
      vertex -6.41144 14.8166 0
    endloop
  endfacet
  facet normal 0.803863 -0.594815 0
    outer loop
      vertex -5.49956 16.0369 8
      vertex -4.55194 17.3175 0
      vertex -4.55194 17.3175 8
    endloop
  endfacet
  facet normal 0.803863 -0.594815 0
    outer loop
      vertex -4.55194 17.3175 0
      vertex -5.49956 16.0369 8
      vertex -5.49956 16.0369 0
    endloop
  endfacet
  facet normal 0.80643 -0.59133 0
    outer loop
      vertex -4.55194 17.3175 8
      vertex -3.56859 18.6586 0
      vertex -3.56859 18.6586 8
    endloop
  endfacet
  facet normal 0.80643 -0.59133 0
    outer loop
      vertex -3.56859 18.6586 0
      vertex -4.55194 17.3175 8
      vertex -4.55194 17.3175 0
    endloop
  endfacet
  facet normal 0.80877 -0.588125 0
    outer loop
      vertex -3.56859 18.6586 8
      vertex -2.54949 20.06 0
      vertex -2.54949 20.06 8
    endloop
  endfacet
  facet normal 0.80877 -0.588125 0
    outer loop
      vertex -2.54949 20.06 0
      vertex -3.56859 18.6586 8
      vertex -3.56859 18.6586 0
    endloop
  endfacet
  facet normal 0.810929 -0.585145 0
    outer loop
      vertex -2.54949 20.06 8
      vertex -1.49469 21.5218 0
      vertex -1.49469 21.5218 8
    endloop
  endfacet
  facet normal 0.810929 -0.585145 0
    outer loop
      vertex -1.49469 21.5218 0
      vertex -2.54949 20.06 8
      vertex -2.54949 20.06 0
    endloop
  endfacet
  facet normal 0.812911 -0.582388 0
    outer loop
      vertex -1.49469 21.5218 8
      vertex -0.404132 23.044 0
      vertex -0.404132 23.044 8
    endloop
  endfacet
  facet normal 0.812911 -0.582388 0
    outer loop
      vertex -0.404132 23.044 0
      vertex -1.49469 21.5218 8
      vertex -1.49469 21.5218 0
    endloop
  endfacet
  facet normal -0.64279 -0.766043 0
    outer loop
      vertex -0.404132 23.044 0
      vertex -0.053278 22.7496 8
      vertex -0.404132 23.044 8
    endloop
  endfacet
  facet normal -0.64279 -0.766043 -0
    outer loop
      vertex -0.053278 22.7496 8
      vertex -0.404132 23.044 0
      vertex -0.053278 22.7496 0
    endloop
  endfacet
  facet normal -0.975946 0.21801 0
    outer loop
      vertex -12.9197 -34.8483 0
      vertex -0.053278 22.7496 8
      vertex -0.053278 22.7496 0
    endloop
  endfacet
  facet normal -0.975946 0.21801 0
    outer loop
      vertex -0.053278 22.7496 8
      vertex -12.9197 -34.8483 0
      vertex -12.9197 -34.8483 8
    endloop
  endfacet
  facet normal -0.642788 -0.766044 0
    outer loop
      vertex -12.9197 -34.8483 0
      vertex 7.26785 -51.7877 8
      vertex -12.9197 -34.8483 8
    endloop
  endfacet
  facet normal -0.642788 -0.766044 -0
    outer loop
      vertex 7.26785 -51.7877 8
      vertex -12.9197 -34.8483 0
      vertex 7.26785 -51.7877 0
    endloop
  endfacet
  facet normal 0.766044 -0.642788 0
    outer loop
      vertex 7.26785 -51.7877 8
      vertex 55.0707 5.18149 0
      vertex 55.0707 5.18149 8
    endloop
  endfacet
  facet normal 0.766044 -0.642788 0
    outer loop
      vertex 55.0707 5.18149 0
      vertex 7.26785 -51.7877 8
      vertex 7.26785 -51.7877 0
    endloop
  endfacet
  facet normal 0.642788 0.766044 -0
    outer loop
      vertex 55.0707 5.18149 0
      vertex 41.3524 16.6925 8
      vertex 55.0707 5.18149 8
    endloop
  endfacet
  facet normal 0.642788 0.766044 0
    outer loop
      vertex 41.3524 16.6925 8
      vertex 55.0707 5.18149 0
      vertex 41.3524 16.6925 0
    endloop
  endfacet
  facet normal -0.766044 0.642788 0
    outer loop
      vertex 19.7399 -9.06419 0
      vertex 41.3524 16.6925 8
      vertex 41.3524 16.6925 0
    endloop
  endfacet
  facet normal -0.766044 0.642788 0
    outer loop
      vertex 41.3524 16.6925 8
      vertex 19.7399 -9.06419 0
      vertex 19.7399 -9.06419 8
    endloop
  endfacet
  facet normal -0.768556 0.639782 0
    outer loop
      vertex 19.0523 -9.89025 0
      vertex 19.7399 -9.06419 8
      vertex 19.7399 -9.06419 0
    endloop
  endfacet
  facet normal -0.768556 0.639782 0
    outer loop
      vertex 19.7399 -9.06419 8
      vertex 19.0523 -9.89025 0
      vertex 19.0523 -9.89025 8
    endloop
  endfacet
  facet normal -0.773218 0.63414 0
    outer loop
      vertex 18.3374 -10.7619 0
      vertex 19.0523 -9.89025 8
      vertex 19.0523 -9.89025 0
    endloop
  endfacet
  facet normal -0.773218 0.63414 0
    outer loop
      vertex 19.0523 -9.89025 8
      vertex 18.3374 -10.7619 0
      vertex 18.3374 -10.7619 8
    endloop
  endfacet
  facet normal -0.777412 0.628992 0
    outer loop
      vertex 17.5954 -11.679 0
      vertex 18.3374 -10.7619 8
      vertex 18.3374 -10.7619 0
    endloop
  endfacet
  facet normal -0.777412 0.628992 0
    outer loop
      vertex 18.3374 -10.7619 8
      vertex 17.5954 -11.679 0
      vertex 17.5954 -11.679 8
    endloop
  endfacet
  facet normal -0.781233 0.62424 0
    outer loop
      vertex 16.8261 -12.6417 0
      vertex 17.5954 -11.679 8
      vertex 17.5954 -11.679 0
    endloop
  endfacet
  facet normal -0.781233 0.62424 0
    outer loop
      vertex 17.5954 -11.679 8
      vertex 16.8261 -12.6417 0
      vertex 16.8261 -12.6417 8
    endloop
  endfacet
  facet normal -0.784703 0.619872 0
    outer loop
      vertex 16.0297 -13.65 0
      vertex 16.8261 -12.6417 8
      vertex 16.8261 -12.6417 0
    endloop
  endfacet
  facet normal -0.784703 0.619872 0
    outer loop
      vertex 16.8261 -12.6417 8
      vertex 16.0297 -13.65 0
      vertex 16.0297 -13.65 8
    endloop
  endfacet
  facet normal -0.787883 0.615825 0
    outer loop
      vertex 15.206 -14.7038 0
      vertex 16.0297 -13.65 8
      vertex 16.0297 -13.65 0
    endloop
  endfacet
  facet normal -0.787883 0.615825 0
    outer loop
      vertex 16.0297 -13.65 8
      vertex 15.206 -14.7038 0
      vertex 15.206 -14.7038 8
    endloop
  endfacet
  facet normal -0.790812 0.612059 0
    outer loop
      vertex 14.3551 -15.8031 0
      vertex 15.206 -14.7038 8
      vertex 15.206 -14.7038 0
    endloop
  endfacet
  facet normal -0.790812 0.612059 0
    outer loop
      vertex 15.206 -14.7038 8
      vertex 14.3551 -15.8031 0
      vertex 14.3551 -15.8031 8
    endloop
  endfacet
  facet normal -0.793498 0.608573 0
    outer loop
      vertex 13.4771 -16.948 0
      vertex 14.3551 -15.8031 8
      vertex 14.3551 -15.8031 0
    endloop
  endfacet
  facet normal -0.793498 0.608573 0
    outer loop
      vertex 14.3551 -15.8031 8
      vertex 13.4771 -16.948 0
      vertex 13.4771 -16.948 8
    endloop
  endfacet
  facet normal -0.795987 0.605314 0
    outer loop
      vertex 12.5718 -18.1385 0
      vertex 13.4771 -16.948 8
      vertex 13.4771 -16.948 0
    endloop
  endfacet
  facet normal -0.795987 0.605314 0
    outer loop
      vertex 13.4771 -16.948 8
      vertex 12.5718 -18.1385 0
      vertex 12.5718 -18.1385 8
    endloop
  endfacet
  facet normal -0.7983 0.60226 0
    outer loop
      vertex 11.6393 -19.3745 0
      vertex 12.5718 -18.1385 8
      vertex 12.5718 -18.1385 0
    endloop
  endfacet
  facet normal -0.7983 0.60226 0
    outer loop
      vertex 12.5718 -18.1385 8
      vertex 11.6393 -19.3745 0
      vertex 11.6393 -19.3745 8
    endloop
  endfacet
  facet normal -0.800439 0.599415 0
    outer loop
      vertex 10.6796 -20.656 0
      vertex 11.6393 -19.3745 8
      vertex 11.6393 -19.3745 0
    endloop
  endfacet
  facet normal -0.800439 0.599415 0
    outer loop
      vertex 11.6393 -19.3745 8
      vertex 10.6796 -20.656 0
      vertex 10.6796 -20.656 8
    endloop
  endfacet
  facet normal -0.802438 0.596736 0
    outer loop
      vertex 9.69272 -21.9831 0
      vertex 10.6796 -20.656 8
      vertex 10.6796 -20.656 0
    endloop
  endfacet
  facet normal -0.802438 0.596736 0
    outer loop
      vertex 10.6796 -20.656 8
      vertex 9.69272 -21.9831 0
      vertex 9.69272 -21.9831 8
    endloop
  endfacet
  facet normal -0.80431 0.59421 0
    outer loop
      vertex 8.67864 -23.3557 0
      vertex 9.69272 -21.9831 8
      vertex 9.69272 -21.9831 0
    endloop
  endfacet
  facet normal -0.80431 0.59421 0
    outer loop
      vertex 9.69272 -21.9831 8
      vertex 8.67864 -23.3557 0
      vertex 8.67864 -23.3557 8
    endloop
  endfacet
  facet normal 0.642789 0.766043 -0
    outer loop
      vertex 8.67864 -23.3557 0
      vertex 8.44423 -23.159 8
      vertex 8.67864 -23.3557 8
    endloop
  endfacet
  facet normal 0.642789 0.766043 0
    outer loop
      vertex 8.44423 -23.159 8
      vertex 8.67864 -23.3557 0
      vertex 8.44423 -23.159 0
    endloop
  endfacet
  facet normal 0.976825 -0.214041 0
    outer loop
      vertex 8.44423 -23.159 8
      vertex 20.9311 33.828 0
      vertex 20.9311 33.828 8
    endloop
  endfacet
  facet normal 0.976825 -0.214041 0
    outer loop
      vertex 20.9311 33.828 0
      vertex 8.44423 -23.159 8
      vertex 8.44423 -23.159 0
    endloop
  endfacet
  facet normal 0.642788 0.766044 -0
    outer loop
      vertex 20.9311 33.828 0
      vertex 0.820943 50.7024 8
      vertex 20.9311 33.828 8
    endloop
  endfacet
  facet normal 0.642788 0.766044 0
    outer loop
      vertex 0.820943 50.7024 8
      vertex 20.9311 33.828 0
      vertex 0.820943 50.7024 0
    endloop
  endfacet
  facet normal -0.766044 0.642788 0
    outer loop
      vertex -46.9819 -6.26677 0
      vertex 0.820943 50.7024 8
      vertex 0.820943 50.7024 0
    endloop
  endfacet
  facet normal -0.766044 0.642788 0
    outer loop
      vertex 0.820943 50.7024 8
      vertex -46.9819 -6.26677 0
      vertex -46.9819 -6.26677 8
    endloop
  endfacet
  facet normal -0.642788 -0.766045 0
    outer loop
      vertex -46.9819 -6.26677 0
      vertex -33.3409 -17.7129 8
      vertex -46.9819 -6.26677 8
    endloop
  endfacet
  facet normal -0.642788 -0.766045 -0
    outer loop
      vertex -33.3409 -17.7129 8
      vertex -46.9819 -6.26677 0
      vertex -33.3409 -17.7129 0
    endloop
  endfacet
  facet normal 0.766044 -0.642788 0
    outer loop
      vertex -33.3409 -17.7129 8
      vertex -11.7941 7.96568 0
      vertex -11.7941 7.96568 8
    endloop
  endfacet
  facet normal 0.766044 -0.642788 0
    outer loop
      vertex -11.7941 7.96568 0
      vertex -33.3409 -17.7129 8
      vertex -33.3409 -17.7129 0
    endloop
  endfacet
  facet normal -0.824672 -0.130615 0.550323
    outer loop
      vertex 3.35663 -34 8
      vertex 1.7119 -33.4438 5.66735
      vertex 1.8 -34 5.66734
    endloop
  endfacet
  facet normal -0.824672 -0.130615 0.550323
    outer loop
      vertex 1.7119 -33.4438 5.66735
      vertex 3.35663 -34 8
      vertex 3.19235 -32.9627 8
    endloop
  endfacet
  facet normal 0.824672 -0.130615 0.550323
    outer loop
      vertex -3.35663 -34 8
      vertex -1.7119 -33.4438 5.66735
      vertex -3.19235 -32.9627 8
    endloop
  endfacet
  facet normal 0.824672 -0.130615 0.550323
    outer loop
      vertex -1.7119 -33.4438 5.66735
      vertex -3.35663 -34 8
      vertex -1.8 -34 5.66734
    endloop
  endfacet
  facet normal -0.824672 0.130616 0.550323
    outer loop
      vertex 1.7119 -34.5562 5.66734
      vertex 3.35663 -34 8
      vertex 1.8 -34 5.66734
    endloop
  endfacet
  facet normal -0.824672 0.130615 0.550323
    outer loop
      vertex 3.35663 -34 8
      vertex 1.7119 -34.5562 5.66734
      vertex 3.19235 -35.0373 8
    endloop
  endfacet
  facet normal 0.130616 -0.824672 0.550323
    outer loop
      vertex -1.03726 -30.8077 8
      vertex -0.556231 -32.2881 5.66735
      vertex 0 -30.6434 8
    endloop
  endfacet
  facet normal 0.130614 -0.824672 0.550323
    outer loop
      vertex 0 -30.6434 8
      vertex -0.556231 -32.2881 5.66735
      vertex 0 -32.2 5.66734
    endloop
  endfacet
  facet normal 0.130614 0.824673 0.550322
    outer loop
      vertex 0 -37.3566 8
      vertex -0.556231 -35.7119 5.66734
      vertex -1.03726 -37.1923 8
    endloop
  endfacet
  facet normal 0.130614 0.824673 0.550322
    outer loop
      vertex -0.556231 -35.7119 5.66734
      vertex 0 -37.3566 8
      vertex 0 -35.8 5.66734
    endloop
  endfacet
  facet normal 0.5904 -0.5904 0.550323
    outer loop
      vertex -2.71557 -32.027 8
      vertex -1.05801 -32.5438 5.66734
      vertex -1.97298 -31.2844 8
    endloop
  endfacet
  facet normal 0.5904 -0.590401 0.550323
    outer loop
      vertex -1.05801 -32.5438 5.66734
      vertex -2.71557 -32.027 8
      vertex -1.45623 -32.942 5.66734
    endloop
  endfacet
  facet normal -0.5904 -0.5904 0.550323
    outer loop
      vertex 1.05801 -32.5438 5.66734
      vertex 2.71557 -32.027 8
      vertex 1.97298 -31.2844 8
    endloop
  endfacet
  facet normal -0.5904 -0.590401 0.550323
    outer loop
      vertex 2.71557 -32.027 8
      vertex 1.05801 -32.5438 5.66734
      vertex 1.45623 -32.942 5.66734
    endloop
  endfacet
  facet normal -0.379061 0.743947 0.550322
    outer loop
      vertex 1.05801 -35.4562 5.66734
      vertex 1.03726 -37.1923 8
      vertex 1.97298 -36.7156 8
    endloop
  endfacet
  facet normal -0.379062 0.743947 0.550322
    outer loop
      vertex 1.03726 -37.1923 8
      vertex 1.05801 -35.4562 5.66734
      vertex 0.556231 -35.7119 5.66734
    endloop
  endfacet
  facet normal 0.743948 0.379059 0.550323
    outer loop
      vertex -3.19235 -35.0373 8
      vertex -1.45623 -35.058 5.66734
      vertex -1.7119 -34.5562 5.66734
    endloop
  endfacet
  facet normal 0.743948 0.379061 0.550323
    outer loop
      vertex -2.71557 -35.973 8
      vertex -1.45623 -35.058 5.66734
      vertex -3.19235 -35.0373 8
    endloop
  endfacet
  facet normal 0.743948 -0.379061 0.550323
    outer loop
      vertex -3.19235 -32.9627 8
      vertex -1.45623 -32.942 5.66734
      vertex -2.71557 -32.027 8
    endloop
  endfacet
  facet normal 0.743948 -0.379061 0.550323
    outer loop
      vertex -1.45623 -32.942 5.66734
      vertex -3.19235 -32.9627 8
      vertex -1.7119 -33.4438 5.66735
    endloop
  endfacet
  facet normal 0.37906 -0.743948 0.550323
    outer loop
      vertex -1.05801 -32.5438 5.66734
      vertex -1.03726 -30.8077 8
      vertex -1.97298 -31.2844 8
    endloop
  endfacet
  facet normal 0.379061 -0.743947 0.550322
    outer loop
      vertex -1.03726 -30.8077 8
      vertex -1.05801 -32.5438 5.66734
      vertex -0.556231 -32.2881 5.66735
    endloop
  endfacet
  facet normal -0.379061 -0.743947 0.550322
    outer loop
      vertex 1.05801 -32.5438 5.66734
      vertex 1.03726 -30.8077 8
      vertex 0.556231 -32.2881 5.66735
    endloop
  endfacet
  facet normal -0.37906 -0.743948 0.550323
    outer loop
      vertex 1.03726 -30.8077 8
      vertex 1.05801 -32.5438 5.66734
      vertex 1.97298 -31.2844 8
    endloop
  endfacet
  facet normal -0.743948 -0.379061 0.550323
    outer loop
      vertex 1.45623 -32.942 5.66734
      vertex 3.19235 -32.9627 8
      vertex 2.71557 -32.027 8
    endloop
  endfacet
  facet normal -0.743948 -0.379061 0.550323
    outer loop
      vertex 3.19235 -32.9627 8
      vertex 1.45623 -32.942 5.66734
      vertex 1.7119 -33.4438 5.66735
    endloop
  endfacet
  facet normal -0.130614 0.824673 0.550322
    outer loop
      vertex 0.556231 -35.7119 5.66734
      vertex 0 -37.3566 8
      vertex 1.03726 -37.1923 8
    endloop
  endfacet
  facet normal -0.130614 0.824673 0.550322
    outer loop
      vertex 0 -37.3566 8
      vertex 0.556231 -35.7119 5.66734
      vertex 0 -35.8 5.66734
    endloop
  endfacet
  facet normal 0.824672 0.130616 0.550323
    outer loop
      vertex -3.35663 -34 8
      vertex -1.7119 -34.5562 5.66734
      vertex -1.8 -34 5.66734
    endloop
  endfacet
  facet normal 0.824672 0.130615 0.550323
    outer loop
      vertex -1.7119 -34.5562 5.66734
      vertex -3.35663 -34 8
      vertex -3.19235 -35.0373 8
    endloop
  endfacet
  facet normal -0.130616 -0.824672 0.550323
    outer loop
      vertex 0 -30.6434 8
      vertex 0.556231 -32.2881 5.66735
      vertex 1.03726 -30.8077 8
    endloop
  endfacet
  facet normal -0.130614 -0.824672 0.550323
    outer loop
      vertex 0.556231 -32.2881 5.66735
      vertex 0 -30.6434 8
      vertex 0 -32.2 5.66734
    endloop
  endfacet
  facet normal -0.5904 0.590401 0.550323
    outer loop
      vertex 1.45623 -35.058 5.66734
      vertex 1.97298 -36.7156 8
      vertex 2.71557 -35.973 8
    endloop
  endfacet
  facet normal -0.5904 0.590401 0.550322
    outer loop
      vertex 1.97298 -36.7156 8
      vertex 1.45623 -35.058 5.66734
      vertex 1.05801 -35.4562 5.66734
    endloop
  endfacet
  facet normal -0.743948 0.379059 0.550323
    outer loop
      vertex 1.45623 -35.058 5.66734
      vertex 3.19235 -35.0373 8
      vertex 1.7119 -34.5562 5.66734
    endloop
  endfacet
  facet normal -0.743948 0.379061 0.550323
    outer loop
      vertex 3.19235 -35.0373 8
      vertex 1.45623 -35.058 5.66734
      vertex 2.71557 -35.973 8
    endloop
  endfacet
  facet normal 0.5904 0.590401 0.550322
    outer loop
      vertex -1.45623 -35.058 5.66734
      vertex -1.97298 -36.7156 8
      vertex -1.05801 -35.4562 5.66734
    endloop
  endfacet
  facet normal 0.5904 0.590401 0.550323
    outer loop
      vertex -1.97298 -36.7156 8
      vertex -1.45623 -35.058 5.66734
      vertex -2.71557 -35.973 8
    endloop
  endfacet
  facet normal 0.379062 0.743947 0.550322
    outer loop
      vertex -1.05801 -35.4562 5.66734
      vertex -1.03726 -37.1923 8
      vertex -0.556231 -35.7119 5.66734
    endloop
  endfacet
  facet normal 0.379061 0.743947 0.550322
    outer loop
      vertex -1.03726 -37.1923 8
      vertex -1.05801 -35.4562 5.66734
      vertex -1.97298 -36.7156 8
    endloop
  endfacet
  facet normal -0.987689 -0.156433 2.11486e-08
    outer loop
      vertex 1.8 -34 0.0999994
      vertex 1.7119 -33.4438 5.66735
      vertex 1.7119 -33.4438 0.0999994
    endloop
  endfacet
  facet normal -0.987689 -0.156433 0
    outer loop
      vertex 1.7119 -33.4438 5.66735
      vertex 1.8 -34 0.0999994
      vertex 1.8 -34 5.66734
    endloop
  endfacet
  facet normal 0.987689 -0.156433 0
    outer loop
      vertex -1.8 -34 5.66734
      vertex -1.7119 -33.4438 0.0999994
      vertex -1.7119 -33.4438 5.66735
    endloop
  endfacet
  facet normal 0.987689 -0.156433 0
    outer loop
      vertex -1.7119 -33.4438 0.0999994
      vertex -1.8 -34 5.66734
      vertex -1.8 -34 0.0999994
    endloop
  endfacet
  facet normal 0.156432 -0.987689 0
    outer loop
      vertex -0.556231 -32.2881 0.0999994
      vertex 0 -32.2 5.66734
      vertex -0.556231 -32.2881 5.66735
    endloop
  endfacet
  facet normal 0.156432 -0.987689 0
    outer loop
      vertex 0 -32.2 5.66734
      vertex -0.556231 -32.2881 0.0999994
      vertex 0 -32.2 0.0999994
    endloop
  endfacet
  facet normal -0.156432 0.987689 0
    outer loop
      vertex 0.556231 -35.7119 0.0999994
      vertex 0 -35.8 5.66734
      vertex 0.556231 -35.7119 5.66734
    endloop
  endfacet
  facet normal -0.156432 0.987689 0
    outer loop
      vertex 0 -35.8 5.66734
      vertex 0.556231 -35.7119 0.0999994
      vertex 0 -35.8 0.0999994
    endloop
  endfacet
  facet normal -0.891007 0.453989 0
    outer loop
      vertex 1.45623 -35.058 0.0999994
      vertex 1.7119 -34.5562 5.66734
      vertex 1.7119 -34.5562 0.0999994
    endloop
  endfacet
  facet normal -0.891007 0.453989 0
    outer loop
      vertex 1.7119 -34.5562 5.66734
      vertex 1.45623 -35.058 0.0999994
      vertex 1.45623 -35.058 5.66734
    endloop
  endfacet
  facet normal -0.453993 -0.891005 9.721e-09
    outer loop
      vertex 0.556231 -32.2881 5.66735
      vertex 0.556231 -32.2881 0.0999994
      vertex 1.05801 -32.5438 5.66734
    endloop
  endfacet
  facet normal -0.453993 -0.891005 -0
    outer loop
      vertex 1.05801 -32.5438 5.66734
      vertex 0.556231 -32.2881 0.0999994
      vertex 1.05801 -32.5438 0.0999994
    endloop
  endfacet
  facet normal -0.891006 -0.453992 0
    outer loop
      vertex 1.7119 -33.4438 0.0999994
      vertex 1.45623 -32.942 5.66734
      vertex 1.45623 -32.942 0.0999994
    endloop
  endfacet
  facet normal -0.891006 -0.453992 0
    outer loop
      vertex 1.45623 -32.942 5.66734
      vertex 1.7119 -33.4438 0.0999994
      vertex 1.7119 -33.4438 5.66735
    endloop
  endfacet
  facet normal -0.156432 -0.987689 0
    outer loop
      vertex 0 -32.2 0.0999994
      vertex 0.556231 -32.2881 5.66735
      vertex 0 -32.2 5.66734
    endloop
  endfacet
  facet normal -0.156432 -0.987689 -0
    outer loop
      vertex 0.556231 -32.2881 5.66735
      vertex 0 -32.2 0.0999994
      vertex 0.556231 -32.2881 0.0999994
    endloop
  endfacet
  facet normal 0.707106 -0.707107 0
    outer loop
      vertex -1.45623 -32.942 5.66734
      vertex -1.45623 -32.942 0.0999994
      vertex -1.05801 -32.5438 5.66734
    endloop
  endfacet
  facet normal 0.707106 -0.707108 4.54222e-08
    outer loop
      vertex -1.05801 -32.5438 0.0999994
      vertex -1.05801 -32.5438 5.66734
      vertex -1.45623 -32.942 0.0999994
    endloop
  endfacet
  facet normal 0.891006 -0.453992 0
    outer loop
      vertex -1.7119 -33.4438 5.66735
      vertex -1.45623 -32.942 0.0999994
      vertex -1.45623 -32.942 5.66734
    endloop
  endfacet
  facet normal 0.891006 -0.453992 0
    outer loop
      vertex -1.45623 -32.942 0.0999994
      vertex -1.7119 -33.4438 5.66735
      vertex -1.7119 -33.4438 0.0999994
    endloop
  endfacet
  facet normal 0.453993 -0.891005 0
    outer loop
      vertex -1.05801 -32.5438 0.0999994
      vertex -0.556231 -32.2881 5.66735
      vertex -1.05801 -32.5438 5.66734
    endloop
  endfacet
  facet normal 0.453993 -0.891005 9.721e-09
    outer loop
      vertex -0.556231 -32.2881 0.0999994
      vertex -0.556231 -32.2881 5.66735
      vertex -1.05801 -32.5438 0.0999994
    endloop
  endfacet
  facet normal 0 0 1
    outer loop
      vertex 1.7119 -33.4438 0.0999994
      vertex 1.7119 -34.5562 0.0999994
      vertex 1.8 -34 0.0999994
    endloop
  endfacet
  facet normal 0 0 1
    outer loop
      vertex 1.45623 -32.942 0.0999994
      vertex 1.7119 -34.5562 0.0999994
      vertex 1.7119 -33.4438 0.0999994
    endloop
  endfacet
  facet normal 0 0 1
    outer loop
      vertex 1.45623 -32.942 0.0999994
      vertex 1.45623 -35.058 0.0999994
      vertex 1.7119 -34.5562 0.0999994
    endloop
  endfacet
  facet normal 0 0 1
    outer loop
      vertex 1.05801 -32.5438 0.0999994
      vertex 1.45623 -35.058 0.0999994
      vertex 1.45623 -32.942 0.0999994
    endloop
  endfacet
  facet normal 0 0 1
    outer loop
      vertex 1.05801 -32.5438 0.0999994
      vertex 1.05801 -35.4562 0.0999994
      vertex 1.45623 -35.058 0.0999994
    endloop
  endfacet
  facet normal 0 0 1
    outer loop
      vertex 0.556231 -32.2881 0.0999994
      vertex 1.05801 -35.4562 0.0999994
      vertex 1.05801 -32.5438 0.0999994
    endloop
  endfacet
  facet normal 0 0 1
    outer loop
      vertex 0.556231 -32.2881 0.0999994
      vertex 0.556231 -35.7119 0.0999994
      vertex 1.05801 -35.4562 0.0999994
    endloop
  endfacet
  facet normal 0 0 1
    outer loop
      vertex 0 -32.2 0.0999994
      vertex 0.556231 -35.7119 0.0999994
      vertex 0.556231 -32.2881 0.0999994
    endloop
  endfacet
  facet normal 0 0 1
    outer loop
      vertex 0 -32.2 0.0999994
      vertex 0 -35.8 0.0999994
      vertex 0.556231 -35.7119 0.0999994
    endloop
  endfacet
  facet normal -0 0 1
    outer loop
      vertex -0.556231 -32.2881 0.0999994
      vertex 0 -35.8 0.0999994
      vertex 0 -32.2 0.0999994
    endloop
  endfacet
  facet normal 0 0 1
    outer loop
      vertex -0.556231 -32.2881 0.0999994
      vertex -0.556231 -35.7119 0.0999994
      vertex 0 -35.8 0.0999994
    endloop
  endfacet
  facet normal -0 0 1
    outer loop
      vertex -1.05801 -32.5438 0.0999994
      vertex -0.556231 -35.7119 0.0999994
      vertex -0.556231 -32.2881 0.0999994
    endloop
  endfacet
  facet normal 0 0 1
    outer loop
      vertex -1.05801 -32.5438 0.0999994
      vertex -1.05801 -35.4562 0.0999994
      vertex -0.556231 -35.7119 0.0999994
    endloop
  endfacet
  facet normal -0 0 1
    outer loop
      vertex -1.45623 -32.942 0.0999994
      vertex -1.05801 -35.4562 0.0999994
      vertex -1.05801 -32.5438 0.0999994
    endloop
  endfacet
  facet normal 0 0 1
    outer loop
      vertex -1.45623 -32.942 0.0999994
      vertex -1.45623 -35.058 0.0999994
      vertex -1.05801 -35.4562 0.0999994
    endloop
  endfacet
  facet normal -0 0 1
    outer loop
      vertex -1.7119 -33.4438 0.0999994
      vertex -1.45623 -35.058 0.0999994
      vertex -1.45623 -32.942 0.0999994
    endloop
  endfacet
  facet normal 0 0 1
    outer loop
      vertex -1.7119 -33.4438 0.0999994
      vertex -1.7119 -34.5562 0.0999994
      vertex -1.45623 -35.058 0.0999994
    endloop
  endfacet
  facet normal 0 -0 1
    outer loop
      vertex -1.7119 -34.5562 0.0999994
      vertex -1.7119 -33.4438 0.0999994
      vertex -1.8 -34 0.0999994
    endloop
  endfacet
  facet normal -0.707106 -0.707107 4.54222e-08
    outer loop
      vertex 1.05801 -32.5438 0.0999994
      vertex 1.45623 -32.942 5.66734
      vertex 1.05801 -32.5438 5.66734
    endloop
  endfacet
  facet normal -0.707106 -0.707108 -0
    outer loop
      vertex 1.45623 -32.942 5.66734
      vertex 1.05801 -32.5438 0.0999994
      vertex 1.45623 -32.942 0.0999994
    endloop
  endfacet
  facet normal -0.453993 0.891005 0
    outer loop
      vertex 1.05801 -35.4562 0.0999994
      vertex 0.556231 -35.7119 5.66734
      vertex 1.05801 -35.4562 5.66734
    endloop
  endfacet
  facet normal -0.453993 0.891005 0
    outer loop
      vertex 0.556231 -35.7119 5.66734
      vertex 1.05801 -35.4562 0.0999994
      vertex 0.556231 -35.7119 0.0999994
    endloop
  endfacet
  facet normal -0.987688 0.156434 0
    outer loop
      vertex 1.7119 -34.5562 0.0999994
      vertex 1.8 -34 5.66734
      vertex 1.8 -34 0.0999994
    endloop
  endfacet
  facet normal -0.987688 0.156434 0
    outer loop
      vertex 1.8 -34 5.66734
      vertex 1.7119 -34.5562 0.0999994
      vertex 1.7119 -34.5562 5.66734
    endloop
  endfacet
  facet normal 0.987688 0.156434 0
    outer loop
      vertex -1.7119 -34.5562 5.66734
      vertex -1.8 -34 0.0999994
      vertex -1.8 -34 5.66734
    endloop
  endfacet
  facet normal 0.987688 0.156434 0
    outer loop
      vertex -1.8 -34 0.0999994
      vertex -1.7119 -34.5562 5.66734
      vertex -1.7119 -34.5562 0.0999994
    endloop
  endfacet
  facet normal -0.707106 0.707107 -3.02815e-08
    outer loop
      vertex 1.45623 -35.058 5.66734
      vertex 1.45623 -35.058 0.0999994
      vertex 1.05801 -35.4562 5.66734
    endloop
  endfacet
  facet normal -0.707106 0.707108 3.02814e-08
    outer loop
      vertex 1.05801 -35.4562 0.0999994
      vertex 1.05801 -35.4562 5.66734
      vertex 1.45623 -35.058 0.0999994
    endloop
  endfacet
  facet normal 0.891007 0.453989 0
    outer loop
      vertex -1.45623 -35.058 5.66734
      vertex -1.7119 -34.5562 0.0999994
      vertex -1.7119 -34.5562 5.66734
    endloop
  endfacet
  facet normal 0.891007 0.453989 0
    outer loop
      vertex -1.7119 -34.5562 0.0999994
      vertex -1.45623 -35.058 5.66734
      vertex -1.45623 -35.058 0.0999994
    endloop
  endfacet
  facet normal 0.156432 0.987689 -0
    outer loop
      vertex 0 -35.8 0.0999994
      vertex -0.556231 -35.7119 5.66734
      vertex 0 -35.8 5.66734
    endloop
  endfacet
  facet normal 0.156432 0.987689 0
    outer loop
      vertex -0.556231 -35.7119 5.66734
      vertex 0 -35.8 0.0999994
      vertex -0.556231 -35.7119 0.0999994
    endloop
  endfacet
  facet normal 0.707106 0.707107 3.02815e-08
    outer loop
      vertex -1.05801 -35.4562 5.66734
      vertex -1.05801 -35.4562 0.0999994
      vertex -1.45623 -35.058 5.66734
    endloop
  endfacet
  facet normal 0.707106 0.707108 -3.02814e-08
    outer loop
      vertex -1.45623 -35.058 0.0999994
      vertex -1.45623 -35.058 5.66734
      vertex -1.05801 -35.4562 0.0999994
    endloop
  endfacet
  facet normal 0.453993 0.891005 -0
    outer loop
      vertex -0.556231 -35.7119 0.0999994
      vertex -1.05801 -35.4562 5.66734
      vertex -0.556231 -35.7119 5.66734
    endloop
  endfacet
  facet normal 0.453993 0.891005 0
    outer loop
      vertex -1.05801 -35.4562 5.66734
      vertex -0.556231 -35.7119 0.0999994
      vertex -1.05801 -35.4562 0.0999994
    endloop
  endfacet
  facet normal -0.824672 -0.130616 0.550323
    outer loop
      vertex 3.35663 35 8
      vertex 1.7119 35.5562 5.66734
      vertex 1.8 35 5.66734
    endloop
  endfacet
  facet normal -0.824672 -0.130615 0.550323
    outer loop
      vertex 1.7119 35.5562 5.66734
      vertex 3.35663 35 8
      vertex 3.19235 36.0373 8
    endloop
  endfacet
  facet normal 0.824672 0.130615 0.550323
    outer loop
      vertex -3.35663 35 8
      vertex -1.7119 34.4438 5.66735
      vertex -1.8 35 5.66734
    endloop
  endfacet
  facet normal 0.824672 0.130615 0.550323
    outer loop
      vertex -1.7119 34.4438 5.66735
      vertex -3.35663 35 8
      vertex -3.19235 33.9627 8
    endloop
  endfacet
  facet normal -0.824672 0.130615 0.550323
    outer loop
      vertex 1.7119 34.4438 5.66735
      vertex 3.35663 35 8
      vertex 1.8 35 5.66734
    endloop
  endfacet
  facet normal -0.824672 0.130615 0.550323
    outer loop
      vertex 3.35663 35 8
      vertex 1.7119 34.4438 5.66735
      vertex 3.19235 33.9627 8
    endloop
  endfacet
  facet normal 0.130614 -0.824673 0.550322
    outer loop
      vertex -0.556231 36.7119 5.66734
      vertex 0 38.3566 8
      vertex -1.03726 38.1923 8
    endloop
  endfacet
  facet normal 0.130614 -0.824673 0.550322
    outer loop
      vertex 0 38.3566 8
      vertex -0.556231 36.7119 5.66734
      vertex 0 36.8 5.66734
    endloop
  endfacet
  facet normal 0.130616 0.824672 0.550323
    outer loop
      vertex 0 31.6434 8
      vertex -0.556231 33.2881 5.66735
      vertex -1.03726 31.8077 8
    endloop
  endfacet
  facet normal 0.130614 0.824672 0.550323
    outer loop
      vertex -0.556231 33.2881 5.66735
      vertex 0 31.6434 8
      vertex 0 33.2 5.66734
    endloop
  endfacet
  facet normal 0.743948 -0.379061 0.550323
    outer loop
      vertex -3.19235 36.0373 8
      vertex -1.45623 36.058 5.66734
      vertex -2.71557 36.973 8
    endloop
  endfacet
  facet normal 0.743948 -0.379059 0.550323
    outer loop
      vertex -1.45623 36.058 5.66734
      vertex -3.19235 36.0373 8
      vertex -1.7119 35.5562 5.66734
    endloop
  endfacet
  facet normal -0.5904 -0.590401 0.550322
    outer loop
      vertex 1.45623 36.058 5.66734
      vertex 1.97298 37.7156 8
      vertex 1.05801 36.4562 5.66734
    endloop
  endfacet
  facet normal -0.5904 -0.590401 0.550323
    outer loop
      vertex 1.97298 37.7156 8
      vertex 1.45623 36.058 5.66734
      vertex 2.71557 36.973 8
    endloop
  endfacet
  facet normal -0.5904 0.590401 0.550323
    outer loop
      vertex 1.05801 33.5438 5.66734
      vertex 2.71557 33.027 8
      vertex 1.45623 33.942 5.66734
    endloop
  endfacet
  facet normal -0.590401 0.590399 0.550323
    outer loop
      vertex 2.71557 33.027 8
      vertex 1.05801 33.5438 5.66734
      vertex 1.97298 32.2844 8
    endloop
  endfacet
  facet normal 0.5904 0.590401 0.550323
    outer loop
      vertex -2.71557 33.027 8
      vertex -1.05801 33.5438 5.66734
      vertex -1.45623 33.942 5.66734
    endloop
  endfacet
  facet normal 0.590401 0.590399 0.550323
    outer loop
      vertex -1.05801 33.5438 5.66734
      vertex -2.71557 33.027 8
      vertex -1.97298 32.2844 8
    endloop
  endfacet
  facet normal 0.824672 -0.130615 0.550323
    outer loop
      vertex -3.35663 35 8
      vertex -1.7119 35.5562 5.66734
      vertex -3.19235 36.0373 8
    endloop
  endfacet
  facet normal 0.824672 -0.130616 0.550323
    outer loop
      vertex -1.7119 35.5562 5.66734
      vertex -3.35663 35 8
      vertex -1.8 35 5.66734
    endloop
  endfacet
  facet normal 0.379061 -0.743947 0.550322
    outer loop
      vertex -1.05801 36.4562 5.66734
      vertex -1.03726 38.1923 8
      vertex -1.97298 37.7156 8
    endloop
  endfacet
  facet normal 0.379062 -0.743947 0.550322
    outer loop
      vertex -1.03726 38.1923 8
      vertex -1.05801 36.4562 5.66734
      vertex -0.556231 36.7119 5.66734
    endloop
  endfacet
  facet normal -0.379062 -0.743947 0.550322
    outer loop
      vertex 1.05801 36.4562 5.66734
      vertex 1.03726 38.1923 8
      vertex 0.556231 36.7119 5.66734
    endloop
  endfacet
  facet normal -0.379061 -0.743947 0.550322
    outer loop
      vertex 1.03726 38.1923 8
      vertex 1.05801 36.4562 5.66734
      vertex 1.97298 37.7156 8
    endloop
  endfacet
  facet normal -0.743948 -0.379061 0.550323
    outer loop
      vertex 1.45623 36.058 5.66734
      vertex 3.19235 36.0373 8
      vertex 2.71557 36.973 8
    endloop
  endfacet
  facet normal -0.743948 -0.379059 0.550323
    outer loop
      vertex 3.19235 36.0373 8
      vertex 1.45623 36.058 5.66734
      vertex 1.7119 35.5562 5.66734
    endloop
  endfacet
  facet normal -0.743948 0.379061 0.550323
    outer loop
      vertex 1.45623 33.942 5.66734
      vertex 3.19235 33.9627 8
      vertex 1.7119 34.4438 5.66735
    endloop
  endfacet
  facet normal -0.743948 0.379061 0.550323
    outer loop
      vertex 3.19235 33.9627 8
      vertex 1.45623 33.942 5.66734
      vertex 2.71557 33.027 8
    endloop
  endfacet
  facet normal -0.379059 0.743948 0.550323
    outer loop
      vertex 1.05801 33.5438 5.66734
      vertex 1.03726 31.8077 8
      vertex 1.97298 32.2844 8
    endloop
  endfacet
  facet normal -0.379061 0.743947 0.550322
    outer loop
      vertex 1.03726 31.8077 8
      vertex 1.05801 33.5438 5.66734
      vertex 0.556231 33.2881 5.66735
    endloop
  endfacet
  facet normal 0.379061 0.743947 0.550322
    outer loop
      vertex -1.05801 33.5438 5.66734
      vertex -1.03726 31.8077 8
      vertex -0.556231 33.2881 5.66735
    endloop
  endfacet
  facet normal 0.379059 0.743948 0.550323
    outer loop
      vertex -1.03726 31.8077 8
      vertex -1.05801 33.5438 5.66734
      vertex -1.97298 32.2844 8
    endloop
  endfacet
  facet normal 0.743948 0.379061 0.550323
    outer loop
      vertex -3.19235 33.9627 8
      vertex -1.45623 33.942 5.66734
      vertex -1.7119 34.4438 5.66735
    endloop
  endfacet
  facet normal 0.743948 0.379061 0.550323
    outer loop
      vertex -1.45623 33.942 5.66734
      vertex -3.19235 33.9627 8
      vertex -2.71557 33.027 8
    endloop
  endfacet
  facet normal 0.5904 -0.590401 0.550323
    outer loop
      vertex -1.45623 36.058 5.66734
      vertex -1.97298 37.7156 8
      vertex -2.71557 36.973 8
    endloop
  endfacet
  facet normal 0.5904 -0.590401 0.550322
    outer loop
      vertex -1.97298 37.7156 8
      vertex -1.45623 36.058 5.66734
      vertex -1.05801 36.4562 5.66734
    endloop
  endfacet
  facet normal -0.130614 -0.824673 0.550322
    outer loop
      vertex 0 38.3566 8
      vertex 0.556231 36.7119 5.66734
      vertex 1.03726 38.1923 8
    endloop
  endfacet
  facet normal -0.130614 -0.824673 0.550322
    outer loop
      vertex 0.556231 36.7119 5.66734
      vertex 0 38.3566 8
      vertex 0 36.8 5.66734
    endloop
  endfacet
  facet normal -0.130616 0.824672 0.550323
    outer loop
      vertex 1.03726 31.8077 8
      vertex 0.556231 33.2881 5.66735
      vertex 0 31.6434 8
    endloop
  endfacet
  facet normal -0.130614 0.824672 0.550323
    outer loop
      vertex 0 31.6434 8
      vertex 0.556231 33.2881 5.66735
      vertex 0 33.2 5.66734
    endloop
  endfacet
  facet normal -0.987688 -0.156434 0
    outer loop
      vertex 1.8 35 0.0999994
      vertex 1.7119 35.5562 5.66734
      vertex 1.7119 35.5562 0.0999994
    endloop
  endfacet
  facet normal -0.987688 -0.156434 0
    outer loop
      vertex 1.7119 35.5562 5.66734
      vertex 1.8 35 0.0999994
      vertex 1.8 35 5.66734
    endloop
  endfacet
  facet normal 0.156432 -0.987689 0
    outer loop
      vertex -0.556231 36.7119 0.0999994
      vertex 0 36.8 5.66734
      vertex -0.556231 36.7119 5.66734
    endloop
  endfacet
  facet normal 0.156432 -0.987689 0
    outer loop
      vertex 0 36.8 5.66734
      vertex -0.556231 36.7119 0.0999994
      vertex 0 36.8 0.0999994
    endloop
  endfacet
  facet normal -0.156432 0.987689 0
    outer loop
      vertex 0.556231 33.2881 0.0999994
      vertex 0 33.2 5.66734
      vertex 0.556231 33.2881 5.66735
    endloop
  endfacet
  facet normal -0.156432 0.987689 0
    outer loop
      vertex 0 33.2 5.66734
      vertex 0.556231 33.2881 0.0999994
      vertex 0 33.2 0.0999994
    endloop
  endfacet
  facet normal -0.453993 -0.891005 0
    outer loop
      vertex 0.556231 36.7119 0.0999994
      vertex 1.05801 36.4562 5.66734
      vertex 0.556231 36.7119 5.66734
    endloop
  endfacet
  facet normal -0.453993 -0.891005 -0
    outer loop
      vertex 1.05801 36.4562 5.66734
      vertex 0.556231 36.7119 0.0999994
      vertex 1.05801 36.4562 0.0999994
    endloop
  endfacet
  facet normal -0.891007 -0.453989 0
    outer loop
      vertex 1.7119 35.5562 0.0999994
      vertex 1.45623 36.058 5.66734
      vertex 1.45623 36.058 0.0999994
    endloop
  endfacet
  facet normal -0.891007 -0.453989 0
    outer loop
      vertex 1.45623 36.058 5.66734
      vertex 1.7119 35.5562 0.0999994
      vertex 1.7119 35.5562 5.66734
    endloop
  endfacet
  facet normal -0.156432 -0.987689 0
    outer loop
      vertex 0 36.8 0.0999994
      vertex 0.556231 36.7119 5.66734
      vertex 0 36.8 5.66734
    endloop
  endfacet
  facet normal -0.156432 -0.987689 -0
    outer loop
      vertex 0.556231 36.7119 5.66734
      vertex 0 36.8 0.0999994
      vertex 0.556231 36.7119 0.0999994
    endloop
  endfacet
  facet normal 0.891007 -0.453989 0
    outer loop
      vertex -1.7119 35.5562 5.66734
      vertex -1.45623 36.058 0.0999994
      vertex -1.45623 36.058 5.66734
    endloop
  endfacet
  facet normal 0.891007 -0.453989 0
    outer loop
      vertex -1.45623 36.058 0.0999994
      vertex -1.7119 35.5562 5.66734
      vertex -1.7119 35.5562 0.0999994
    endloop
  endfacet
  facet normal 0 0 1
    outer loop
      vertex 1.7119 35.5562 0.0999994
      vertex 1.7119 34.4438 0.0999994
      vertex 1.8 35 0.0999994
    endloop
  endfacet
  facet normal 0 0 1
    outer loop
      vertex 1.45623 36.058 0.0999994
      vertex 1.7119 34.4438 0.0999994
      vertex 1.7119 35.5562 0.0999994
    endloop
  endfacet
  facet normal 0 0 1
    outer loop
      vertex 1.45623 36.058 0.0999994
      vertex 1.45623 33.942 0.0999994
      vertex 1.7119 34.4438 0.0999994
    endloop
  endfacet
  facet normal 0 0 1
    outer loop
      vertex 1.05801 36.4562 0.0999994
      vertex 1.45623 33.942 0.0999994
      vertex 1.45623 36.058 0.0999994
    endloop
  endfacet
  facet normal 0 0 1
    outer loop
      vertex 1.05801 36.4562 0.0999994
      vertex 1.05801 33.5438 0.0999994
      vertex 1.45623 33.942 0.0999994
    endloop
  endfacet
  facet normal 0 0 1
    outer loop
      vertex 0.556231 36.7119 0.0999994
      vertex 1.05801 33.5438 0.0999994
      vertex 1.05801 36.4562 0.0999994
    endloop
  endfacet
  facet normal 0 0 1
    outer loop
      vertex 0.556231 36.7119 0.0999994
      vertex 0.556231 33.2881 0.0999994
      vertex 1.05801 33.5438 0.0999994
    endloop
  endfacet
  facet normal 0 0 1
    outer loop
      vertex 0 36.8 0.0999994
      vertex 0.556231 33.2881 0.0999994
      vertex 0.556231 36.7119 0.0999994
    endloop
  endfacet
  facet normal 0 0 1
    outer loop
      vertex 0 36.8 0.0999994
      vertex 0 33.2 0.0999994
      vertex 0.556231 33.2881 0.0999994
    endloop
  endfacet
  facet normal -0 0 1
    outer loop
      vertex -0.556231 36.7119 0.0999994
      vertex 0 33.2 0.0999994
      vertex 0 36.8 0.0999994
    endloop
  endfacet
  facet normal 0 0 1
    outer loop
      vertex -0.556231 36.7119 0.0999994
      vertex -0.556231 33.2881 0.0999994
      vertex 0 33.2 0.0999994
    endloop
  endfacet
  facet normal -0 0 1
    outer loop
      vertex -1.05801 36.4562 0.0999994
      vertex -0.556231 33.2881 0.0999994
      vertex -0.556231 36.7119 0.0999994
    endloop
  endfacet
  facet normal 0 0 1
    outer loop
      vertex -1.05801 36.4562 0.0999994
      vertex -1.05801 33.5438 0.0999994
      vertex -0.556231 33.2881 0.0999994
    endloop
  endfacet
  facet normal -0 0 1
    outer loop
      vertex -1.45623 36.058 0.0999994
      vertex -1.05801 33.5438 0.0999994
      vertex -1.05801 36.4562 0.0999994
    endloop
  endfacet
  facet normal 0 0 1
    outer loop
      vertex -1.45623 36.058 0.0999994
      vertex -1.45623 33.942 0.0999994
      vertex -1.05801 33.5438 0.0999994
    endloop
  endfacet
  facet normal -0 0 1
    outer loop
      vertex -1.7119 35.5562 0.0999994
      vertex -1.45623 33.942 0.0999994
      vertex -1.45623 36.058 0.0999994
    endloop
  endfacet
  facet normal 0 0 1
    outer loop
      vertex -1.7119 35.5562 0.0999994
      vertex -1.7119 34.4438 0.0999994
      vertex -1.45623 33.942 0.0999994
    endloop
  endfacet
  facet normal 0 -0 1
    outer loop
      vertex -1.7119 34.4438 0.0999994
      vertex -1.7119 35.5562 0.0999994
      vertex -1.8 35 0.0999994
    endloop
  endfacet
  facet normal 0.987688 -0.156434 0
    outer loop
      vertex -1.8 35 5.66734
      vertex -1.7119 35.5562 0.0999994
      vertex -1.7119 35.5562 5.66734
    endloop
  endfacet
  facet normal 0.987688 -0.156434 0
    outer loop
      vertex -1.7119 35.5562 0.0999994
      vertex -1.8 35 5.66734
      vertex -1.8 35 0.0999994
    endloop
  endfacet
  facet normal 0.453993 -0.891005 0
    outer loop
      vertex -1.05801 36.4562 0.0999994
      vertex -0.556231 36.7119 5.66734
      vertex -1.05801 36.4562 5.66734
    endloop
  endfacet
  facet normal 0.453993 -0.891005 0
    outer loop
      vertex -0.556231 36.7119 5.66734
      vertex -1.05801 36.4562 0.0999994
      vertex -0.556231 36.7119 0.0999994
    endloop
  endfacet
  facet normal -0.453993 0.891005 0
    outer loop
      vertex 1.05801 33.5438 0.0999994
      vertex 0.556231 33.2881 5.66735
      vertex 1.05801 33.5438 5.66734
    endloop
  endfacet
  facet normal -0.453993 0.891005 9.721e-09
    outer loop
      vertex 0.556231 33.2881 0.0999994
      vertex 0.556231 33.2881 5.66735
      vertex 1.05801 33.5438 0.0999994
    endloop
  endfacet
  facet normal -0.891006 0.453992 0
    outer loop
      vertex 1.45623 33.942 0.0999994
      vertex 1.7119 34.4438 5.66735
      vertex 1.7119 34.4438 0.0999994
    endloop
  endfacet
  facet normal -0.891006 0.453992 0
    outer loop
      vertex 1.7119 34.4438 5.66735
      vertex 1.45623 33.942 0.0999994
      vertex 1.45623 33.942 5.66734
    endloop
  endfacet
  facet normal -0.987689 0.156433 0
    outer loop
      vertex 1.7119 34.4438 0.0999994
      vertex 1.8 35 5.66734
      vertex 1.8 35 0.0999994
    endloop
  endfacet
  facet normal -0.987689 0.156433 2.11486e-08
    outer loop
      vertex 1.8 35 5.66734
      vertex 1.7119 34.4438 0.0999994
      vertex 1.7119 34.4438 5.66735
    endloop
  endfacet
  facet normal 0.156432 0.987689 -0
    outer loop
      vertex 0 33.2 0.0999994
      vertex -0.556231 33.2881 5.66735
      vertex 0 33.2 5.66734
    endloop
  endfacet
  facet normal 0.156432 0.987689 0
    outer loop
      vertex -0.556231 33.2881 5.66735
      vertex 0 33.2 0.0999994
      vertex -0.556231 33.2881 0.0999994
    endloop
  endfacet
  facet normal 0.891006 0.453992 0
    outer loop
      vertex -1.45623 33.942 5.66734
      vertex -1.7119 34.4438 0.0999994
      vertex -1.7119 34.4438 5.66735
    endloop
  endfacet
  facet normal 0.891006 0.453992 0
    outer loop
      vertex -1.7119 34.4438 0.0999994
      vertex -1.45623 33.942 5.66734
      vertex -1.45623 33.942 0.0999994
    endloop
  endfacet
  facet normal -0.707106 -0.707107 3.02815e-08
    outer loop
      vertex 1.05801 36.4562 5.66734
      vertex 1.05801 36.4562 0.0999994
      vertex 1.45623 36.058 5.66734
    endloop
  endfacet
  facet normal -0.707106 -0.707108 -3.02814e-08
    outer loop
      vertex 1.45623 36.058 0.0999994
      vertex 1.45623 36.058 5.66734
      vertex 1.05801 36.4562 0.0999994
    endloop
  endfacet
  facet normal 0.987689 0.156433 0
    outer loop
      vertex -1.7119 34.4438 5.66735
      vertex -1.8 35 0.0999994
      vertex -1.8 35 5.66734
    endloop
  endfacet
  facet normal 0.987689 0.156433 2.11486e-08
    outer loop
      vertex -1.8 35 0.0999994
      vertex -1.7119 34.4438 5.66735
      vertex -1.7119 34.4438 0.0999994
    endloop
  endfacet
  facet normal 0.707106 -0.707107 -3.02815e-08
    outer loop
      vertex -1.45623 36.058 5.66734
      vertex -1.45623 36.058 0.0999994
      vertex -1.05801 36.4562 5.66734
    endloop
  endfacet
  facet normal 0.707106 -0.707108 3.02814e-08
    outer loop
      vertex -1.05801 36.4562 0.0999994
      vertex -1.05801 36.4562 5.66734
      vertex -1.45623 36.058 0.0999994
    endloop
  endfacet
  facet normal -0.707106 0.707107 0
    outer loop
      vertex 1.45623 33.942 5.66734
      vertex 1.45623 33.942 0.0999994
      vertex 1.05801 33.5438 5.66734
    endloop
  endfacet
  facet normal -0.707106 0.707108 4.54222e-08
    outer loop
      vertex 1.05801 33.5438 0.0999994
      vertex 1.05801 33.5438 5.66734
      vertex 1.45623 33.942 0.0999994
    endloop
  endfacet
  facet normal 0.707106 0.707107 4.54222e-08
    outer loop
      vertex -1.05801 33.5438 0.0999994
      vertex -1.45623 33.942 5.66734
      vertex -1.05801 33.5438 5.66734
    endloop
  endfacet
  facet normal 0.707106 0.707108 0
    outer loop
      vertex -1.45623 33.942 5.66734
      vertex -1.05801 33.5438 0.0999994
      vertex -1.45623 33.942 0.0999994
    endloop
  endfacet
  facet normal 0.453993 0.891005 9.721e-09
    outer loop
      vertex -0.556231 33.2881 5.66735
      vertex -0.556231 33.2881 0.0999994
      vertex -1.05801 33.5438 5.66734
    endloop
  endfacet
  facet normal 0.453993 0.891005 0
    outer loop
      vertex -1.05801 33.5438 5.66734
      vertex -0.556231 33.2881 0.0999994
      vertex -1.05801 33.5438 0.0999994
    endloop
  endfacet
endsolid OpenSCAD_Model
