solid OpenSCAD_Model
  facet normal 0 0 -1
    outer loop
      vertex 10.4325 -5.50793 0
      vertex 32.6684 25.1848 0
      vertex 51.4639 12.0241 0
    endloop
  endfacet
  facet normal 0 0 -1
    outer loop
      vertex 10.4325 -5.50793 0
      vertex 8.89565 13.7626 0
      vertex 32.6684 25.1848 0
    endloop
  endfacet
  facet normal 0 0 -1
    outer loop
      vertex -8.77826 -36.5805 0
      vertex 10.4325 -5.50793 0
      vertex 10.267 -49.9162 0
    endloop
  endfacet
  facet normal 0 0 -1
    outer loop
      vertex -9.00009 10.0241 0
      vertex 10.4325 -5.50793 0
      vertex -7.32179 -9.22223 0
    endloop
  endfacet
  facet normal 0 0 -1
    outer loop
      vertex 10.4325 -5.50793 0
      vertex -9.00009 10.0241 0
      vertex 8.89565 13.7626 0
    endloop
  endfacet
  facet normal 0 0 -1
    outer loop
      vertex 10.4325 -5.50793 0
      vertex -8.77826 -36.5805 0
      vertex -7.32179 -9.22223 0
    endloop
  endfacet
  facet normal -0 0 -1
    outer loop
      vertex 11.0813 40.3002 0
      vertex 8.89565 13.7626 0
      vertex -7.17188 53.0813 0
    endloop
  endfacet
  facet normal -0 0 -1
    outer loop
      vertex 8.89565 13.7626 0
      vertex -9.00009 10.0241 0
      vertex -7.17188 53.0813 0
    endloop
  endfacet
  facet normal 0 0 -1
    outer loop
      vertex -32.4075 -20.0351 0
      vertex -9.00009 10.0241 0
      vertex -7.32179 -9.22223 0
    endloop
  endfacet
  facet normal 0 0 -1
    outer loop
      vertex -9.00009 10.0241 0
      vertex -32.4075 -20.0351 0
      vertex -51.0359 -6.99142 0
    endloop
  endfacet
  facet normal 0 0 1
    outer loop
      vertex 8.89565 13.7626 8
      vertex -9.00009 10.0241 8
      vertex -7.32179 -9.22223 8
    endloop
  endfacet
  facet normal 0 0 1
    outer loop
      vertex -9.00009 10.0241 8
      vertex -32.4075 -20.0351 8
      vertex -7.32179 -9.22223 8
    endloop
  endfacet
  facet normal 0 -0 1
    outer loop
      vertex -32.4075 -20.0351 8
      vertex -9.00009 10.0241 8
      vertex -51.0359 -6.99142 8
    endloop
  endfacet
  facet normal -0 0 1
    outer loop
      vertex 2.71557 32.027 8
      vertex 8.89565 13.7626 8
      vertex 3.19235 32.9627 8
    endloop
  endfacet
  facet normal 0 0 1
    outer loop
      vertex 8.89565 13.7626 8
      vertex 3.19235 -30.9627 8
      vertex 3.35663 -32 8
    endloop
  endfacet
  facet normal -0 0 1
    outer loop
      vertex 1.97298 31.2844 8
      vertex 8.89565 13.7626 8
      vertex 2.71557 32.027 8
    endloop
  endfacet
  facet normal 0 0 1
    outer loop
      vertex 8.89565 13.7626 8
      vertex 2.71557 -30.027 8
      vertex 3.19235 -30.9627 8
    endloop
  endfacet
  facet normal -0 0 1
    outer loop
      vertex 1.03726 30.8077 8
      vertex 8.89565 13.7626 8
      vertex 1.97298 31.2844 8
    endloop
  endfacet
  facet normal 0 -0 1
    outer loop
      vertex 1.97298 -29.2844 8
      vertex 8.89565 13.7626 8
      vertex -7.32179 -9.22223 8
    endloop
  endfacet
  facet normal -0 0 1
    outer loop
      vertex 0 30.6434 8
      vertex 8.89565 13.7626 8
      vertex 1.03726 30.8077 8
    endloop
  endfacet
  facet normal 0 0 1
    outer loop
      vertex 8.89565 13.7626 8
      vertex 1.97298 -29.2844 8
      vertex 2.71557 -30.027 8
    endloop
  endfacet
  facet normal 0 0 1
    outer loop
      vertex -9.00009 10.0241 8
      vertex 0 30.6434 8
      vertex -1.03726 30.8077 8
    endloop
  endfacet
  facet normal 0 0 1
    outer loop
      vertex 1.97298 -29.2844 8
      vertex -7.32179 -9.22223 8
      vertex 1.03726 -28.8077 8
    endloop
  endfacet
  facet normal 0 0 1
    outer loop
      vertex -9.00009 10.0241 8
      vertex -1.03726 30.8077 8
      vertex -1.97298 31.2844 8
    endloop
  endfacet
  facet normal 0 0 1
    outer loop
      vertex 1.03726 -28.8077 8
      vertex -7.32179 -9.22223 8
      vertex 0 -28.6434 8
    endloop
  endfacet
  facet normal 0 0 1
    outer loop
      vertex 0 30.6434 8
      vertex -9.00009 10.0241 8
      vertex 8.89565 13.7626 8
    endloop
  endfacet
  facet normal 0 0 1
    outer loop
      vertex 0 -28.6434 8
      vertex -7.32179 -9.22223 8
      vertex -1.03726 -28.8077 8
    endloop
  endfacet
  facet normal 0 0 1
    outer loop
      vertex -9.00009 10.0241 8
      vertex -1.97298 31.2844 8
      vertex -2.71557 32.027 8
    endloop
  endfacet
  facet normal 0 0 1
    outer loop
      vertex -1.03726 -28.8077 8
      vertex -7.32179 -9.22223 8
      vertex -1.97298 -29.2844 8
    endloop
  endfacet
  facet normal 0 0 1
    outer loop
      vertex -9.00009 10.0241 8
      vertex -2.71557 32.027 8
      vertex -3.19235 32.9627 8
    endloop
  endfacet
  facet normal 0 0 1
    outer loop
      vertex -1.97298 -29.2844 8
      vertex -7.32179 -9.22223 8
      vertex -2.71557 -30.027 8
    endloop
  endfacet
  facet normal 0 0 1
    outer loop
      vertex -9.00009 10.0241 8
      vertex -3.19235 32.9627 8
      vertex -3.35663 34 8
    endloop
  endfacet
  facet normal 0 0 1
    outer loop
      vertex -8.77826 -36.5805 8
      vertex -2.71557 -30.027 8
      vertex -7.32179 -9.22223 8
    endloop
  endfacet
  facet normal 0 0 1
    outer loop
      vertex 3.19235 32.9627 8
      vertex 11.0813 40.3002 8
      vertex 3.35663 34 8
    endloop
  endfacet
  facet normal 0 0 1
    outer loop
      vertex 11.0813 40.3002 8
      vertex 3.19235 35.0373 8
      vertex 3.35663 34 8
    endloop
  endfacet
  facet normal 0 0 1
    outer loop
      vertex 11.0813 40.3002 8
      vertex 2.71557 35.973 8
      vertex 3.19235 35.0373 8
    endloop
  endfacet
  facet normal 0 0 1
    outer loop
      vertex 11.0813 40.3002 8
      vertex 1.97298 36.7156 8
      vertex 2.71557 35.973 8
    endloop
  endfacet
  facet normal 0 0 1
    outer loop
      vertex 11.0813 40.3002 8
      vertex 1.03726 37.1923 8
      vertex 1.97298 36.7156 8
    endloop
  endfacet
  facet normal 0 0 1
    outer loop
      vertex -7.17188 53.0813 8
      vertex 1.03726 37.1923 8
      vertex 11.0813 40.3002 8
    endloop
  endfacet
  facet normal 0 0 1
    outer loop
      vertex 1.03726 37.1923 8
      vertex -7.17188 53.0813 8
      vertex 0 37.3566 8
    endloop
  endfacet
  facet normal 0 0 1
    outer loop
      vertex -9.00009 10.0241 8
      vertex -3.35663 34 8
      vertex -7.17188 53.0813 8
    endloop
  endfacet
  facet normal 0 0 1
    outer loop
      vertex -3.19235 35.0373 8
      vertex -7.17188 53.0813 8
      vertex -3.35663 34 8
    endloop
  endfacet
  facet normal 0 0 1
    outer loop
      vertex -2.71557 35.973 8
      vertex -7.17188 53.0813 8
      vertex -3.19235 35.0373 8
    endloop
  endfacet
  facet normal 0 0 1
    outer loop
      vertex -1.97298 36.7156 8
      vertex -7.17188 53.0813 8
      vertex -2.71557 35.973 8
    endloop
  endfacet
  facet normal 0 0 1
    outer loop
      vertex -1.03726 37.1923 8
      vertex -7.17188 53.0813 8
      vertex -1.97298 36.7156 8
    endloop
  endfacet
  facet normal 0 0 1
    outer loop
      vertex 0 37.3566 8
      vertex -7.17188 53.0813 8
      vertex -1.03726 37.1923 8
    endloop
  endfacet
  facet normal 0 0 1
    outer loop
      vertex 32.6684 25.1848 8
      vertex 10.4325 -5.50793 8
      vertex 51.4639 12.0241 8
    endloop
  endfacet
  facet normal -0 0 1
    outer loop
      vertex 8.89565 13.7626 8
      vertex 10.4325 -5.50793 8
      vertex 32.6684 25.1848 8
    endloop
  endfacet
  facet normal 0 0 1
    outer loop
      vertex 3.35663 -32 8
      vertex 10.4325 -5.50793 8
      vertex 8.89565 13.7626 8
    endloop
  endfacet
  facet normal 0 0 1
    outer loop
      vertex 11.0813 40.3002 8
      vertex 3.19235 32.9627 8
      vertex 8.89565 13.7626 8
    endloop
  endfacet
  facet normal 0 0 1
    outer loop
      vertex 10.4325 -5.50793 8
      vertex 3.35663 -32 8
      vertex 10.267 -49.9162 8
    endloop
  endfacet
  facet normal -0 0 1
    outer loop
      vertex 3.19235 -33.0373 8
      vertex 10.267 -49.9162 8
      vertex 3.35663 -32 8
    endloop
  endfacet
  facet normal -0 0 1
    outer loop
      vertex 2.71557 -33.973 8
      vertex 10.267 -49.9162 8
      vertex 3.19235 -33.0373 8
    endloop
  endfacet
  facet normal -0 0 1
    outer loop
      vertex 1.97298 -34.7156 8
      vertex 10.267 -49.9162 8
      vertex 2.71557 -33.973 8
    endloop
  endfacet
  facet normal -0 0 1
    outer loop
      vertex 1.03726 -35.1923 8
      vertex 10.267 -49.9162 8
      vertex 1.97298 -34.7156 8
    endloop
  endfacet
  facet normal -0 0 1
    outer loop
      vertex 0 -35.3566 8
      vertex 10.267 -49.9162 8
      vertex 1.03726 -35.1923 8
    endloop
  endfacet
  facet normal 0 0 1
    outer loop
      vertex -1.03726 -35.1923 8
      vertex 10.267 -49.9162 8
      vertex 0 -35.3566 8
    endloop
  endfacet
  facet normal 0 0 1
    outer loop
      vertex -8.77826 -36.5805 8
      vertex -1.03726 -35.1923 8
      vertex -1.97298 -34.7156 8
    endloop
  endfacet
  facet normal 0 0 1
    outer loop
      vertex -8.77826 -36.5805 8
      vertex -1.97298 -34.7156 8
      vertex -2.71557 -33.973 8
    endloop
  endfacet
  facet normal 0 0 1
    outer loop
      vertex -2.71557 -30.027 8
      vertex -8.77826 -36.5805 8
      vertex -3.19235 -30.9627 8
    endloop
  endfacet
  facet normal 0 0 1
    outer loop
      vertex -3.19235 -30.9627 8
      vertex -8.77826 -36.5805 8
      vertex -3.35663 -32 8
    endloop
  endfacet
  facet normal 0 0 1
    outer loop
      vertex -1.03726 -35.1923 8
      vertex -8.77826 -36.5805 8
      vertex 10.267 -49.9162 8
    endloop
  endfacet
  facet normal 0 0 1
    outer loop
      vertex -3.19235 -33.0373 8
      vertex -8.77826 -36.5805 8
      vertex -2.71557 -33.973 8
    endloop
  endfacet
  facet normal 0 0 1
    outer loop
      vertex -3.35663 -32 8
      vertex -8.77826 -36.5805 8
      vertex -3.19235 -33.0373 8
    endloop
  endfacet
  facet normal -0.998586 0.0531616 0
    outer loop
      vertex -8.77826 -36.5805 0
      vertex -7.32179 -9.22223 8
      vertex -7.32179 -9.22223 0
    endloop
  endfacet
  facet normal -0.998586 0.0531616 0
    outer loop
      vertex -7.32179 -9.22223 8
      vertex -8.77826 -36.5805 0
      vertex -8.77826 -36.5805 8
    endloop
  endfacet
  facet normal -0.573576 -0.819152 0
    outer loop
      vertex -8.77826 -36.5805 0
      vertex 10.267 -49.9162 8
      vertex -8.77826 -36.5805 8
    endloop
  endfacet
  facet normal -0.573576 -0.819152 -0
    outer loop
      vertex 10.267 -49.9162 8
      vertex -8.77826 -36.5805 0
      vertex 10.267 -49.9162 0
    endloop
  endfacet
  facet normal 0.999993 -0.00372531 0
    outer loop
      vertex 10.267 -49.9162 8
      vertex 10.4325 -5.50793 0
      vertex 10.4325 -5.50793 8
    endloop
  endfacet
  facet normal 0.999993 -0.00372531 0
    outer loop
      vertex 10.4325 -5.50793 0
      vertex 10.267 -49.9162 8
      vertex 10.267 -49.9162 0
    endloop
  endfacet
  facet normal 0.392918 -0.919574 0
    outer loop
      vertex 10.4325 -5.50793 0
      vertex 51.4639 12.0241 8
      vertex 10.4325 -5.50793 8
    endloop
  endfacet
  facet normal 0.392918 -0.919574 0
    outer loop
      vertex 51.4639 12.0241 8
      vertex 10.4325 -5.50793 0
      vertex 51.4639 12.0241 0
    endloop
  endfacet
  facet normal 0.573576 0.819152 -0
    outer loop
      vertex 51.4639 12.0241 0
      vertex 32.6684 25.1848 8
      vertex 51.4639 12.0241 8
    endloop
  endfacet
  facet normal 0.573576 0.819152 0
    outer loop
      vertex 32.6684 25.1848 8
      vertex 51.4639 12.0241 0
      vertex 32.6684 25.1848 0
    endloop
  endfacet
  facet normal -0.433078 0.901356 0
    outer loop
      vertex 32.6684 25.1848 0
      vertex 8.89565 13.7626 8
      vertex 32.6684 25.1848 8
    endloop
  endfacet
  facet normal -0.433078 0.901356 0
    outer loop
      vertex 8.89565 13.7626 8
      vertex 32.6684 25.1848 0
      vertex 8.89565 13.7626 0
    endloop
  endfacet
  facet normal 0.996626 -0.0820821 0
    outer loop
      vertex 8.89565 13.7626 8
      vertex 11.0813 40.3002 0
      vertex 11.0813 40.3002 8
    endloop
  endfacet
  facet normal 0.996626 -0.0820821 0
    outer loop
      vertex 11.0813 40.3002 0
      vertex 8.89565 13.7626 8
      vertex 8.89565 13.7626 0
    endloop
  endfacet
  facet normal 0.573576 0.819152 -0
    outer loop
      vertex 11.0813 40.3002 0
      vertex -7.17188 53.0813 8
      vertex 11.0813 40.3002 8
    endloop
  endfacet
  facet normal 0.573576 0.819152 0
    outer loop
      vertex -7.17188 53.0813 8
      vertex 11.0813 40.3002 0
      vertex -7.17188 53.0813 0
    endloop
  endfacet
  facet normal -0.9991 0.0424218 0
    outer loop
      vertex -9.00009 10.0241 0
      vertex -7.17188 53.0813 8
      vertex -7.17188 53.0813 0
    endloop
  endfacet
  facet normal -0.9991 0.0424218 0
    outer loop
      vertex -7.17188 53.0813 8
      vertex -9.00009 10.0241 0
      vertex -9.00009 10.0241 8
    endloop
  endfacet
  facet normal -0.375212 0.926939 0
    outer loop
      vertex -9.00009 10.0241 0
      vertex -51.0359 -6.99142 8
      vertex -9.00009 10.0241 8
    endloop
  endfacet
  facet normal -0.375212 0.926939 0
    outer loop
      vertex -51.0359 -6.99142 8
      vertex -9.00009 10.0241 0
      vertex -51.0359 -6.99142 0
    endloop
  endfacet
  facet normal -0.573576 -0.819152 0
    outer loop
      vertex -51.0359 -6.99142 0
      vertex -32.4075 -20.0351 8
      vertex -51.0359 -6.99142 8
    endloop
  endfacet
  facet normal -0.573576 -0.819152 -0
    outer loop
      vertex -32.4075 -20.0351 8
      vertex -51.0359 -6.99142 0
      vertex -32.4075 -20.0351 0
    endloop
  endfacet
  facet normal 0.395832 -0.918323 0
    outer loop
      vertex -32.4075 -20.0351 0
      vertex -7.32179 -9.22223 8
      vertex -32.4075 -20.0351 8
    endloop
  endfacet
  facet normal 0.395832 -0.918323 0
    outer loop
      vertex -7.32179 -9.22223 8
      vertex -32.4075 -20.0351 0
      vertex -7.32179 -9.22223 0
    endloop
  endfacet
  facet normal -0.824672 -0.130615 0.550323
    outer loop
      vertex 3.35663 -32 8
      vertex 1.7119 -31.4438 5.66735
      vertex 1.8 -32 5.66734
    endloop
  endfacet
  facet normal -0.824672 -0.130615 0.550323
    outer loop
      vertex 1.7119 -31.4438 5.66735
      vertex 3.35663 -32 8
      vertex 3.19235 -30.9627 8
    endloop
  endfacet
  facet normal 0.824672 -0.130615 0.550323
    outer loop
      vertex -3.35663 -32 8
      vertex -1.7119 -31.4438 5.66735
      vertex -3.19235 -30.9627 8
    endloop
  endfacet
  facet normal 0.824672 -0.130615 0.550323
    outer loop
      vertex -1.7119 -31.4438 5.66735
      vertex -3.35663 -32 8
      vertex -1.8 -32 5.66734
    endloop
  endfacet
  facet normal -0.824672 0.130616 0.550323
    outer loop
      vertex 1.7119 -32.5562 5.66734
      vertex 3.35663 -32 8
      vertex 1.8 -32 5.66734
    endloop
  endfacet
  facet normal -0.824672 0.130615 0.550323
    outer loop
      vertex 3.35663 -32 8
      vertex 1.7119 -32.5562 5.66734
      vertex 3.19235 -33.0373 8
    endloop
  endfacet
  facet normal 0.130616 -0.824672 0.550323
    outer loop
      vertex -1.03726 -28.8077 8
      vertex -0.556231 -30.2881 5.66735
      vertex 0 -28.6434 8
    endloop
  endfacet
  facet normal 0.130614 -0.824672 0.550323
    outer loop
      vertex 0 -28.6434 8
      vertex -0.556231 -30.2881 5.66735
      vertex 0 -30.2 5.66734
    endloop
  endfacet
  facet normal 0.130614 0.824673 0.550322
    outer loop
      vertex 0 -35.3566 8
      vertex -0.556231 -33.7119 5.66734
      vertex -1.03726 -35.1923 8
    endloop
  endfacet
  facet normal 0.130614 0.824673 0.550322
    outer loop
      vertex -0.556231 -33.7119 5.66734
      vertex 0 -35.3566 8
      vertex 0 -33.8 5.66734
    endloop
  endfacet
  facet normal 0.5904 -0.5904 0.550323
    outer loop
      vertex -2.71557 -30.027 8
      vertex -1.05801 -30.5438 5.66734
      vertex -1.97298 -29.2844 8
    endloop
  endfacet
  facet normal 0.5904 -0.590401 0.550323
    outer loop
      vertex -1.05801 -30.5438 5.66734
      vertex -2.71557 -30.027 8
      vertex -1.45623 -30.942 5.66734
    endloop
  endfacet
  facet normal -0.5904 -0.5904 0.550323
    outer loop
      vertex 1.05801 -30.5438 5.66734
      vertex 2.71557 -30.027 8
      vertex 1.97298 -29.2844 8
    endloop
  endfacet
  facet normal -0.5904 -0.590401 0.550323
    outer loop
      vertex 2.71557 -30.027 8
      vertex 1.05801 -30.5438 5.66734
      vertex 1.45623 -30.942 5.66734
    endloop
  endfacet
  facet normal -0.379061 0.743947 0.550322
    outer loop
      vertex 1.05801 -33.4562 5.66734
      vertex 1.03726 -35.1923 8
      vertex 1.97298 -34.7156 8
    endloop
  endfacet
  facet normal -0.379062 0.743947 0.550322
    outer loop
      vertex 1.03726 -35.1923 8
      vertex 1.05801 -33.4562 5.66734
      vertex 0.556231 -33.7119 5.66734
    endloop
  endfacet
  facet normal 0.743948 0.379059 0.550323
    outer loop
      vertex -3.19235 -33.0373 8
      vertex -1.45623 -33.058 5.66734
      vertex -1.7119 -32.5562 5.66734
    endloop
  endfacet
  facet normal 0.743948 0.379061 0.550323
    outer loop
      vertex -2.71557 -33.973 8
      vertex -1.45623 -33.058 5.66734
      vertex -3.19235 -33.0373 8
    endloop
  endfacet
  facet normal 0.743948 -0.379061 0.550323
    outer loop
      vertex -3.19235 -30.9627 8
      vertex -1.45623 -30.942 5.66734
      vertex -2.71557 -30.027 8
    endloop
  endfacet
  facet normal 0.743948 -0.379061 0.550323
    outer loop
      vertex -3.19235 -30.9627 8
      vertex -1.7119 -31.4438 5.66735
      vertex -1.45623 -30.942 5.66734
    endloop
  endfacet
  facet normal 0.37906 -0.743948 0.550323
    outer loop
      vertex -1.05801 -30.5438 5.66734
      vertex -1.03726 -28.8077 8
      vertex -1.97298 -29.2844 8
    endloop
  endfacet
  facet normal 0.379061 -0.743947 0.550322
    outer loop
      vertex -1.03726 -28.8077 8
      vertex -1.05801 -30.5438 5.66734
      vertex -0.556231 -30.2881 5.66735
    endloop
  endfacet
  facet normal -0.379061 -0.743947 0.550322
    outer loop
      vertex 1.05801 -30.5438 5.66734
      vertex 1.03726 -28.8077 8
      vertex 0.556231 -30.2881 5.66735
    endloop
  endfacet
  facet normal -0.37906 -0.743948 0.550323
    outer loop
      vertex 1.03726 -28.8077 8
      vertex 1.05801 -30.5438 5.66734
      vertex 1.97298 -29.2844 8
    endloop
  endfacet
  facet normal -0.743948 -0.379061 0.550323
    outer loop
      vertex 1.45623 -30.942 5.66734
      vertex 3.19235 -30.9627 8
      vertex 2.71557 -30.027 8
    endloop
  endfacet
  facet normal -0.743948 -0.379061 0.550323
    outer loop
      vertex 1.7119 -31.4438 5.66735
      vertex 3.19235 -30.9627 8
      vertex 1.45623 -30.942 5.66734
    endloop
  endfacet
  facet normal -0.130614 0.824673 0.550322
    outer loop
      vertex 0.556231 -33.7119 5.66734
      vertex 0 -35.3566 8
      vertex 1.03726 -35.1923 8
    endloop
  endfacet
  facet normal -0.130614 0.824673 0.550322
    outer loop
      vertex 0 -35.3566 8
      vertex 0.556231 -33.7119 5.66734
      vertex 0 -33.8 5.66734
    endloop
  endfacet
  facet normal 0.824672 0.130616 0.550323
    outer loop
      vertex -3.35663 -32 8
      vertex -1.7119 -32.5562 5.66734
      vertex -1.8 -32 5.66734
    endloop
  endfacet
  facet normal 0.824672 0.130615 0.550323
    outer loop
      vertex -1.7119 -32.5562 5.66734
      vertex -3.35663 -32 8
      vertex -3.19235 -33.0373 8
    endloop
  endfacet
  facet normal -0.130616 -0.824672 0.550323
    outer loop
      vertex 0 -28.6434 8
      vertex 0.556231 -30.2881 5.66735
      vertex 1.03726 -28.8077 8
    endloop
  endfacet
  facet normal -0.130614 -0.824672 0.550323
    outer loop
      vertex 0.556231 -30.2881 5.66735
      vertex 0 -28.6434 8
      vertex 0 -30.2 5.66734
    endloop
  endfacet
  facet normal -0.5904 0.590401 0.550323
    outer loop
      vertex 1.45623 -33.058 5.66734
      vertex 1.97298 -34.7156 8
      vertex 2.71557 -33.973 8
    endloop
  endfacet
  facet normal -0.5904 0.590401 0.550322
    outer loop
      vertex 1.97298 -34.7156 8
      vertex 1.45623 -33.058 5.66734
      vertex 1.05801 -33.4562 5.66734
    endloop
  endfacet
  facet normal -0.743948 0.379059 0.550323
    outer loop
      vertex 1.45623 -33.058 5.66734
      vertex 3.19235 -33.0373 8
      vertex 1.7119 -32.5562 5.66734
    endloop
  endfacet
  facet normal -0.743948 0.379061 0.550323
    outer loop
      vertex 3.19235 -33.0373 8
      vertex 1.45623 -33.058 5.66734
      vertex 2.71557 -33.973 8
    endloop
  endfacet
  facet normal 0.5904 0.590401 0.550322
    outer loop
      vertex -1.45623 -33.058 5.66734
      vertex -1.97298 -34.7156 8
      vertex -1.05801 -33.4562 5.66734
    endloop
  endfacet
  facet normal 0.5904 0.590401 0.550323
    outer loop
      vertex -1.97298 -34.7156 8
      vertex -1.45623 -33.058 5.66734
      vertex -2.71557 -33.973 8
    endloop
  endfacet
  facet normal 0.379062 0.743947 0.550322
    outer loop
      vertex -1.05801 -33.4562 5.66734
      vertex -1.03726 -35.1923 8
      vertex -0.556231 -33.7119 5.66734
    endloop
  endfacet
  facet normal 0.379061 0.743947 0.550322
    outer loop
      vertex -1.03726 -35.1923 8
      vertex -1.05801 -33.4562 5.66734
      vertex -1.97298 -34.7156 8
    endloop
  endfacet
  facet normal -0.987689 -0.156433 -3.24446e-08
    outer loop
      vertex 1.8 -32 0.0999994
      vertex 1.7119 -31.4438 5.66735
      vertex 1.7119 -31.4438 0.0999994
    endloop
  endfacet
  facet normal -0.987689 -0.156433 0
    outer loop
      vertex 1.7119 -31.4438 5.66735
      vertex 1.8 -32 0.0999994
      vertex 1.8 -32 5.66734
    endloop
  endfacet
  facet normal 0.987689 -0.156433 -3.24447e-08
    outer loop
      vertex -1.8 -32 5.66734
      vertex -1.7119 -31.4438 0.0999994
      vertex -1.7119 -31.4438 5.66735
    endloop
  endfacet
  facet normal 0.987689 -0.156433 0
    outer loop
      vertex -1.7119 -31.4438 0.0999994
      vertex -1.8 -32 5.66734
      vertex -1.8 -32 0.0999994
    endloop
  endfacet
  facet normal 0.987688 0.156434 0
    outer loop
      vertex -1.7119 -32.5562 5.66734
      vertex -1.8 -32 0.0999994
      vertex -1.8 -32 5.66734
    endloop
  endfacet
  facet normal 0.987688 0.156434 0
    outer loop
      vertex -1.8 -32 0.0999994
      vertex -1.7119 -32.5562 5.66734
      vertex -1.7119 -32.5562 0.0999994
    endloop
  endfacet
  facet normal 0.156432 -0.987689 0
    outer loop
      vertex -0.556231 -30.2881 0.0999994
      vertex 0 -30.2 5.66734
      vertex -0.556231 -30.2881 5.66735
    endloop
  endfacet
  facet normal 0.156432 -0.987689 0
    outer loop
      vertex 0 -30.2 5.66734
      vertex -0.556231 -30.2881 0.0999994
      vertex 0 -30.2 0.0999994
    endloop
  endfacet
  facet normal -0.707106 -0.707107 4.54222e-08
    outer loop
      vertex 1.05801 -30.5438 0.0999994
      vertex 1.45623 -30.942 5.66734
      vertex 1.05801 -30.5438 5.66734
    endloop
  endfacet
  facet normal -0.707106 -0.707108 -0
    outer loop
      vertex 1.45623 -30.942 5.66734
      vertex 1.05801 -30.5438 0.0999994
      vertex 1.45623 -30.942 0.0999994
    endloop
  endfacet
  facet normal -0.891006 -0.453992 0
    outer loop
      vertex 1.7119 -31.4438 0.0999994
      vertex 1.45623 -30.942 5.66734
      vertex 1.45623 -30.942 0.0999994
    endloop
  endfacet
  facet normal -0.891006 -0.453992 0
    outer loop
      vertex 1.45623 -30.942 5.66734
      vertex 1.7119 -31.4438 0.0999994
      vertex 1.7119 -31.4438 5.66735
    endloop
  endfacet
  facet normal -0.156432 -0.987689 0
    outer loop
      vertex 0 -30.2 0.0999994
      vertex 0.556231 -30.2881 5.66735
      vertex 0 -30.2 5.66734
    endloop
  endfacet
  facet normal -0.156432 -0.987689 -0
    outer loop
      vertex 0.556231 -30.2881 5.66735
      vertex 0 -30.2 0.0999994
      vertex 0.556231 -30.2881 0.0999994
    endloop
  endfacet
  facet normal 0.453993 -0.891005 0
    outer loop
      vertex -1.05801 -30.5438 0.0999994
      vertex -0.556231 -30.2881 5.66735
      vertex -1.05801 -30.5438 5.66734
    endloop
  endfacet
  facet normal 0.453993 -0.891005 9.721e-09
    outer loop
      vertex -0.556231 -30.2881 0.0999994
      vertex -0.556231 -30.2881 5.66735
      vertex -1.05801 -30.5438 0.0999994
    endloop
  endfacet
  facet normal 0.891006 -0.453992 0
    outer loop
      vertex -1.7119 -31.4438 5.66735
      vertex -1.45623 -30.942 0.0999994
      vertex -1.45623 -30.942 5.66734
    endloop
  endfacet
  facet normal 0.891006 -0.453992 0
    outer loop
      vertex -1.45623 -30.942 0.0999994
      vertex -1.7119 -31.4438 5.66735
      vertex -1.7119 -31.4438 0.0999994
    endloop
  endfacet
  facet normal 0.707106 -0.707107 0
    outer loop
      vertex -1.45623 -30.942 5.66734
      vertex -1.45623 -30.942 0.0999994
      vertex -1.05801 -30.5438 5.66734
    endloop
  endfacet
  facet normal 0.707106 -0.707108 4.54222e-08
    outer loop
      vertex -1.05801 -30.5438 0.0999994
      vertex -1.05801 -30.5438 5.66734
      vertex -1.45623 -30.942 0.0999994
    endloop
  endfacet
  facet normal -0.453993 -0.891005 9.721e-09
    outer loop
      vertex 0.556231 -30.2881 5.66735
      vertex 0.556231 -30.2881 0.0999994
      vertex 1.05801 -30.5438 5.66734
    endloop
  endfacet
  facet normal -0.453993 -0.891005 -0
    outer loop
      vertex 1.05801 -30.5438 5.66734
      vertex 0.556231 -30.2881 0.0999994
      vertex 1.05801 -30.5438 0.0999994
    endloop
  endfacet
  facet normal -0.453993 0.891005 0
    outer loop
      vertex 1.05801 -33.4562 0.0999994
      vertex 0.556231 -33.7119 5.66734
      vertex 1.05801 -33.4562 5.66734
    endloop
  endfacet
  facet normal -0.453993 0.891005 0
    outer loop
      vertex 0.556231 -33.7119 5.66734
      vertex 1.05801 -33.4562 0.0999994
      vertex 0.556231 -33.7119 0.0999994
    endloop
  endfacet
  facet normal -0.987688 0.156434 0
    outer loop
      vertex 1.7119 -32.5562 0.0999994
      vertex 1.8 -32 5.66734
      vertex 1.8 -32 0.0999994
    endloop
  endfacet
  facet normal -0.987688 0.156434 0
    outer loop
      vertex 1.8 -32 5.66734
      vertex 1.7119 -32.5562 0.0999994
      vertex 1.7119 -32.5562 5.66734
    endloop
  endfacet
  facet normal 0.891007 0.453989 0
    outer loop
      vertex -1.45623 -33.058 5.66734
      vertex -1.7119 -32.5562 0.0999994
      vertex -1.7119 -32.5562 5.66734
    endloop
  endfacet
  facet normal 0.891007 0.453989 0
    outer loop
      vertex -1.7119 -32.5562 0.0999994
      vertex -1.45623 -33.058 5.66734
      vertex -1.45623 -33.058 0.0999994
    endloop
  endfacet
  facet normal -0.707106 0.707107 -3.02815e-08
    outer loop
      vertex 1.45623 -33.058 5.66734
      vertex 1.45623 -33.058 0.0999994
      vertex 1.05801 -33.4562 5.66734
    endloop
  endfacet
  facet normal -0.707106 0.707108 3.02814e-08
    outer loop
      vertex 1.05801 -33.4562 0.0999994
      vertex 1.05801 -33.4562 5.66734
      vertex 1.45623 -33.058 0.0999994
    endloop
  endfacet
  facet normal -0.891007 0.453989 0
    outer loop
      vertex 1.45623 -33.058 0.0999994
      vertex 1.7119 -32.5562 5.66734
      vertex 1.7119 -32.5562 0.0999994
    endloop
  endfacet
  facet normal -0.891007 0.453989 0
    outer loop
      vertex 1.7119 -32.5562 5.66734
      vertex 1.45623 -33.058 0.0999994
      vertex 1.45623 -33.058 5.66734
    endloop
  endfacet
  facet normal 0 0 1
    outer loop
      vertex 1.7119 -31.4438 0.0999994
      vertex 1.7119 -32.5562 0.0999994
      vertex 1.8 -32 0.0999994
    endloop
  endfacet
  facet normal 0 0 1
    outer loop
      vertex 1.45623 -30.942 0.0999994
      vertex 1.7119 -32.5562 0.0999994
      vertex 1.7119 -31.4438 0.0999994
    endloop
  endfacet
  facet normal 0 0 1
    outer loop
      vertex 1.45623 -30.942 0.0999994
      vertex 1.45623 -33.058 0.0999994
      vertex 1.7119 -32.5562 0.0999994
    endloop
  endfacet
  facet normal 0 0 1
    outer loop
      vertex 1.05801 -30.5438 0.0999994
      vertex 1.45623 -33.058 0.0999994
      vertex 1.45623 -30.942 0.0999994
    endloop
  endfacet
  facet normal 0 0 1
    outer loop
      vertex 1.05801 -30.5438 0.0999994
      vertex 1.05801 -33.4562 0.0999994
      vertex 1.45623 -33.058 0.0999994
    endloop
  endfacet
  facet normal 0 0 1
    outer loop
      vertex 0.556231 -30.2881 0.0999994
      vertex 1.05801 -33.4562 0.0999994
      vertex 1.05801 -30.5438 0.0999994
    endloop
  endfacet
  facet normal 0 0 1
    outer loop
      vertex 0.556231 -30.2881 0.0999994
      vertex 0.556231 -33.7119 0.0999994
      vertex 1.05801 -33.4562 0.0999994
    endloop
  endfacet
  facet normal 0 0 1
    outer loop
      vertex 0 -30.2 0.0999994
      vertex 0.556231 -33.7119 0.0999994
      vertex 0.556231 -30.2881 0.0999994
    endloop
  endfacet
  facet normal 0 0 1
    outer loop
      vertex 0 -30.2 0.0999994
      vertex 0 -33.8 0.0999994
      vertex 0.556231 -33.7119 0.0999994
    endloop
  endfacet
  facet normal -0 0 1
    outer loop
      vertex -0.556231 -30.2881 0.0999994
      vertex 0 -33.8 0.0999994
      vertex 0 -30.2 0.0999994
    endloop
  endfacet
  facet normal 0 0 1
    outer loop
      vertex -0.556231 -30.2881 0.0999994
      vertex -0.556231 -33.7119 0.0999994
      vertex 0 -33.8 0.0999994
    endloop
  endfacet
  facet normal -0 0 1
    outer loop
      vertex -1.05801 -30.5438 0.0999994
      vertex -0.556231 -33.7119 0.0999994
      vertex -0.556231 -30.2881 0.0999994
    endloop
  endfacet
  facet normal 0 0 1
    outer loop
      vertex -1.05801 -30.5438 0.0999994
      vertex -1.05801 -33.4562 0.0999994
      vertex -0.556231 -33.7119 0.0999994
    endloop
  endfacet
  facet normal -0 0 1
    outer loop
      vertex -1.45623 -30.942 0.0999994
      vertex -1.05801 -33.4562 0.0999994
      vertex -1.05801 -30.5438 0.0999994
    endloop
  endfacet
  facet normal 0 0 1
    outer loop
      vertex -1.45623 -30.942 0.0999994
      vertex -1.45623 -33.058 0.0999994
      vertex -1.05801 -33.4562 0.0999994
    endloop
  endfacet
  facet normal -0 0 1
    outer loop
      vertex -1.7119 -31.4438 0.0999994
      vertex -1.45623 -33.058 0.0999994
      vertex -1.45623 -30.942 0.0999994
    endloop
  endfacet
  facet normal 0 0 1
    outer loop
      vertex -1.7119 -31.4438 0.0999994
      vertex -1.7119 -32.5562 0.0999994
      vertex -1.45623 -33.058 0.0999994
    endloop
  endfacet
  facet normal 0 -0 1
    outer loop
      vertex -1.7119 -32.5562 0.0999994
      vertex -1.7119 -31.4438 0.0999994
      vertex -1.8 -32 0.0999994
    endloop
  endfacet
  facet normal 0.156432 0.987689 -0
    outer loop
      vertex 0 -33.8 0.0999994
      vertex -0.556231 -33.7119 5.66734
      vertex 0 -33.8 5.66734
    endloop
  endfacet
  facet normal 0.156432 0.987689 0
    outer loop
      vertex -0.556231 -33.7119 5.66734
      vertex 0 -33.8 0.0999994
      vertex -0.556231 -33.7119 0.0999994
    endloop
  endfacet
  facet normal -0.156432 0.987689 0
    outer loop
      vertex 0.556231 -33.7119 0.0999994
      vertex 0 -33.8 5.66734
      vertex 0.556231 -33.7119 5.66734
    endloop
  endfacet
  facet normal -0.156432 0.987689 0
    outer loop
      vertex 0 -33.8 5.66734
      vertex 0.556231 -33.7119 0.0999994
      vertex 0 -33.8 0.0999994
    endloop
  endfacet
  facet normal 0.707106 0.707107 3.02815e-08
    outer loop
      vertex -1.05801 -33.4562 5.66734
      vertex -1.05801 -33.4562 0.0999994
      vertex -1.45623 -33.058 5.66734
    endloop
  endfacet
  facet normal 0.707106 0.707108 -3.02814e-08
    outer loop
      vertex -1.45623 -33.058 0.0999994
      vertex -1.45623 -33.058 5.66734
      vertex -1.05801 -33.4562 0.0999994
    endloop
  endfacet
  facet normal 0.453993 0.891005 -0
    outer loop
      vertex -0.556231 -33.7119 0.0999994
      vertex -1.05801 -33.4562 5.66734
      vertex -0.556231 -33.7119 5.66734
    endloop
  endfacet
  facet normal 0.453993 0.891005 0
    outer loop
      vertex -1.05801 -33.4562 5.66734
      vertex -0.556231 -33.7119 0.0999994
      vertex -1.05801 -33.4562 0.0999994
    endloop
  endfacet
  facet normal -0.824672 -0.130616 0.550323
    outer loop
      vertex 3.35663 34 8
      vertex 1.7119 34.5562 5.66734
      vertex 1.8 34 5.66734
    endloop
  endfacet
  facet normal -0.824672 -0.130615 0.550323
    outer loop
      vertex 1.7119 34.5562 5.66734
      vertex 3.35663 34 8
      vertex 3.19235 35.0373 8
    endloop
  endfacet
  facet normal 0.824672 0.130615 0.550323
    outer loop
      vertex -3.35663 34 8
      vertex -1.7119 33.4438 5.66735
      vertex -1.8 34 5.66734
    endloop
  endfacet
  facet normal 0.824672 0.130615 0.550323
    outer loop
      vertex -1.7119 33.4438 5.66735
      vertex -3.35663 34 8
      vertex -3.19235 32.9627 8
    endloop
  endfacet
  facet normal -0.824672 0.130615 0.550323
    outer loop
      vertex 1.7119 33.4438 5.66735
      vertex 3.35663 34 8
      vertex 1.8 34 5.66734
    endloop
  endfacet
  facet normal -0.824672 0.130615 0.550323
    outer loop
      vertex 3.35663 34 8
      vertex 1.7119 33.4438 5.66735
      vertex 3.19235 32.9627 8
    endloop
  endfacet
  facet normal 0.130614 -0.824673 0.550322
    outer loop
      vertex -0.556231 35.7119 5.66734
      vertex 0 37.3566 8
      vertex -1.03726 37.1923 8
    endloop
  endfacet
  facet normal 0.130614 -0.824673 0.550322
    outer loop
      vertex 0 37.3566 8
      vertex -0.556231 35.7119 5.66734
      vertex 0 35.8 5.66734
    endloop
  endfacet
  facet normal -0.130616 0.824672 0.550323
    outer loop
      vertex 1.03726 30.8077 8
      vertex 0.556231 32.2881 5.66735
      vertex 0 30.6434 8
    endloop
  endfacet
  facet normal -0.130614 0.824672 0.550323
    outer loop
      vertex 0 30.6434 8
      vertex 0.556231 32.2881 5.66735
      vertex 0 32.2 5.66734
    endloop
  endfacet
  facet normal 0.743948 -0.379061 0.550323
    outer loop
      vertex -3.19235 35.0373 8
      vertex -1.45623 35.058 5.66734
      vertex -2.71557 35.973 8
    endloop
  endfacet
  facet normal 0.743948 -0.379059 0.550323
    outer loop
      vertex -1.45623 35.058 5.66734
      vertex -3.19235 35.0373 8
      vertex -1.7119 34.5562 5.66734
    endloop
  endfacet
  facet normal -0.5904 -0.590401 0.550322
    outer loop
      vertex 1.45623 35.058 5.66734
      vertex 1.97298 36.7156 8
      vertex 1.05801 35.4562 5.66734
    endloop
  endfacet
  facet normal -0.5904 -0.590401 0.550323
    outer loop
      vertex 1.97298 36.7156 8
      vertex 1.45623 35.058 5.66734
      vertex 2.71557 35.973 8
    endloop
  endfacet
  facet normal -0.5904 0.590401 0.550323
    outer loop
      vertex 1.05801 32.5438 5.66734
      vertex 2.71557 32.027 8
      vertex 1.45623 32.942 5.66734
    endloop
  endfacet
  facet normal -0.5904 0.5904 0.550323
    outer loop
      vertex 2.71557 32.027 8
      vertex 1.05801 32.5438 5.66734
      vertex 1.97298 31.2844 8
    endloop
  endfacet
  facet normal 0.5904 0.590401 0.550323
    outer loop
      vertex -2.71557 32.027 8
      vertex -1.05801 32.5438 5.66734
      vertex -1.45623 32.942 5.66734
    endloop
  endfacet
  facet normal 0.5904 0.5904 0.550323
    outer loop
      vertex -1.05801 32.5438 5.66734
      vertex -2.71557 32.027 8
      vertex -1.97298 31.2844 8
    endloop
  endfacet
  facet normal 0.824672 -0.130615 0.550323
    outer loop
      vertex -3.35663 34 8
      vertex -1.7119 34.5562 5.66734
      vertex -3.19235 35.0373 8
    endloop
  endfacet
  facet normal 0.824672 -0.130616 0.550323
    outer loop
      vertex -1.7119 34.5562 5.66734
      vertex -3.35663 34 8
      vertex -1.8 34 5.66734
    endloop
  endfacet
  facet normal 0.379061 -0.743947 0.550322
    outer loop
      vertex -1.05801 35.4562 5.66734
      vertex -1.03726 37.1923 8
      vertex -1.97298 36.7156 8
    endloop
  endfacet
  facet normal 0.379062 -0.743947 0.550322
    outer loop
      vertex -1.03726 37.1923 8
      vertex -1.05801 35.4562 5.66734
      vertex -0.556231 35.7119 5.66734
    endloop
  endfacet
  facet normal -0.379062 -0.743947 0.550322
    outer loop
      vertex 1.05801 35.4562 5.66734
      vertex 1.03726 37.1923 8
      vertex 0.556231 35.7119 5.66734
    endloop
  endfacet
  facet normal -0.379061 -0.743947 0.550322
    outer loop
      vertex 1.03726 37.1923 8
      vertex 1.05801 35.4562 5.66734
      vertex 1.97298 36.7156 8
    endloop
  endfacet
  facet normal -0.743948 -0.379061 0.550323
    outer loop
      vertex 1.45623 35.058 5.66734
      vertex 3.19235 35.0373 8
      vertex 2.71557 35.973 8
    endloop
  endfacet
  facet normal -0.743948 -0.379059 0.550323
    outer loop
      vertex 3.19235 35.0373 8
      vertex 1.45623 35.058 5.66734
      vertex 1.7119 34.5562 5.66734
    endloop
  endfacet
  facet normal -0.743948 0.379061 0.550323
    outer loop
      vertex 1.45623 32.942 5.66734
      vertex 3.19235 32.9627 8
      vertex 1.7119 33.4438 5.66735
    endloop
  endfacet
  facet normal -0.743948 0.379061 0.550323
    outer loop
      vertex 3.19235 32.9627 8
      vertex 1.45623 32.942 5.66734
      vertex 2.71557 32.027 8
    endloop
  endfacet
  facet normal -0.37906 0.743948 0.550323
    outer loop
      vertex 1.05801 32.5438 5.66734
      vertex 1.03726 30.8077 8
      vertex 1.97298 31.2844 8
    endloop
  endfacet
  facet normal -0.379061 0.743947 0.550322
    outer loop
      vertex 1.03726 30.8077 8
      vertex 1.05801 32.5438 5.66734
      vertex 0.556231 32.2881 5.66735
    endloop
  endfacet
  facet normal 0.379061 0.743947 0.550322
    outer loop
      vertex -1.05801 32.5438 5.66734
      vertex -1.03726 30.8077 8
      vertex -0.556231 32.2881 5.66735
    endloop
  endfacet
  facet normal 0.37906 0.743948 0.550323
    outer loop
      vertex -1.03726 30.8077 8
      vertex -1.05801 32.5438 5.66734
      vertex -1.97298 31.2844 8
    endloop
  endfacet
  facet normal 0.743948 0.379061 0.550323
    outer loop
      vertex -3.19235 32.9627 8
      vertex -1.45623 32.942 5.66734
      vertex -1.7119 33.4438 5.66735
    endloop
  endfacet
  facet normal 0.743948 0.379061 0.550323
    outer loop
      vertex -1.45623 32.942 5.66734
      vertex -3.19235 32.9627 8
      vertex -2.71557 32.027 8
    endloop
  endfacet
  facet normal 0.5904 -0.590401 0.550323
    outer loop
      vertex -1.45623 35.058 5.66734
      vertex -1.97298 36.7156 8
      vertex -2.71557 35.973 8
    endloop
  endfacet
  facet normal 0.5904 -0.590401 0.550322
    outer loop
      vertex -1.97298 36.7156 8
      vertex -1.45623 35.058 5.66734
      vertex -1.05801 35.4562 5.66734
    endloop
  endfacet
  facet normal -0.130614 -0.824673 0.550322
    outer loop
      vertex 0 37.3566 8
      vertex 0.556231 35.7119 5.66734
      vertex 1.03726 37.1923 8
    endloop
  endfacet
  facet normal -0.130614 -0.824673 0.550322
    outer loop
      vertex 0.556231 35.7119 5.66734
      vertex 0 37.3566 8
      vertex 0 35.8 5.66734
    endloop
  endfacet
  facet normal 0.130616 0.824672 0.550323
    outer loop
      vertex 0 30.6434 8
      vertex -0.556231 32.2881 5.66735
      vertex -1.03726 30.8077 8
    endloop
  endfacet
  facet normal 0.130614 0.824672 0.550323
    outer loop
      vertex -0.556231 32.2881 5.66735
      vertex 0 30.6434 8
      vertex 0 32.2 5.66734
    endloop
  endfacet
  facet normal -0.987688 -0.156434 0
    outer loop
      vertex 1.8 34 0.0999994
      vertex 1.7119 34.5562 5.66734
      vertex 1.7119 34.5562 0.0999994
    endloop
  endfacet
  facet normal -0.987688 -0.156434 0
    outer loop
      vertex 1.7119 34.5562 5.66734
      vertex 1.8 34 0.0999994
      vertex 1.8 34 5.66734
    endloop
  endfacet
  facet normal -0.156432 -0.987689 0
    outer loop
      vertex 0 35.8 0.0999994
      vertex 0.556231 35.7119 5.66734
      vertex 0 35.8 5.66734
    endloop
  endfacet
  facet normal -0.156432 -0.987689 -0
    outer loop
      vertex 0.556231 35.7119 5.66734
      vertex 0 35.8 0.0999994
      vertex 0.556231 35.7119 0.0999994
    endloop
  endfacet
  facet normal 0.987689 0.156433 0
    outer loop
      vertex -1.7119 33.4438 5.66735
      vertex -1.8 34 0.0999994
      vertex -1.8 34 5.66734
    endloop
  endfacet
  facet normal 0.987689 0.156433 2.11486e-08
    outer loop
      vertex -1.8 34 0.0999994
      vertex -1.7119 33.4438 5.66735
      vertex -1.7119 33.4438 0.0999994
    endloop
  endfacet
  facet normal -0.156432 0.987689 0
    outer loop
      vertex 0.556231 32.2881 0.0999994
      vertex 0 32.2 5.66734
      vertex 0.556231 32.2881 5.66735
    endloop
  endfacet
  facet normal -0.156432 0.987689 0
    outer loop
      vertex 0 32.2 5.66734
      vertex 0.556231 32.2881 0.0999994
      vertex 0 32.2 0.0999994
    endloop
  endfacet
  facet normal -0.891007 -0.453989 0
    outer loop
      vertex 1.7119 34.5562 0.0999994
      vertex 1.45623 35.058 5.66734
      vertex 1.45623 35.058 0.0999994
    endloop
  endfacet
  facet normal -0.891007 -0.453989 0
    outer loop
      vertex 1.45623 35.058 5.66734
      vertex 1.7119 34.5562 0.0999994
      vertex 1.7119 34.5562 5.66734
    endloop
  endfacet
  facet normal 0.156432 -0.987689 0
    outer loop
      vertex -0.556231 35.7119 0.0999994
      vertex 0 35.8 5.66734
      vertex -0.556231 35.7119 5.66734
    endloop
  endfacet
  facet normal 0.156432 -0.987689 0
    outer loop
      vertex 0 35.8 5.66734
      vertex -0.556231 35.7119 0.0999994
      vertex 0 35.8 0.0999994
    endloop
  endfacet
  facet normal 0 0 1
    outer loop
      vertex 1.7119 34.5562 0.0999994
      vertex 1.7119 33.4438 0.0999994
      vertex 1.8 34 0.0999994
    endloop
  endfacet
  facet normal 0 0 1
    outer loop
      vertex 1.45623 35.058 0.0999994
      vertex 1.7119 33.4438 0.0999994
      vertex 1.7119 34.5562 0.0999994
    endloop
  endfacet
  facet normal 0 0 1
    outer loop
      vertex 1.45623 35.058 0.0999994
      vertex 1.45623 32.942 0.0999994
      vertex 1.7119 33.4438 0.0999994
    endloop
  endfacet
  facet normal 0 0 1
    outer loop
      vertex 1.05801 35.4562 0.0999994
      vertex 1.45623 32.942 0.0999994
      vertex 1.45623 35.058 0.0999994
    endloop
  endfacet
  facet normal 0 0 1
    outer loop
      vertex 1.05801 35.4562 0.0999994
      vertex 1.05801 32.5438 0.0999994
      vertex 1.45623 32.942 0.0999994
    endloop
  endfacet
  facet normal 0 0 1
    outer loop
      vertex 0.556231 35.7119 0.0999994
      vertex 1.05801 32.5438 0.0999994
      vertex 1.05801 35.4562 0.0999994
    endloop
  endfacet
  facet normal 0 0 1
    outer loop
      vertex 0.556231 35.7119 0.0999994
      vertex 0.556231 32.2881 0.0999994
      vertex 1.05801 32.5438 0.0999994
    endloop
  endfacet
  facet normal 0 0 1
    outer loop
      vertex 0 35.8 0.0999994
      vertex 0.556231 32.2881 0.0999994
      vertex 0.556231 35.7119 0.0999994
    endloop
  endfacet
  facet normal 0 0 1
    outer loop
      vertex 0 35.8 0.0999994
      vertex 0 32.2 0.0999994
      vertex 0.556231 32.2881 0.0999994
    endloop
  endfacet
  facet normal -0 0 1
    outer loop
      vertex -0.556231 35.7119 0.0999994
      vertex 0 32.2 0.0999994
      vertex 0 35.8 0.0999994
    endloop
  endfacet
  facet normal 0 0 1
    outer loop
      vertex -0.556231 35.7119 0.0999994
      vertex -0.556231 32.2881 0.0999994
      vertex 0 32.2 0.0999994
    endloop
  endfacet
  facet normal -0 0 1
    outer loop
      vertex -1.05801 35.4562 0.0999994
      vertex -0.556231 32.2881 0.0999994
      vertex -0.556231 35.7119 0.0999994
    endloop
  endfacet
  facet normal 0 0 1
    outer loop
      vertex -1.05801 35.4562 0.0999994
      vertex -1.05801 32.5438 0.0999994
      vertex -0.556231 32.2881 0.0999994
    endloop
  endfacet
  facet normal -0 0 1
    outer loop
      vertex -1.45623 35.058 0.0999994
      vertex -1.05801 32.5438 0.0999994
      vertex -1.05801 35.4562 0.0999994
    endloop
  endfacet
  facet normal 0 0 1
    outer loop
      vertex -1.45623 35.058 0.0999994
      vertex -1.45623 32.942 0.0999994
      vertex -1.05801 32.5438 0.0999994
    endloop
  endfacet
  facet normal -0 0 1
    outer loop
      vertex -1.7119 34.5562 0.0999994
      vertex -1.45623 32.942 0.0999994
      vertex -1.45623 35.058 0.0999994
    endloop
  endfacet
  facet normal 0 0 1
    outer loop
      vertex -1.7119 34.5562 0.0999994
      vertex -1.7119 33.4438 0.0999994
      vertex -1.45623 32.942 0.0999994
    endloop
  endfacet
  facet normal 0 -0 1
    outer loop
      vertex -1.7119 33.4438 0.0999994
      vertex -1.7119 34.5562 0.0999994
      vertex -1.8 34 0.0999994
    endloop
  endfacet
  facet normal 0.453993 -0.891005 0
    outer loop
      vertex -1.05801 35.4562 0.0999994
      vertex -0.556231 35.7119 5.66734
      vertex -1.05801 35.4562 5.66734
    endloop
  endfacet
  facet normal 0.453993 -0.891005 0
    outer loop
      vertex -0.556231 35.7119 5.66734
      vertex -1.05801 35.4562 0.0999994
      vertex -0.556231 35.7119 0.0999994
    endloop
  endfacet
  facet normal -0.987689 0.156433 0
    outer loop
      vertex 1.7119 33.4438 0.0999994
      vertex 1.8 34 5.66734
      vertex 1.8 34 0.0999994
    endloop
  endfacet
  facet normal -0.987689 0.156433 2.11486e-08
    outer loop
      vertex 1.8 34 5.66734
      vertex 1.7119 33.4438 0.0999994
      vertex 1.7119 33.4438 5.66735
    endloop
  endfacet
  facet normal -0.453993 0.891005 0
    outer loop
      vertex 1.05801 32.5438 0.0999994
      vertex 0.556231 32.2881 5.66735
      vertex 1.05801 32.5438 5.66734
    endloop
  endfacet
  facet normal -0.453993 0.891005 9.721e-09
    outer loop
      vertex 0.556231 32.2881 0.0999994
      vertex 0.556231 32.2881 5.66735
      vertex 1.05801 32.5438 0.0999994
    endloop
  endfacet
  facet normal -0.707106 0.707107 0
    outer loop
      vertex 1.45623 32.942 5.66734
      vertex 1.45623 32.942 0.0999994
      vertex 1.05801 32.5438 5.66734
    endloop
  endfacet
  facet normal -0.707106 0.707108 4.54222e-08
    outer loop
      vertex 1.05801 32.5438 0.0999994
      vertex 1.05801 32.5438 5.66734
      vertex 1.45623 32.942 0.0999994
    endloop
  endfacet
  facet normal 0.891006 0.453992 0
    outer loop
      vertex -1.45623 32.942 5.66734
      vertex -1.7119 33.4438 0.0999994
      vertex -1.7119 33.4438 5.66735
    endloop
  endfacet
  facet normal 0.891006 0.453992 0
    outer loop
      vertex -1.7119 33.4438 0.0999994
      vertex -1.45623 32.942 5.66734
      vertex -1.45623 32.942 0.0999994
    endloop
  endfacet
  facet normal 0.156432 0.987689 -0
    outer loop
      vertex 0 32.2 0.0999994
      vertex -0.556231 32.2881 5.66735
      vertex 0 32.2 5.66734
    endloop
  endfacet
  facet normal 0.156432 0.987689 0
    outer loop
      vertex -0.556231 32.2881 5.66735
      vertex 0 32.2 0.0999994
      vertex -0.556231 32.2881 0.0999994
    endloop
  endfacet
  facet normal -0.707106 -0.707107 3.02815e-08
    outer loop
      vertex 1.05801 35.4562 5.66734
      vertex 1.05801 35.4562 0.0999994
      vertex 1.45623 35.058 5.66734
    endloop
  endfacet
  facet normal -0.707106 -0.707108 -3.02814e-08
    outer loop
      vertex 1.45623 35.058 0.0999994
      vertex 1.45623 35.058 5.66734
      vertex 1.05801 35.4562 0.0999994
    endloop
  endfacet
  facet normal -0.453993 -0.891005 0
    outer loop
      vertex 0.556231 35.7119 0.0999994
      vertex 1.05801 35.4562 5.66734
      vertex 0.556231 35.7119 5.66734
    endloop
  endfacet
  facet normal -0.453993 -0.891005 -0
    outer loop
      vertex 1.05801 35.4562 5.66734
      vertex 0.556231 35.7119 0.0999994
      vertex 1.05801 35.4562 0.0999994
    endloop
  endfacet
  facet normal 0.987688 -0.156434 0
    outer loop
      vertex -1.8 34 5.66734
      vertex -1.7119 34.5562 0.0999994
      vertex -1.7119 34.5562 5.66734
    endloop
  endfacet
  facet normal 0.987688 -0.156434 0
    outer loop
      vertex -1.7119 34.5562 0.0999994
      vertex -1.8 34 5.66734
      vertex -1.8 34 0.0999994
    endloop
  endfacet
  facet normal 0.707106 -0.707107 -3.02815e-08
    outer loop
      vertex -1.45623 35.058 5.66734
      vertex -1.45623 35.058 0.0999994
      vertex -1.05801 35.4562 5.66734
    endloop
  endfacet
  facet normal 0.707106 -0.707108 3.02814e-08
    outer loop
      vertex -1.05801 35.4562 0.0999994
      vertex -1.05801 35.4562 5.66734
      vertex -1.45623 35.058 0.0999994
    endloop
  endfacet
  facet normal 0.891007 -0.453989 0
    outer loop
      vertex -1.7119 34.5562 5.66734
      vertex -1.45623 35.058 0.0999994
      vertex -1.45623 35.058 5.66734
    endloop
  endfacet
  facet normal 0.891007 -0.453989 0
    outer loop
      vertex -1.45623 35.058 0.0999994
      vertex -1.7119 34.5562 5.66734
      vertex -1.7119 34.5562 0.0999994
    endloop
  endfacet
  facet normal -0.891006 0.453992 0
    outer loop
      vertex 1.45623 32.942 0.0999994
      vertex 1.7119 33.4438 5.66735
      vertex 1.7119 33.4438 0.0999994
    endloop
  endfacet
  facet normal -0.891006 0.453992 0
    outer loop
      vertex 1.7119 33.4438 5.66735
      vertex 1.45623 32.942 0.0999994
      vertex 1.45623 32.942 5.66734
    endloop
  endfacet
  facet normal 0.707106 0.707107 4.54222e-08
    outer loop
      vertex -1.05801 32.5438 0.0999994
      vertex -1.45623 32.942 5.66734
      vertex -1.05801 32.5438 5.66734
    endloop
  endfacet
  facet normal 0.707106 0.707108 0
    outer loop
      vertex -1.45623 32.942 5.66734
      vertex -1.05801 32.5438 0.0999994
      vertex -1.45623 32.942 0.0999994
    endloop
  endfacet
  facet normal 0.453993 0.891005 9.721e-09
    outer loop
      vertex -0.556231 32.2881 5.66735
      vertex -0.556231 32.2881 0.0999994
      vertex -1.05801 32.5438 5.66734
    endloop
  endfacet
  facet normal 0.453993 0.891005 0
    outer loop
      vertex -1.05801 32.5438 5.66734
      vertex -0.556231 32.2881 0.0999994
      vertex -1.05801 32.5438 0.0999994
    endloop
  endfacet
endsolid OpenSCAD_Model
